<svg width="27" height="31" viewBox="0 0 27 31" fill="none" xmlns="http://www.w3.org/2000/svg">
<path d="M8.49411 16.6471V4.24707C8.49411 3.66672 8.72466 3.11013 9.13503 2.69976C9.5454 2.28938 10.102 2.05884 10.6823 2.05884C11.2627 2.05884 11.8193 2.28938 12.2297 2.69976C12.64 3.11013 12.8706 3.66672 12.8706 4.24707V15.1882M12.8706 14.4588V11.5412C12.8706 10.9608 13.1011 10.4042 13.5115 9.99387C13.9219 9.5835 14.4785 9.35296 15.0588 9.35296C15.6392 9.35296 16.1958 9.5835 16.6061 9.99387C17.0165 10.4042 17.2471 10.9608 17.2471 11.5412V15.1882M17.2471 13C17.2471 12.4197 17.4776 11.8631 17.888 11.4527C18.2983 11.0423 18.8549 10.8118 19.4353 10.8118C20.0156 10.8118 20.5722 11.0423 20.9826 11.4527C21.393 11.8631 21.6235 12.4197 21.6235 13V15.1882" stroke="#FADAAB" stroke-opacity="0.5" stroke-linecap="round" stroke-linejoin="round"/>
<path d="M21.6235 14.4589C21.6235 13.8786 21.8541 13.322 22.2645 12.9116C22.6748 12.5012 23.2314 12.2707 23.8118 12.2707C24.3921 12.2707 24.9487 12.5012 25.3591 12.9116C25.7695 13.322 26 13.8786 26 14.4589V21.0236C26 23.3451 25.0778 25.5714 23.4363 27.2129C21.7948 28.8544 19.5685 29.7766 17.2471 29.7766H14.3294H14.6329C13.1833 29.7768 11.7563 29.417 10.4801 28.7296C9.20396 28.0421 8.1185 27.0484 7.32124 25.8377L7.03531 25.4001C6.58015 24.7013 4.98274 21.9164 2.24161 17.044C1.96217 16.5473 1.88753 15.9612 2.03356 15.4103C2.17958 14.8594 2.53476 14.3873 3.02354 14.0942C3.54416 13.7818 4.15423 13.6524 4.75686 13.7264C5.35948 13.8004 5.92009 14.0736 6.34966 14.5027L8.49413 16.6472M4.11766 2.05892L2.65884 0.600098M2.65884 7.89422H1.20001M17.2471 2.05892L18.7059 0.600098M18.7059 6.43539H20.1647" stroke="#FADAAB" stroke-opacity="0.5" stroke-linecap="round" stroke-linejoin="round"/>
</svg>
