<svg width="31" height="31" viewBox="0 0 31 31" fill="none" xmlns="http://www.w3.org/2000/svg">
<path d="M1.45287 12.0937H29.5471V9.99302H1.45287V12.0937ZM28.9333 11.4698V12.392H31V11.4698H28.9333ZM25.5977 28.8993H5.40227V31H25.5977V28.8993ZM2.06667 12.392V11.4698H0V12.392H2.06667ZM5.98507 29.2648C3.40814 24.026 2.0666 18.2492 2.06667 12.392H0C0 18.5765 1.41567 24.6748 4.13747 30.2059L5.98507 29.2648ZM5.40227 28.8993C5.65027 28.8993 5.87553 29.0421 5.98507 29.2648L4.13747 30.2059C4.25512 30.4445 4.43572 30.6451 4.65907 30.7853C4.88243 30.9255 5.13974 30.9999 5.40227 31V28.8993ZM25.0149 29.2648C25.0691 29.1549 25.1523 29.0624 25.2552 28.9979C25.3582 28.9333 25.4768 28.8992 25.5977 28.8993V31C26.1351 31 26.6228 30.6933 26.8625 30.2059L25.0149 29.2648ZM28.9333 12.392C28.9333 18.2488 27.59 24.0257 25.0149 29.2648L26.8625 30.2059C29.5835 24.675 31 18.576 31 12.392H28.9333ZM29.5471 12.0937C29.3843 12.0937 29.2282 12.028 29.1131 11.911C28.998 11.794 28.9333 11.6353 28.9333 11.4698H31C31 11.0781 30.8469 10.7025 30.5745 10.4256C30.302 10.1486 29.9325 9.99302 29.5471 9.99302V12.0937ZM1.45287 9.99302C1.06754 9.99302 0.698 10.1486 0.425535 10.4256C0.153069 10.7025 0 11.0781 0 11.4698H2.06667C2.06667 11.6353 2.002 11.794 1.88689 11.911C1.77178 12.028 1.61566 12.0937 1.45287 12.0937V9.99302ZM8.11993 11.5832L14.3199 1.07976L12.5447 0L6.34467 10.5035L8.11993 11.5832ZM16.6801 1.07976L22.8801 11.5832L24.6533 10.5035L18.4533 0L16.6801 1.07976Z" fill="#FADAAB"/>
</svg>
