<svg width="83" height="97" viewBox="0 0 83 97" fill="none" xmlns="http://www.w3.org/2000/svg">
<path d="M33.4168 78.4811C33.2712 79.4197 33.1816 80.3826 33.1256 81.3334C33.2152 80.3704 33.316 79.4075 33.4168 78.4811Z" fill="#FADAAB" fill-opacity="0.6"/>
<path d="M41.5465 13.9088C41.121 14.0063 41.0874 16.4064 41.2218 16.4186C48.8028 17.0278 57.9404 26.2385 58.6123 34.2552C59.1946 41.1632 55.1073 46.2559 51.02 50.313C47.907 53.3954 44.4244 56.0879 41.5017 59.3774C36.9218 64.5189 34.335 70.1964 33.5288 77.5795C33.4952 77.8841 33.4616 78.1887 33.428 78.4933C34.4134 71.8899 37.4817 65.859 41.6921 61.8872C47.4927 56.4169 54.7266 51.8481 57.7724 43.8557C59.5305 39.2748 60.3704 33.3536 58.6123 28.0051C56.4959 21.5844 48.0862 12.459 41.5465 13.921V13.9088Z" fill="#FADAAB" fill-opacity="0.6"/>
<path d="M35.2645 95.3065C35.2645 95.3065 35.5108 94.6729 35.41 94.4536C33.5624 90.2016 32.8793 85.6937 33.1256 81.3442C32.7225 85.9496 32.7449 90.8595 35.2645 95.3065Z" fill="#FADAAB" fill-opacity="0.6"/>
<path d="M27.9969 93.9906C25.4662 85.7058 25.2198 77.9693 25.6453 69.9039C25.9477 64.1167 25.287 58.9753 23.2937 53.0907C22.0284 49.3504 20.6734 45.6466 20.2927 41.8088C19.7104 35.8755 21.1997 29.9178 23.2489 24.8616C24.6823 21.3163 26.8211 18.0145 30.3821 16.6013C32.868 15.6144 35.5108 16.0165 38.2879 16.2723C38.6014 16.2967 38.8702 14.1524 38.5902 13.9453C31.1435 8.27997 24.8391 17.9171 22.8906 23.3022C20.7518 29.2233 19.2177 35.9364 19.6544 42.747C19.6992 43.4049 19.7776 44.0628 19.8672 44.7085C20.1583 45.9878 20.4382 47.2792 20.6846 48.5707C21.2333 50.6053 21.9388 52.6156 22.6667 54.6624C24.7719 60.5226 25.5109 65.6519 25.1862 71.4755C24.7495 79.3704 25.1414 87.0947 27.7841 95.1845C27.7506 95.0749 28.1089 94.3439 27.9969 93.9784V93.9906Z" fill="#FADAAB" fill-opacity="0.6"/>
<path d="M53.8755 20.305C53.6964 20.3903 53.4836 21.7426 53.6852 21.8157C56.9886 23.0462 60.4264 22.9122 63.797 24.1671C66.9436 25.3367 70.0902 27.0912 72.8226 29.3085C76.1036 31.9767 78.8919 35.4734 80.5604 39.3599C83.1807 45.4882 81.333 51.4093 77.3802 55.0156C72.2403 59.7062 64.6144 60.3154 57.4365 60.0961C50.9193 59.9012 43.6406 59.1336 39.0158 63.7024C38.8478 63.873 38.8814 65.1157 38.859 65.1157C42.8791 63.7512 46.6976 63.1907 51.188 63.3369C55.5104 63.4831 59.8889 63.9339 64.0881 63.41C72.0051 62.4353 79.1718 58.293 81.557 50.3006C83.3711 44.2454 82.2961 37.6786 77.9625 31.7574C72.7106 24.5935 61.5798 16.8449 53.8867 20.2806L53.8755 20.305Z" fill="#FADAAB" fill-opacity="0.6"/>
<path d="M36.9665 2.4805C37.2913 4.52732 37.8512 6.57415 38.1647 8.63315C38.3439 9.8515 38.4559 11.0577 38.5455 12.2638C38.1647 11.3988 37.7616 10.5459 37.3249 9.69311C37.0673 8.76716 36.765 7.85341 36.3618 6.93965C35.8243 5.73349 35.1637 4.56388 34.3798 3.47956C33.8423 2.73637 32.9241 1.99316 32.3306 1.23779C32.3306 1.09159 32.3082 0.957581 32.2634 0.908847C32.185 0.726095 32.073 0.628614 31.9274 0.628614C31.6139 0.567697 31.5579 2.33431 31.6251 2.57797C31.8155 3.21151 32.3642 3.69885 32.7785 4.23492C33.7751 5.47764 34.6709 6.76908 35.4212 8.17018C36.6642 10.5094 37.3361 12.873 37.7392 15.3584C37.784 15.6143 38.0303 14.4934 38.0191 14.2863C37.9856 13.3116 37.8624 12.3491 37.6944 11.3744C38.1087 12.4953 38.4559 13.6405 38.7246 14.8102C38.7246 14.8102 39.0046 13.9086 39.0158 13.7015C39.1166 11.5816 38.9934 9.41289 38.7022 7.24424C38.4447 5.30707 38.2431 2.82165 37.2689 0.981945C37.2353 0.921027 36.9329 2.21247 36.9665 2.46833V2.4805Z" fill="#FADAAB" fill-opacity="0.6"/>
<path d="M41.177 2.8219C41.0314 3.21177 40.9978 3.76003 41.009 4.19864C41.1434 7.65874 41.2554 11.0457 41.0426 14.4449C40.9866 15.3709 41.2442 14.9444 41.3114 14.3109C41.6585 11.2163 41.8601 7.95114 41.6249 4.68597C41.6361 4.61287 41.6473 4.53976 41.6361 4.49103C41.6137 4.39356 41.6025 4.28391 41.5913 4.18644C41.5465 3.66255 41.4905 3.13867 41.4233 2.62696C41.3897 2.21273 41.1994 2.761 41.177 2.8341V2.8219Z" fill="#FADAAB" fill-opacity="0.6"/>
<path d="M44.2676 6.44031C44.2004 6.41594 44.1332 6.65967 44.1332 6.67186C43.4278 8.85323 43.1702 11.2661 43.159 13.6791C43.159 14.1056 43.2486 13.935 43.3718 13.7522C43.5733 13.4597 43.5509 12.7651 43.5509 12.3873C43.5621 10.4862 44.0996 8.84104 44.346 7.02526C44.346 6.97651 44.4244 6.48906 44.3348 6.46469C44.3124 6.46469 44.29 6.4525 44.2788 6.44031H44.2676Z" fill="#FADAAB" fill-opacity="0.6"/>
<path d="M46.0817 7.30539C46.0593 8.13426 46.0369 8.96313 46.0257 9.792C46.0257 9.95047 46.0705 9.71887 46.0817 9.6823C46.1041 8.86562 46.1153 8.03674 46.1377 7.22006C46.1377 7.08597 46.0929 7.281 46.0929 7.31757L46.0817 7.30539Z" fill="#FADAAB" fill-opacity="0.6"/>
<path d="M22.9802 59.037C23.3274 59.6463 23.6745 60.2556 24.0216 60.8649C24.0216 60.8649 24.2568 60.2191 24.1672 60.0119C23.6073 58.5373 22.969 57.0749 22.2859 55.6248C22.5883 56.7459 22.8235 57.8793 22.969 59.037H22.9802Z" fill="#FADAAB" fill-opacity="0.6"/>
<path d="M1.98396 24.9469C1.63682 24.021 1.37927 23.0829 1.23369 22.1082C-0.0428781 13.3727 8.22125 8.65766 15.3544 8.71858C21.5917 8.77949 27.0563 11.8741 33.0248 14.4326C33.1368 14.4814 33.4168 13.1412 33.2152 12.9828C22.0732 4.12541 3.4173 3.46751 0.931344 18.1242C0.494621 20.6827 0.729781 23.0707 1.45765 25.3612C1.62562 25.215 1.80479 25.0688 1.98396 24.9469Z" fill="#FADAAB" fill-opacity="0.6"/>
<path d="M9.91214 11.5818C9.91214 11.5818 9.90094 11.6671 9.91214 11.6671C14.4809 11.8499 18.8258 12.4472 23.4057 13.8855C23.4169 13.8855 23.4505 13.7393 23.4281 13.7271C19.0833 11.5939 14.2906 11.6671 9.92333 11.5696L9.91214 11.5818Z" fill="#FADAAB" fill-opacity="0.6"/>
<path d="M11.3679 10.1074C11.3007 10.1074 11.3231 10.4365 11.3231 10.4365C15.0408 10.3756 18.557 11.7042 22.2748 12.6184C22.3196 12.6184 22.3755 12.2284 22.3307 12.2162C18.781 10.8388 14.9065 9.96116 11.3679 10.1196V10.1074Z" fill="#FADAAB" fill-opacity="0.6"/>
<path d="M45.0179 19.2816C45.0179 19.2816 44.8611 19.8177 44.9395 19.8664C48.6012 22.23 52.4198 24.0453 54.6146 28.2243C57.1341 33.0367 56.9438 38.6533 54.8385 42.7226C53.1252 46.0487 50.1802 48.0589 47.515 50.4469C44.7155 52.9567 42.1288 55.6858 39.7772 58.6707C39.7324 58.7316 39.766 58.9509 39.7548 58.9631C43.0246 55.4177 46.496 52.1404 50.2026 49.0823C53.2148 46.5969 55.3984 43.5876 56.2495 39.4574C56.899 36.3628 56.8766 32.9149 55.7792 29.601C54.0771 24.4474 49.7322 21.1457 45.0067 19.2938L45.0179 19.2816Z" fill="#FADAAB" fill-opacity="0.6"/>
<path d="M49.5083 25.2759C55.0849 30.8072 54.6258 38.2878 51.3112 43.5633C48.5789 47.9128 44.5364 51.117 41.3226 55.0401C41.2778 55.0888 41.3226 55.2959 41.3002 55.3081C45.7682 50.2398 51.7815 46.2192 53.5956 39.0066C54.749 34.4013 53.9427 28.3461 49.5867 24.6545C49.5867 24.6545 49.3851 25.1784 49.5083 25.2881V25.2759Z" fill="#FADAAB" fill-opacity="0.6"/>
<path d="M26.082 23.753C24.5255 26.3237 23.6633 29.5279 23.1034 32.6347C21.95 39.031 22.4315 45.8903 24.5927 52.6278C24.5815 52.5912 24.6935 52.3841 24.6599 52.2744C22.5099 45.2933 21.9948 38.0442 23.4729 31.526C24.1896 28.3583 25.2422 24.8007 27.5602 22.7174C29.8558 20.6584 33.2936 20.2929 35.9587 18.8187C36.0483 18.7699 36.0259 18.2217 36.0259 18.2217C32.3417 18.8674 28.0417 20.5244 26.0932 23.753H26.082Z" fill="#FADAAB" fill-opacity="0.6"/>
<path d="M24.6375 42.3692C24.4584 45.3542 24.8727 48.729 26.3284 51.6652C26.3284 51.6652 26.4292 51.3972 26.3956 51.3119C25.2982 48.2417 24.5927 45.3298 24.7047 42.2474C24.7047 42.0768 24.6487 42.3205 24.6487 42.3692H24.6375Z" fill="#FADAAB" fill-opacity="0.6"/>
<path d="M26.0709 44.672C26.2052 47.9615 26.8771 51.2876 27.9297 54.565C27.9185 54.5284 28.0417 54.2726 28.0081 54.1507C27.0003 50.8734 26.4404 47.6204 26.1604 44.343C26.1604 44.2699 26.0709 44.5989 26.0709 44.672Z" fill="#FADAAB" fill-opacity="0.6"/>
<path d="M28.2433 47.6325C28.3329 49.6189 28.68 51.6419 29.1503 53.6405C29.1503 53.6039 29.2287 53.4211 29.2063 53.3114C28.7584 51.3129 28.5232 49.3508 28.3217 47.3644C28.3217 47.3035 28.2433 47.5838 28.2545 47.6447L28.2433 47.6325Z" fill="#FADAAB" fill-opacity="0.6"/>
<path d="M30.2925 51.0202V50.9464C30.2813 50.9587 30.2925 51.0202 30.2925 51.0202Z" fill="#FADAAB" fill-opacity="0.6"/>
<path d="M31.054 48.656C31.1436 50.3865 31.3004 52.117 31.3899 53.8474C31.3899 54.0181 31.4795 53.6281 31.4683 53.5672C31.4347 51.8367 31.4011 50.0575 31.1436 48.2904C31.1324 48.2051 31.0428 48.5829 31.054 48.656Z" fill="#FADAAB" fill-opacity="0.6"/>
<path d="M32.9688 52.3725V52.2987C32.9576 52.311 32.9688 52.3725 32.9688 52.3725Z" fill="#FADAAB" fill-opacity="0.6"/>
<path d="M33.8982 54.9189V54.8451C33.887 54.8574 33.8982 54.9189 33.8982 54.9189Z" fill="#FADAAB" fill-opacity="0.6"/>
<path d="M48.3885 30.3686C51.0648 36.6187 48.478 43.5267 45.0627 47.7665C42.5767 50.8611 39.4525 53.4075 38.0863 57.4036C38.0751 57.4524 38.0639 57.6839 38.0863 57.6473C40.4379 51.9089 45.9585 48.8752 48.1421 42.9541C49.4411 39.4209 50.6169 34.048 48.4557 30.0031C48.4557 30.0031 48.3437 30.2833 48.3885 30.3807V30.3686Z" fill="#FADAAB" fill-opacity="0.6"/>
<path d="M44.8275 21.0604C44.8275 21.0604 44.738 21.3528 44.7827 21.4137C46.9216 23.9479 49.1164 26.2749 50.4041 29.3573C51.9495 33.0611 51.3 36.6552 51.0872 40.2372C51.076 40.4565 51.1544 40.1762 51.1544 40.1153C51.412 36.8745 52.0726 33.4022 51.0536 29.9909C50.0682 26.7257 47.6606 23.0829 44.8275 21.0482V21.0604Z" fill="#FADAAB" fill-opacity="0.6"/>
<path d="M42.7111 21.5599C44.1444 22.9614 45.6002 24.5578 46.1265 26.4954C46.1265 26.4711 46.1937 26.3126 46.1713 26.2517C45.7793 24.1678 44.2676 22.742 42.7447 21.3284C42.7447 21.3284 42.6663 21.5112 42.7111 21.5599Z" fill="#FADAAB" fill-opacity="0.6"/>
<path d="M31.8043 18.5143C30.1246 18.88 28.3553 19.1481 27.381 20.6231C27.3474 20.6718 27.381 20.8425 27.3586 20.8547C28.4337 19.5016 30.5613 19.3432 32.2522 19.0263C33.8647 18.7337 35.4996 18.7093 37.1681 18.6362C37.2465 18.6362 37.2689 18.1608 37.2353 18.1486C35.3764 17.7342 33.5175 18.1486 31.8043 18.5143Z" fill="#FADAAB" fill-opacity="0.6"/>
<path d="M63.2706 25.8851C63.2706 25.8851 63.0803 26.4821 63.1811 26.5309C72.5426 31.7332 76.8874 43.9532 70.6165 51.3851C67.9402 54.565 64.1889 55.4056 60.1016 56.0879C55.5776 56.8433 51.132 57.8789 46.9216 59.4505C46.888 59.4627 46.9104 59.6211 46.8992 59.6211C52.375 58.2931 57.9516 57.3915 63.4834 56.2219C67.985 55.2716 71.4564 52.2623 72.9793 47.8275C75.5997 40.2007 71.4676 29.9544 63.2706 25.8973V25.8851Z" fill="#FADAAB" fill-opacity="0.6"/>
<path d="M69.9334 27.9683C69.9334 27.9683 69.8998 28.0293 69.8774 28.1267C68.0522 26.6038 65.9693 25.4829 63.7073 24.9834C63.6513 24.9834 63.5954 25.3976 63.6513 25.422C66.966 27.018 69.8662 28.7968 72.3858 31.7818C75.1629 35.0713 77.1113 39.3111 77.1785 43.356C77.2681 48.132 75.1069 52.384 71.6243 54.845C68.6345 56.965 64.5584 57.4767 60.7175 57.4401V57.4767C65.387 57.6472 69.6647 57.4036 72.9681 54.309C75.4205 52.0063 76.9098 48.6924 77.2681 45.0495C77.7496 40.1152 75.566 34.1819 71.7923 29.9908C73.8191 31.6965 75.566 33.6458 76.7754 36.1312C78.1864 39.0187 78.8806 42.5032 78.9254 45.5003C79.0038 49.9229 76.4843 52.981 73.472 55.2471C71.1204 57.0137 68.5113 58.6219 65.3647 58.8168C65.3311 58.8168 65.3423 58.9752 65.3423 58.9752C69.06 59.0483 72.285 57.0381 74.827 54.7598C76.9994 52.8104 78.6231 50.2763 78.9926 47.072C79.7317 40.5051 76.809 31.2823 69.9334 27.9805V27.9683Z" fill="#FADAAB" fill-opacity="0.6"/>
<path d="M56.8878 23.9236C56.8878 23.9236 56.731 24.4596 56.8094 24.5206C59.9561 26.409 62.9459 28.1756 65.4655 31.0631C67.7835 33.7313 69.4632 36.8868 70.0567 40.2129C71.6244 48.9849 63.8082 53.8583 57.0446 55.5275C56.9998 55.5275 57.0222 55.7346 57.0222 55.7346C63.4946 54.6259 70.0343 50.5322 70.4486 43.0882C70.8965 35.1567 64.4913 26.6405 56.8766 23.9236H56.8878Z" fill="#FADAAB" fill-opacity="0.6"/>
<path d="M58.0076 26.7866C57.9516 26.7623 57.8508 27.3349 57.9292 27.3836C61.6021 29.333 64.648 33.4754 66.3613 37.301C68.0186 40.9926 67.0108 44.8791 65.2527 47.7056C64.2225 49.3626 62.8899 50.7515 61.3446 51.8846C61.2998 51.9211 61.3222 52.1526 61.3222 52.1526C64.872 49.7646 67.5819 45.5735 67.4923 40.6758C67.4475 38.1538 66.3501 35.778 64.8831 33.5485C63.1251 30.8559 61.0422 27.8222 58.0076 26.811V26.7866Z" fill="#FADAAB" fill-opacity="0.6"/>
<path d="M59.161 24.5334V24.4596C59.1498 24.4719 59.161 24.5334 59.161 24.5334Z" fill="#FADAAB" fill-opacity="0.6"/>
<path d="M59.4521 32.4154C61.2998 34.8887 62.7891 37.2766 63.3826 40.2372C64.4128 45.4273 61.9493 48.729 59.1274 51.8846C59.0826 51.9333 59.1162 52.116 59.105 52.1282C61.6469 49.5819 63.6402 46.8893 63.7745 42.8322C63.8865 39.2503 62.5988 34.6206 59.5305 31.9768C59.5305 31.9768 59.4073 32.3423 59.4633 32.4154H59.4521Z" fill="#FADAAB" fill-opacity="0.6"/>
<path d="M55.9695 23.7044C55.9695 23.7044 55.9695 23.8507 55.9583 23.8629C58.0971 22.9121 61.0198 25.1062 63.1362 26.1545C63.1586 26.1545 63.2258 25.8619 63.181 25.8254C61.4453 24.3748 57.6716 22.1808 55.9695 23.7166V23.7044Z" fill="#FADAAB" fill-opacity="0.6"/>
<path d="M45.7569 17.9784C44.2116 17.247 42.6551 17.1617 41.1098 17.1983C41.065 17.1983 41.065 17.4421 41.0762 17.4543C42.6439 17.6493 44.1556 17.7834 45.6785 18.5391C47.1791 19.2827 48.5564 20.3797 50.057 21.1598C50.0794 21.1598 50.1689 20.8063 50.113 20.7697C48.7692 19.7458 47.2463 18.6854 45.7569 17.9784Z" fill="#FADAAB" fill-opacity="0.6"/>
<path d="M43.9429 14.4692C43.9429 13.129 44.3908 11.7279 44.5924 10.4365L45.3091 6.03825C45.3203 5.96515 45.3426 5.19759 45.2419 5.56309C44.4916 8.30437 43.9205 11.2162 42.9575 13.8478C42.3864 15.4195 42.7559 13.1656 42.8231 12.4346C42.8903 11.7279 43.0247 11.0335 43.1254 10.339C43.2262 9.62018 43.3382 8.90137 43.439 8.18255C43.5286 7.81704 43.5846 7.47589 43.5846 7.19567C43.6406 6.84235 43.6853 6.50121 43.7413 6.14789C43.7861 5.81894 43.7189 5.45345 43.6182 5.98952C43.0695 8.76735 42.6663 11.6792 41.8825 14.3717C41.3562 16.1992 41.7257 14.1159 41.7593 13.6285C41.8041 12.8732 41.8601 12.1178 41.9049 11.3624C42.0056 9.85168 42.1064 8.34093 42.2072 6.83018C42.2296 6.4525 42.14 6.42812 42.0728 6.78144L41.4009 10.2537L41.065 11.996C41.009 12.3005 40.9978 13.0925 40.8746 12.8732C40.5051 12.2031 40.8298 10.4487 40.7963 9.71766C40.7403 8.63333 40.6619 7.549 40.5611 6.46468C40.5387 6.26974 40.4043 6.85455 40.4043 6.90328C40.3259 7.68302 40.2588 8.46276 40.2252 9.2425C40.1804 8.75516 40.1468 8.25564 40.1468 7.79267C40.1468 7.43935 40.0572 7.64647 40.0124 7.85359C39.7548 9.19377 39.6093 10.5461 39.6317 11.9594C39.6317 12.5929 39.5645 13.6285 39.8108 14.2621C39.8108 14.2743 39.8108 14.2743 39.8108 14.2865C39.822 14.4205 39.8332 14.5423 39.8556 14.6763C39.5085 14.5301 39.1501 14.3961 38.803 14.2499C38.7358 14.2255 38.5679 15.0175 38.691 15.0784C38.8478 15.1637 39.0158 15.2489 39.1725 15.3342C38.8702 15.2489 38.5679 15.1515 38.2655 15.0418C38.2655 15.0418 38.2543 15.0662 38.2431 15.0784C37.9744 14.591 37.7056 14.1159 37.4257 13.6407C37.1793 13.0803 36.7874 12.5077 36.5186 11.9594C36.485 11.8863 36.3395 11.6426 36.1827 11.3502C36.429 11.6548 36.6754 11.9229 36.821 12.1056C36.821 12.1056 37.0449 11.6061 36.9329 11.4599C36.4066 10.7532 35.8803 10.0466 35.354 9.33997C35.3428 9.31561 35.1861 9.85168 35.242 9.98569C35.3204 10.1928 35.4212 10.3877 35.5108 10.5949C34.0439 8.42621 32.4089 6.37938 30.6173 4.41785C30.6285 4.43003 30.4605 4.92956 30.5165 5.05139C31.4795 6.83018 32.4537 8.59678 33.4392 10.3634C31.9274 8.43839 30.4157 6.5134 28.9152 4.58841C28.96 4.64933 28.6688 5.17323 28.8032 5.3438C30.4381 7.57337 31.8938 9.90041 33.3944 12.2153C33.3944 12.2153 33.5511 11.8376 33.484 11.7157C33.2376 11.2528 32.9801 10.7898 32.7113 10.339C33.5288 11.3868 34.3462 12.4346 35.1749 13.4702C35.1413 13.4214 35.3876 12.8853 35.2868 12.7148C34.1334 10.6558 32.9912 8.60895 31.8267 6.54995C33.8087 8.87699 35.6004 11.3624 37.1457 13.994C37.4704 14.591 37.7952 15.1758 38.1423 15.7606C38.1423 15.7606 38.1983 15.6266 38.2319 15.4682C39.4637 15.98 40.7067 16.4064 41.9608 16.7475C42.0504 16.7719 42.1736 16.0043 42.0616 15.9434C41.9497 15.8825 41.8265 15.8216 41.7145 15.7606C42.0392 14.8347 42.196 13.8113 42.3976 12.8244C42.5991 11.7888 42.8119 10.7533 43.0135 9.70548C43.0359 9.59583 43.0694 9.4618 43.1142 9.3156C42.9687 10.339 42.8119 11.3624 42.6663 12.3858C42.5096 13.5554 42.3976 14.7007 42.4872 15.9312C42.4872 16.0774 42.5655 15.9312 42.5879 15.8825C43.2822 13.3727 44.1893 10.8507 44.7827 8.26782C44.682 8.88918 44.5812 9.51054 44.4804 10.1441C44.2004 11.862 43.9205 13.5676 43.6517 15.2855C43.6405 15.3586 43.5958 16.0043 43.6853 15.8338C45.0403 13.1899 46.0705 10.3877 46.7312 7.37844C46.7648 7.23223 46.7872 6.42811 46.6752 6.92763C46.2609 8.66987 45.7682 10.3634 45.1187 11.9838C44.9171 12.5077 44.682 13.0194 44.458 13.5311C44.3236 13.8357 44.1781 14.1403 44.0213 14.4448C43.8533 14.9687 43.8309 14.9809 43.9317 14.4814L43.9429 14.4692ZM39.878 12.7026C39.8332 12.2518 39.7996 11.8132 39.7996 11.3624C39.7996 10.4852 39.8444 9.63237 39.9676 8.8039C39.9676 8.9501 39.9676 9.08412 39.9676 9.23033C40.1244 10.6436 40.1356 12.0203 40.3035 13.4458C40.1804 13.1534 40.046 12.861 39.9228 12.5808C39.9228 12.5686 39.8892 12.6173 39.8668 12.7026H39.878ZM40.1132 14.5057C40.0796 14.3352 40.0684 14.1646 40.046 14.0062C40.0572 14.0062 40.0572 14.0062 40.0796 14.0062C40.1356 14.0062 40.3259 14.457 40.5163 14.9322C40.3819 14.8834 40.2364 14.8225 40.102 14.7616C40.1132 14.6641 40.1244 14.5667 40.1132 14.5179V14.5057ZM41.4569 15.6144C41.3226 15.5413 41.1882 15.4683 41.0538 15.3951C41.0538 15.2733 41.0538 15.1758 41.0538 15.1393C40.841 14.6398 40.6171 14.1524 40.4043 13.6529C40.4603 13.4823 40.5163 13.1656 40.5051 13.0559C40.4491 12.4711 40.4155 11.8985 40.3931 11.3137C40.3931 11.2406 40.3931 11.1675 40.3819 11.1066C40.3595 10.473 40.3483 9.83949 40.3707 9.20595C40.3931 8.45058 40.4379 6.34283 40.4827 8.2069C40.5275 10.1806 40.6955 12.1665 40.6955 14.1281C40.6955 14.4448 40.8187 14.055 40.8299 13.9697C41.0538 12.8123 41.2778 11.6548 41.5017 10.4974C41.6361 9.80294 41.7929 9.10847 41.9049 8.41402C41.9385 8.18253 42.028 7.15913 41.9608 8.12163C41.7929 10.6192 41.6249 13.129 41.4569 15.6266V15.6144Z" fill="#FADAAB" fill-opacity="0.6"/>
<path d="M23.9544 52.5913C24.3128 54.273 24.8951 55.9303 25.6117 57.5511C25.6117 57.5268 25.7125 57.2952 25.6789 57.1977C25.0182 55.5891 24.5143 53.9805 24.0104 52.3353C24.0104 52.3597 23.9432 52.5303 23.9544 52.5913Z" fill="#FADAAB" fill-opacity="0.6"/>
<path d="M25.7909 53.6878C26.25 55.6498 26.7763 57.6362 27.381 59.586C27.381 59.5738 27.4146 59.4764 27.4034 59.4276C26.9443 57.429 26.4404 55.4061 25.8245 53.4197C25.8245 53.4441 25.7573 53.6147 25.7797 53.6878H25.7909Z" fill="#FADAAB" fill-opacity="0.6"/>
<path d="M26.9331 53.5293C27.269 55.0161 27.6497 56.4907 28.0305 57.9652C28.0305 57.9409 28.0753 57.8555 28.0641 57.7946C27.7169 56.3079 27.3698 54.8211 26.9667 53.3466C26.9667 53.3587 26.9219 53.4684 26.9331 53.5172V53.5293Z" fill="#FADAAB" fill-opacity="0.6"/>
<path d="M28.2097 52.4816C28.5568 54.0415 28.9263 55.6014 29.2063 57.1734C29.2063 57.2343 29.3071 56.8931 29.2959 56.7956C29.0271 55.2723 28.736 53.7246 28.2545 52.2257C28.2545 52.2501 28.1985 52.4085 28.2097 52.4816Z" fill="#FADAAB" fill-opacity="0.6"/>
<path d="M30.2477 51.1658C30.4828 53.6397 30.8076 56.1135 31.1099 58.5874C31.1099 58.6239 31.1771 58.4046 31.1659 58.3436C30.886 55.8942 30.6396 53.4447 30.2925 50.983C30.2925 50.9586 30.2477 51.1171 30.2477 51.1658Z" fill="#FADAAB" fill-opacity="0.6"/>
<path d="M32.644 52.177C32.8568 53.9806 32.9688 55.7355 32.8344 57.4903C32.8232 57.6731 32.8792 57.5269 32.8792 57.4294C33.0248 55.6502 33.0136 53.7856 32.6888 51.9333C32.6888 51.8967 32.6217 52.1161 32.6329 52.177H32.644Z" fill="#FADAAB" fill-opacity="0.6"/>
<path d="M34.5142 52.1039C34.3686 53.3228 34.2454 54.5661 34.1223 55.7972C34.0887 56.1751 34.2007 55.8582 34.2231 55.6875C34.3462 54.4808 34.4806 53.2862 34.5814 52.0795C34.6038 51.8601 34.5366 51.9576 34.5142 52.1161V52.1039Z" fill="#FADAAB" fill-opacity="0.6"/>
<path d="M35.4996 55.8204V55.7466C35.4884 55.7589 35.4996 55.8204 35.4996 55.8204Z" fill="#FADAAB" fill-opacity="0.6"/>
<path d="M37.84 51.8358C37.0785 54.0537 36.5522 56.4057 36.1155 58.7699C36.1043 58.843 36.1155 59.172 36.1491 58.9405C36.6306 56.6129 37.2353 54.3462 37.84 52.0673C37.8512 52.0186 37.8736 51.7017 37.84 51.8236V51.8358Z" fill="#FADAAB" fill-opacity="0.6"/>
<path d="M38.4559 54.0653C37.9184 55.6374 37.56 57.2947 37.2353 58.9643C37.2017 59.1471 37.2353 59.537 37.3025 59.1471C37.6272 57.5263 38.0415 55.9542 38.4671 54.37C38.4783 54.3212 38.5119 53.9191 38.4671 54.0775L38.4559 54.0653Z" fill="#FADAAB" fill-opacity="0.6"/>
<path d="M38.579 59.5611C38.5566 59.6586 38.5454 60.1583 38.6126 59.8536C38.9261 58.379 39.4076 57.002 39.8779 55.6005C39.9003 55.5518 39.9003 55.2715 39.8779 55.3202C39.2397 56.612 38.8813 58.1109 38.5678 59.5733L38.579 59.5611Z" fill="#FADAAB" fill-opacity="0.6"/>
<path d="M39.9676 59.0368V58.963C39.9564 58.9753 39.9676 59.0368 39.9676 59.0368Z" fill="#FADAAB" fill-opacity="0.6"/>
<path d="M33.9543 95.4282C33.9543 95.4282 34.055 95.1601 34.0214 95.0383C32.2522 88.5567 32.0394 82.0751 33.316 76.0321C34.5253 70.3059 37.0337 65.4812 39.766 60.6444C39.8556 60.4982 39.7772 59.9865 39.8108 59.95C33.2824 69.1485 30.2141 82.7452 33.9543 95.4404V95.4282Z" fill="#FADAAB" fill-opacity="0.6"/>
<path d="M38.0192 59.4017C37.2913 62.9836 35.1301 65.8711 33.9319 69.2215C32.9801 71.9262 32.297 74.765 31.9051 77.7134C31.1212 83.5493 31.4235 89.7872 33.0361 95.9155C33.0249 95.8667 33.148 95.5865 33.1145 95.4403C31.4459 88.2277 31.1324 81.0638 32.6329 74.3751C33.3048 71.3902 34.3238 68.5758 35.634 65.932C36.653 63.8852 37.728 61.9602 38.0528 59.5478C38.064 59.4504 38.0528 59.158 37.9968 59.4017H38.0192Z" fill="#FADAAB" fill-opacity="0.6"/>
<path d="M36.6642 58.8534C36.5186 63.0445 34.0326 66.1269 33.1592 69.989C33.1368 70.0865 33.1256 70.586 33.1928 70.2814C34.1222 66.2853 36.9217 63.0932 36.7313 58.6462C36.7313 58.4879 36.6642 58.8168 36.6642 58.8534Z" fill="#FADAAB" fill-opacity="0.6"/>
<path d="M33.092 64.6781C33.0248 64.7636 33.0808 65.0448 33.0584 65.0814C33.1368 64.9714 33.2152 64.8492 33.2824 64.7269C33.316 64.678 33.2936 64.4336 33.3048 64.4336C33.2264 64.5069 33.1592 64.5925 33.092 64.6781Z" fill="#FADAAB" fill-opacity="0.6"/>
<path d="M32.5657 17.2238C32.5097 17.2238 32.5321 17.5049 32.5321 17.5049C33.7974 17.3093 35.0852 17.2727 36.4066 17.3704C37.7391 17.4805 39.0829 17.9449 40.4043 18.0794C40.4379 18.0794 40.4715 17.8227 40.4379 17.7983C38.0415 16.5271 34.8501 16.7715 32.5769 17.2238H32.5657Z" fill="#FADAAB" fill-opacity="0.6"/>
<path d="M17.5044 13.7751C15.7799 13.3728 14.0778 12.9462 12.3981 13.129C12.3533 13.129 12.3645 13.3606 12.3645 13.3606C15.9703 13.0315 20.0688 14.8721 23.7641 15.445C23.7753 15.445 23.7865 15.3475 23.7753 15.3475C21.6925 14.7014 19.5984 14.2626 17.5044 13.7751Z" fill="#FADAAB" fill-opacity="0.6"/>
<path d="M17.3252 15.0662C17.3252 15.0662 17.2805 15.3346 17.2917 15.3346C18.9826 15.5298 20.6175 16.0179 22.2972 16.3718C22.3308 16.3718 22.3532 16.1399 22.3308 16.1277C20.7294 15.4566 18.949 15.237 17.3252 15.0662Z" fill="#FADAAB" fill-opacity="0.6"/>
<path d="M15.8694 8.85251C15.8694 8.85251 15.7911 9.20602 15.8247 9.20602C17.7059 9.55951 19.576 10.0227 21.446 10.5834C23.3049 11.1441 25.1526 11.9974 27.0227 12.4484C27.0451 12.4484 27.0898 12.2168 27.0563 12.2046C23.6745 10.2299 19.464 9.47418 15.8806 8.84033L15.8694 8.85251Z" fill="#FADAAB" fill-opacity="0.6"/>
<path d="M2.93578 23.9723C2.93578 23.9723 3.01417 23.753 3.00297 23.6799C2.56625 18.7456 4.08918 14.786 6.97826 11.5939C7.01186 11.5573 6.98946 11.3746 7.00066 11.3624C3.74204 14.2865 2.42067 19.0989 2.93578 23.9601V23.9723Z" fill="#FADAAB" fill-opacity="0.6"/>
<path d="M25.5446 14.4576C25.2646 14.4088 25.0071 14.2867 24.7607 14.1158C24.7607 14.1158 24.6152 14.5065 24.7047 14.5675C25.2198 14.9215 25.8805 15.1168 26.2949 14.7506C26.3172 14.7384 26.3508 14.5431 26.3172 14.5309C26.0485 14.4454 25.8133 14.5065 25.5446 14.4576Z" fill="#FADAAB" fill-opacity="0.6"/>
<path d="M34.4694 94.6124C34.6261 94.905 34.7829 95.1975 34.9397 95.4901C34.3014 95.2219 33.7191 94.8684 33.1256 94.3686C33.1032 94.3564 33.036 94.6612 32.9912 94.9294C32.6777 95.1122 32.1402 94.4783 31.905 94.3077C31.4907 94.003 31.166 93.8689 30.7068 93.8445C30.6061 93.8445 30.5613 94.137 30.5501 94.393C30.1805 94.2102 29.2623 93.5885 29.1727 93.5276C29.0831 93.4666 29.0159 94.3077 29.0271 94.3808C28.8256 94.3443 28.6464 94.2467 28.4896 94.0883C28.4784 94.0883 28.2769 94.71 28.3889 94.8197L28.9936 95.3925L29.0831 95.1975C29.1391 94.9781 29.1615 94.7587 29.1839 94.5393C29.6542 94.8684 30.1357 95.1975 30.6061 95.5144C30.6509 95.5388 30.6956 95.3072 30.7068 95.295C30.7404 95.1244 30.774 94.9659 30.7852 94.8075C31.3675 94.905 31.6363 95.2707 32.185 95.6363C32.5769 95.8923 32.8233 96.0264 33.0808 95.6851C33.1256 95.6241 33.148 95.551 33.1816 95.4779C33.9431 96.0995 34.7157 96.5018 35.6228 96.7456C35.7571 96.7821 35.8355 95.9045 35.7683 95.7826C35.3876 95.0634 35.0069 94.3565 34.6261 93.6373C34.6485 93.6739 34.3126 94.3321 34.4582 94.6002L34.4694 94.6124Z" fill="#FADAAB" fill-opacity="0.6"/>
<path d="M25.1191 58.3295C26.5188 63.739 26.5972 68.7098 26.4964 74.0218C26.4292 78.0911 26.4628 82.1969 27.5714 86.3637C27.5714 86.3515 27.605 86.2784 27.5938 86.2418C26.1605 80.8567 26.5524 75.63 26.6532 70.3912C26.7316 66.5046 26.81 62.0333 25.1527 58.1102C25.1527 58.1102 25.0967 58.2808 25.1079 58.3417L25.1191 58.3295Z" fill="#FADAAB" fill-opacity="0.6"/>
<path d="M26.2612 59.3164C26.53 60.3036 26.9219 61.2663 27.1795 62.2534C27.4594 63.3624 27.6274 64.4713 27.7058 65.5803C27.7058 65.7022 27.7618 65.4341 27.7618 65.3853C27.717 64.3373 27.605 63.2771 27.381 62.2168C27.1683 61.1932 26.9219 59.9014 26.3284 58.9874C26.3284 58.9874 26.25 59.2555 26.2724 59.3286L26.2612 59.3164Z" fill="#FADAAB" fill-opacity="0.6"/>
<path d="M27.6274 57.0632V56.9894C27.6162 57.0017 27.6274 57.0632 27.6274 57.0632Z" fill="#FADAAB" fill-opacity="0.6"/>
<path d="M25.4326 20.9508C23.9096 23.4362 22.801 26.3359 22.1404 29.3208C20.7966 35.3882 21.9836 42.3449 22.5211 48.79C22.5211 48.8143 22.5659 48.6438 22.5659 48.595C22.0732 41.6748 20.7294 34.2307 22.6555 27.8953C23.4841 25.1906 24.6375 22.425 26.3508 20.3294C27.1795 19.3182 28.1761 18.4532 29.3967 17.9658C30.4829 17.5394 31.6363 17.6003 32.7897 17.4176C32.8568 17.4176 32.9016 16.9912 32.8456 16.9668C29.7102 15.5657 26.7203 18.8187 25.4214 20.9508H25.4326Z" fill="#FADAAB" fill-opacity="0.6"/>
<path d="M9.91213 10.3642C9.84494 10.3642 9.84494 10.7186 9.86734 10.7186C10.3936 10.7553 10.9535 10.682 11.3343 10.3519C11.3679 10.3153 11.3567 10.0708 11.3679 10.0708C10.8752 10.2297 10.4832 10.4008 9.92332 10.3519L9.91213 10.3642Z" fill="#FADAAB" fill-opacity="0.6"/>
<path d="M23.3722 12.9827C23.2826 12.9827 23.305 13.4342 23.3162 13.4342C24.6935 13.422 25.9701 13.8734 27.3363 14.2883C27.3922 14.3005 27.4706 13.8002 27.4034 13.7636C26.1381 13.0681 24.6599 12.9583 23.3722 12.9949V12.9827Z" fill="#FADAAB" fill-opacity="0.6"/>
<path d="M46.5072 58.647C46.384 57.9524 46.384 57.27 46.5968 56.551C46.6416 56.4169 46.6416 55.7345 46.5968 55.8442C46.384 56.4535 46.2497 57.0872 46.2049 57.7331C46.0929 57.27 45.9921 56.7947 45.9249 56.295C45.9249 56.2219 45.8801 56.2097 45.8577 56.2707C45.6673 56.6728 45.6002 57.0506 45.6002 57.4284C45.5778 57.4528 45.5666 57.4771 45.5442 57.5015C45.5442 57.404 45.5442 57.3187 45.5442 57.2212C45.5666 56.7216 45.3986 57.3431 45.3874 57.5015C45.3874 57.5746 45.3874 57.6356 45.3874 57.7087C45.365 57.7452 45.3426 57.7696 45.3202 57.8062C45.2418 57.6599 45.1634 57.5259 45.0851 57.3796C45.0515 57.3065 45.0067 57.4528 45.0067 57.465C44.9619 57.599 44.9059 57.7209 44.8611 57.8427C44.8387 57.794 44.8051 57.7452 44.7827 57.6965C44.7827 57.6843 44.7155 57.9037 44.6707 58.1108C44.6707 58.1108 44.6707 58.0865 44.6595 58.0865C44.6595 58.0865 44.5924 58.2936 44.5476 58.513C44.3684 58.8298 44.1668 59.1223 43.9205 59.4026C43.8421 59.5001 43.8421 59.9144 43.8421 60.1216C43.8309 60.146 43.8085 60.1703 43.7973 60.1947C43.5845 59.951 43.3942 59.6951 43.1814 59.366C43.1814 59.366 42.9798 59.8413 43.0694 59.9997C43.0806 60.0241 43.0918 60.0363 43.103 60.0607C43.0694 60.0607 43.047 60.0363 43.0246 60.0363C42.9686 60.0241 42.9238 60.2435 42.9015 60.4628C42.8119 60.4141 42.7223 60.3775 42.6103 60.3288C42.5431 60.3044 42.3751 61.0965 42.4983 61.1818C42.6327 61.2793 42.7671 61.3646 42.9127 61.4621C42.7783 61.6083 42.6439 61.7546 42.4871 61.9008C42.3527 62.0227 42.4199 62.5101 42.4199 62.6686V62.7173C42.5655 62.5833 42.7223 62.4248 42.8679 62.2542C42.9574 62.1567 43.0358 62.0593 43.1142 61.9618C43.1814 61.8886 43.2374 61.8033 43.3046 61.7302C43.3382 61.7546 43.3718 61.7668 43.3942 61.7912C43.4166 61.7912 43.4278 61.7668 43.4502 61.7058C43.5845 61.8155 43.7301 61.9252 43.8869 62.0714C43.8869 62.0714 43.9765 61.8277 44.0213 61.5962C44.234 61.7424 44.4468 61.8886 44.6595 62.0227C44.6931 62.0471 44.7603 61.718 44.7939 61.4499C44.8051 61.4621 44.8275 61.4743 44.8387 61.4865C44.8387 61.4865 44.8611 61.4134 44.8947 61.3037C45.0851 61.5109 45.2866 61.718 45.4994 61.913C45.4882 61.913 45.5778 61.6815 45.6226 61.4621C46.0929 61.8155 46.5744 62.1689 47.0783 62.4858C47.0895 62.4858 47.1679 62.2542 47.2127 62.0227C47.3247 62.0714 47.4366 62.1202 47.5486 62.1689C47.6158 62.1933 47.7502 61.5718 47.6942 61.3768C47.6942 61.3159 47.6942 61.2793 47.6718 61.2427C47.9853 61.4255 48.3101 61.5962 48.6012 61.7302C48.6572 61.7546 48.8476 60.9259 48.7132 60.8528C48.6796 60.8406 48.646 60.8162 48.6124 60.7919C48.6124 60.6456 48.6124 60.5359 48.5788 60.5237C48.3213 60.4506 48.0637 60.3653 47.8174 60.2678C47.2687 59.8291 46.8208 59.2807 46.5184 58.6592L46.5072 58.647Z" fill="#FADAAB" fill-opacity="0.6"/>
<path d="M21.3789 52.7739C21.894 54.1019 22.3083 55.4665 22.6107 56.8554C23.4169 59.3774 25.1414 61.875 24.9735 64.3848C24.9399 64.9818 25.1078 64.4944 25.1302 64.202C25.175 63.6294 25.1302 63.0812 25.0406 62.5451C25.0854 62.3745 25.231 62.0212 25.1638 61.8263C25.0518 61.4851 24.9399 61.1562 24.8279 60.815C24.9287 60.9978 25.0182 61.1684 25.119 61.3511C25.119 61.3389 25.343 60.7907 25.2534 60.5957C24.8727 59.7551 24.5031 58.9022 24.1224 58.0616C24.1224 58.025 24.1224 58.0007 24.1112 57.9763C24.0664 57.8545 24.0216 57.7326 23.9768 57.6108C24.0104 57.4889 24.0216 57.3793 23.9768 57.3184C23.8984 57.2209 23.8201 57.1113 23.7529 57.0138C23.7081 56.8798 23.6521 56.7458 23.6073 56.6239C23.6073 56.563 23.6073 56.5021 23.5849 56.4534C23.5513 56.4046 23.5289 56.3559 23.4953 56.3193C23.2826 55.7711 23.081 55.2228 22.8682 54.6624C22.913 54.4674 22.9578 54.2116 22.9466 54.1385C22.9466 54.1263 22.9466 54.1141 22.9466 54.0898C22.7786 53.2735 22.5435 52.5425 22.174 51.7871C22.1852 51.7749 22.1963 51.7627 22.2075 51.7505C22.2859 51.6409 22.3083 50.9343 22.2747 50.9586C21.8604 51.2023 21.4797 51.1901 21.1213 51.0439C21.2221 51.6287 21.3341 52.2135 21.4125 52.8105L21.3789 52.7739Z" fill="#FADAAB" fill-opacity="0.6"/>
<path d="M40.7627 19.4278C40.6843 19.4278 40.6843 19.8668 40.7067 19.8668C41.3226 19.94 41.9273 20.0376 42.5207 20.2936C43.1142 20.5497 43.6405 20.94 44.2116 21.2448C44.2452 21.257 44.29 20.94 44.2564 20.8912C43.4166 19.7937 41.9273 19.2937 40.7627 19.4278Z" fill="#FADAAB" fill-opacity="0.6"/>
<path d="M38.4671 16.4064C38.4671 16.4064 38.3887 16.7234 38.4223 16.7234C39.5309 17.0649 40.6171 17.4795 41.7033 17.9185C41.7257 17.9185 41.7705 17.7112 41.7369 17.6868C40.6731 17.138 39.5757 16.7356 38.4671 16.3942V16.4064Z" fill="#FADAAB" fill-opacity="0.6"/>
<path d="M60.3256 20.8413C60.3144 20.5488 60.2584 20.3173 60.1688 20.2442C59.5529 19.7445 58.9034 20.0492 58.3547 20.6097C58.3547 20.6097 58.3547 20.5976 58.3547 20.5854C58.3659 20.4757 58.3771 20.3782 58.3995 20.2685C57.974 20.427 57.5596 20.561 57.1677 20.695C56.8542 20.7682 56.5182 20.8169 56.1823 20.8413C55.8128 20.8413 55.4992 20.89 55.2641 21.0728C55.1633 20.9388 55.0625 20.8169 54.9505 20.6829C55.0177 20.756 54.357 22.4255 54.6146 22.8642C54.7154 23.0227 54.7937 23.1811 54.8833 23.3395C54.9953 23.8148 55.1857 24.2779 55.4208 24.7531C55.5888 25.5574 55.9023 26.3617 56.3951 27.166C56.4286 27.2148 56.507 26.9223 56.5966 26.5445C56.675 26.7395 56.7534 26.9223 56.8318 27.1051C56.843 27.1661 56.8654 27.2392 56.8766 27.3001C56.8766 27.3001 56.8766 27.2635 56.8766 27.227C56.899 27.2635 56.9102 27.3123 56.9326 27.3489C56.9326 27.2879 56.955 27.2392 56.9662 27.1782C57.0781 26.7395 57.4813 25.5818 57.3357 25.0822C57.3021 24.9725 57.2909 24.8506 57.3021 24.7288C57.6044 24.0829 58.2763 23.6929 58.993 23.4858C61.0422 23.3761 63.9201 24.0341 64.9167 24.1194C65.1855 24.1438 65.4319 22.2305 65.1855 22.0599C63.8417 21.1703 62.0053 20.7438 60.3256 20.8291V20.8413Z" fill="#FADAAB" fill-opacity="0.6"/>
<path d="M35.3876 78.4812C34.3462 83.6226 33.6295 89.3123 35.6899 94.8557C35.6788 94.8192 35.8467 94.4171 35.8019 94.2466C34.0214 87.4969 34.8725 81.3565 36.4178 75.2647C37.1121 72.5356 37.784 69.6238 39.2957 67.3577C40.4603 65.6033 42.2184 64.5677 43.6853 63.13C43.8533 62.9716 44.0885 61.0466 43.9093 61.0345C37.9408 60.8152 36.3058 73.9367 35.3876 78.469V78.4812Z" fill="#FADAAB" fill-opacity="0.6"/>
<path d="M30.3709 93.7591C25.231 87.046 27.9522 78.0546 28.4785 70.2572C28.7472 66.1514 28.4225 61.9481 26.2836 58.4149C23.8873 54.4552 19.9344 52.0551 16.3174 49.6184C9.55384 45.0618 3.61889 38.7995 1.68163 30.1005C-0.00926852 22.4859 2.15195 13.8721 7.89653 9.05968C7.93012 9.09623 7.95252 9.13279 7.98611 9.18153C7.99731 9.19371 8.0869 9.14498 8.0757 9.1328L7.97491 8.98659C8.42283 8.6089 8.89315 8.25558 9.39706 7.92663C9.68821 7.7317 8.98273 7.98754 8.90435 8.03628C8.53481 8.26776 8.17648 8.52362 7.82934 8.76729L7.79575 8.71855C7.79575 8.71855 7.68376 8.76729 7.69496 8.76729L7.75096 8.82821C-1.77855 15.9434 -2.0697 30.4782 4.41395 40.2615C8.56841 46.5482 14.6265 49.5819 20.1919 54.0532C22.969 56.2828 25.3542 59.0728 26.3844 62.7278C27.2355 65.7493 27.1795 68.9657 26.8995 72.0725C26.2277 79.5044 24.0105 88.0572 28.8816 94.4292C29.0832 94.6972 30.4045 93.7591 30.3709 93.7225V93.7591Z" fill="#FADAAB" fill-opacity="0.6"/>
</svg>
