<svg width="456" height="324" viewBox="0 0 456 324" fill="none" xmlns="http://www.w3.org/2000/svg">
<path d="M69.405 162.88C69.2071 160.118 67.8621 157.909 66.0633 155.934C63.8997 153.585 62.9776 150.661 61.9166 147.739C60.5593 144.05 61.9692 141.396 64.5388 139.022C69.0529 134.846 74.0969 131.415 79.6175 128.8C87.8329 124.917 96.0432 120.926 104.456 117.555C112.772 114.237 120.69 110.233 128.378 105.745C130.81 104.329 133.36 103.125 135.844 101.806C136.395 101.52 136.881 101.12 137.823 100.455C136.732 100.258 136.144 100.125 135.58 100.055C135.017 99.9858 134.45 99.947 133.895 99.9555C116.059 100.498 98.3005 98.4742 80.4876 98.464C74.0156 98.4608 67.5639 98.891 61.1087 98.874C54.8368 98.8746 48.5343 98.8722 42.4065 97.2069C40.5589 96.7064 40.1113 96.232 40.7921 94.4326C41.6556 92.1729 42.802 90.0174 43.9759 87.8954C45.3348 85.452 46.799 83.0341 48.3767 80.7195C49.6859 78.7953 51.1419 76.9468 52.6807 75.1987C54.7194 72.8975 56.902 70.7024 59.3837 68.12C65.3486 68.429 71.6938 68.79 78.031 69.073C90.5971 69.6443 103.088 70.8401 115.584 72.1442C125.592 73.1948 135.632 72.3067 145.628 71.399C154.598 70.5781 163.406 68.7092 172.304 67.3574C178.122 66.4658 184.042 66.2775 189.919 65.7307C199.762 64.8083 209.585 65.7025 219.429 65.7357C224.59 65.752 229.512 64.559 234.297 63.0292C236.587 62.2929 238.532 60.3218 240.459 58.7033C246.709 53.4612 252.834 48.0685 259.084 42.8265C261.312 40.9594 263.706 39.2932 266.097 37.6575C271.426 33.9915 276.931 30.5735 282.149 26.7737C293.761 18.3157 305.699 10.3204 318.391 3.6148C328.569 -1.77515 339.089 -6.54683 350.185 -9.93803C364.964 -14.456 379.733 -19.0213 394.468 -23.7283C398.299 -24.9488 401.976 -26.6617 405.648 -28.3135C411.833 -31.1116 418.276 -33.0529 424.882 -34.4546C425.889 -34.6664 426.93 -34.5975 427.958 -34.7148C429.765 -34.9118 431.591 -35.153 434.039 -35.4579C436.282 -33.9334 437.924 -31.1257 439.19 -28.092C441.096 -23.5331 442.918 -18.9051 444.615 -14.2583C445.325 -12.3411 445.652 -10.2758 446.17 -8.28453C446.451 -7.19434 446.793 -6.09831 447.183 -4.70483C445.5 -2.89353 443.069 -1.64689 440.531 -0.734081C435.314 1.12422 430.029 2.72943 424.801 4.54045C417.103 7.20904 409.387 9.89144 401.763 12.7521C393.529 15.8625 385.303 19.0508 377.193 22.4813C367.877 26.4282 358.685 30.6951 349.432 34.7868C344.363 37.0291 339.196 39.0154 334.259 41.4861C322.089 47.5637 310.029 53.7752 299.248 62.251C288.998 70.3155 278.876 78.5 269.978 88.0653C260.326 98.4214 252.289 109.78 246.918 123.073C240.351 139.349 235.277 155.968 233.313 173.425C232.8 177.983 232.714 182.583 232.567 187.176C232.053 201.72 232.728 216.239 233.403 230.759C234.008 243.591 232.066 255.995 228.236 268.157C227.479 270.581 226.59 272.946 225.79 275.351C224.381 279.608 221.092 281.45 216.991 282.275C216.079 282.465 215.112 282.419 214.2 282.609C212.488 282.953 210.78 283.406 209.064 283.781C208.355 283.945 207.459 284.29 206.93 284.024C205.489 283.3 204.423 283.815 203.314 284.618C203.015 284.836 202.676 285.003 202.35 285.188C199.529 286.644 198.06 285.887 198.065 282.62C198.074 279.632 198.377 276.625 198.738 273.655C199.568 266.923 199.439 260.223 199.21 253.436C198.805 241.731 198.619 229.987 198.862 218.283C198.988 212.131 199.904 205.947 201.041 199.861C202.746 190.747 204.936 181.711 206.913 172.654C207.163 171.491 207.443 170.332 207.2 169.014C205.935 172.083 204.493 175.073 203.467 178.226C199.71 189.624 196.147 201.087 192.42 212.488C189.866 220.334 187.445 228.239 184.519 235.941C180.815 245.665 176.68 255.208 172.618 264.805C171.188 268.151 169.445 271.39 167.763 274.634C166.476 277.131 163.398 277.899 161.359 276.009C158.854 273.689 156.675 271.015 154.376 268.468C153.249 267.204 153.256 265.849 153.852 264.288C156.449 257.448 158.909 250.579 161.492 243.722C165.234 233.771 167.774 223.489 170.015 213.117C172.532 201.477 174.852 189.803 177.171 178.128C177.47 176.616 177.344 175.032 177.438 172.93C176.563 173.539 176.145 173.715 175.869 174.028C169.925 180.902 163.995 187.793 158.11 194.703C156.788 196.272 155.622 197.994 154.472 199.702C150.9 204.985 147.358 210.27 143.844 215.589C140.29 220.997 136.825 226.444 133.316 231.871C129.552 237.706 125.819 243.543 122 249.311C121.298 250.369 120.296 251.336 119.215 252.003C117.792 252.868 116.874 252.472 115.831 251.14C114.213 249.043 114.314 247.019 116.074 245.061C114.706 243.404 113.422 241.848 112.158 240.248C111.131 238.901 110.043 237.549 109.261 236.056C108.948 235.471 109.172 234.414 109.456 233.702C110.828 230.32 112.349 226.983 113.735 223.617C116.986 215.73 120.163 207.821 123.458 199.954C124.515 197.45 125.865 195.099 127.099 192.674C127.438 192.029 127.791 191.4 127.873 190.545C127.404 190.931 126.877 191.281 126.45 191.718C121.745 196.923 116.924 202.056 112.373 207.414C106.451 214.383 101.762 222.163 98.019 230.511C97.2779 232.135 96.4241 232.362 95.3128 231.254C92.811 228.733 90.1922 226.31 87.8913 223.624C86.3251 221.794 85.1634 219.603 84.0264 217.475C83.6988 216.874 83.8956 215.783 84.2239 215.09C85.0152 213.425 84.656 211.865 83.7484 210.56C81.6185 207.536 79.6698 204.391 76.8016 201.836C74.4008 199.711 72.6591 196.816 70.6716 194.237C70.2573 193.736 69.9936 193.109 69.5292 192.649C68.4652 191.53 68.2993 190.204 68.3924 188.749C68.4721 187.755 68.3686 186.743 68.3446 185.385C72.0995 181.414 77.5691 179.01 82.028 174.768C79.1188 174.412 77.9597 172.837 77.6497 170.28C77.5324 169.252 76.7424 168.329 76.3574 167.521C74.7271 167.489 73.1265 167.628 71.5945 167.374C69.6516 167.064 69.6139 166.814 69.6056 164.487C70.6714 166.392 72.1328 166.901 74.498 166.018C76.1592 165.407 77.7986 164.701 79.4104 163.961C89.5104 159.226 99.558 154.394 109.696 149.74C117.096 146.334 124.597 143.153 132.048 139.845C132.886 139.463 133.747 139.006 134.422 138.392C142.958 130.672 152.877 124.934 162.484 118.75C164.142 117.691 165.813 116.649 167.499 115.624C173.081 112.198 178.667 108.741 184.264 105.332C186.423 104.029 188.692 102.859 190.878 101.589C191.678 101.126 192.353 100.513 193.1 99.9526C178.296 103.929 164.305 109.709 150.248 115.375C151.895 114.269 153.591 113.291 155.386 112.569C163.29 109.365 171.169 106.097 179.155 103.163C184.152 101.346 189.322 99.9762 194.476 98.6204C196.957 97.9795 199.43 96.6136 201.13 94.1413C197.039 94.0578 193.12 94.5918 189.215 95.7897C185.657 96.8977 181.94 97.5743 178.297 98.443C177.115 98.7151 175.895 98.9064 174.738 99.2425C170.426 100.494 166.123 101.823 161.812 103.075C160.908 103.343 159.916 103.88 158.566 102.857C161.291 101.592 163.727 100.454 166.149 99.2987C162.565 99.3871 159.136 99.7984 155.714 100.288C154.808 100.417 153.881 100.759 153.044 101.141C145.767 104.39 138.477 107.621 131.253 110.967C127.431 112.743 123.721 114.792 119.913 116.585C113.813 119.453 107.582 122.092 101.521 125.041C92.4191 129.486 83.0788 133.369 73.7108 137.219C70.8721 138.38 68.1677 139.909 65.4386 141.373C64.5279 141.872 63.58 142.598 63.9777 144.238C64.9001 143.618 65.6719 143.122 66.4022 142.575C68.3954 141.071 70.6536 140.501 73.0341 141.068C75.0983 141.558 76.5704 140.99 78.1294 139.676C83.392 135.248 89.3383 131.888 95.5935 129.004C102.831 125.675 109.978 122.168 117.191 118.775C118.789 118.018 120.481 117.41 122.129 116.782C123.712 116.178 125.314 115.7 126.884 115.08C135.071 111.811 143.228 108.539 151.402 105.253C152.315 104.893 153.203 104.3 154.422 105.095C153.538 106.444 152.161 106.82 150.911 107.317C146.367 109.07 141.787 110.712 137.254 112.513C131.599 114.76 125.941 117.039 120.36 119.479C113.669 122.413 107.054 125.509 100.426 128.588C93.2658 131.91 86.2548 135.445 79.8853 140.167C78.7563 141.015 77.5612 141.748 76.3385 142.448C72.8485 144.456 69.3476 146.417 65.8576 148.425C65.6459 148.543 65.5389 148.857 65.3293 149.114C65.6243 149.574 65.9193 150.034 66.2006 150.476C66.626 150.379 66.9038 150.374 67.1322 150.242C75.9996 145.343 84.9027 140.555 93.6931 135.495C105.91 128.451 118.077 121.279 131.509 116.663C116.561 123.908 101.867 131.562 88.8167 139.913C96.0197 136.303 104.189 132.092 112.447 128.09C118.603 125.12 124.89 122.378 131.134 119.616C137.569 116.781 144.016 113.992 150.515 111.301C154.494 109.648 158.573 108.251 162.613 106.773C162.981 106.639 163.485 106.841 163.913 106.882L163.946 106.854C158.761 109.024 153.54 111.082 148.421 113.366C137.743 118.184 127.107 123.052 116.492 128.015C110.473 130.845 104.545 133.852 98.6002 136.874C92.9144 139.766 87.27 142.708 81.678 145.748C77.7429 147.898 73.8957 150.258 70.01 152.536C69.5364 152.815 69.1072 153.113 68.4664 153.529C69.1313 154.471 69.7192 155.251 70.4531 156.277C76.9676 152.617 83.3481 149.067 89.7011 145.484C96.3966 141.702 102.919 137.642 109.757 134.136C118.623 129.575 127.74 125.455 136.735 121.154C125.646 127.042 114.337 132.494 103.331 138.482C92.3085 144.485 81.5889 151.025 70.7399 157.306L71.2654 157.773C70.6544 159.486 70.0435 161.2 69.4158 162.927L69.405 162.88ZM73.1652 82.8769C73.8392 83.0801 74.4819 83.4498 75.1734 83.4698C81.7274 83.7428 88.2884 84.263 94.8331 84.1499C104.389 83.9706 113.925 83.3579 123.482 82.8398C129.198 82.5394 134.883 82.0666 140.593 81.6578C141.493 81.5899 142.375 81.3969 143.25 81.265C142.688 80.8568 142.158 80.7598 141.636 80.7406C130.585 80.4378 119.515 80.1793 108.464 79.8764C95.708 79.5182 82.9716 79.1156 70.2324 78.7436C66.6663 78.6488 63.1141 78.5707 59.5393 78.5675C58.0755 78.566 56.6326 78.8285 55.1847 78.9827C69.5303 80.9263 83.8966 82.0088 98.3173 82.2028C93.4682 82.6324 88.6288 82.8008 83.7813 82.8916C80.2312 82.9523 76.7037 82.9383 73.1427 82.9518C72.7988 82.8418 72.4636 82.6402 72.1109 82.6219C65.9745 82.1731 59.8046 81.7519 53.6681 81.3031C53.3933 81.2768 53.0494 81.1669 52.8544 81.2715C52.3838 81.5192 51.9793 81.8811 51.564 82.1958C58.6798 82.877 65.5647 83.0738 72.4524 83.2401C72.6829 83.2468 72.923 82.9924 73.1652 82.8769ZM243.187 107.953C242.974 107.763 242.778 107.559 242.565 107.369C242.202 107.782 241.75 108.154 241.459 108.62C238.333 113.591 235.22 118.578 232.138 123.569C231.757 124.164 231.596 124.888 231.331 125.556C235.34 120.87 238.185 115.456 241.581 110.403C241.151 111.518 240.854 112.692 240.279 113.7C236.217 120.877 232.128 128.021 228.008 135.162C223.997 142.129 221.721 149.801 219.333 157.37C217.028 164.7 215.251 172.158 213.831 179.742C212.184 188.584 210.4 197.397 209.496 206.356C207.793 223.175 206.741 239.964 208.36 256.854C208.746 260.867 208.977 264.896 209.038 268.924C209.073 272.101 208.769 275.278 208.543 278.446C208.486 279.195 208.141 279.902 207.932 280.637C207.719 280.617 207.508 280.566 207.311 280.531C207.278 279.742 207.215 278.951 207.197 278.178C207.153 273.32 207.343 268.438 207.022 263.584C206.184 250.775 205.331 237.949 206.529 225.119C207.542 214.213 208.239 203.231 209.982 192.426C211.691 181.818 213.484 171.141 216.916 160.883C218.793 155.284 220.639 149.682 222.454 144.077C222.629 143.539 222.698 142.975 222.798 142.415C220.486 145.645 218.373 148.879 216.97 152.428C214.043 159.822 211.713 167.427 209.889 175.204C208.148 182.604 206.2 189.922 205.655 197.544C205.601 198.263 205.259 198.939 205.053 199.644C204.664 200.331 204.016 200.978 203.932 201.694C203.044 209.037 201.709 216.383 201.544 223.748C201.288 234.788 201.955 245.855 202.068 256.899C202.112 261.757 201.8 266.628 201.49 271.468C201.286 274.731 200.773 277.995 200.446 281.246C200.377 281.809 200.583 282.399 200.682 283.133C202.115 282.006 202.071 281.987 202.273 280.835C203.592 273.503 203.499 266.097 203.438 258.695C203.328 249.053 202.927 239.398 203.031 229.777C203.109 222.203 203.743 214.62 204.221 207.053C204.361 204.94 204.841 202.829 205.165 200.733C205.238 201.095 205.403 201.465 205.384 201.818C205.02 207.716 204.825 213.614 204.217 219.489C203.214 229.317 203.923 239.139 204.153 248.962C204.35 256.732 204.421 264.521 204.403 272.271C204.389 275.151 203.976 278.024 203.72 281.02C206.117 280.926 208.517 282.743 210.74 280.12C210.766 278.89 210.831 277.401 210.805 275.904C210.561 266.542 210.133 257.163 210.059 247.802C209.935 235.893 210.056 224.008 210.963 212.122C212.24 195.401 215.149 179.021 219.981 162.995C224.228 148.885 229.028 134.967 236.511 122.154C239.018 117.863 241.452 113.519 244.175 109.388C247.297 104.617 250.711 100.028 254.022 95.3831C254.234 95.0952 254.591 94.9136 254.889 94.6956C254.589 95.2525 254.361 95.8625 254.003 96.383C247.936 105.187 242.365 114.285 237.171 123.634C230.139 136.245 225.258 149.723 221.225 163.515C219.232 170.335 218.062 177.404 216.337 184.313C213.446 195.84 212.212 207.603 211.67 219.386C211.006 233.885 211.078 248.423 211.936 262.96C212.249 268.383 212.037 273.818 212.086 279.263C212.084 279.602 212.205 279.952 212.297 280.439C213.314 280.274 214.193 280.112 215.099 279.983C215.17 278.433 215.218 277.128 215.327 275.828C215.433 274.559 215.284 273.22 215.768 272.033C215.965 272.068 216.148 272.085 216.345 272.12C216.386 274.589 216.427 277.059 216.482 279.545C217.92 279.652 217.816 278.81 217.839 278.087C217.964 273.877 218.029 269.661 218.263 265.446C218.606 259.284 219.119 253.123 219.496 246.933C220.42 231.488 221.249 216.065 223.153 200.683C225.061 185.101 227.948 169.752 231.987 154.605C232.157 153.959 232.448 153.324 232.71 152.687C232.953 153.527 232.855 154.226 232.696 154.92C230.328 165.819 227.565 176.65 226.226 187.74C224.999 197.978 223.389 208.195 222.698 218.469C221.379 237.729 220.611 257.01 219.628 276.302C219.586 276.899 219.744 277.499 219.855 278.589C222.416 276.307 223.819 273.883 224.328 270.988C224.642 269.154 224.654 267.259 224.771 265.391C225.473 252.745 226.098 240.107 226.875 227.483C227.226 221.877 227.87 216.283 228.374 210.691C228.398 210.447 228.591 210.203 228.722 209.954C228.773 210.868 228.93 211.808 228.873 212.727C228.093 228.925 227.312 245.123 226.532 261.322C226.501 261.966 226.576 262.636 226.645 263.844C228.839 258.152 230.953 247.66 230.9 240.643C230.799 229.307 230.389 217.973 230.058 206.63C230.043 206.135 229.704 205.656 229.503 205.175C229.456 204.708 229.377 204.238 229.404 203.794C229.662 196.915 229.893 190.002 230.228 183.115C230.419 179.188 230.61 175.262 231.059 171.375C233.453 151.202 239.866 132.183 248.118 113.757C248.645 112.59 249.112 111.417 249.595 110.231C250.118 109.603 250.729 109.014 251.149 108.33C259.004 95.6597 268.667 84.5342 279.869 74.7272C281.197 73.5752 282.536 72.4706 283.891 71.3521C279.034 73.476 274.48 75.968 270.613 80.1437C271.581 79.8512 272.185 79.6624 273.136 79.3836C272.277 80.1489 271.708 80.6184 271.181 81.1381C262.555 89.4659 255.898 99.2919 249.685 109.453C249.573 109.658 249.636 109.973 249.595 110.231C249.179 110.715 248.647 111.126 248.364 111.669C241.423 123.81 235.366 136.375 230.206 149.381C229.9 150.168 229.638 150.975 229.406 151.785C227.517 158.153 225.642 164.538 223.767 170.924C221.277 179.392 219.447 188.047 218.563 196.792C217.511 207.139 216.764 217.516 216.218 227.896C215.732 237.157 215.107 246.42 216.037 255.694C216.409 259.382 216.282 263.114 215.878 267.02C215.54 266.68 215.322 266.551 215.289 266.409C215.181 265.767 215.073 265.125 215.043 264.475C214.565 255.784 213.915 247.123 214.181 238.38C214.661 222.908 215.338 207.471 217.636 192.157C219.073 182.617 221.057 173.161 223.643 163.854C225.172 158.345 226.837 152.864 228.962 147.566C233.746 135.743 239.417 124.312 245.776 113.271C249.843 106.201 254.04 99.2219 259.267 92.9111C261.759 89.8981 264.209 86.835 267.076 83.2878C266.157 83.8778 265.764 84.1176 265.399 84.3908C262.16 86.6697 259.37 89.4229 256.861 92.4496C255.213 91.9529 254.634 93.5 253.672 94.2093C248.919 97.8225 245.87 102.785 243.198 108L243.187 107.953ZM44.1641 92.6905L44.2034 92.6018C43.7492 93.4829 43.3256 94.3669 42.8321 95.3368C45.4515 96.4659 47.8905 96.422 50.3157 96.3614C58.0857 96.1652 65.8486 95.7218 73.6178 95.6951C80.8482 95.663 88.0132 95.3473 95.1974 94.5095C103.66 93.5167 112.144 92.7879 120.505 90.9224C124.709 89.9842 128.993 89.3464 133.262 88.8613C140.243 88.0503 147.235 87.2865 154.242 86.8479C163.498 86.2699 172.771 85.9866 182.055 85.581C182.814 85.5457 183.605 85.6523 184.385 85.7116C184.398 85.8977 184.411 86.0839 184.408 86.2839C156.625 87.0759 129.283 91.4699 101.927 95.8472C110.096 96.3057 118.231 96.4835 126.369 96.6307C129.66 96.6993 132.924 96.7343 136.198 96.8166C146.144 97.0753 156.09 97.1645 165.851 94.8475C172.772 93.214 179.628 91.2969 186.601 89.9303C193.229 88.6232 198.831 85.3223 204.469 81.9634C204.959 81.6713 205.345 81.1843 206.291 80.3194C202.087 80.6104 198.565 81.013 195.064 80.2462C196.141 79.7792 197.219 79.6205 198.32 79.5563C201.031 79.3998 203.754 79.2906 206.466 79.1342C207.566 79.07 208.743 79.1673 209.645 77.6355C207.649 77.3982 205.845 77.0869 204.021 76.9892C201.691 76.8587 199.327 76.9251 197.008 76.8418C196.394 76.8139 195.257 76.4585 195.252 76.3501C195.38 75.1758 194.655 75.1834 193.879 75.2325C189.598 75.5314 185.427 76.442 181.317 78.0056C183.434 77.9463 185.548 77.9175 187.664 77.8582L187.687 78.261C179.527 79.3136 171.367 80.3662 163.224 81.405C163.25 81.6079 163.277 81.8108 163.304 82.0137L183.923 80.7207C183.153 81.3559 182.336 81.5242 181.511 81.6147C174.332 82.3914 167.179 83.2321 159.981 83.8838C150.933 84.7127 141.882 85.5721 132.936 87.2737C129.452 87.9265 125.882 88.201 122.344 88.6174C121.657 88.7058 120.958 88.608 120.266 88.5881C120.239 88.3851 120.213 88.1822 120.2 87.9961C126.741 86.3108 133.513 85.5877 140.022 83.7605C125.066 84.4862 110.141 85.8619 95.2183 86.0822C80.2485 86.3134 65.2675 85.3723 50.037 84.9467C49.2657 85.9208 48.3045 87.1078 47.1338 88.5521C50.6467 88.7189 53.7408 88.7531 56.7948 89.0455C66.343 89.9134 75.9011 89.873 85.4507 89.277C92.458 88.8383 99.4683 88.3691 106.489 87.9472C107.962 87.857 109.434 87.9362 110.898 87.9377C110.256 88.5235 109.641 88.665 109.022 88.6981C99.0969 89.3506 89.1989 90.206 79.2865 90.5669C72.3745 90.8144 65.4244 90.3339 58.5061 90.1647C55.1233 90.0875 51.7455 90.1185 48.3911 89.9053C46.1558 89.7529 44.8378 90.6438 44.2085 92.7101L44.1641 92.6905ZM113.303 238.262C113.782 238.739 114.29 239.219 114.924 239.85C115.573 238.864 116.137 238.117 116.569 237.311C119.878 231.232 123.202 225.171 126.439 219.039C129.45 213.348 132.679 207.786 136.072 202.286C138.647 198.079 140.929 193.721 143.815 189.651C145.773 186.911 147.467 184.022 149.884 181.634C150.939 180.594 151.756 179.301 152.684 178.142C153.05 177.699 153.443 177.29 153.823 176.864C153.008 178.943 151.907 180.779 150.533 182.42C145.551 188.415 141.049 194.719 137.646 201.774C137.397 202.29 137.105 202.755 136.811 203.251C133.915 208.398 130.99 213.511 128.169 218.681C124.433 225.504 120.756 232.364 117.052 239.191C116.788 239.689 116.422 240.132 116.233 240.653C115.868 241.574 116.399 241.979 117.326 242.283C118.439 240.155 119.485 238.083 120.589 236.046C122.83 231.946 125.045 227.813 127.375 223.752C129.798 219.53 132.381 215.401 134.893 211.219C136.38 208.726 138.027 206.326 139.292 203.735C141.27 199.655 143.768 195.934 146.544 192.378C146.912 191.905 147.425 191.538 147.883 191.104C147.891 191.829 147.627 192.328 147.35 192.81C142.543 201.164 137.765 209.552 132.931 217.873C130.455 222.167 127.787 226.365 125.339 230.692C122.389 235.911 119.617 241.208 116.756 246.467C116.271 247.345 116.009 248.152 116.613 249.088C117.203 250.007 117.788 250.818 119.187 250.367C119.557 249.724 119.979 249.01 120.405 248.264C123.36 243.154 126.271 238.024 129.297 232.966C131.554 229.191 133.927 225.489 136.314 221.803C139.969 216.143 143.668 210.503 147.35 204.876C147.619 204.486 147.959 204.148 148.225 203.789C149.525 201.956 150.812 200.107 152.068 198.254C152.91 197.025 153.611 195.659 154.552 194.516C159.207 188.875 163.958 183.351 168.585 177.676C171.376 174.276 174.17 170.845 176.585 167.193C179.738 162.425 182.368 157.329 185.463 152.525C189.078 146.953 192.799 141.408 197.707 136.823C201.886 132.924 206.066 129.024 210.229 125.139C210.583 124.818 210.907 124.495 211.217 124.155C211.46 123.87 211.645 123.548 211.86 123.23C205.37 125.182 200.509 129.448 195.642 133.605C190.658 137.859 185.685 142.16 181.052 146.771C176.505 151.282 172.426 156.223 168.118 160.989C173.815 151.533 181.947 144.175 189.374 136.133C185.676 138.707 182.019 141.331 178.655 144.276C171.473 150.569 164.553 157.18 157.329 163.423C146.733 172.533 137.747 183.014 130.097 194.672C129.392 195.76 128.77 196.949 128.3 198.152C124.813 207.049 121.415 215.985 117.912 224.895C116.466 228.563 114.874 232.155 113.34 235.784C113.082 236.391 112.721 236.942 112.568 237.575C112.523 237.725 113.093 238.041 113.378 238.284L113.303 238.262ZM103.781 182.074C102.372 182.787 100.869 183.352 99.5986 184.232C97.2076 185.868 94.924 187.668 92.6297 189.421C87.9631 192.934 84.1731 197.271 80.4651 201.878C80.9492 202.295 81.3337 202.624 81.663 202.887C85.223 199.021 88.447 195.122 92.1217 191.668C95.7797 188.227 99.9021 185.247 103.784 182.044C105.698 180.239 111.999 176.558 114.995 175.52C102.566 183.499 91.4944 192.748 82.4033 204.329C82.7928 204.767 83.0247 205.082 83.3125 205.295C83.5117 205.468 83.8003 205.511 84.1108 205.648C88.9276 199.761 93.5503 193.808 99.5592 188.99C105.551 184.185 111.292 179.11 118.153 175.529C115.833 177.388 113.32 179.012 111.028 180.903C106.912 184.3 103.003 187.948 98.8316 191.278C93.5589 195.489 89.7524 200.965 85.4893 206.058C84.5842 207.142 84.6826 208.045 86.1541 208.772C92.8293 200.535 99.7254 192.565 107.484 185.403C107.505 185.667 107.457 185.847 107.351 185.991C100.681 194.814 94.0283 203.624 87.403 212.467C86.7852 213.286 86.2365 214.189 85.9124 215.159C85.7151 215.772 85.8026 216.628 86.1165 217.213C88.1762 220.97 91.2821 223.779 94.6498 226.428C94.8455 226.154 95.0827 225.931 95.1366 225.689C96.4147 220.387 99.3663 215.954 102.221 211.404C105.84 205.633 110.654 200.901 115.173 195.878C115.726 195.253 116.248 194.625 116.787 193.983C113.464 196.5 110.412 199.244 107.502 202.124C104.641 204.963 101.808 207.836 99.2321 210.918C96.6898 213.972 94.4601 217.303 92.1032 220.514C92.4568 218.591 92.9602 216.712 94.0393 215.259C97.0751 211.235 100.062 207.083 103.65 203.559C111.392 195.932 119.454 188.66 127.42 181.271C128.907 179.903 130.532 178.702 132.088 177.418L132.35 177.736C129.121 181.048 125.891 184.36 122.662 187.673C122.786 187.823 122.927 187.96 123.068 188.097C125.751 185.826 128.42 183.539 131.086 181.283C130.86 182.201 130.337 182.829 129.79 183.393C123.599 189.796 117.324 196.099 111.246 202.606C106.028 208.178 101.804 214.477 98.2439 221.24C97.3384 222.972 96.6961 224.852 96.0262 226.699C95.8995 227.057 96.2192 227.58 96.4666 228.698C97.6828 226.457 98.5628 224.831 99.4289 223.188C105.841 211.258 114.29 200.91 123.929 191.492C126.734 188.756 129.586 186.009 132.656 183.559C134.741 181.895 136.376 179.955 138.063 177.944C141.217 174.131 144.463 170.328 148.068 166.959C154.756 160.68 161.823 154.792 168.583 148.566C175.968 141.769 183.449 135.088 192.005 129.743C198.839 125.482 205.61 121.075 212.443 116.814C220.751 111.645 228.794 106.19 235.187 98.804C235.755 98.9817 236.363 99.0707 236.681 98.8083C239.927 96.1295 243.245 93.5039 246.323 90.6548C250.669 86.6175 255.08 82.7249 260.395 79.9977C266.148 77.0503 271.917 74.0892 277.593 70.9803C281.787 68.7005 285.89 66.2425 289.955 63.7037C298.937 58.0914 307.85 52.3954 316.807 46.7191C317.364 46.3718 318.165 45.7395 318.519 45.8967C320.082 46.632 320.983 45.4391 322.079 44.9277C323.597 44.21 325.026 43.2836 326.574 42.5688C333.353 39.3652 340.121 36.1144 346.952 33.0084C356.33 28.7284 365.698 24.4012 375.164 20.33C380.146 18.1873 385.367 16.6068 390.44 14.6423C394.809 12.9493 399.009 10.7779 403.435 9.29079C414.722 5.51718 426.105 2.0301 437.427 -1.63223C439.447 -2.28643 441.379 -3.14936 443.511 -4.00857C443.142 -4.82974 442.911 -5.31416 442.697 -5.81239C441.87 -7.80236 440.869 -9.73205 440.265 -11.7932C439.185 -15.4871 438.264 -19.2274 437.435 -22.9589C436.777 -25.9036 435.108 -28.267 433.405 -30.6028C432.276 -32.1748 431.197 -32.4939 429.493 -31.5937C426.851 -30.2287 423.987 -29.7785 421.132 -29.2505C415.875 -28.2591 410.743 -26.8087 405.822 -24.6601C402.557 -23.2313 399.342 -21.6746 395.953 -20.5658C386.775 -17.5765 377.581 -14.5734 368.302 -11.9791C356.412 -8.66387 345.054 -3.98787 334.004 1.33402C326.412 4.98364 319.219 9.45736 311.858 13.5914C301.046 19.6449 290.661 26.3866 280.883 34.0339C274.903 38.7162 268.975 43.496 262.114 46.9074C261.452 47.2293 260.919 47.81 260.363 48.2962C254.808 53.05 249.348 57.9208 243.668 62.524C239.391 65.9978 235.246 69.7 230.121 72.0449C225.608 74.1093 221.159 76.3185 216.671 78.4469C215.655 78.9198 214.559 79.2618 213.623 79.8656C208.663 83.0584 203.745 86.3014 198.811 89.5582C198.727 89.6272 198.709 89.8105 198.532 90.379C203.391 88.394 208.107 86.7805 212.536 84.6157C220.118 80.9188 227.6 76.9659 234.294 71.751C238.671 68.3637 242.869 64.759 247.163 61.2713C248.652 60.0424 250.186 58.8331 251.703 57.6377C248.251 61.4988 244.606 65.1256 240.92 68.7022C235.534 73.9346 230.095 79.0694 223.823 83.2614C219.147 86.3889 214.526 89.5833 209.917 92.825C208.546 93.7879 207.323 94.9653 206.018 96.0424C203.913 97.7517 201.901 99.6086 199.647 101.103C196.142 103.434 192.457 105.546 188.83 107.696C181.482 112.016 173.985 116.121 166.755 120.653C160.247 124.73 154.072 129.348 147.617 133.522C138.464 139.473 129.869 146.031 122.328 153.97C118.917 157.573 115.32 161.019 110.801 163.314C108.726 164.379 106.729 165.606 104.721 166.785C98.8267 170.243 92.9573 173.765 87.0357 177.189C82.0109 180.098 76.9032 182.907 71.8261 185.718C70.4114 186.492 69.5543 187.396 70.5235 189.184C71.0778 188.867 71.6321 188.551 72.1725 188.217C75.3228 186.377 78.4347 184.456 81.6511 182.729C86.1986 180.299 90.9968 178.308 95.3845 175.615C104.569 169.976 113.352 163.712 121.944 157.184C126.332 153.844 130.902 150.692 135.494 147.633C139.939 144.668 144.654 142.099 149.057 139.084C157.877 133.071 166.592 126.863 175.346 120.736C176.553 119.881 177.691 118.942 178.856 118.036C173.947 122.79 168.936 127.488 163.44 131.462C155.028 137.56 146.218 143.143 137.671 149.043C131.105 153.562 124.484 158.013 118.219 162.93C112.751 167.246 106.884 170.906 101.122 174.762C98.9481 176.218 96.7687 177.735 94.452 178.916C90.8712 180.746 87.0921 182.233 83.5004 184.016C80.2317 185.645 77.0675 187.468 73.9034 189.292C73.0873 189.769 72.4389 190.585 71.7973 191.171C72.5878 192.572 73.2613 192.297 74.0033 191.629C77.1506 188.694 81.1326 187.179 84.8226 185.175C90.8212 181.912 96.878 178.686 102.651 175.047C108.833 171.154 114.748 166.836 120.74 162.678C124.981 159.741 129.181 156.752 133.395 153.781C136.999 151.229 140.572 148.674 144.162 146.105C141.271 148.941 138.134 151.446 134.914 153.849C128.431 158.638 121.919 163.392 115.381 168.114C111.044 171.243 106.707 174.372 102.276 177.353C98.6198 179.808 94.8286 182.065 91.1065 184.405C90.7137 184.645 90.318 184.915 89.8838 185.105C86.8325 186.554 83.7319 187.875 80.733 189.422C78.2687 190.696 76.0166 192.33 74.1226 194.568C74.8938 195.366 75.5239 196.027 76.2645 196.822C79.8792 192.545 83.7911 188.867 88.9013 186.675C84.9175 190.3 80.7236 193.705 77.3583 198.114C77.9265 198.939 78.4425 199.666 79.1074 200.608C80.1689 199.338 80.9716 198.198 81.9596 197.214C84.8733 194.303 87.5415 191.06 90.8223 188.662C99.6694 182.205 108.845 176.179 117.775 169.822C124.258 165.204 130.606 160.387 136.926 155.537C140.335 152.92 143.513 149.988 146.898 147.307C149.067 145.573 151.402 144.04 153.668 142.423C146.849 148.782 139.857 154.862 132.712 160.758C128.747 164.031 124.613 167.133 120.399 170.104C115.276 173.713 109.946 177.071 104.755 180.596C104.309 180.907 104.15 181.601 103.809 182.108L103.781 182.074ZM228.044 113.7C227.843 113.865 227.625 114.045 227.452 114.244C221.377 122.015 214.593 129.132 207.541 135.992C201.678 141.703 196.456 147.952 191.822 154.674C187.598 160.804 184.369 167.491 182.265 174.656C179.318 184.683 177.505 194.926 176.086 205.238C174.952 213.544 173.127 221.66 170.728 229.659C169.892 232.43 169.085 235.234 168.294 238.025C166.564 244.177 164.705 250.24 161.872 256.01C160.186 259.454 158.583 262.999 158.27 266.914C158.193 267.878 158.296 269.059 158.795 269.8C159.71 271.182 160.921 272.377 162.102 273.568C163.846 275.307 164.841 275.217 165.842 273.125C168.489 267.538 171.24 261.976 173.603 256.285C176.689 248.845 179.569 241.292 182.314 233.711C185.097 226.042 187.731 218.327 190.216 210.567C194.169 198.247 197.54 185.734 201.85 173.541C207.724 156.936 216.164 141.533 226.122 127.015C230.242 120.999 232.245 114.086 235.548 107.591C235.18 107.726 234.919 107.716 234.847 107.832C232.381 111.695 229.635 115.424 227.508 119.458C221.882 130.092 215.374 140.132 208.366 149.909C204.504 155.318 200.482 160.635 197.01 166.313C193.995 171.248 191.326 176.432 189.527 182.023C185.839 193.505 183.616 205.297 182.151 217.222C180.596 229.756 176.363 241.463 171.711 253.037C169.304 259.017 166.138 264.724 164.935 271.174C164.844 271.643 164.298 272.037 163.979 272.469C163.771 272.387 163.549 272.289 163.341 272.208C163.449 271.247 163.379 270.208 163.711 269.315C165.323 265.031 166.924 260.7 168.772 256.532C174.337 243.95 178.61 231.03 180.387 217.3C181.327 210.055 182.497 202.816 184.104 195.697C185.531 189.315 187.284 182.918 189.669 176.844C192.363 169.951 196.212 163.539 200.635 157.583C203.979 153.08 207.627 148.775 210.957 144.255C213.825 140.369 216.433 136.304 219.141 132.326C218.983 132.203 218.812 132.063 218.637 131.954C215.048 136.772 211.846 141.89 207.454 146.077C214.546 135.415 222.187 125.143 227.98 113.724L228.044 113.7ZM229.212 67.5352C229.107 67.3403 229.005 67.1148 228.901 66.9198C226.616 67.2867 224.338 67.9007 222.046 68.0203C215.864 68.3685 209.709 68.2724 203.521 67.5567C193.599 66.4066 183.628 66.9005 173.847 68.7842C163.722 70.7273 153.567 72.4981 143.318 73.474C134.064 74.3603 124.806 74.9687 115.53 74.1577C101.056 72.9108 86.5938 71.5417 72.117 70.3252C68.7684 70.0509 65.3681 70.1569 62.01 70.1436C61.2406 70.1316 60.2358 70.0045 60.2075 71.2654C74.0263 72.4343 87.8103 73.3224 101.535 74.9907C87.0944 75.4883 72.7408 73.467 58.4118 73.2817C57.4666 74.6244 56.6806 75.7512 55.7856 77.0524C59.1161 77.0322 62.1884 76.9719 65.252 77.0032C79.2175 77.1228 93.18 77.2729 107.142 77.423C107.79 77.4233 108.644 77.6746 109.076 77.3461C111.184 75.7757 113.348 76.8305 115.486 77.0352C119.317 77.4174 123.11 78.1966 126.926 78.2537C145.549 78.4956 163.942 76.4809 182.056 72.0511C188.747 70.4109 195.446 69.3264 202.349 71.1121C205.597 71.947 208.97 72.4548 212.31 72.8208C214.414 73.053 216.779 73.2949 218.68 72.5984C222.322 71.252 225.734 69.2518 229.245 67.5076L229.212 67.5352ZM129.627 142.602C129.489 142.435 129.384 142.24 129.246 142.073C126.58 143.205 123.889 144.272 121.275 145.501C111.676 149.991 102.105 154.515 92.561 159.072C88.4267 161.049 84.3418 163.154 80.2184 165.179C79.1187 165.721 78.4682 166.398 78.7643 167.814C83.0679 165.837 87.2407 163.94 91.3997 162.027C95.5921 160.086 99.6305 157.822 104.065 156.413C97.7299 160.291 91.084 163.553 84.3118 166.526C83.0258 167.081 81.7262 167.619 80.4758 168.286C80.0219 168.52 79.7664 169.096 79.4171 169.525C79.569 169.709 79.6874 169.921 79.8088 170.102C81.334 169.462 82.8701 168.869 84.3539 168.179C91.823 164.687 99.2783 161.179 106.734 157.67C112.819 154.785 119.026 152.082 123.74 146.785C118.599 148.497 114.335 151.987 109.14 153.462C109.351 152.866 109.642 152.401 110.093 152.197C114.77 150.025 119.482 147.965 124.118 145.743C126.022 144.846 127.786 143.644 129.63 142.572L129.627 142.602ZM79.4698 171.872C80.3982 172.316 80.9848 172.788 81.6261 172.849C83.5138 173.092 85.2402 172.764 86.9947 171.822C91.4978 169.372 95.9851 166.765 100.78 164.975C103.802 163.831 106.11 162.095 108.383 160.078C109.022 159.523 109.63 158.964 110.227 158.359C110.638 157.936 110.976 157.46 111.395 156.945C100.78 161.908 90.3436 166.78 79.456 171.856L79.4698 171.872ZM192.854 147.438L209.448 129.918C203.458 135.339 197.018 140.317 192.854 147.438ZM258.724 86.6643L258.525 86.0134C252.757 89.7607 247.304 93.9233 242.058 98.3368C242.21 98.5209 242.359 98.7355 242.494 98.9333C247.894 94.8427 253.311 90.7383 258.711 86.6476L258.724 86.6643ZM64.8349 147.356C67.5117 145.794 69.8932 144.419 72.7955 142.756C69.1575 142.608 66.8958 144.502 64.1524 145.472C64.3964 146.143 64.5801 146.638 64.8517 147.342L64.8349 147.356ZM78.906 145.729C78.8202 145.659 78.7206 145.573 78.6181 145.517C76.6767 146.641 74.6692 147.65 72.8383 148.908C71.0881 150.128 68.6244 150.108 67.5027 152.327C71.3048 150.118 75.0901 147.922 78.906 145.729Z" fill="#575D27" fill-opacity="0.2"/>
<path d="M163.919 106.821C164.596 106.346 165.242 105.869 165.92 105.394C166.003 105.495 166.052 105.623 166.118 105.737C165.408 106.07 164.668 106.399 163.941 106.746L163.891 106.787L163.919 106.821Z" fill="#575D27" fill-opacity="0.2"/>
<path d="M183.472 129.697C193.868 121.708 204.264 113.719 214.646 105.714C220.571 101.134 226.415 96.4231 232.381 91.8935C244.232 82.8728 255.779 73.484 268.031 64.9486C281.834 55.329 296.084 46.5226 310.99 38.7498C316.567 35.8627 321.925 32.5385 327.464 29.5707C334.495 25.8212 341.645 22.2833 348.712 18.6451C350.965 17.4892 353.245 16.3669 355.404 15.0634C365.571 8.97895 376.327 4.15286 387.282 -0.330636C393.087 -2.70275 398.731 -5.47563 404.445 -8.02594C407.505 -9.39736 410.602 -10.688 413.854 -11.6558C411.694 -10.6606 409.52 -9.68216 407.36 -8.68698C396.016 -3.51649 384.65 1.55945 373.359 6.82741C368.602 9.03788 364.05 11.6688 359.356 14.024C352.247 17.612 345.098 21.1499 337.975 24.7212C336.55 25.4477 335.124 26.1741 333.74 26.9508C321.856 33.5798 309.961 40.1615 298.132 46.8573C287.607 52.815 277.319 59.1961 267.568 66.3991C260.173 71.8551 252.67 77.1468 245.372 82.7199C238.673 87.8265 232.26 93.315 225.572 98.4689C213.177 108.023 200.688 117.43 188.224 126.9C186.761 128.024 185.253 129.127 183.775 130.234C183.684 130.056 183.58 129.861 183.472 129.697Z" fill="#575D27" fill-opacity="0.2"/>
<path d="M195.439 123.646C195.878 123.087 196.22 122.411 196.753 121.999C203.209 117.178 209.648 112.37 216.16 107.615C225.224 100.978 234.344 94.4083 243.409 87.7714C252.571 81.0822 261.581 74.209 270.851 67.6842C277.211 63.2231 283.868 59.1913 290.419 54.995C293.489 53.0237 296.604 51.072 299.768 49.2484C310.973 42.7856 322.193 36.3396 333.437 29.9576C336.272 28.349 339.281 27.019 342.394 25.8839C339.801 27.377 337.239 28.873 334.646 30.3661C322.816 37.2314 310.89 43.9796 299.154 50.9926C290.229 56.333 281.505 61.9854 272.74 67.5876C270.146 69.2502 267.792 71.3055 265.292 73.1156C254.009 81.1891 242.716 89.2152 231.464 97.2916C224.928 101.982 218.403 106.72 211.908 111.461C206.392 115.479 200.931 119.564 195.442 123.615L195.439 123.646Z" fill="#575D27" fill-opacity="0.2"/>
<path d="M104.699 199.206C105.557 198.132 106.315 196.972 107.27 196.015C123.334 179.524 139.732 163.403 158.135 149.369C157.571 149.947 157.049 150.575 156.457 151.119C149.359 157.652 142.151 164.05 135.209 170.736C129.231 176.513 123.602 182.677 117.694 188.538C114.186 192.024 110.437 195.286 106.774 198.618C106.302 199.036 105.704 199.333 105.163 199.666C105.025 199.499 104.84 199.342 104.702 199.175L104.699 199.206Z" fill="#575D27" fill-opacity="0.2"/>
<path d="M168.153 137.276C169.986 135.679 171.802 134.096 173.634 132.499C180.437 126.632 187.118 120.584 194.087 114.918C201.49 108.892 209.059 103.068 216.791 97.4742C224.074 92.2232 231.727 87.4545 239.135 82.354C245.848 77.7419 252.666 73.3248 258.947 68.0856C263.018 64.6691 267.452 61.6571 271.731 58.4917C272.163 58.1632 272.661 57.9489 273.256 57.8518C265.556 63.7563 257.95 69.8085 250.111 75.5458C244.609 79.5804 238.806 83.2163 233.154 87.0363C228.492 90.1805 223.83 93.3248 219.224 96.5359C207.438 104.715 196.709 114.244 185.735 123.441C180.021 128.241 174.166 132.905 168.396 137.638C168.316 137.507 168.236 137.376 168.17 137.262L168.153 137.276Z" fill="#575D27" fill-opacity="0.2"/>
<path d="M158.402 143.354C160.541 141.139 162.69 138.972 164.801 136.724C173.891 127.085 184.08 118.675 194.491 110.534C201.57 105.001 208.925 99.8034 216.156 94.4549C218.776 92.5175 221.441 90.5998 224.31 88.9636C220.342 92.0973 216.405 95.2339 212.41 98.3341C207.952 101.76 203.469 105.121 198.998 108.53C184.819 119.332 171.754 131.38 158.865 143.676C158.721 143.57 158.577 143.463 158.419 143.34L158.402 143.354Z" fill="#575D27" fill-opacity="0.2"/>
<path d="M230.511 86.321C258.504 63.6977 287.733 42.8107 319.072 24.992C288.315 43.6523 259.1 64.556 230.511 86.321Z" fill="#575D27" fill-opacity="0.2"/>
<path d="M373.616 3.66235C348.32 16.4657 322.567 28.4086 299.484 42.5642C306.356 37.2585 315.062 32.4364 324.008 28.0072C327.858 26.0952 331.662 24.0246 335.29 21.7059C340.542 18.3562 346.393 16.3121 351.939 13.5915C355.043 12.0703 358.098 10.4211 361.255 8.99739C365.347 7.13928 369.486 5.43973 373.599 3.67616L373.616 3.66235Z" fill="#575D27" fill-opacity="0.2"/>
<path d="M137.065 161.806C125.636 173.826 114.224 185.832 102.808 197.869C102.651 197.746 102.507 197.639 102.349 197.516C103.967 195.421 105.555 193.324 107.204 191.232C115.948 180.218 126.674 171.198 136.556 161.326C136.725 161.496 136.88 161.65 137.049 161.82L137.065 161.806Z" fill="#575D27" fill-opacity="0.2"/>
<path d="M194.255 118.155C203.891 110.54 212.929 101.928 223.808 95.6499C223.409 96.1202 223.092 96.6908 222.627 97.0469C213.182 104.11 203.727 111.125 194.255 118.155Z" fill="#575D27" fill-opacity="0.2"/>
<path d="M89.0192 216.027C91.8277 211.318 95.2948 207.135 99.4924 203.53C96.2245 207.887 92.9595 212.213 89.6916 216.569C89.4619 216.393 89.2322 216.217 89.0025 216.041L89.0192 216.027Z" fill="#575D27" fill-opacity="0.2"/>
<path d="M319.697 27.317C323.718 25.2363 327.753 23.1724 331.773 21.0917C331.829 21.1586 331.837 21.2364 331.892 21.3034C327.868 23.4146 323.828 25.5396 319.79 27.6341C319.754 27.5228 319.736 27.3977 319.7 27.2864L319.697 27.317Z" fill="#575D27" fill-opacity="0.2"/>
<path d="M308.487 34.7965C310.721 33.5156 312.941 32.2179 315.191 30.9232C312.957 32.2041 310.737 33.5018 308.487 34.7965Z" fill="#575D27" fill-opacity="0.2"/>
<path d="M275.508 55.7403C276.861 54.9607 278.215 54.1811 279.538 53.3986C279.566 53.4321 279.593 53.4655 279.635 53.5157L275.719 55.7913C275.719 55.7913 275.599 55.7491 275.524 55.7265L275.508 55.7403Z" fill="#575D27" fill-opacity="0.2"/>
<path d="M282.081 51.2999C283.257 50.6111 284.463 49.9253 285.638 49.2365C285.666 49.2699 285.693 49.3034 285.721 49.3369C284.579 49.998 283.42 50.673 282.278 51.3342L282.098 51.2861L282.081 51.2999Z" fill="#575D27" fill-opacity="0.2"/>
<path d="M188.354 122.49C188.989 122.135 189.61 121.763 190.262 121.394C190.289 121.427 190.317 121.461 190.344 121.494C189.709 121.849 189.071 122.235 188.436 122.591C188.409 122.557 188.381 122.524 188.354 122.49Z" fill="#575D27" fill-opacity="0.2"/>
<path d="M195.439 123.646C194.748 124.104 194.074 124.548 193.369 124.989C193.342 124.955 193.314 124.922 193.286 124.888C193.988 124.478 194.707 124.054 195.423 123.66L195.439 123.646Z" fill="#575D27" fill-opacity="0.2"/>
<path d="M185.267 124.953C185.61 124.754 185.952 124.556 186.295 124.358C186.309 124.374 186.336 124.408 186.35 124.425C186.007 124.623 185.665 124.821 185.322 125.02C185.308 125.003 185.281 124.969 185.267 124.953Z" fill="#575D27" fill-opacity="0.2"/>
<path d="M113.378 238.284C116.169 232.156 118.989 226.031 121.752 219.869C123.616 215.687 125.029 211.23 127.331 207.305C130.221 202.389 132.039 196.922 135.619 192.365C138.674 188.466 141.036 184.069 143.991 180.083C149.138 173.164 154.94 166.8 161.561 161.224C163.622 159.495 165.669 157.749 167.73 156.02C167.855 156.171 167.979 156.321 168.106 156.441C165.363 159.184 162.691 161.979 159.892 164.654C152.397 171.796 145.815 179.703 139.964 188.189C136.887 192.64 134.212 197.408 131.791 202.246C126.273 213.214 121.05 224.302 115.634 235.326C115.095 236.445 114.863 237.902 113.287 238.275L113.348 238.281L113.378 238.284Z" fill="#575D27" fill-opacity="0.2"/>
<path d="M162.062 174.509C159.686 177.595 157.324 180.697 154.948 183.783C156.591 180.149 159.124 177.187 161.599 174.187C161.743 174.294 161.901 174.417 162.045 174.523L162.062 174.509Z" fill="#575D27" fill-opacity="0.2"/>
<path d="M157.26 186.516C157.667 184.521 159.277 183.473 160.387 182.023C160.545 182.146 160.716 182.285 160.874 182.408C159.634 183.769 158.425 185.133 157.185 186.493L157.26 186.516Z" fill="#575D27" fill-opacity="0.2"/>
<path d="M157.185 186.493C156.832 187.122 156.479 187.751 156.143 188.366C155.999 188.26 155.841 188.137 155.697 188.031C156.208 187.525 156.733 187.036 157.26 186.516L157.185 186.493Z" fill="#575D27" fill-opacity="0.2"/>
<path d="M157.04 172.718C156.654 173.205 156.299 173.695 155.914 174.182C155.814 174.096 155.711 174.04 155.612 173.953C155.95 173.477 156.275 172.984 156.63 172.494C156.777 172.57 156.91 172.629 157.04 172.718Z" fill="#575D27" fill-opacity="0.2"/>
<path d="M216.725 129.875C214.505 132.467 212.381 135.177 210.019 137.632C204.121 143.709 198.926 150.331 194.81 157.75C193.636 159.872 192.489 162.027 191.52 164.261C186.18 176.741 182.552 189.692 180.543 203.107C179.424 210.613 178.047 218.078 176.609 225.537C175.984 228.837 175.085 232.11 174.053 235.325C171.307 243.892 168.785 252.526 164.447 260.494C163.198 262.763 162.652 265.407 161.768 267.881C161.534 268.552 161.256 269.203 160.947 270.021C159.64 269.018 160.068 267.934 160.369 267.038C161.328 264.11 162.245 261.131 163.5 258.323C170.03 243.708 174.969 228.663 177.264 212.733C178.988 200.678 180.988 188.649 184.649 176.964C188.612 164.384 194.386 152.84 203.554 143.192C207.426 139.125 211.198 134.971 215.015 130.837C215.445 130.369 215.903 129.935 216.36 129.501C216.488 129.621 216.615 129.741 216.742 129.862L216.725 129.875Z" fill="#575D27" fill-opacity="0.2"/>
<path d="M208.447 155.018C205.904 159.367 203.068 163.564 200.863 168.084C197.872 174.208 194.89 180.41 192.762 186.864C188.839 198.708 186.675 211.014 184.153 223.193C183.544 226.171 182.619 229.072 181.83 232.001C181.633 231.967 181.422 231.916 181.208 231.895C181.22 231.295 181.17 230.69 181.273 230.098C183.637 215.377 186.243 200.71 190.914 186.533C194.671 175.135 200.204 164.662 207.699 155.27C207.838 155.098 208.05 154.98 208.22 154.811L208.45 154.988L208.447 155.018Z" fill="#575D27" fill-opacity="0.2"/>
<path d="M198.345 178.121C198.366 178.555 198.536 179.033 198.395 179.374C194.653 187.723 193.248 196.757 190.554 205.422C190.444 205.766 190.334 206.11 190.205 206.498C190.033 206.358 189.811 206.26 189.831 206.215C191.989 197.515 193.487 188.628 197.251 180.374C197.602 179.607 198.025 178.892 198.42 178.144L198.345 178.121Z" fill="#575D27" fill-opacity="0.2"/>
<path d="M198.42 178.144C198.637 177.487 198.868 176.846 199.085 176.189C199.246 176.281 199.423 176.36 199.584 176.452C199.176 177.014 198.754 177.559 198.345 178.121L198.42 178.144Z" fill="#575D27" fill-opacity="0.2"/>
<path d="M174.87 89.6545C157.494 91.1963 140.351 94.4864 122.951 95.7947C126.653 93.0209 165.229 88.4696 174.87 89.6545Z" fill="#575D27" fill-opacity="0.2"/>
<path d="M44.1641 92.6903C44.5954 92.5313 45.0217 92.2639 45.4689 92.2605C50.9802 92.1563 56.5054 92.0688 62.0276 92.0119C62.3665 92.0136 62.7104 92.1235 63.0585 92.5113C60.2966 92.7092 57.5485 92.9238 54.7895 93.0912C52.0777 93.2476 49.3689 93.3735 46.6463 93.4827C45.7184 93.5172 44.7177 93.6679 44.1729 92.5987L44.1336 92.6874L44.1641 92.6903Z" fill="#575D27" fill-opacity="0.2"/>
</svg>
