<svg width="287" height="307" viewBox="0 0 287 307" fill="none" xmlns="http://www.w3.org/2000/svg">
<path d="M260.61 334.333C235.827 345.922 212.336 363.796 184.389 366.738C156.708 369.635 128.048 353.633 104.201 341.242C81.468 329.474 59.0028 314.007 47.1462 290.517C34.0861 264.709 35.7353 234.666 25.3942 207.966C20.2236 194.594 10.6849 183.362 6.40582 169.633C0.165494 149.575 3.28563 125.104 10.4174 105.67C15.4097 92.1639 23.4776 79.4604 35.0668 70.7239C47.6811 61.2297 63.059 58.8228 78.1695 56.193C90.0262 54.1426 101.66 51.691 112.358 45.8965C124.927 39.0767 135.402 29.1367 147.526 21.6037C207.255 -15.4816 275.988 22.8518 317.709 68.2724C317.486 68.005 320.116 63.9042 319.18 62.8344C279.866 17.8595 215.234 -19.4041 155.772 11.1289C143.024 17.6812 132.46 27.4874 120.425 35.2433C105.359 44.9603 89.313 47.5456 72.1075 50.6657C44.6055 55.658 24.9485 68.8073 13.3593 94.6155C3.99882 115.387 -0.948814 140.838 1.63646 163.526C3.37484 178.726 10.9078 190.226 17.9058 203.42C25.7062 218.129 28.9601 234.131 31.902 250.401C37.34 280.666 44.9621 306.786 69.1211 327.246C91.3634 346.056 120.604 359.473 147.838 369.234C182.427 381.67 211.178 366.872 241.265 350.691C256.866 342.312 272.734 336.071 289.226 329.876C303.98 324.304 317.352 317.662 327.114 304.825C328.094 303.533 328.05 299.61 328.406 299.209C311.647 319.624 283.432 323.68 260.61 334.333Z" fill="#575D27" fill-opacity="0.2"/>
<path d="M108.792 101.792C104.468 100.856 99.4757 104.154 96.2664 106.561C86.995 113.426 79.5066 123.143 74.8709 133.662C74.7372 133.974 74.6035 135.267 74.6035 135.311C80.2198 127.868 85.0338 120.468 92.2101 114.362C95.8206 111.286 100.367 107.586 105.359 107.453C111.332 107.274 112.536 111.999 113.739 116.947C113.739 116.902 114.497 115.253 114.497 114.718C114.408 110.038 114.497 103.04 108.836 101.836L108.792 101.792Z" fill="#575D27" fill-opacity="0.2"/>
<path d="M142.4 171.238C131.613 163.839 121.317 155.815 109.594 149.932C98.9854 144.627 87.5746 141.73 77.5009 135.356C77.4118 135.311 76.8323 136.916 77.0106 137.139C84.9893 148.282 98.2723 151.001 109.817 157.108C122.431 163.794 133.976 172.308 146.145 179.796C159.294 187.864 193.036 206.585 204.269 186.839C204.447 186.527 204.491 185.546 204.536 185.457C191.164 203.42 155.015 179.841 142.4 171.193V171.238Z" fill="#575D27" fill-opacity="0.2"/>
<path d="M236.629 150.288C232.395 140.972 228.65 131.299 219.825 125.282C208.726 117.704 194.908 116.813 188.445 103.485C188.445 103.351 188.356 103.307 188.222 103.441C177.703 115.921 163.974 123.454 147.883 126.129C147.526 126.173 147.259 126.708 147.08 127.377C134.956 120.646 123.59 112.757 111.689 104.778C111.689 104.778 111.422 105.357 111.511 105.446C124.482 120.29 142.846 131.567 160.809 139.412C169.323 143.111 178.104 146.098 187.063 148.371C196.78 150.823 213.763 152.784 212.604 166.735C212.515 167.939 213.406 165.22 213.451 164.819C216.303 143.958 185.28 143.468 171.239 138.476C164.464 136.069 158.09 133.171 151.939 129.962C156.084 128.937 160.141 127.6 164.063 125.727C170.838 122.518 175.786 117.125 182.115 113.559C185.369 111.731 183.23 109.815 188.4 111.731C190.228 112.4 192.724 116.768 194.462 118.105C199.811 122.206 206.141 124.123 212.114 127.02C226.957 134.286 230.567 147.301 238.055 160.852C240.953 166.067 246.123 170.658 245.856 176.274C245.678 180.108 242.869 184.788 242.023 188.666C241.354 191.786 240.864 195.04 240.774 198.249C240.819 198.071 240.908 208.679 241.265 206.54C240.373 211.71 239.036 211.398 234.4 213.984C218.8 222.586 202.307 230.164 185.414 235.869C177.881 238.41 174.761 236.092 168.298 231.858C162.548 228.069 155.594 226.286 150.022 222.765C145.164 219.689 142.891 211.265 138.701 207.03C133.931 202.261 128.538 199.72 122.075 198.427C126.889 185.858 127.914 172.842 121.986 160.049C122.03 160.183 120.292 163.036 120.693 164.016C125.15 175.516 126.666 186.927 120.871 198.873C120.648 199.274 119.445 202.662 120.069 202.84C132.282 206.941 140.751 215.009 145.208 227.177C145.208 227.222 145.253 227.266 145.298 227.311C159.16 224.547 164.42 241.307 176.365 243.268C181.581 244.115 189.247 239.747 193.928 237.92C200.614 235.334 207.21 232.482 213.718 229.495C226.199 223.701 241.755 219.912 243.493 204.89C244.608 195.218 246.346 184.921 247.862 175.249C248.04 174.224 248.664 173.243 248.619 172.129C248.441 164.863 239.616 157.018 236.54 150.243L236.629 150.288Z" fill="#575D27" fill-opacity="0.2"/>
<path d="M51.3362 222.364C45.9873 215.589 38.3207 210.864 32.7489 204.178C26.7315 196.957 22.2741 188.621 17.9059 180.331C15.0977 175.026 12.2896 169.767 10.3284 164.106C11.5764 168.652 13.3148 173.244 15.6327 177.835C24.3245 195.218 34.6656 211.978 51.1133 223.166C51.1133 223.166 51.4253 222.453 51.3362 222.319V222.364Z" fill="#575D27" fill-opacity="0.2"/>
<path d="M8.14428 136.113C7.34196 143.334 7.25281 150.644 8.6346 157.821C9.03576 160.005 9.65979 162.1 10.373 164.15C7.83227 154.968 7.25281 145.741 8.14428 136.113Z" fill="#575D27" fill-opacity="0.2"/>
<path d="M9.70433 124.837C8.99115 128.67 8.45626 132.414 8.09967 136.069C8.54541 132.191 9.12484 128.358 9.88259 124.525C9.97174 124.123 9.7489 124.703 9.70433 124.837Z" fill="#575D27" fill-opacity="0.2"/>
<path d="M46.8343 224.771C41.3963 220.849 36.3149 216.703 31.7238 211.845C31.7684 211.889 31.1889 212.825 31.4117 213.048C35.9583 217.862 40.9505 222.364 46.5222 225.93C46.5222 225.93 47.0571 224.905 46.8343 224.727V224.771Z" fill="#575D27" fill-opacity="0.2"/>
<path d="M33.9079 218.664C33.9079 218.664 33.9971 218.441 33.9525 218.441C33.908 218.441 33.8633 218.664 33.9079 218.664Z" fill="#575D27" fill-opacity="0.2"/>
<path d="M61.4988 216.258C49.1965 212.246 38.9891 201.102 31.2778 191.073C22.898 180.153 16.6577 167.717 12.7798 154.523C12.7798 154.523 12.7352 154.612 12.7798 154.657C16.3011 167.583 21.9174 179.707 29.8961 190.494C37.3399 200.612 48.5724 214.029 61.2759 217.149C61.3651 217.149 61.6325 216.258 61.5434 216.213L61.4988 216.258Z" fill="#575D27" fill-opacity="0.2"/>
<path d="M71.2605 214.563C59.5376 212.335 51.1131 204.044 43.0453 195.798C43.0453 195.798 42.9115 196.065 42.9561 196.155C50.6228 204.757 59.0918 213.583 70.9484 215.633C71.0821 215.633 71.3496 214.563 71.2605 214.563Z" fill="#575D27" fill-opacity="0.2"/>
<path d="M77.8576 212.201C73.9351 209.794 69.4332 208.457 65.4661 206.05C61.5882 203.643 57.9777 200.834 54.7684 197.581C54.7684 197.581 54.5901 197.937 54.6347 198.026C60.3402 204.177 68.8537 211.978 77.6347 212.914C77.7239 212.914 77.9022 212.245 77.813 212.201H77.8576Z" fill="#575D27" fill-opacity="0.2"/>
<path d="M85.8807 210.151C81.1558 205.827 75.0492 202.663 69.4329 199.676C69.3884 199.676 68.8981 200.835 69.0763 200.924C74.8264 203.955 79.9969 207.833 85.6578 210.953C85.6578 210.953 85.9698 210.285 85.8807 210.151Z" fill="#575D27" fill-opacity="0.2"/>
<path d="M93.5027 208.412C85.9698 204.445 78.6597 201.28 71.9737 195.887C71.9737 195.887 71.4388 196.867 71.6616 197.046C77.8574 202.082 85.4349 207.253 93.3245 208.991C93.369 208.991 93.5473 208.456 93.4582 208.412H93.5027Z" fill="#575D27" fill-opacity="0.2"/>
<path d="M100.991 203.331C96.1773 201.994 91.6307 201.281 87.1734 198.829C82.8497 196.422 79.2839 193.168 76.2974 189.246C76.3866 189.335 75.7625 190.182 75.9408 190.494C81.5126 197.759 91.1851 204.668 100.813 204.044C100.902 204.044 101.08 203.42 100.991 203.376V203.331Z" fill="#575D27" fill-opacity="0.2"/>
<path d="M105.27 201.013C95.3304 199.943 87.53 190.36 79.6404 184.922C79.6404 184.922 79.5067 185.189 79.5513 185.234C83.7858 189.023 88.3323 192.41 92.7005 195.976C96.2664 198.873 100.011 202.93 105.003 201.949C105.181 201.949 105.315 201.013 105.27 201.013Z" fill="#575D27" fill-opacity="0.2"/>
<path d="M107.766 196.154C105.27 194.327 102.507 192.767 99.8769 191.162C99.8769 191.162 99.2975 192.276 99.5203 192.41C102.15 193.97 104.735 195.753 107.499 197.09C107.544 197.09 107.9 196.243 107.766 196.154Z" fill="#575D27" fill-opacity="0.2"/>
<path d="M8.99102 135.98C8.99102 135.98 9.16929 135.579 9.16929 135.445C8.99099 134.019 8.94647 132.592 8.94647 131.166C8.94647 132.726 8.94645 134.331 8.99102 135.935V135.98Z" fill="#575D27" fill-opacity="0.2"/>
<path d="M8.90186 131.21C8.94643 128.982 9.16934 126.798 9.43679 124.569C9.12477 126.753 8.90186 128.982 8.90186 131.21Z" fill="#575D27" fill-opacity="0.2"/>
<path d="M10.774 118.106C10.15 120.29 9.74883 122.429 9.48138 124.613C9.7934 122.429 10.2392 120.245 10.8186 118.106C10.8186 117.972 10.8186 117.972 10.8186 118.106H10.774Z" fill="#575D27" fill-opacity="0.2"/>
<path d="M12.7801 104.466C14.3847 96.8883 18.3072 90.4252 23.5223 85.0317C18.2626 90.1577 14.3847 96.4871 12.7801 104.466Z" fill="#575D27" fill-opacity="0.2"/>
<path d="M47.6366 70.055C38.7219 73.2643 30.0746 78.3011 23.5222 85.0763C34.9777 73.9329 52.9854 68.6287 68.2297 65.3302C87.5747 61.1403 107.989 57.4407 122.52 42.8205C122.61 42.7314 122.565 42.4639 122.61 42.4639C102.15 61.6751 72.6871 61.0065 47.6366 70.055Z" fill="#575D27" fill-opacity="0.2"/>
<path d="M12.1558 108.477C12.2004 107.942 12.2896 107.407 12.3787 106.873C12.2896 107.452 12.2004 107.987 12.1113 108.566C12.1113 108.611 12.1113 108.522 12.1113 108.477H12.1558Z" fill="#575D27" fill-opacity="0.2"/>
<path d="M12.7799 104.465C12.6907 104.822 12.6462 105.178 12.557 105.535C12.6016 105.178 12.6907 104.822 12.7799 104.465Z" fill="#575D27" fill-opacity="0.2"/>
<path d="M12.5571 105.58C12.468 106.026 12.4234 106.427 12.3788 106.873C12.4234 106.427 12.5125 105.981 12.5571 105.58Z" fill="#575D27" fill-opacity="0.2"/>
<path d="M96.0434 65.4196L95.9542 65.7763C107.454 62.3887 117.84 56.6832 126.487 48.3033C126.576 48.2142 126.532 47.9468 126.576 47.9468C117.617 55.8809 107.543 61.8983 96.0879 65.4196H96.0434Z" fill="#575D27" fill-opacity="0.2"/>
<path d="M106.608 66.6229C106.34 66.712 106.385 67.648 106.296 67.6926C112.982 65.5976 119.088 62.0318 123.902 56.9058C124.036 56.7721 124.036 56.2817 124.036 56.2817C118.91 60.962 113.249 64.5724 106.563 66.6674L106.608 66.6229Z" fill="#575D27" fill-opacity="0.2"/>
<path d="M113.739 69.8774C113.472 70.0111 113.472 71.0364 113.472 71.0364C118.687 68.2728 123.59 64.9298 127.691 60.6508C127.78 60.5616 127.825 60.0713 127.825 60.0713C123.367 63.7709 118.865 67.1584 113.695 69.8774H113.739Z" fill="#575D27" fill-opacity="0.2"/>
<path d="M121.094 70.9024L120.96 71.5265C122.387 70.5013 123.813 69.4761 125.239 68.4509C125.373 68.3617 125.329 67.916 125.373 67.916C123.947 68.8966 122.521 69.9218 121.139 70.9024H121.094Z" fill="#575D27" fill-opacity="0.2"/>
<path d="M125.863 73.7995C125.863 73.7995 125.953 73.5767 125.908 73.5767C125.863 73.5767 125.819 73.7995 125.863 73.7995Z" fill="#575D27" fill-opacity="0.2"/>
<path d="M134.421 75.1817C132.638 77.9007 130.098 79.3271 127.2 80.7089C127.067 80.7535 126.978 81.5112 127.022 81.5112C130.187 81.1546 132.861 78.391 134.332 75.7611C134.377 75.672 134.466 75.0925 134.421 75.1817Z" fill="#575D27" fill-opacity="0.2"/>
<path d="M105.538 165.086C105.538 165.086 105.315 165.532 105.404 165.576C117.172 171.193 117.929 184.431 116.77 195.797C116.77 196.154 116.993 195.396 116.993 195.307C118.776 183.807 117.751 170.078 105.538 165.042V165.086Z" fill="#575D27" fill-opacity="0.2"/>
<path d="M117.662 166.781C117.662 166.781 117.216 167.539 117.394 167.761C122.565 174.447 124.125 182.916 121.094 190.984C121.094 191.073 120.96 191.697 121.094 191.43C124.526 183.095 123.412 173.868 117.662 166.781Z" fill="#575D27" fill-opacity="0.2"/>
<path d="M108.97 182.248C108.97 182.248 108.613 182.827 108.702 183.05C109.104 183.852 109.505 184.655 109.951 185.412C109.951 185.412 110.263 184.877 110.173 184.744C109.772 183.897 109.371 183.094 108.97 182.248Z" fill="#575D27" fill-opacity="0.2"/>
<path d="M140.038 80.753C137.542 84.3635 134.689 87.4837 131.346 90.3365C131.212 90.4256 131.212 90.9158 131.212 90.9158C134.733 88.3751 137.675 85.0322 139.904 81.288C139.949 81.1988 140.082 80.6194 139.993 80.7085L140.038 80.753Z" fill="#575D27" fill-opacity="0.2"/>
<path d="M134.957 92.6545C134.957 92.6545 135.046 92.4316 135.001 92.4316C134.957 92.4316 134.912 92.6545 134.957 92.6545Z" fill="#575D27" fill-opacity="0.2"/>
<path d="M20.5357 94.1699C17.1036 100.99 14.5628 108.211 13.0028 115.654C12.9136 116.1 13.0919 115.744 13.1365 115.521C14.8749 108.211 17.2819 101.213 20.4912 94.4374C20.4912 94.3928 20.5803 93.9916 20.4912 94.1699H20.5357Z" fill="#575D27" fill-opacity="0.2"/>
<path d="M16.1229 123.099C16.1229 123.099 16.1229 122.92 16.0783 123.099C12.557 135.134 13.8051 147.748 20.3574 158.535C20.3574 158.535 20.4911 158.267 20.4465 158.223C14.4736 147.302 12.6462 135.267 16.1229 123.099Z" fill="#575D27" fill-opacity="0.2"/>
<path d="M48.0378 191.519C34.3536 173.868 22.0513 154.924 21.7393 131.835C21.7393 131.79 21.6056 132.102 21.6056 132.191C21.873 154.657 33.1056 175.695 47.9041 192.143C47.9041 192.143 48.1715 191.653 48.0824 191.519H48.0378Z" fill="#575D27" fill-opacity="0.2"/>
<path d="M57.7102 193.212C52.6288 186.214 47.6366 179.216 43.2683 171.772C43.2683 171.772 42.8226 172.53 42.9563 172.798C47.2799 180.197 51.9602 187.596 57.4428 194.148C57.4428 194.104 57.8439 193.435 57.7102 193.212Z" fill="#575D27" fill-opacity="0.2"/>
<path d="M37.7411 186.482C33.5512 181.267 29.3167 176.23 25.6171 170.703C25.6171 170.703 25.3496 171.193 25.4388 171.327C28.9601 176.943 32.7935 182.56 37.5628 187.195C37.5628 187.195 37.8748 186.616 37.7411 186.482Z" fill="#575D27" fill-opacity="0.2"/>
<path d="M38.3652 268.988C34.1307 253.61 38.8109 238.143 34.8439 222.943C31.4117 209.794 23.2547 197.046 13.2256 187.953C13.2256 187.953 12.7353 189.022 12.8244 189.245C14.3399 192.098 15.9446 194.861 17.5938 197.625C17.4601 198.026 17.3709 198.427 17.4601 198.606C20.6694 207.298 25.0376 215.499 28.2915 224.191C30.9659 231.367 32.3031 238.499 33.6849 245.898C32.9272 255.304 31.7237 265.645 37.4291 272.108C37.4291 272.108 38.4989 269.478 38.3652 268.988Z" fill="#575D27" fill-opacity="0.2"/>
<path d="M90.6948 320.961C77.1444 310.887 64.5746 300.501 55.3478 286.104C45.2741 270.37 40.5493 252.094 42.1986 233.463C42.1986 233.15 41.9757 233.864 41.9757 233.997C38.4098 269.121 59.3149 305.449 90.4274 321.852C90.4274 321.852 90.7839 321.095 90.6502 321.005L90.6948 320.961Z" fill="#575D27" fill-opacity="0.2"/>
<path d="M86.3712 322.966C77.4564 316.146 68.7646 309.817 61.3653 301.303C53.4312 292.21 47.2355 281.824 42.8673 270.592C42.8673 270.636 42.5106 271.216 42.5998 271.483C50.4002 292.166 65.8227 313.784 86.1928 323.724C86.1928 323.724 86.5049 323.1 86.3712 323.011V322.966Z" fill="#575D27" fill-opacity="0.2"/>
<path d="M96.8458 315.567C77.9465 305.494 65.1539 289.492 55.3476 270.682C55.3476 270.682 55.214 270.905 55.2586 270.994C64.3962 289.18 76.6985 308.792 96.5338 316.726C96.6229 316.726 97.0241 315.657 96.8458 315.567Z" fill="#575D27" fill-opacity="0.2"/>
<path d="M97.9602 310.041C91.2296 304.425 84.499 299.299 78.5707 292.791C78.6153 292.836 78.0358 293.772 78.2587 293.994C83.9195 300.19 90.3827 306.743 97.6928 310.977C97.6928 310.977 98.094 310.13 97.9602 309.997V310.041Z" fill="#575D27" fill-opacity="0.2"/>
<path d="M97.2471 302.24C96.0436 300.591 94.1715 299.298 92.656 297.827C91.1405 296.356 89.7141 294.885 88.2877 293.325C88.3323 293.37 87.7083 294.35 87.9311 294.573C89.3575 296.089 90.7839 297.604 92.2994 299.075C93.6812 300.412 95.2413 302.329 96.9797 303.087C97.0688 303.087 97.2916 302.329 97.2025 302.195L97.2471 302.24Z" fill="#575D27" fill-opacity="0.2"/>
<path d="M98.5844 296.624C97.4255 295.242 95.6871 294.217 94.3053 293.103C94.3053 293.103 93.9933 293.727 94.127 293.816C95.4196 295.064 96.8014 296.713 98.3615 297.56C98.4061 297.56 98.7181 296.713 98.6289 296.624H98.5844Z" fill="#575D27" fill-opacity="0.2"/>
<path d="M100.456 293.549C99.4758 292.523 97.5145 292.612 96.2219 292.835C95.9545 292.88 95.9099 294.039 95.9099 294.039C96.6231 293.905 97.3363 293.861 98.094 293.95C98.8072 294.039 99.5204 294.395 100.234 294.351C100.367 294.351 100.546 293.593 100.456 293.504V293.549Z" fill="#575D27" fill-opacity="0.2"/>
<path d="M130.811 37.2937V37.383C134.957 36.4469 138.478 34.7085 141.687 31.9004C141.776 31.8112 141.776 31.4992 141.776 31.4546C138.433 33.9507 134.778 35.9565 130.811 37.2937Z" fill="#575D27" fill-opacity="0.2"/>
<path d="M304.738 69.9659C296.358 55.7023 282.807 39.4328 267.296 32.8359C267.296 32.8359 267.117 33.1925 267.207 33.2371C282.941 40.6809 295.244 56.5938 304.515 70.7682C304.515 70.7682 304.871 70.1442 304.782 69.9659H304.738Z" fill="#575D27" fill-opacity="0.2"/>
<path d="M283.03 48.8379C283.03 48.8379 282.495 49.8632 282.718 50.0415C289.315 55.5241 293.995 62.1656 297.695 69.8323C297.695 69.8323 298.141 69.0298 298.052 68.7624C294.931 60.962 289.538 54.1423 283.075 48.7935L283.03 48.8379Z" fill="#575D27" fill-opacity="0.2"/>
<path d="M280.534 51.8693C280.534 51.8693 280 52.8053 280.222 53.0281C285.081 58.065 288.424 63.8151 292.257 69.5651C292.257 69.5651 292.569 68.9856 292.48 68.8073C289.895 62.4778 285.215 56.6832 280.534 51.8247V51.8693Z" fill="#575D27" fill-opacity="0.2"/>
<path d="M278.083 53.697C278.083 53.697 277.548 54.6329 277.771 54.8558C282.273 60.3384 285.17 66.2668 288.201 72.6408C288.201 72.6408 288.513 72.0168 288.468 71.7939C286.418 65.1524 282.451 59.0012 278.083 53.6523V53.697Z" fill="#575D27" fill-opacity="0.2"/>
<path d="M277.637 60.249C277.637 60.249 277.057 61.2295 277.28 61.5416C280.623 66.311 283.03 71.437 285.883 76.4738C285.883 76.4738 286.15 75.9389 286.106 75.8052C284.189 70.2335 280.98 65.1075 277.637 60.2935V60.249Z" fill="#575D27" fill-opacity="0.2"/>
<path d="M275.096 66.4897C275.096 66.4897 274.695 67.2029 274.784 67.4704C276.389 71.6603 277.904 75.8947 279.643 80.0401C279.643 80.0401 279.866 79.6835 279.821 79.5498C278.395 75.137 276.701 70.858 275.096 66.4897Z" fill="#575D27" fill-opacity="0.2"/>
<path d="M286.552 66.4896C286.552 66.4896 286.641 66.2666 286.596 66.2666C286.552 66.2666 286.507 66.4896 286.552 66.4896Z" fill="#575D27" fill-opacity="0.2"/>
<path d="M248.709 173.913C248.709 174.715 248.709 175.473 248.664 176.275C248.798 176.899 248.976 177.523 249.11 178.147C249.333 179.039 248.397 180.777 247.995 181.669C247.862 182.293 247.773 182.872 247.639 183.496C247.639 183.808 247.594 184.076 247.55 184.432C247.55 184.744 247.238 185.636 246.97 186.482C245.767 191.074 243.583 196.378 243.984 200.835C243.36 204.624 243.716 204.669 245.054 200.88C245.054 200.835 245.098 200.791 245.143 200.746C245.499 196.957 246.079 193.169 246.97 189.38C247.461 187.374 248.129 185.413 248.753 183.451C249.333 178.548 249.556 174.136 248.932 172.174C248.932 172.754 248.798 173.378 248.753 173.957L248.709 173.913Z" fill="#575D27" fill-opacity="0.2"/>
<path d="M299.077 208.235C297.963 207.432 296.715 206.853 295.377 206.496C290.92 204.446 286.463 203.064 281.604 202.262C277.459 200.523 272.645 200.301 267.965 200.033C264.755 199.052 261.813 197.448 259.496 194.729C259.585 194.818 258.693 196.244 258.916 196.645C259.585 197.715 260.342 198.562 261.145 199.364C256.643 198.607 252.631 197.002 249.957 192.768C249.912 189.692 250.358 186.349 250.715 183.585C250.982 181.936 251.205 180.332 251.383 178.771C252.096 176.097 253.211 173.378 253.166 170.614C253.032 163.171 247.461 159.694 243.404 154.122C236.897 145.207 233.286 134.866 231.904 124.035C231.904 123.901 231.771 123.857 231.682 123.99C231.503 124.124 231.37 124.258 231.191 124.391C231.28 123.634 231.459 122.029 231.28 122.207C230.389 123.233 229.453 123.99 228.472 124.481C226.333 123.678 223.837 123.767 221.43 123.366C209.172 121.227 198.563 114.808 189.871 106.116C189.871 106.116 189.158 107.498 189.381 107.81C196.246 118.24 205.74 125.818 217.997 128.983C219.246 129.295 220.404 129.517 221.43 129.74C223.034 130.944 224.416 130.855 225.709 130.765C225.798 130.765 225.932 130.855 226.021 130.899C226.021 130.988 226.021 131.122 226.021 131.167C226.288 131.924 226.511 132.727 226.779 133.485C227.001 138.031 226.645 136.204 228.472 141.151C228.472 141.196 228.873 140.26 229.275 139.19C229.899 140.616 230.567 141.998 231.236 143.38C231.503 144.895 232.083 146.322 233.554 147.837C233.509 147.793 233.732 147.302 233.999 146.634C236.406 152.874 239.794 158.49 243.806 163.884C245.499 166.157 246.97 167.762 248.085 169.277C247.996 169.768 247.906 170.213 247.906 170.392C247.862 170.837 247.817 171.283 247.773 171.729C247.372 172.709 246.881 173.913 246.881 174.492C246.881 185.591 242.335 195.932 241.176 206.764C240.061 204.089 238.279 201.682 236.763 199.231C235.114 196.601 233.465 193.971 231.815 191.341C231.815 191.341 230.211 194.06 230.701 194.863C232.484 197.671 234.222 200.434 236.005 203.242C237.387 205.471 238.68 208.591 240.864 210.107C240.864 210.107 240.953 210.062 240.998 209.928C240.998 210.196 240.953 210.508 240.953 210.775C238.323 212.826 235.827 214.965 233.465 216.971C225.129 223.969 217.017 227.936 206.364 230.343C201.996 231.324 197.627 232.082 193.348 233.33C190.183 234.266 185.815 237.074 182.561 237.52C176.321 238.411 173.335 233.374 168.476 230.611C163.528 227.803 159.561 227.535 154.034 227.134C153.99 227.134 153.856 227.535 153.9 227.58C163.216 232.75 171.507 239.659 176.722 249.064C176.811 249.332 176.945 249.376 177.123 249.198C190.317 241.665 206.23 243.448 219.468 236.361C224.951 233.419 229.052 228.917 233.777 224.994C236.362 222.81 239.125 220.938 241.934 219.155C241.934 219.467 242.067 219.69 242.246 219.556C245.009 217.729 248.308 216.08 251.116 214.029C254.904 216.837 258.916 215.768 263.151 213.94C267.207 212.157 270.327 210.864 274.74 210.597C275.23 210.597 275.72 210.597 276.211 210.553C282.986 210.865 289.761 211.177 296.536 211.622C296.626 211.622 296.759 211.444 296.893 211.221C297.339 211.444 297.784 211.667 298.23 211.934C298.364 212.023 299.701 208.859 299.166 208.458L299.077 208.235ZM248.709 183.407C248.085 185.368 247.416 187.33 246.926 189.335C246.034 193.08 245.455 196.868 245.098 200.702C245.098 200.746 245.054 200.791 245.009 200.835C243.672 204.58 243.315 204.58 243.939 200.791C243.538 196.334 245.722 191.029 246.926 186.438C247.238 185.591 247.505 184.7 247.505 184.388C247.505 184.031 247.55 183.764 247.594 183.452C247.728 182.828 247.862 182.248 247.951 181.624C248.352 180.733 249.288 178.994 249.065 178.103C248.932 177.479 248.753 176.855 248.62 176.231C248.664 175.428 248.709 174.671 248.664 173.868C248.709 173.289 248.798 172.709 248.842 172.085C249.511 174.047 249.244 178.459 248.664 183.363L248.709 183.407Z" fill="#575D27" fill-opacity="0.2"/>
<path d="M238.724 119.488C238.724 119.488 238.501 120.647 238.679 120.201C242.691 110.662 248.798 103.308 256.776 96.889C256.999 96.7107 256.999 95.8638 256.999 95.8638C248.575 101.48 242.335 110.127 238.724 119.488Z" fill="#575D27" fill-opacity="0.2"/>
<path d="M138.166 95.4622C138.166 95.4622 138.076 95.8633 138.076 95.9079C140.929 93.7684 143.247 91.0939 144.852 87.9292C144.852 87.8846 144.941 87.5726 144.896 87.6171C143.203 90.6927 140.974 93.3671 138.121 95.5066L138.166 95.4622Z" fill="#575D27" fill-opacity="0.2"/>
<path d="M150.468 88.0627C146.768 95.3282 141.419 100.633 134.555 104.912C134.511 104.912 134.555 105.134 134.511 105.134C141.732 102.059 147.348 95.7294 150.379 88.5976C150.423 88.5084 150.513 87.9736 150.468 88.0627Z" fill="#575D27" fill-opacity="0.2"/>
<path d="M154.257 90.8715C150.156 98.8502 144.896 106.517 136.249 109.86C136.026 109.949 136.071 110.662 136.026 110.707C144.986 107.631 150.424 99.6079 154.212 91.2727C154.212 91.1835 154.301 90.8269 154.257 90.8715Z" fill="#575D27" fill-opacity="0.2"/>
<path d="M158.09 96.4878C155.639 103.129 149.799 107.275 144.139 111.064C143.827 111.286 143.827 112.534 143.782 112.534C149.755 108.478 155.862 104.065 158.09 96.8445C158.135 96.6662 158.269 95.8639 158.09 96.4433V96.4878Z" fill="#575D27" fill-opacity="0.2"/>
<path d="M161.656 101.48C158.313 107.631 154.078 112.935 148.462 117.214C148.106 117.482 148.15 118.73 148.106 118.774C153.9 114.406 158.536 108.835 161.522 102.238C161.567 102.104 161.701 101.391 161.611 101.524L161.656 101.48Z" fill="#575D27" fill-opacity="0.2"/>
<path d="M161.745 110.93C161.745 110.93 161.834 110.707 161.79 110.707C161.745 110.707 161.7 110.93 161.745 110.93Z" fill="#575D27" fill-opacity="0.2"/>
<path d="M197.404 68.4502C182.606 69.0742 171.863 86.859 164.642 97.735C164.553 97.8688 164.42 98.6266 164.509 98.5375C171.551 88.5084 179.976 75.582 192.189 71.2584C197.315 69.4308 202.575 70.2331 206.765 73.799C213.674 79.5935 214.164 88.9095 212.515 97.2002C212.381 97.7796 212.693 97.0665 212.737 96.8883C215.323 85.7002 212.559 67.8261 197.404 68.4947V68.4502Z" fill="#575D27" fill-opacity="0.2"/>
<path d="M198.964 79.4162C193.125 73.265 183.809 81.6448 179.441 85.7902C173.602 91.3173 168.832 98.0479 164.865 105.001C164.821 105.135 164.687 105.67 164.776 105.581C169.189 99.0286 173.423 92.4318 179.173 86.9938C184.032 82.4027 192.144 75.3154 198.786 80.1294C198.786 80.1294 199.098 79.5053 198.964 79.4162Z" fill="#575D27" fill-opacity="0.2"/>
<path d="M198.207 87.2609C185.458 80.8869 173.156 101.48 166.515 109.191C166.381 109.325 166.425 109.771 166.381 109.815C174.672 100.499 183.676 85.2996 197.939 88.1969C198.028 88.1969 198.34 87.3055 198.207 87.2609Z" fill="#575D27" fill-opacity="0.2"/>
<path d="M178.817 102.995C178.817 102.995 178.906 102.772 178.861 102.772C178.817 102.772 178.772 102.995 178.817 102.995Z" fill="#575D27" fill-opacity="0.2"/>
<path d="M206.943 64.2163C206.943 64.2163 206.542 65.197 206.676 65.2416C217.864 67.8268 224.639 78.1679 222.321 89.5341C222.232 89.9799 222.41 89.6233 222.455 89.4004C225.307 77.8558 218.711 66.8016 206.943 64.2609V64.2163Z" fill="#575D27" fill-opacity="0.2"/>
<path d="M218.978 71.348C218.978 71.348 219.067 71.125 219.022 71.125C218.978 71.125 218.933 71.348 218.978 71.348Z" fill="#575D27" fill-opacity="0.2"/>
<path d="M105.449 210.552C105.226 210.641 105.27 211.443 105.226 211.443C121.629 206.763 138.032 222.23 132.728 239.124C132.683 239.302 132.549 240.193 132.728 239.569C138.968 221.74 124.125 204.757 105.404 210.552H105.449Z" fill="#575D27" fill-opacity="0.2"/>
<path d="M123.679 243.714C129.608 237.028 129.296 226.197 123.768 219.466C123.858 219.555 123.055 220.714 123.323 221.026C128.404 227.4 128.582 236.003 123.813 242.868C123.679 243.046 123.679 243.67 123.635 243.714H123.679Z" fill="#575D27" fill-opacity="0.2"/>
<path d="M133.887 213.048C133.887 213.048 133.218 214.296 133.486 214.519C140.706 221.16 142.846 231.635 137.987 240.55C137.898 240.728 137.765 241.53 137.854 241.441C143.738 232.482 141.999 220.046 133.931 213.048H133.887Z" fill="#575D27" fill-opacity="0.2"/>
<path d="M145.521 239.034C145.298 239.257 145.298 240.237 145.253 240.237C149.71 236.582 155.906 236.627 160.899 239.212C167.005 242.377 169.501 248.662 172.265 254.501C172.265 254.501 172.755 253.431 172.711 253.119C170.393 241.263 156.798 227.623 145.521 238.989V239.034Z" fill="#575D27" fill-opacity="0.2"/>
<path d="M162.146 247.058C162.146 247.058 160.943 249.108 161.433 249.688C164.42 253.343 167.228 257.399 170.794 260.563C170.794 260.563 171.284 259.494 171.195 259.271C168.61 254.903 165.267 251.025 162.146 247.058Z" fill="#575D27" fill-opacity="0.2"/>
<path d="M258.158 162.1C246.569 153.096 239.883 140.125 242.245 125.237C242.29 124.836 242.112 125.415 242.067 125.505C239.259 139.501 244.964 155.681 257.98 162.635C257.98 162.635 258.203 162.144 258.114 162.055L258.158 162.1Z" fill="#575D27" fill-opacity="0.2"/>
<path d="M264.755 158.49C255.751 151.403 249.065 143.736 247.906 131.835C247.906 132.058 247.327 132.994 247.371 133.529C248.352 143.736 254.369 155.593 264.532 159.426C264.621 159.426 264.889 158.579 264.8 158.49H264.755Z" fill="#575D27" fill-opacity="0.2"/>
<path d="M271.263 157.553C265.29 152.605 260.61 147.435 258.604 139.724C258.604 139.857 257.98 140.838 258.114 141.284C259.897 148.148 264.31 155.414 271.04 158.4C271.085 158.4 271.397 157.598 271.263 157.509V157.553Z" fill="#575D27" fill-opacity="0.2"/>
<path d="M259.763 167.137C259.763 167.137 259.941 166.424 259.852 166.513C254.503 174.403 253.924 188.844 262.437 194.817C262.437 194.817 262.705 194.282 262.616 194.193C256.866 185.591 253.924 177.211 259.718 167.137H259.763Z" fill="#575D27" fill-opacity="0.2"/>
<path d="M266.583 167.672C266.182 167.672 265.781 167.672 265.335 167.716C265.246 167.716 265.156 168.296 265.201 168.296C265.602 168.341 266.003 168.341 266.405 168.341C266.538 168.341 266.627 167.672 266.583 167.672Z" fill="#575D27" fill-opacity="0.2"/>
<path d="M326.935 288.734C314.945 310.486 289.716 316.771 267.786 323.769C256.776 327.246 245.99 331.213 236.406 337.81C226.333 344.764 217.507 353.188 205.65 357.021C205.517 357.021 205.517 357.512 205.517 357.512C216.482 355.015 224.862 347.527 233.732 341.064C245.143 332.773 258.024 328.138 271.441 324.126C292.435 317.841 316.015 310.62 326.802 289.715C326.891 289.537 327.025 288.645 326.98 288.779L326.935 288.734Z" fill="#575D27" fill-opacity="0.2"/>
<path d="M327.693 269.879C322.032 310.486 269.346 314.72 239.972 329.028C239.794 329.117 239.794 329.92 239.794 329.92C269.703 314.631 323.013 311.823 328.005 269.3C328.005 268.943 327.738 269.745 327.738 269.879H327.693Z" fill="#575D27" fill-opacity="0.2"/>
<path d="M322.612 264.486C322.211 284.901 305.05 297.382 288.513 305.494C274.427 312.403 258.96 317.484 243.85 321.496C243.672 321.541 243.716 322.165 243.672 322.209C263.819 316.192 284.323 311.512 301.885 299.254C313.563 291.097 323.325 278.794 322.879 263.951C322.879 263.862 322.656 264.397 322.656 264.531L322.612 264.486Z" fill="#575D27" fill-opacity="0.2"/>
<path d="M319.759 252.228C319.447 268.586 312.315 283.964 299.166 293.815C289.271 301.214 277.058 305.181 265.246 308.48C265.067 308.524 265.112 309.149 265.067 309.149C281.872 304.513 298.81 298.986 309.552 284.276C316.372 274.96 320.16 263.327 319.938 251.782C319.938 251.693 319.759 252.139 319.759 252.228Z" fill="#575D27" fill-opacity="0.2"/>
<path d="M47.7255 233.285C47.7255 233.285 47.4135 233.953 47.3689 234.176C46.8341 245.23 48.617 256.196 53.1635 266.358C53.1635 266.358 53.3864 266.002 53.3418 265.868C49.4193 255.26 47.4135 244.651 47.7255 233.285Z" fill="#575D27" fill-opacity="0.2"/>
<path d="M58.2449 259.582C55.1248 253.386 49.7313 245.229 51.6926 238.053C51.8709 237.295 51.6926 237.251 51.4697 238.008C49.8205 244.16 52.3166 249.419 54.9464 255.036C58.6461 262.881 62.8806 270.503 67.8282 277.635C67.8282 277.635 68.0957 277.189 68.0066 277.055C64.619 271.305 61.3205 265.555 58.2895 259.582H58.2449Z" fill="#575D27" fill-opacity="0.2"/>
<path d="M67.6055 257.532C67.6055 257.532 67.0706 258.424 67.2043 258.736C69.433 262.569 71.216 266.625 72.776 270.771C72.776 270.726 73.1772 270.102 73.0881 269.835C71.7063 265.556 69.8342 261.455 67.6055 257.577V257.532Z" fill="#575D27" fill-opacity="0.2"/>
<path d="M200.435 184.833C190.183 184.12 181.179 182.471 171.908 177.746C162.77 173.11 154.524 166.87 146.501 160.54C131.346 148.506 113.695 133.529 92.9233 135.401C92.745 135.401 92.5667 136.381 92.6559 136.426C113.338 139.323 129.607 150.199 145.966 162.635C160.809 173.913 180.109 189.112 200.078 186.17C200.301 186.17 200.524 184.833 200.435 184.833Z" fill="#575D27" fill-opacity="0.2"/>
<path d="M175.34 184.52C164.553 180.108 155.104 174.224 145.699 167.404C136.427 160.673 127.156 153.765 116.191 150.065C116.102 150.065 115.834 150.912 115.968 150.956C126.71 155.414 136.026 162.055 145.342 168.83C154.435 175.472 164.019 182.648 175.162 185.234C175.251 185.234 175.429 184.565 175.34 184.52Z" fill="#575D27" fill-opacity="0.2"/>
<path d="M204.625 179.261C193.794 178.904 184.745 178.459 174.806 173.466C166.158 169.098 158.714 162.858 151.895 156.038C151.939 156.083 151.181 157.286 151.493 157.598C164.42 170.569 184.879 185.769 204.447 180.152C204.581 180.152 204.714 179.306 204.67 179.306L204.625 179.261Z" fill="#575D27" fill-opacity="0.2"/>
<path d="M204.581 174.002C192.768 173.957 182.338 172.263 172.265 165.755C172.265 165.755 171.863 166.558 171.997 166.691C181.224 173.065 192.902 177.077 204.224 175.339C204.491 175.339 204.625 174.046 204.581 174.046V174.002Z" fill="#575D27" fill-opacity="0.2"/>
<path d="M203.957 169.856C196.736 167.538 188.757 167.093 181.402 165.131C181.313 165.131 181.046 165.934 181.179 165.978C188.178 168.207 196.201 171.282 203.6 171.282C203.823 171.282 204.135 169.901 204.001 169.856H203.957Z" fill="#575D27" fill-opacity="0.2"/>
<path d="M202.753 163.66C201.371 163.438 199.856 163.66 198.43 163.527C196.959 163.393 195.577 162.992 194.24 162.457C194.15 162.457 193.66 163.705 193.883 163.794C196.335 164.864 199.767 165.889 202.397 164.998C202.619 164.909 202.887 163.66 202.753 163.66Z" fill="#575D27" fill-opacity="0.2"/>
<path d="M152.875 192.009C146.323 191.697 139.458 196.778 135.358 201.459C134.912 201.949 134.867 203.955 134.778 204.044C137.274 201.815 139.815 199.72 142.757 198.071C145.877 196.333 149.265 195.218 152.474 193.703C152.697 193.614 153.009 191.964 152.92 191.964L152.875 192.009Z" fill="#575D27" fill-opacity="0.2"/>
<path d="M217.641 168.652C215.1 171.55 213.585 175.026 212.827 178.771C212.336 181.088 212.336 183.139 212.381 185.501C212.47 189.067 211.935 188.488 208.86 190.583C201.683 195.441 197.627 203.108 195.933 211.354C188.311 206.941 179.798 204.356 170.972 204.222C168.922 204.222 166.827 204.579 164.776 204.49C161.478 204.356 161.478 204.222 160.586 201.459C159.338 197.581 159.115 194.059 156.887 190.449C156.887 190.449 155.862 192.321 156.129 192.9C158.313 197.982 159.695 202.618 159.739 208.234C159.739 208.323 159.739 208.412 159.829 208.501C172.354 206.451 184.612 208.769 195.532 215.232C195.844 215.41 196.513 212.513 196.557 212.245C197.404 205.292 201.371 199.23 206.765 195.04C208.949 193.346 211.891 192.455 213.273 189.959C213.674 189.245 213.897 188.399 214.03 187.641C215.1 181.044 211.4 179.306 217.15 171.371C217.596 170.792 217.641 168.875 217.774 168.697L217.641 168.652Z" fill="#575D27" fill-opacity="0.2"/>
<path d="M241.354 185.19C237.209 184.521 233.019 185.546 228.784 184.521C227.09 184.12 221.073 180.91 220.003 181.891C219.691 182.158 219.29 183.496 219.468 183.852C219.513 183.941 219.557 184.031 219.602 184.12C219.602 184.164 219.602 184.164 219.691 184.12C219.78 184.075 219.914 183.986 220.003 183.941C220.939 184.164 221.875 185.1 222.633 185.501C224.505 186.527 226.511 187.24 228.606 187.775C232.395 188.755 237.03 189.379 240.641 187.73C240.997 187.552 241.666 185.1 241.354 185.056V185.19Z" fill="#575D27" fill-opacity="0.2"/>
<path d="M234.178 165.755C232.083 166.334 229.988 168.697 228.116 169.856C225.352 171.594 222.41 173.065 219.379 174.313C218.844 174.536 218.8 176.72 218.711 176.72C223.926 175.338 230.166 172.664 233.509 168.296C233.687 168.028 234.267 165.71 234.133 165.755H234.178Z" fill="#575D27" fill-opacity="0.2"/>
<path d="M222.811 155.905C222.588 156.172 222.633 156.93 222.544 157.019C223.346 155.994 224.193 154.924 224.995 153.899C225.174 153.676 225.129 153.007 225.218 152.963C224.416 153.944 223.614 154.924 222.811 155.905Z" fill="#575D27" fill-opacity="0.2"/>
<path d="M221.964 138.119C220.984 138.654 220.36 139.991 219.691 140.883C218.755 142.131 217.73 143.334 216.66 144.538C214.61 146.766 212.381 148.817 210.018 150.689C209.706 150.956 209.706 152.249 209.662 152.249C214.342 149.084 219.29 144.85 221.697 139.635C221.786 139.456 222.098 138.03 221.964 138.119Z" fill="#575D27" fill-opacity="0.2"/>
<path d="M223.613 134.509C209.127 131.433 198.429 125.683 187.821 115.297C187.821 115.297 187.33 116.323 187.464 116.501C194.953 128.09 209.038 136.559 222.9 137.139C223.302 137.139 223.881 134.553 223.613 134.509Z" fill="#575D27" fill-opacity="0.2"/>
<path d="M216.125 137.673C213.228 135.712 209.305 134.999 206.141 133.394C202.887 131.745 199.9 129.784 197.048 127.555C197.048 127.555 195.8 129.873 196.29 130.274C199.143 132.503 202.174 134.509 205.383 136.113C208.414 137.629 212.203 139.679 215.635 139.501C215.902 139.501 216.348 137.807 216.125 137.673Z" fill="#575D27" fill-opacity="0.2"/>
<path d="M169.412 223.344C166.247 217.55 159.294 217.015 153.499 215.366C150.067 214.385 147.125 213.137 145.119 210.061C143.113 207.03 143.024 204.044 139.012 203.108C138.834 203.063 138.344 204.757 138.522 204.846C142.177 206.183 142.4 209.705 144.317 212.602C145.966 215.098 148.462 216.48 151.27 217.371C157.733 219.422 164.732 218.486 168.921 224.86C168.921 224.86 169.59 223.701 169.412 223.344Z" fill="#575D27" fill-opacity="0.2"/>
<path d="M163.573 215.01C163.573 215.01 163.662 214.787 163.617 214.787C163.573 214.787 163.528 215.01 163.573 215.01Z" fill="#575D27" fill-opacity="0.2"/>
<path d="M163.172 209.304C163.172 209.304 162.726 210.507 162.815 210.552C164.687 210.953 166.559 211.31 168.298 212.112C170.036 212.914 171.418 214.207 173.111 215.009C173.245 215.054 173.646 213.761 173.557 213.583C171.551 210.329 166.871 208.813 163.172 209.304Z" fill="#575D27" fill-opacity="0.2"/>
<path d="M171.73 219.155C168.922 215.722 164.241 213.806 160.051 212.691C159.962 212.691 159.65 213.628 159.784 213.717C161.879 214.564 163.885 215.589 165.846 216.748C167.718 217.862 169.457 219.333 171.418 220.313C171.507 220.313 171.819 219.333 171.73 219.199V219.155Z" fill="#575D27" fill-opacity="0.2"/>
<path d="M170.437 225.929C166.114 220.402 157.957 219.421 151.627 221.383C151.449 221.427 151.404 222.23 151.404 222.23C154.747 221.918 157.912 222.14 161.166 222.987C164.42 223.879 167.094 225.706 170.125 227.043C170.214 227.043 170.526 226.063 170.437 225.929Z" fill="#575D27" fill-opacity="0.2"/>
<path d="M222.811 219.244C214.298 217.817 205.606 220.536 198.385 224.994C194.507 227.401 190.673 230.521 185.993 231.189C181.402 231.858 177.346 229.763 173.156 228.248C173.022 228.203 172.532 229.674 172.71 229.808C180.823 235.379 187.018 234.042 194.73 228.916C203.6 223.032 211.891 220.937 222.41 220.492C222.633 220.492 222.856 219.199 222.767 219.199L222.811 219.244Z" fill="#575D27" fill-opacity="0.2"/>
<path d="M228.784 203.509C228.784 203.509 228.472 204.177 228.472 204.4C229.319 209.838 226.555 214.831 221.563 217.015C221.385 217.104 221.385 217.772 221.34 217.772C226.734 215.9 230.522 209.17 228.739 203.509H228.784Z" fill="#575D27" fill-opacity="0.2"/>
<path d="M174.538 114.763C173.245 116.501 171.953 118.24 170.66 119.978C170.66 119.889 170.66 119.8 170.705 119.755C170.303 120.201 169.813 120.646 169.367 121.092C169.412 120.736 169.457 120.468 169.457 120.468C169.1 120.78 168.788 121.092 168.476 121.404C168.52 121.003 168.565 120.646 168.431 120.869C167.094 122.741 165.757 124.614 164.42 126.486C164.241 126.753 164.152 127.332 164.108 127.823C164.019 127.511 163.929 127.199 163.885 126.887C163.885 125.55 164.286 124.034 164.865 122.296C164.91 122.162 165.177 120.646 165.044 120.78C163.394 122.162 161.612 123.365 159.739 124.391C159.249 124.257 158.982 124.524 158.67 125.015C158.67 125.015 158.625 125.059 158.581 125.104C158.581 125.148 158.491 125.327 158.447 125.505C156.931 126.084 155.46 126.263 153.633 126.174C153.321 126.174 152.697 128.402 152.964 128.581C153.187 128.714 153.365 128.803 153.588 128.937C153.365 129.472 153.187 130.052 153.365 130.274C153.143 130.898 152.964 131.79 153.143 131.924C156.174 133.974 159.383 135.534 162.86 136.693C162.993 136.693 163.216 136.158 163.35 135.579C163.974 136.426 164.687 137.228 165.579 137.941C165.579 137.941 166.024 137.005 166.203 136.292C166.247 136.426 166.292 136.604 166.336 136.738C166.336 136.738 166.425 136.559 166.515 136.292C167.005 137.139 167.629 137.941 168.431 138.699C168.342 138.61 169.724 136.426 169.189 135.935C169.1 135.846 169.055 135.802 168.966 135.712C168.966 135.579 168.966 135.489 168.966 135.4C168.654 134.286 168.298 133.216 167.941 132.146C168.208 130.809 168.253 129.472 167.941 128.046C168.922 125.55 170.705 122.34 172.309 120.424C172.488 120.201 172.577 119.8 172.666 119.398C173.112 118.685 173.557 118.017 173.958 117.303C174.27 116.724 174.36 114.986 174.449 114.807L174.538 114.763ZM160.809 127.199C160.809 127.199 160.898 127.466 160.898 127.6C160.898 127.645 160.854 127.734 160.809 127.778C160.631 127.6 160.453 127.422 160.23 127.243C160.23 127.243 160.23 127.243 160.23 127.154C160.23 127.11 160.096 127.377 159.962 127.689C159.873 127.466 159.784 127.199 159.695 126.976C159.829 126.931 160.007 126.53 160.141 126.084C160.542 125.817 160.987 125.594 161.433 125.327C161.255 125.772 160.765 126.708 160.854 127.154L160.809 127.199ZM163.528 125.55L163.261 125.772C162.949 126.53 162.681 127.288 162.458 128.046C162.102 127.154 161.745 126.263 161.478 125.282C162.369 124.703 163.216 124.034 164.063 123.365C163.84 124.079 163.662 124.836 163.484 125.55H163.528ZM167.763 126.708C167.674 126.486 167.362 127.243 167.362 127.243C167.183 127.778 167.005 128.269 166.871 128.803C166.871 128.67 166.782 128.581 166.738 128.447C166.738 127.957 166.827 127.466 166.871 126.931C167.54 126.218 168.208 125.505 168.832 124.747C168.476 125.594 168.164 126.486 167.896 127.377C167.852 127.154 167.807 126.931 167.718 126.708H167.763Z" fill="#575D27" fill-opacity="0.2"/>
<path d="M123.902 184.119C123.367 187.908 122.342 191.608 120.916 195.218C120.604 196.243 120.247 197.269 119.846 198.294C120.693 198.561 121.54 198.784 122.387 199.007C122.476 198.249 122.609 197.491 122.743 196.734C122.743 196.778 122.743 196.867 122.699 196.912C122.921 195.352 123.1 193.836 123.233 192.276C123.545 189.557 123.724 186.838 123.902 184.075V184.119Z" fill="#575D27" fill-opacity="0.2"/>
<path d="M121.584 191.073C121.762 190.315 121.896 189.557 122.074 188.755C121.673 189.78 121.272 190.805 120.782 191.83C119.935 195.129 118.286 201.191 120.425 194.817C120.782 193.792 121.094 192.766 121.361 191.786C121.406 191.563 121.495 191.385 121.54 191.162C121.54 191.162 121.54 191.117 121.54 191.073H121.584Z" fill="#575D27" fill-opacity="0.2"/>
<path d="M125.908 180.375C125.774 178.592 125.507 176.854 125.15 175.116C125.016 179.261 124.749 183.406 124.348 187.552C124.838 185.145 125.328 182.738 125.908 180.375Z" fill="#575D27" fill-opacity="0.2"/>
<path d="M125.952 182.069C125.284 185.1 124.793 188.22 124.169 191.251C124.08 192.143 123.902 193.034 123.679 193.881C123.545 195.04 123.412 196.199 123.233 197.358C123.233 197.581 122.921 198.472 122.654 199.051H122.743C123.055 199.051 123.367 199.051 123.634 199.051C124.214 194.728 124.883 190.048 125.952 185.546C125.997 184.699 126.041 183.896 126.041 183.005C126.041 182.604 125.997 182.203 125.952 181.757C125.952 181.846 125.952 181.891 125.908 181.98L125.952 182.069Z" fill="#575D27" fill-opacity="0.2"/>
<path d="M122.877 182.515C123.055 179.439 123.011 176.364 122.654 173.288C122.52 172.709 122.342 172.129 122.119 171.55C122.52 176.676 122.431 181.846 121.718 186.972C122.208 185.501 122.61 184.03 122.877 182.515Z" fill="#575D27" fill-opacity="0.2"/>
<path d="M118.732 197.848C119.088 196.645 119.4 195.441 119.668 194.238C119.133 195.352 118.553 196.466 117.929 197.581C118.197 197.67 118.464 197.759 118.732 197.848Z" fill="#575D27" fill-opacity="0.2"/>
<path d="M148.106 177.79C146.724 177.344 145.03 176.765 143.203 176.185C143.381 175.561 143.425 174.982 143.247 174.937C137.363 172.174 131.48 169.41 125.596 166.736C125.507 166.736 125.284 167.226 125.061 167.85C124.972 167.761 124.883 167.716 124.794 167.627C124.704 167.538 123.902 169.945 123.991 170.346C124.214 171.104 124.392 171.862 124.571 172.619C124.526 172.887 124.482 173.11 124.437 173.333C124.348 172.575 124.169 171.772 123.947 171.015C123.679 169.232 123.367 167.449 122.921 165.666C122.921 165.8 122.832 165.889 122.788 166.022C122.699 166.245 122.52 166.602 122.387 166.958C122.03 166.29 121.673 165.666 121.272 164.997C121.183 164.819 120.202 167.493 120.292 168.073C121.495 175.606 121.584 183.094 120.381 190.493C119.356 192.9 118.152 195.263 116.904 197.536C116.77 197.759 116.325 198.829 116.146 199.631C108.346 200.79 100.813 203.866 93.6811 207.565C80.4427 214.474 68.0958 222.052 54.0551 227.4C53.8768 227.445 53.7431 228.381 53.7876 228.381C66.714 227.579 78.214 219.154 89.2237 213.137C100.011 207.253 111.823 202.35 124.08 203.108C126.22 203.598 128.359 203.955 130.633 204.044C131.257 204.044 132.059 200.166 131.702 200.121C129.206 199.542 126.71 199.23 124.214 199.141C125.373 195.352 126.175 191.519 126.577 187.685C126.577 187.864 126.577 187.953 126.577 187.997C126.577 188.8 126.577 189.557 126.577 190.36C126.577 190.761 127.468 188.488 127.513 187.863C127.513 186.615 127.557 185.367 127.602 184.119C127.735 183.183 127.825 182.203 127.869 181.177C128.359 179.662 129.117 178.325 130.365 177.612C133.976 179.127 137.631 180.019 141.687 180.42C141.821 180.42 142.044 180.063 142.222 179.528C143.871 179.974 145.52 180.464 147.17 180.999C147.482 181.088 148.462 177.879 148.061 177.79H148.106ZM125.15 175.115C125.507 176.854 125.774 178.592 125.908 180.375C125.328 182.782 124.838 185.145 124.348 187.552C124.749 183.406 125.016 179.261 125.15 175.115ZM122.788 196.734C122.654 197.492 122.565 198.249 122.431 199.007C121.584 198.784 120.737 198.561 119.89 198.294C120.292 197.269 120.648 196.243 120.96 195.218C122.387 191.608 123.412 187.908 123.947 184.119C123.768 186.838 123.59 189.602 123.278 192.321C123.1 193.881 122.921 195.441 122.743 196.957C122.743 196.912 122.743 196.823 122.788 196.778V196.734ZM120.47 194.817C118.33 201.236 119.98 195.174 120.826 191.831C121.272 190.805 121.718 189.78 122.119 188.755C121.985 189.513 121.852 190.315 121.629 191.073C121.629 191.073 121.629 191.117 121.629 191.162C121.584 191.385 121.495 191.563 121.451 191.786C121.183 192.767 120.871 193.792 120.514 194.817H120.47ZM122.119 171.505C122.342 172.084 122.52 172.664 122.654 173.243C123.011 176.363 123.055 179.439 122.877 182.47C122.609 183.941 122.208 185.457 121.718 186.927C122.431 181.802 122.52 176.631 122.119 171.505ZM118.732 197.848C118.464 197.759 118.197 197.67 117.929 197.581C118.509 196.511 119.088 195.397 119.668 194.238C119.4 195.441 119.088 196.645 118.732 197.848ZM125.997 185.546C124.927 190.048 124.303 194.728 123.679 199.052C123.367 199.052 123.055 199.052 122.788 199.052H122.699C122.921 198.472 123.233 197.581 123.278 197.358C123.456 196.199 123.546 195.04 123.724 193.881C123.947 193.034 124.08 192.143 124.214 191.251C124.838 188.176 125.328 185.1 125.997 182.069C125.997 181.98 125.997 181.935 126.042 181.846C126.042 182.247 126.131 182.648 126.131 183.094C126.131 183.941 126.131 184.788 126.042 185.635L125.997 185.546Z" fill="#575D27" fill-opacity="0.2"/>
<path d="M200.257 57.5303C180.6 52.7164 170.838 73.4432 162.949 87.2164C162.86 87.3502 162.77 88.0188 162.815 87.9296C166.96 80.7533 170.794 72.7745 176.499 66.7125C182.918 59.8927 190.852 58.0206 199.945 58.6447C200.123 58.6447 200.346 57.5749 200.257 57.5303Z" fill="#575D27" fill-opacity="0.2"/>
<path d="M213.362 51.0225C204.759 42.1969 191.298 44.7821 182.205 51.4236C171.73 59.0903 164.687 71.4818 157.6 82.0904C157.511 82.2241 157.377 82.9818 157.466 82.8927C169.1 66.6678 189.158 33.505 213.183 51.7357C213.183 51.7357 213.451 51.1561 213.362 51.067V51.0225Z" fill="#575D27" fill-opacity="0.2"/>
<path d="M223.302 62.0321C221.742 59.7589 219.691 57.4856 216.66 58.1096C216.526 58.1096 216.482 58.7782 216.482 58.7782C219.78 58.4662 221.875 61.5863 223.435 64.0379C225.218 66.846 226.511 69.8326 228.071 72.7744C228.071 72.7744 228.338 72.195 228.294 72.0612C227.224 68.4953 225.397 65.0632 223.302 62.0321Z" fill="#575D27" fill-opacity="0.2"/>
<path d="M220.939 49.9526C220.939 49.9526 220.27 51.29 220.538 51.4683C226.065 55.257 229.497 60.5167 231.637 66.8016C231.637 66.8016 231.949 66.133 231.904 65.9101C230.567 59.3132 226.466 53.6968 220.939 49.9526Z" fill="#575D27" fill-opacity="0.2"/>
<path d="M233.108 56.3268L230.077 53.2065C230.077 53.2065 229.765 53.7414 229.898 53.8751C230.924 54.8557 231.949 55.881 232.974 56.8616C232.974 56.8616 233.241 56.4159 233.108 56.3268Z" fill="#575D27" fill-opacity="0.2"/>
<path d="M273.893 193.881C266.182 188.042 262.215 178.146 266.271 168.786C266.315 168.697 266.449 167.984 266.315 168.251C262.081 177.389 264.532 189.29 273.715 194.46C273.715 194.46 273.982 193.926 273.893 193.881Z" fill="#575D27" fill-opacity="0.2"/>
<path d="M289.226 196.021C279.732 190.806 273.224 181.758 274.026 170.57C274.026 169.946 273.581 171.328 273.581 171.595C272.868 182.159 278.618 193.258 289.092 196.645C289.137 196.645 289.315 196.111 289.271 196.066L289.226 196.021Z" fill="#575D27" fill-opacity="0.2"/>
<path d="M301.974 194.194C293.282 190.449 286.641 183.897 285.883 174.046C285.883 173.823 285.348 175.027 285.393 175.384C286.061 184.254 292.435 193.614 301.751 195.041C301.84 195.041 302.063 194.238 301.974 194.194Z" fill="#575D27" fill-opacity="0.2"/>
<path d="M294.397 234.667C283.03 221.696 262.972 219.779 247.773 225.975C247.683 225.975 247.683 226.287 247.683 226.287C264.666 220.938 280.044 226.198 294.085 235.781C294.085 235.781 294.53 234.845 294.397 234.667Z" fill="#575D27" fill-opacity="0.2"/>
<path d="M266.048 231.858L265.959 232.304C272.466 229.095 280.356 233.864 285.66 237.608C291.499 241.709 295.778 247.147 299.344 253.254C299.344 253.254 299.701 252.63 299.612 252.407C295.021 241.754 278.885 225.083 266.048 231.858Z" fill="#575D27" fill-opacity="0.2"/>
<path d="M287.844 218.397C285.794 217.683 283.342 217.773 281.203 217.594C281.025 217.594 280.891 218.486 280.935 218.53C283.12 218.753 285.482 219.243 287.666 218.931C287.755 218.931 287.889 218.441 287.8 218.397H287.844Z" fill="#575D27" fill-opacity="0.2"/>
<path d="M155.861 245.497C151.805 242.734 146.367 242.644 141.865 244.472C141.687 244.516 141.642 245.274 141.642 245.274C146.635 244.427 150.78 244.962 155.683 246.121C155.772 246.121 155.951 245.542 155.861 245.497Z" fill="#575D27" fill-opacity="0.2"/>
<path d="M238.501 129.249C238.501 129.249 238.278 130.141 238.368 130.007C252.185 107.854 272.466 92.654 297.027 84.1404C297.116 84.1404 297.116 83.7393 297.116 83.7393C272.422 89.7567 250.893 107.23 238.457 129.205L238.501 129.249Z" fill="#575D27" fill-opacity="0.2"/>
<path d="M219.736 11.7085C219.736 11.7085 219.335 12.7783 219.424 12.8228C233.019 16.255 244.697 22.4062 256.776 29.2706C256.776 29.2706 256.91 28.9586 256.866 28.914C246.346 20.133 232.93 14.8287 219.691 11.7531L219.736 11.7085Z" fill="#575D27" fill-opacity="0.2"/>
<path d="M211.98 8.94467C192.457 7.56289 169.278 11.5744 153.811 24.1888C153.677 24.278 153.677 24.7683 153.677 24.7683C161.701 19.1966 170.705 15.6308 180.243 13.5804C190.629 11.3517 201.238 11.6191 211.668 10.0144C211.846 10.0144 212.024 8.98929 211.935 8.98929L211.98 8.94467Z" fill="#575D27" fill-opacity="0.2"/>
<path d="M45.0066 67.8267L44.8283 68.4062C49.7314 67.8713 54.6791 67.4256 59.4931 66.4449C59.6268 66.4449 59.6714 65.7764 59.6714 65.7764C54.7683 66.0884 49.8206 67.0244 45.0066 67.8267Z" fill="#575D27" fill-opacity="0.2"/>
<path d="M257.356 34.5755C250.536 28.9146 242.29 24.1007 233.955 21.1143C233.91 21.1143 233.687 21.6936 233.776 21.7382C241.666 26.1064 249.466 30.5192 257.222 35.0657C257.222 35.0657 257.445 34.62 257.356 34.5755Z" fill="#575D27" fill-opacity="0.2"/>
<path d="M264.711 27.041C261.278 23.2076 256.108 20.8452 251.428 18.9731C251.383 18.9731 251.116 19.6418 251.249 19.6863C256.063 21.8705 259.986 25.2135 264.532 27.7988C264.532 27.7988 264.844 27.1301 264.755 26.9964L264.711 27.041Z" fill="#575D27" fill-opacity="0.2"/>
<path d="M230.077 113.604C216.393 112.267 204.67 107.453 195.71 96.7104C195.71 96.7104 195.443 97.2007 195.532 97.3344C203.332 107.988 216.393 115.431 229.854 114.451C229.988 114.451 230.121 113.648 230.077 113.648V113.604Z" fill="#575D27" fill-opacity="0.2"/>
<path d="M228.294 118.507C223.346 117.704 218.889 117.08 214.253 114.941C209.751 112.846 205.517 110.171 201.371 107.363C201.371 107.363 201.059 107.943 201.193 108.032C208.726 113.515 218.131 121.003 228.071 119.22C228.205 119.22 228.338 118.551 228.249 118.507H228.294Z" fill="#575D27" fill-opacity="0.2"/>
<path d="M234.356 110.974C229.854 109.28 225.173 108.433 220.761 106.428C216.392 104.466 212.381 102.015 208.637 99.0283C208.637 99.0283 208.325 99.6078 208.458 99.7415C215.367 105.625 224.728 111.687 234.133 111.732C234.222 111.732 234.445 110.974 234.356 110.974Z" fill="#575D27" fill-opacity="0.2"/>
<path d="M97.2471 132.637C92.7452 136.069 88.4215 135.801 83.1618 136.336C83.0281 136.336 82.8498 137.049 82.9389 137.139C91.4971 145.117 102.908 129.873 106.162 123.321C106.251 123.142 106.385 122.073 106.385 122.117C102.997 125.326 101.125 129.784 97.2917 132.681L97.2471 132.637Z" fill="#575D27" fill-opacity="0.2"/>
<path d="M205.561 159.426C199.767 151.313 188.846 150.867 179.887 148.995C170.571 147.034 162.325 142.176 153.856 138.03C153.856 138.03 153.544 138.654 153.677 138.699C161.879 143.869 169.59 149.352 179.174 151.625C188.846 153.943 196.959 155.147 204.982 161.476C204.982 161.476 205.784 159.738 205.561 159.381V159.426Z" fill="#575D27" fill-opacity="0.2"/>
<path d="M205.472 200.256C203.6 202.351 201.906 204.58 200.435 206.987C202.263 205.07 204.001 202.173 205.472 200.256Z" fill="#575D27" fill-opacity="0.2"/>
<path d="M205.472 200.256C203.6 202.351 201.906 204.58 200.435 206.987C202.263 205.07 204.001 202.173 205.472 200.256Z" fill="#575D27" fill-opacity="0.2"/>
<path d="M218.398 170.391C218.131 171.416 217.863 172.486 217.641 173.511C217.819 172.575 218.042 171.684 218.22 170.748C218.309 170.48 218.8 168.029 218.443 168.563C216.972 171.104 216.081 173.689 215.501 176.542C215.189 178.191 215.055 179.885 214.788 181.534C213.807 187.151 211.712 190.048 207.834 193.837C207.166 194.505 206.453 195.219 205.784 195.887C206.363 194.907 206.854 193.971 207.433 192.99C207.79 192.41 207.879 190.405 207.968 190.226C203.288 195.976 199.454 202.217 196.468 208.992C193.615 209.081 190.361 207.075 187.821 206.317C184.567 205.337 181.224 204.713 177.836 204.356C174.449 204.044 171.016 204.044 167.673 204.356C164.286 204.668 162.369 205.916 161.21 202.172C161.077 201.726 160.943 201.281 160.809 200.835C160.631 194.862 158.714 189.379 155.059 184.788C155.639 185.189 156.218 185.546 156.797 185.947C165.088 191.296 173.78 197.536 183.898 198.517C201.639 200.255 209.305 183.451 212.292 168.653C212.559 167.404 211.891 168.653 211.801 169.143C209.216 179.306 204.67 191.341 193.392 194.282C185.949 196.199 178.237 193.97 171.596 190.672C164.42 187.106 157.778 182.56 150.869 178.503C143.916 174.403 136.873 169.366 129.162 166.87C129.073 166.87 128.671 167.939 128.85 168.029C137.007 172.129 144.495 177.701 152.117 182.872C151.85 183.54 151.538 184.343 151.716 184.565C152.741 186.036 153.633 187.596 154.524 189.156C156.173 194.639 158.001 200.077 159.918 205.47C159.918 205.47 160.007 205.337 160.096 205.114C160.274 205.872 160.542 206.585 160.854 206.986C162.057 208.412 163.127 207.699 164.865 207.565C176.053 206.719 186.261 208.323 196.379 213.36C196.379 213.36 196.423 213.36 196.468 213.36C196.646 213.182 196.78 212.959 196.958 212.781C196.958 212.959 196.914 213.093 196.914 213.226C194.685 215.188 193.214 215.633 190.406 214.742C187.776 213.895 185.235 212.736 182.65 211.8C182.561 211.8 182.204 212.825 182.338 212.914C186.35 215.098 191.699 219.734 195.889 216.079C200.212 212.246 203.867 207.298 207.21 202.618C207.433 202.306 207.433 201.325 207.478 201.236C204.268 205.069 201.104 209.348 197.404 212.736C197.582 212.379 197.761 211.978 197.894 211.622C202.708 205.693 207.567 199.765 212.381 193.881C212.827 193.346 213.094 190.806 213.094 190.806C212.559 191.207 212.069 191.653 211.579 192.098C212.827 190.449 213.763 188.622 214.431 186.527C214.565 186.17 214.654 185.724 214.743 185.368C214.743 185.457 214.743 185.502 214.743 185.591C214.654 186.883 215.456 184.521 215.501 184.253C216.125 181.713 216.794 179.172 217.418 176.631C217.106 178.414 216.883 180.197 216.615 182.025C216.393 183.496 217.15 181.401 217.239 180.955C217.908 177.122 218.532 173.244 219.156 169.41C219.424 167.627 218.577 169.901 218.443 170.436L218.398 170.391ZM200.435 207.031C201.906 204.624 203.555 202.35 205.472 200.3C204.001 202.217 202.263 205.114 200.435 207.031Z" fill="#575D27" fill-opacity="0.2"/>
<path d="M29.0939 88.2417C29.0939 88.2417 29.0493 88.5091 29.0939 88.3754C31.8129 81.2882 39.8362 77.9896 46.344 75.3152C46.4331 75.3152 46.4331 74.9586 46.4331 74.9141C39.2121 77.4102 31.9466 80.6196 29.0939 88.2417Z" fill="#575D27" fill-opacity="0.2"/>
<path d="M112.491 97.023L112.358 97.647C115.478 95.3737 118.553 92.8775 121.005 89.9357C121.139 89.8019 121.139 89.2671 121.139 89.2671C118.331 91.9861 115.611 94.6605 112.447 97.0675L112.491 97.023Z" fill="#575D27" fill-opacity="0.2"/>
<path d="M121.584 95.1056C121.584 95.1056 121.674 94.8828 121.629 94.8828C121.584 94.8828 121.54 95.1056 121.584 95.1056Z" fill="#575D27" fill-opacity="0.2"/>
<path d="M124.615 93.8576C124.615 93.8576 124.705 93.6348 124.66 93.6348C124.615 93.6348 124.571 93.8576 124.615 93.8576Z" fill="#575D27" fill-opacity="0.2"/>
<path d="M101.571 287.709C100.679 286.862 99.3419 286.416 98.3613 285.658C97.3361 284.901 96.4446 284.054 95.6423 283.073C95.6869 283.118 95.1074 283.965 95.3303 284.232C96.1326 285.213 97.0241 286.104 98.0493 286.862C98.9407 287.531 100.189 288.556 101.348 288.556C101.481 288.556 101.66 287.798 101.571 287.709Z" fill="#575D27" fill-opacity="0.2"/>
<path d="M100.902 281.959C100.902 281.959 100.991 281.736 100.947 281.736C100.902 281.736 100.857 281.959 100.902 281.959Z" fill="#575D27" fill-opacity="0.2"/>
<path d="M102.73 276.477C102.73 276.477 102.819 276.254 102.774 276.254C102.73 276.254 102.685 276.477 102.73 276.477Z" fill="#575D27" fill-opacity="0.2"/>
<path d="M108.747 275.094C106.697 272.732 103.933 270.815 101.571 268.765C101.571 268.765 101.259 269.389 101.392 269.478C102.596 270.503 103.799 271.528 105.003 272.598C106.162 273.623 107.321 274.782 108.613 275.584C108.613 275.584 108.792 275.183 108.747 275.094Z" fill="#575D27" fill-opacity="0.2"/>
<path d="M110.753 271.083C108.881 268.542 106.34 266.403 104.111 264.174C104.156 264.218 103.532 265.243 103.755 265.466C105.894 267.606 108.034 270.191 110.53 271.93C110.53 271.93 110.842 271.216 110.753 271.083Z" fill="#575D27" fill-opacity="0.2"/>
<path d="M113.739 263.996C111.154 262.124 108.658 260.118 106.474 257.8C106.474 257.8 106.162 258.335 106.295 258.469C108.48 260.742 110.931 262.837 113.65 264.441C113.65 264.441 113.828 264.085 113.784 264.04L113.739 263.996Z" fill="#575D27" fill-opacity="0.2"/>
<path d="M109.416 255.794C109.416 255.794 109.505 255.571 109.46 255.571C109.416 255.571 109.371 255.794 109.416 255.794Z" fill="#575D27" fill-opacity="0.2"/>
<path d="M115.611 254.814C114.809 253.967 114.007 253.164 113.204 252.317C113.204 252.317 112.937 252.808 113.026 252.941C113.828 253.744 114.675 254.546 115.478 255.348C115.478 255.348 115.7 254.903 115.611 254.814Z" fill="#575D27" fill-opacity="0.2"/>
<path d="M115.478 248.485C115.478 248.485 115.567 248.262 115.522 248.262C115.478 248.262 115.433 248.485 115.478 248.485Z" fill="#575D27" fill-opacity="0.2"/>
<path d="M121.896 247.548C120.737 246.478 119.489 245.542 118.152 244.695C118.152 244.695 117.662 245.721 117.84 245.854C119.044 246.79 120.247 247.771 121.361 248.841C121.852 249.331 122.342 249.821 122.788 250.312C123.278 250.847 123.813 251.693 124.482 252.05C124.571 252.095 124.883 251.025 124.838 250.891C124.259 249.598 122.966 248.484 121.941 247.548H121.896Z" fill="#575D27" fill-opacity="0.2"/>
<path d="M198.429 75.5374C198.429 75.5374 198.117 76.3397 198.206 76.3843C204.491 78.5684 209.127 82.9812 209.171 90.0239C209.171 90.2022 209.528 89.3106 209.528 89.1323C210.063 82.9366 205.249 75.4483 198.429 75.5374Z" fill="#575D27" fill-opacity="0.2"/>
<path d="M173.334 113.693C173.334 113.693 173.334 113.915 173.29 113.915C178.148 109.012 182.517 103.307 186.707 97.8243C186.84 97.646 186.84 97.0665 186.885 97.022C182.115 102.326 177.48 107.898 173.334 113.648V113.693Z" fill="#575D27" fill-opacity="0.2"/>
<path d="M128.627 45.2723L128.493 45.8072C140.083 40.1017 151.404 33.5494 161.701 25.749C161.79 25.6598 161.79 25.3032 161.79 25.3032C150.914 32.3459 140.083 39.2103 128.583 45.2723H128.627Z" fill="#575D27" fill-opacity="0.2"/>
<path d="M132.416 50.5771L132.282 51.1119C147.66 46.1197 157.555 32.079 171.507 24.4569C171.641 24.3678 171.596 23.922 171.641 23.8774C157.02 30.5635 147.838 45.1836 132.416 50.5324V50.5771Z" fill="#575D27" fill-opacity="0.2"/>
<path d="M223.301 20.9799C217.863 16.2996 209.662 16.9237 202.931 16.8792C194.73 16.8792 186.394 17.2803 178.327 18.8404C178.237 18.8404 178.193 19.2862 178.193 19.2862C186.305 18.885 194.373 18.2164 202.53 18.3055C209.573 18.3947 216.794 18.3054 223.079 21.8268C223.079 21.8268 223.435 21.069 223.301 20.9799Z" fill="#575D27" fill-opacity="0.2"/>
<path d="M275.899 45.0939C272.823 40.6365 267.831 37.1153 263.061 34.6191C263.017 34.6191 262.571 35.6888 262.749 35.778C265.067 37.338 267.341 38.8981 269.525 40.6365C271.62 42.3303 273.492 44.3362 275.676 45.8963C275.676 45.8963 275.988 45.1831 275.899 45.0494V45.0939Z" fill="#575D27" fill-opacity="0.2"/>
<path d="M325.866 220.804C322.344 215.767 317.798 211.711 312.672 208.769C312.716 208.368 312.716 208.056 312.627 208.011C308.125 205.381 303.356 204.133 298.497 203.776C296.18 203.42 293.817 203.197 291.455 203.242C285.393 201.726 279.152 200.879 272.734 200.701C265.335 200.523 256.866 200.3 253.21 192.588C249.511 184.699 252.676 175.294 251.383 166.958C251.383 166.958 250.848 168.073 250.804 168.34C248.709 180.91 242.691 199.453 258.381 205.738C262.081 207.209 266.092 207.922 270.148 208.323C269.079 208.635 268.009 208.947 266.939 209.259C252.007 213.583 236.495 217.461 224.371 227.713C224.193 227.846 224.193 228.559 224.193 228.604C237.164 219.244 253.255 215.945 268.366 211.666C271.798 210.685 275.274 209.749 278.796 208.947C279.866 208.992 280.935 209.081 281.961 209.125C286.73 209.482 291.455 209.838 296.224 210.195C304.069 212.29 311.424 215.767 318.333 220.492C318.333 220.492 318.912 219.377 319.269 218.352C321.319 220.269 323.191 222.408 324.796 224.771C324.573 224.459 326.49 221.873 325.821 220.937L325.866 220.804ZM262.482 203.643C254.325 201.459 248.753 196.199 248.441 187.373C248.263 182.426 249.288 176.497 250.536 171.639C251.873 166.468 251.205 174.269 251.205 175.472C251.205 177.79 250.893 180.108 250.759 182.426C250.447 188.176 250.581 194.683 254.681 199.185C259.451 204.49 267.073 203.999 273.536 204.311C276.344 204.445 279.108 204.757 281.871 205.203C281.871 205.203 281.871 205.247 281.871 205.292C281.069 205.47 280.311 205.648 279.554 205.827C273.848 205.515 268.009 205.158 262.571 203.687L262.482 203.643Z" fill="#575D27" fill-opacity="0.2"/>
<path d="M273.982 240.462C273.982 240.462 273.893 240.64 273.937 240.64C277.682 242.824 281.47 244.562 284.813 247.37C288.424 250.357 291.143 253.923 293.684 257.756C293.684 257.756 293.862 257.4 293.817 257.266C290.207 249.733 282.406 241.932 273.937 240.417L273.982 240.462Z" fill="#575D27" fill-opacity="0.2"/>
<path d="M221.831 97.5122C221.831 97.5122 221.563 98.0025 221.652 98.0917C226.956 102.727 235.158 103.886 241.488 100.766C241.577 100.766 241.577 100.365 241.577 100.365C234.311 102.014 228.249 101.301 221.786 97.5122H221.831Z" fill="#575D27" fill-opacity="0.2"/>
<path d="M233.821 96.0422C233.821 96.0422 233.375 97.2902 233.464 97.2902C241.176 98.4491 248.709 95.9976 254.057 90.2921C254.191 90.1584 254.191 89.6235 254.191 89.6235C248.575 94.8387 241.354 97.2457 233.776 96.0422H233.821Z" fill="#575D27" fill-opacity="0.2"/>
<path d="M251.294 97.0225L251.16 97.6911C256.42 95.1504 261.279 91.8519 265.201 87.4837C265.335 87.35 265.335 86.8151 265.379 86.7705C261.056 90.7821 256.598 94.3481 251.294 97.0225Z" fill="#575D27" fill-opacity="0.2"/>
<path d="M319.536 65.1975C318.199 62.5231 315.569 60.4282 313.519 58.2887C311.023 55.7925 308.526 52.8951 305.585 50.9339C305.54 50.9339 305.183 51.7363 305.094 52.2712C304.292 51.2014 303.4 50.1317 302.42 49.3739C299.389 44.4262 295.868 39.9688 290.073 37.9184C289.805 37.8293 288.78 40.8603 289.181 41.1724C299.523 49.3294 301.618 62.6568 310.621 71.7053C317.709 78.7925 327.515 83.0271 336.118 88.5096C358.627 114.14 375.164 144.717 375.298 179.975C375.387 207.923 359.34 236.539 349.401 262.392C346.459 270.058 344.319 274.248 337.589 278.483C336.875 278.929 335.404 279.285 334.78 279.909C333.8 280.89 333.22 281.915 332.641 282.985C333.978 276.744 334.78 270.415 335.494 264.175C335.85 261.01 333.488 267.607 333.354 268.364C333.087 269.925 332.819 271.44 332.507 272.956C331.883 274.204 330.947 276.923 330.858 277.458C329.119 287.175 326.178 297.293 320.116 304.826C319.625 305.316 319.135 305.806 318.6 306.297C315.97 308.615 312.895 310.487 309.953 312.359C308.214 313.429 306.476 314.498 304.693 315.568C304.961 315.345 305.273 315.078 305.54 314.855C306.253 314.276 306.476 310.487 306.654 310.442C297.873 313.785 291.945 321.675 283.966 326.578C270.282 328.227 258.515 334.2 246.926 341.421C232.84 350.246 219.513 357.824 204.402 364.822C204.313 364.822 204.269 364.956 204.179 365.045C194.106 366.65 183.898 366.427 173.825 368.566C173.468 368.655 172.844 370.884 173.156 371.018C194.596 381.894 224.015 367.14 241.8 354.927C253.478 346.903 264.844 342.045 277.681 336.429C277.681 337.097 277.637 337.543 277.592 337.543C286.953 332.105 298.453 326.934 308.304 320.204C308.259 320.382 308.214 320.516 308.125 320.516C308.214 320.516 308.259 320.427 308.304 320.427C308.304 320.427 308.348 320.427 308.393 320.382C313.028 318.243 317.129 315.434 320.517 311.958C320.428 312.626 320.339 313.161 320.339 313.206C321.631 311.512 322.79 309.774 323.86 307.991C325.687 305.539 327.247 302.865 328.495 299.923C329.03 298.63 329.432 296.892 329.833 295.064C330.368 293.415 330.858 291.721 331.259 289.983C331.705 288.779 332.284 287.754 333.042 286.996C337.277 282.851 341.734 283.564 345.032 277.725C351.763 265.868 354.527 250.981 359.831 238.366C364.734 226.599 369.726 214.787 372.935 202.44C385.594 154.122 360.633 93.9031 319.402 65.1084L319.536 65.1975Z" fill="#575D27" fill-opacity="0.2"/>
<path d="M216.616 249.955C207.344 243.358 195.087 244.428 185.548 249.822C185.414 249.911 185.414 250.49 185.414 250.49C195.577 244.874 206.141 246.122 216.437 250.624C216.437 250.624 216.705 250.044 216.616 249.955Z" fill="#575D27" fill-opacity="0.2"/>
<path d="M222.811 247.191C219.156 243.759 213.585 242.957 208.771 243.759C208.592 243.759 208.503 244.606 208.548 244.606C213.852 244.339 217.864 246.166 222.455 248.439C222.544 248.439 222.945 247.37 222.811 247.191Z" fill="#575D27" fill-opacity="0.2"/>
<path d="M231.325 246.077C227.224 242.155 220.939 241.263 215.546 241.709C215.323 241.709 215.189 242.868 215.234 242.868C221.207 242.601 225.708 244.785 231.102 246.924C231.191 246.924 231.458 246.166 231.325 246.077Z" fill="#575D27" fill-opacity="0.2"/>
<path d="M236.852 244.16C233.999 242.244 230.745 240.817 227.67 239.257C227.625 239.257 227.18 240.283 227.358 240.372C230.389 241.887 233.42 243.715 236.629 244.829C236.674 244.829 236.897 244.205 236.807 244.16H236.852Z" fill="#575D27" fill-opacity="0.2"/>
<path d="M243.493 240.55C240.864 237.251 236.005 235.825 231.993 235.513C231.726 235.513 231.459 237.028 231.592 237.028C233.732 237.206 235.782 237.652 237.788 238.455C239.749 239.257 241.354 240.639 243.226 241.619C243.315 241.619 243.627 240.683 243.538 240.55H243.493Z" fill="#575D27" fill-opacity="0.2"/>
<path d="M250.18 235.825C246.213 232.393 240.73 230.833 235.604 230.209C235.426 230.209 235.203 231.323 235.292 231.368C240.775 231.992 245.143 234.132 250.001 236.449C250.001 236.449 250.269 235.914 250.18 235.825Z" fill="#575D27" fill-opacity="0.2"/>
<path d="M253.79 230.967C252.453 229.986 250.581 229.674 248.976 229.184C247.371 228.694 245.722 228.159 244.118 227.669C243.984 227.624 243.583 229.006 243.761 229.05C245.366 229.541 247.015 230.031 248.664 230.521C250.224 231.011 251.963 231.814 253.612 231.725C253.745 231.725 253.924 230.967 253.835 230.922L253.79 230.967Z" fill="#575D27" fill-opacity="0.2"/>
<path d="M248.352 221.74C248.352 221.74 248.085 222.631 248.129 222.631C251.205 222.408 254.236 222.23 257.311 221.918C257.445 221.918 257.49 221.25 257.49 221.25C254.459 221.339 251.428 221.561 248.397 221.74H248.352Z" fill="#575D27" fill-opacity="0.2"/>
<path d="M236.228 113.961C236.228 113.961 235.871 114.674 235.871 114.942C235.426 124.971 236.54 135.044 239.839 144.538C239.839 144.538 240.106 144.093 240.061 143.914C237.432 134.019 235.961 124.258 236.273 114.006L236.228 113.961Z" fill="#575D27" fill-opacity="0.2"/>
<path d="M116.102 342.846C107.989 336.517 96.5785 334.199 87.3517 329.742C78.6598 325.552 70.3245 320.56 63.1482 314.007C45.3187 297.738 41.4854 275.05 37.5629 252.451C33.5958 229.629 25.1268 211.577 14.7411 191.073C9.74883 181.177 5.55891 170.97 4.08797 159.916C1.41355 139.769 7.07445 119.8 12.0667 100.499C12.557 98.6271 12.0667 98.4042 11.5318 100.365C5.06859 122.697 -1.30542 146.767 2.92908 170.123C7.6539 196.422 26.4194 217.594 32.4369 243.67C37.7411 266.804 38.0532 292.255 52.7179 312.091C59.8943 321.763 69.8343 329.029 80.3982 334.689C90.2936 339.994 103.487 347.304 114.898 347.259C115.522 347.259 116.592 343.292 116.102 342.891V342.846Z" fill="#575D27" fill-opacity="0.2"/>
<path d="M174.939 117.794C175.028 117.214 174.716 118.061 174.672 118.239C173.379 125.327 172.978 132.949 174.984 139.902C174.984 139.858 175.34 139.144 175.296 138.877C174.226 131.701 173.691 124.97 174.895 117.794H174.939Z" fill="#575D27" fill-opacity="0.2"/>
<path d="M180.021 125.505C180.021 125.505 180.11 125.282 180.065 125.282C180.021 125.282 179.976 125.505 180.021 125.505Z" fill="#575D27" fill-opacity="0.2"/>
<path d="M183.72 122.965C182.115 128.447 180.823 135.802 183.051 141.24C183.051 141.24 183.408 140.438 183.408 140.259C182.918 134.286 182.472 128.938 183.987 123.009C184.21 122.118 183.987 122.029 183.72 122.965Z" fill="#575D27" fill-opacity="0.2"/>
<path d="M188.534 125.416C188.668 124.97 188.623 124.436 188.4 125.193C187.375 128.313 186.706 131.478 186.439 134.777C186.35 135.713 185.503 141.909 187.954 140.616C188.088 140.527 188.4 139.546 188.222 139.502C186.528 138.788 186.929 135.802 187.018 134.286C187.108 131.255 187.687 128.313 188.534 125.461V125.416Z" fill="#575D27" fill-opacity="0.2"/>
<path d="M193.392 130.274C191.565 133.216 190.495 136.871 189.158 140.081C189.069 140.259 188.801 141.641 189.069 141.106C190.54 137.807 192.189 134.464 193.348 131.032C193.348 130.943 193.526 130.052 193.392 130.274Z" fill="#575D27" fill-opacity="0.2"/>
<path d="M196.958 134.954C195.8 137.316 194.819 139.768 193.972 142.264C193.883 142.487 193.749 143.557 194.017 142.799C195.8 138.297 198.296 134.33 200.435 130.051C200.524 129.872 200.703 128.758 200.658 128.803C198.964 130.274 197.939 132.948 196.958 134.954Z" fill="#575D27" fill-opacity="0.2"/>
<path d="M204.803 134.375C202.486 137.673 200.302 141.284 198.385 144.85C198.207 145.162 198.162 146.098 198.117 146.187C200.435 143.067 202.575 139.635 204.492 136.247C204.714 135.846 204.893 135.311 204.937 134.821C204.937 134.687 205.071 134.018 204.803 134.375Z" fill="#575D27" fill-opacity="0.2"/>
<path d="M205.428 142.309C204.759 143.513 204.09 144.716 203.422 145.92C203.199 146.321 203.065 146.811 203.021 147.257C203.021 147.346 202.932 148.015 203.154 147.658C204.447 145.385 205.963 143.156 206.988 140.749C207.077 140.526 207.255 139.323 207.211 139.367C206.453 140.125 205.962 141.418 205.428 142.354V142.309Z" fill="#575D27" fill-opacity="0.2"/>
<path d="M207.968 145.162C207.879 145.43 207.522 146.366 207.701 146.589C207.879 146.767 208.102 145.92 208.146 145.875C208.726 143.914 209.885 142.22 210.999 140.571C211.088 140.393 211.222 139.501 211.222 139.501C209.439 140.75 208.592 143.201 207.968 145.207V145.162Z" fill="#575D27" fill-opacity="0.2"/>
<path d="M226.6 146.187C226.6 146.187 225.575 147.925 225.976 148.46C228.651 152.249 230.656 156.617 233.465 160.317C233.465 160.272 234.089 158.935 233.955 158.623C232.306 154.166 229.319 150.065 226.6 146.187Z" fill="#575D27" fill-opacity="0.2"/>
<path d="M147.393 186.482C144.54 185.101 140.127 187.285 137.542 188.756C134.332 190.583 131.792 193.213 129.831 196.378C129.697 196.601 129.697 197.225 129.652 197.269C131.569 194.818 133.842 192.723 136.606 191.207C139.993 189.38 143.604 189.424 146.991 187.953C147.17 187.864 147.615 186.572 147.393 186.482Z" fill="#575D27" fill-opacity="0.2"/>
<path d="M144.941 182.114C142.489 181.534 139.681 181.846 136.873 182.604V182.515C136.873 182.515 136.873 182.559 136.828 182.604C133.53 183.495 130.232 184.922 127.735 186.259C127.557 186.348 127.557 187.195 127.513 187.195C130.232 186.17 132.906 185.278 135.759 184.699C138.656 184.119 141.732 184.208 144.584 183.495C144.807 183.451 145.119 182.158 144.941 182.114Z" fill="#575D27" fill-opacity="0.2"/>
<path d="M145.253 190.85C143.648 192.187 142.177 193.613 140.84 195.174C140.484 195.575 140.528 196.956 140.394 197.09C141.687 195.619 143.069 194.238 144.584 192.989C146.144 191.697 147.927 190.627 149.443 189.245C149.577 189.111 149.799 187.953 149.755 187.953C148.061 188.354 146.59 189.78 145.253 190.85Z" fill="#575D27" fill-opacity="0.2"/>
</svg>
