<svg width="348" height="144" viewBox="0 0 348 144" fill="none" xmlns="http://www.w3.org/2000/svg">
<path d="M49.7069 114.742C45.9828 114.742 42.5502 114.742 39.1176 114.742C35.3611 114.774 35.2964 114.742 35.0697 110.856C30.6656 111.179 26.2616 111.471 21.8575 111.795C21.8575 111.568 21.7927 111.374 21.7603 111.147C25.873 110.37 30.0179 109.593 34.1306 108.783C34.0658 108.459 34.001 108.103 33.9363 107.779C28.8521 107.682 23.8652 108.589 19.0725 110.208C13.1464 112.216 6.96127 111.795 0.776123 112.151C1.5857 111.795 2.33047 111.374 3.17243 111.147C8.38609 109.593 13.6645 108.168 18.8782 106.549C24.8043 104.703 30.8276 103.764 37.0451 103.731C42.2264 103.731 47.3753 103.246 52.5242 102.792C55.2767 102.566 55.2443 102.371 56.7339 99.4568C51.6174 99.0682 46.7276 98.712 41.7406 98.3558C41.8053 97.4815 41.7406 97.0605 41.9349 96.7367C42.0968 96.3804 42.453 96.1214 42.7769 95.7976C42.6473 95.7004 42.453 95.5061 42.2911 95.5061C33.2563 96.6395 24.2538 97.8053 15.2189 98.9387C13.0169 99.1978 10.7501 99.3921 8.5157 99.4244C7.64136 99.4244 6.79941 98.9711 5.89269 98.6796C6.31367 96.0566 8.25659 96.1214 9.77859 95.8299C19.3963 93.9193 29.0141 92.0411 38.5994 90.1629C43.2302 89.2562 48.0876 89.0943 52.4593 86.4065C52.3622 82.6501 54.5966 80.5128 57.8349 78.8289C63.2429 76.0116 66.4488 71.3808 67.7765 65.4547C68.2623 63.285 68.748 61.083 69.2985 58.9133C70.9501 52.4691 73.8969 46.7049 77.5886 41.1351C87.6597 25.9475 101.941 16.3945 118.359 9.36736C149.608 -4.00681 180.826 -2.22575 212.01 9.43213C216.576 11.1484 220.786 13.7391 225.158 15.9411C228.169 17.4631 231.116 19.0499 234.128 20.5395C236.621 21.77 239.083 22.8711 242.127 22.1263C244.685 21.4786 247.113 22.7739 249.186 24.2312C255.598 28.7972 261.394 34.0108 266.414 40.1312C267.418 41.3618 268.875 42.2361 270.138 43.2724C271.53 44.4058 272.988 45.4744 274.315 46.7049C275.643 47.9355 276.712 49.4575 278.136 50.5909C280.112 52.1453 282.281 53.4082 284.289 54.7035C287.916 53.3758 291.316 52.1777 294.684 50.85C298.311 49.4251 301.096 46.9964 303.071 43.5638C305.176 39.9045 308.479 37.5082 312.398 36.0833C315.733 34.8528 319.133 34.6585 322.954 36.9577C321.562 37.4434 320.72 37.8644 319.846 38.0263C313.369 39.0949 307.961 41.8151 304.205 47.5145C302.942 49.4251 300.869 50.7852 298.667 52.8577C301.938 53.5701 304.949 54.3473 307.993 54.7683C308.868 54.8978 310.066 54.0883 310.843 53.4082C314.373 50.2347 318.55 48.9394 323.181 49.0041C326.258 49.0365 329.334 49.1013 332.41 49.2308C333.285 49.2632 334.127 49.6518 335.325 49.9756C333.706 52.5986 331.342 53.2787 329.204 53.8616C323.958 55.2541 318.615 56.4846 313.24 57.2618C310.066 57.7152 309.062 60.1763 306.795 62.184C313.531 64.7747 319.975 66.1347 326.581 63.706C330.241 62.3459 333.641 60.403 337.171 58.6867C338.336 58.1361 339.405 56.8732 341.057 58.2657C340.798 58.8162 340.733 59.4315 340.376 59.7229C333.835 65.0985 326.776 69.2111 317.87 68.272C315.539 68.0453 313.272 67.2358 310.94 66.8472C308.22 66.4262 305.435 66.0376 302.683 65.8757C300.06 65.7138 298.279 67.1062 296.854 70.0855C304.075 68.7578 308.317 73.3561 313.013 77.0154C316.575 79.8004 320.364 82.0672 325.221 82.8767C326.938 80.1889 328.298 77.2097 330.435 74.9105C332.572 72.6113 335.26 70.6684 338.045 69.1787C340.7 67.7863 343.259 65.4223 347.533 66.07C346.594 67.3005 346.205 68.272 345.525 68.5958C342.902 69.9235 340.182 71.0246 337.494 72.2227C332.475 74.4572 329.496 77.9221 328.006 83.4273C334.191 84.2368 340.117 83.2977 345.979 81.1281C346.108 81.4195 346.27 81.6786 346.4 81.97C345.849 82.5853 345.396 83.3625 344.716 83.7511C340.668 86.0503 336.231 86.4713 331.698 86.115C328.492 85.856 325.675 86.115 322.534 87.637C317.611 90.0334 312.657 88.0256 308.317 85.1436C306.601 84.0101 305.209 82.3262 303.784 80.8042C301.355 78.2136 300.74 77.825 296.303 76.8211C296.206 76.983 295.85 77.3069 295.785 77.6955C295.073 81.4519 293.259 84.755 291.575 88.1228C290.701 89.8715 290.669 92.1707 290.636 94.2432C290.539 101.238 290.766 108.233 290.636 115.227C290.474 122.093 288.337 128.44 284.71 134.236C278.752 143.757 272.048 152.727 263.726 160.337C242.871 179.54 219.07 192.396 190.217 194.501C174.317 195.634 158.546 194.987 143.132 191.004C137.076 189.449 131.02 187.312 125.548 184.365C113.372 177.791 102.426 169.631 95.3021 157.26C91.9666 151.464 88.275 145.829 84.7129 140.13C82.8347 137.118 80.5678 134.819 76.7466 133.945C68.4242 132.066 60.3609 129.184 51.7146 128.925C50.8079 128.925 49.383 128.181 49.1239 127.468C48.6058 125.978 49.9983 125.363 51.2289 124.877C52.3299 124.456 53.3985 124.036 54.4023 122.773C53.5604 122.481 52.7184 121.963 51.8441 121.898C49.1887 121.672 46.5333 121.607 43.8779 121.477C42.9064 121.445 41.9025 121.51 40.931 121.412C39.7005 121.283 38.0489 121.315 38.2108 119.599C38.2756 118.887 39.6033 117.98 40.51 117.753C42.3882 117.267 44.3636 117.106 46.3066 116.944C47.7314 116.846 49.0591 116.749 49.7392 114.58L49.7069 114.742ZM281.634 92.4297C283.933 90.7134 285.487 88.5761 285.973 85.6617C286.135 84.7226 286.685 83.8158 287.139 82.9739C288.175 81.1281 288.272 79.4765 287.042 77.5012C284.872 74.0362 285.325 70.5712 287.916 67.3977C288.434 66.75 288.92 66.1024 289.438 65.4223C286.783 63.8679 284.322 62.3459 281.731 60.9858C281.083 60.6296 280.112 60.5649 279.335 60.7268C272.34 62.2488 265.345 61.3744 258.448 60.4353C242.483 58.3304 226.55 56.1932 210.488 55.2864C201.939 54.8007 193.423 55.1245 185.068 57.3266C181.57 58.2657 178.041 59.0105 174.543 59.8524C174.964 59.14 175.482 58.7838 176.098 58.5571C185.91 54.8331 196.046 52.9549 206.538 53.7644C216.576 54.5416 226.615 54.8331 236.589 56.4522C246.369 58.039 256.31 58.719 266.187 59.6581C270.3 60.0467 274.445 60.1439 278.752 59.0429C274.445 56.3227 271.563 52.4691 269.199 48.3889C267.353 48.8746 265.928 49.4575 264.438 49.6518C262.916 49.8461 261.362 49.7813 259.84 49.7166C256.861 49.587 256.407 49.1013 255.468 46.2192C254.95 44.5677 254.141 43.0133 253.687 41.9446C250.579 42.1713 248.215 42.5923 245.915 42.4304C241.187 42.1066 236.395 41.7504 231.732 40.9084C220.689 38.9007 209.614 37.411 198.409 37.2167C187.367 37.0224 176.324 36.6986 165.379 38.6416C166.674 38.0263 168.002 37.6053 169.33 37.2491C178.753 34.6909 188.403 34.3994 198.086 34.4966C209.063 34.5937 219.782 36.5691 230.533 38.5121C235.844 39.4835 241.22 40.034 246.854 40.7789C246.174 38.4473 245.656 36.731 245.106 34.8528C243.875 34.6261 242.645 34.3994 241.414 34.1727C232.638 32.4888 223.863 30.7401 215.054 29.0886C208.319 27.8257 201.615 25.9798 194.847 25.5589C174.802 24.3283 155.243 27.1456 136.072 33.2012C118.521 38.7387 104.175 48.5508 92.9705 63.0584C89.4731 67.592 86.0082 72.1904 82.4784 76.6916C78.5277 81.711 73.7998 85.8236 67.8737 88.3495C67.0317 88.7057 66.2869 89.1914 65.4774 89.6448C76.6495 90.7782 84.4213 84.2044 92.4199 78.0841C91.1894 79.7356 89.635 80.9661 88.3721 82.4234C83.1584 88.3819 76.3256 90.7782 68.7804 91.7821C67.8737 91.9116 66.967 92.1707 65.9955 92.3973C66.0927 93.3364 66.1898 94.0489 66.2545 94.7289C66.6431 99.9426 66.9022 100.234 72.0511 100.946C73.314 101.141 74.5769 101.432 75.8399 101.659C74.9331 102.857 74.1236 103.375 73.2169 103.569C70.2052 104.217 67.1936 104.8 64.1497 105.286C62.7248 105.512 61.2999 105.512 61.1056 107.65C66.805 108.589 72.3749 107.067 78.0096 107.229C72.6016 109.722 66.7727 109.787 60.9438 110.37C60.7171 111.147 60.6199 111.827 60.3285 112.41C58.5798 115.616 59.3245 118.336 60.4579 121.801C61.8504 126.043 64.3763 126.464 67.7765 126.95C76.3256 128.148 83.0289 131.905 86.2996 140.518C87.2387 142.947 89.0522 145.052 90.5742 147.222C92.42 149.845 94.6868 152.241 96.3383 154.961C102.167 164.709 110.781 171.606 119.881 177.953C127.653 183.361 136.137 187.182 145.366 189.417C158.578 192.623 171.953 192.882 185.424 192.558C204.983 192.072 222.729 186.178 239.083 175.492C256.472 164.158 271.109 150.201 281.828 132.326C285.099 126.82 287.333 120.894 287.042 114.45C286.783 108.168 285.876 101.918 285.228 95.668C285.131 94.6641 284.84 93.6603 284.645 92.6564C283.026 95.6356 282.12 98.6796 281.116 101.691C279.626 106.128 278.428 107.844 276.193 109.204C277.1 106.678 278.201 103.99 279.076 101.206C279.917 98.5501 280.5 95.8299 281.18 93.1422C281.31 92.8831 281.472 92.5916 281.601 92.3326L281.634 92.4297ZM88.2102 62.7669C88.4045 62.9612 88.6312 63.1555 88.8255 63.3498C89.6998 62.2812 90.6066 61.2125 91.4809 60.1439C101.617 47.7412 113.987 38.4149 129.239 33.1689C143.067 28.4086 157.186 24.976 171.791 24.0692C181.57 23.4863 191.382 23.0006 201.097 24.7817C208.124 26.077 215.087 27.6314 222.049 29.0886C228.04 30.3515 234.031 31.7116 240.605 33.1365C237.625 30.4811 236.211 27.8688 236.362 25.2998C230.598 21.6405 224.964 17.6898 219.005 14.3867C214.633 11.958 209.97 9.82072 205.178 8.55779C196.402 6.22621 187.529 4.21847 178.364 3.92702C166.998 3.57081 155.664 3.76511 144.459 5.77285C130.405 8.33111 117.355 13.8686 105.308 21.4462C88.9874 31.744 76.9733 45.442 73.5083 65.228C72.6016 70.4741 70.2377 75.0077 66.3841 78.7317C66.0926 78.9908 65.963 79.4118 65.5097 80.2537C72.5044 77.1773 79.9525 70.636 83.968 64.548C86.4291 60.8239 88.9874 57.1323 91.6428 53.5378C94.7515 49.328 100.678 44.4705 104.305 43.24C98.3461 49.2632 92.6143 55.4484 88.2102 62.7021V62.7669ZM266.511 44.7943C257.606 37.7996 249.38 30.6106 238.662 27.1132C238.726 28.1819 238.985 29.121 239.601 29.4772C241.025 30.3192 242.677 30.8049 244.167 31.5497C245.948 32.424 247.729 33.4603 247.794 35.7595C247.858 38.1558 249.38 38.8683 251.291 39.1597C254.464 39.6131 256.148 41.5884 257.055 44.4705C257.314 45.3772 257.8 46.1868 258.318 47.4498C260.844 46.3163 263.694 47.4498 266.478 44.7943H266.511ZM57.0902 85.3379C58.936 89.0619 60.5875 89.6124 63.7611 88.1875C70.7882 85.014 76.3904 80.1242 80.9887 74.0038C82.025 72.6437 82.9965 71.2189 83.968 69.8264C75.5161 76.1411 67.9061 83.3949 57.0902 85.3055V85.3379ZM300.351 74.36C302.747 76.6916 304.917 78.7965 307.054 80.9338C310.714 84.5283 314.988 86.5684 320.202 86.277C320.979 86.2446 321.756 85.6617 323.505 84.9169C314.729 82.0996 308.965 75.3315 300.319 74.36H300.351ZM307.054 57.1323C303.557 56.2903 300.513 55.5779 297.437 54.8655C294.393 54.153 291.899 55.1245 289.341 57.359C293.648 59.2048 298.797 58.3628 300.999 63.1231C303.848 61.7954 305.597 60.0144 307.054 57.1323ZM261.977 38.0911C258.286 32.3269 250.481 26.5951 245.656 25.7855C251.226 29.9953 256.602 34.0432 261.977 38.0911ZM46.2742 108.783C46.1446 108.427 46.0151 108.071 45.8856 107.714C43.8131 108.362 41.7406 109.042 39.6357 109.69C39.7329 110.014 39.83 110.338 39.9271 110.661C42.032 110.046 44.137 109.398 46.2419 108.783H46.2742ZM322.048 53.4082C319.371 53.1923 317.169 53.8508 315.442 55.3836C318.162 54.574 320.105 53.9911 322.048 53.4082Z" fill="#575D27" fill-opacity="0.2"/>
<path d="M281.213 93.2391C276.129 101.367 271.206 109.625 265.863 117.591C261.556 124.003 256.181 129.605 249.672 133.783C243.26 137.928 236.395 141.393 229.724 145.149L229.821 145.246C230.404 144.599 230.89 143.789 231.602 143.336C236.071 140.518 240.734 137.96 245.106 134.981C253.817 128.99 261.2 121.671 266.122 112.118C266.705 111.017 267.256 109.852 268 108.848C273.376 101.432 278.719 93.9839 283.253 85.791C282.735 87.9931 282.217 90.1951 281.666 92.3971C281.504 92.6886 281.375 92.9477 281.213 93.2391Z" fill="#575D27" fill-opacity="0.2"/>
<path d="M284.645 67.5269C281.051 71.6071 276.485 73.9063 271.563 75.4283C260.811 78.7314 249.769 80.5448 238.532 80.9982C229.303 81.3868 220.041 81.3544 210.812 81.4515C199.575 81.5811 188.565 83.265 177.555 85.6613C165.411 88.2844 153.041 90.0007 140.768 92.0084C127.296 94.2104 114.408 98.2907 101.649 102.986C96.824 104.767 91.9343 106.322 86.8177 107.293C88.275 106.743 89.6998 106.16 91.1571 105.642C99.9652 102.468 108.709 99.0355 117.614 96.1858C124.253 94.0809 131.053 91.976 137.918 91.1341C152.134 89.3854 166.156 86.9566 179.951 83.1678C188.112 80.9334 196.402 79.8324 204.821 79.4762C216.026 79.0228 227.23 78.8933 238.402 78.6666C247.664 78.4723 256.893 77.7599 265.798 75.1369C270.85 73.6472 275.643 71.2833 280.565 69.2755C281.925 68.725 283.253 68.1097 284.613 67.5269H284.645Z" fill="#575D27" fill-opacity="0.2"/>
<path d="M76.3579 121.413C83.7736 119.178 90.6712 120.603 97.7307 123.064C116.124 129.508 134.906 134.204 154.595 134.787C166.059 135.111 177.555 135.791 188.954 133.912C206.246 131.063 222.502 125.234 236.88 114.936C238.921 113.479 240.702 111.665 242.58 110.014C243.778 108.945 244.976 107.844 246.369 106.97C242.677 112.086 238.176 116.361 232.735 119.534C219.232 127.403 205.016 133.556 189.439 135.888C180.016 137.313 170.495 137.118 160.975 136.859C144.071 136.406 127.588 133.621 111.332 129.217C105.276 127.565 99.2527 125.687 93.1647 124.165C89.2463 123.161 85.2633 122.578 81.2802 121.866C79.661 121.574 78.0094 121.542 76.3579 121.413Z" fill="#575D27" fill-opacity="0.2"/>
<path d="M96.5002 143.562C101.066 144.664 104.693 147.351 106.863 151.302C112.886 162.247 122.342 168.951 133.158 174.488C144.654 180.35 156.797 183.005 169.556 183.361C180.761 183.653 191.965 183.782 203.073 182.001C203.461 181.936 203.882 182.001 205.08 182.001C198.96 184.268 193.293 184.462 187.691 184.754C175.515 185.401 163.306 185.401 151.325 182.714C136.687 179.443 123.67 172.869 112.854 162.377C110.684 160.272 108.838 157.649 107.413 154.961C104.855 150.071 101.228 146.38 96.5002 143.595V143.562Z" fill="#575D27" fill-opacity="0.2"/>
<path d="M122.471 134.787C125.483 135.208 128.527 135.596 131.539 136.082C151.357 139.353 171.24 140.421 191.253 138.122C201.874 136.924 212.626 133.815 225.579 128.796C224.186 129.638 222.826 130.609 221.369 131.322C210.909 136.341 199.834 139.288 188.338 140.162C166.48 141.814 144.783 140.648 123.378 135.532C123.054 135.467 122.73 135.305 122.407 135.175C122.407 135.046 122.439 134.916 122.471 134.787Z" fill="#575D27" fill-opacity="0.2"/>
<path d="M188.209 50.6231C215.961 46.5104 243.228 51.886 270.656 54.6062C266.997 54.6062 263.337 54.8976 259.71 54.5414C245.073 53.1813 230.469 51.4003 215.832 50.2668C208.902 49.7163 201.874 50.2021 194.88 50.2668C192.645 50.2668 190.443 50.4935 188.209 50.5907V50.6231Z" fill="#575D27" fill-opacity="0.2"/>
<path d="M151.745 37.7024C133.32 41.1997 118.359 50.1698 103.106 58.978C108.806 50.8498 140.217 36.8604 151.745 37.7024Z" fill="#575D27" fill-opacity="0.2"/>
<path d="M263.37 72.2872C246.401 75.9141 229.303 76.497 212.14 76.4322C220.98 75.7846 229.853 75.3636 238.694 74.4245C243.681 73.9064 248.571 72.611 253.461 71.5424C256.796 70.7976 260.067 70.5709 263.37 72.2872Z" fill="#575D27" fill-opacity="0.2"/>
<path d="M151.616 64.2886C137.303 69.5994 123.864 74.5864 110.976 79.379C115.282 75.1369 140.541 65.3896 151.616 64.2886Z" fill="#575D27" fill-opacity="0.2"/>
<path d="M91.8047 87.7987C102.815 79.0877 114.408 71.5101 127.523 66.4907C115.606 73.5826 103.689 80.7069 91.8047 87.7987Z" fill="#575D27" fill-opacity="0.2"/>
<path d="M260.747 85.1433C264.438 83.1356 268.292 81.7431 272.567 81.3545C259.775 86.2767 249.056 94.2105 239.374 103.731C241.9 99.9747 244.976 96.704 248.506 93.9515C252.327 90.9722 256.213 88.0578 260.099 85.1109C260.326 85.1109 260.552 85.1433 260.779 85.1757L260.747 85.1433Z" fill="#575D27" fill-opacity="0.2"/>
<path d="M137.853 127.728C123.184 128.764 109.194 124.554 95.7554 118.013C102.75 120.215 109.68 122.87 116.804 124.522C123.864 126.141 131.118 126.756 137.853 127.728Z" fill="#575D27" fill-opacity="0.2"/>
<path d="M127.296 143.562C113.404 140.648 100.386 135.013 86.8824 130.933C100.645 134.203 114.052 138.64 127.296 143.562Z" fill="#575D27" fill-opacity="0.2"/>
<path d="M143.002 46.8022C132.478 51.3682 122.18 55.8047 112.336 60.0793C115.639 55.74 133.708 47.6766 143.002 46.8022Z" fill="#575D27" fill-opacity="0.2"/>
<path d="M183.351 31.2907C193.941 29.7039 204.497 28.9591 214.925 32.0679C204.4 31.8088 193.876 31.5498 183.351 31.2907Z" fill="#575D27" fill-opacity="0.2"/>
<path d="M205.08 63.8677C215.669 61.9895 226.324 61.7952 237.01 63.8677H205.08Z" fill="#575D27" fill-opacity="0.2"/>
<path d="M141.415 86.7627C152.782 84.3016 164.181 81.8405 175.547 79.3794C175.612 79.7032 175.677 80.0271 175.774 80.3509C164.375 82.812 152.976 85.2407 141.61 87.7018C141.545 87.378 141.48 87.0865 141.448 86.7627H141.415Z" fill="#575D27" fill-opacity="0.2"/>
<path d="M243.746 144.858C244.264 144.242 244.652 143.497 245.268 143.044C251.906 138.316 257.703 132.746 263.046 126.658C263.726 125.881 264.73 125.363 265.572 124.715L265.475 124.618C264.957 125.557 264.568 126.594 263.888 127.403C258.739 133.847 252.554 139.19 245.883 143.951C245.268 144.404 244.393 144.501 243.649 144.793L243.713 144.89L243.746 144.858Z" fill="#575D27" fill-opacity="0.2"/>
<path d="M201.13 44.0493C211.557 42.5273 223.571 42.6892 235.197 45.118C223.506 44.7618 211.525 44.3732 201.13 44.0493Z" fill="#575D27" fill-opacity="0.2"/>
<path d="M75.6456 125.461C83.7089 124.716 91.5456 125.396 99.3175 129.25C91.1246 127.922 83.3851 126.691 75.6456 125.461Z" fill="#575D27" fill-opacity="0.2"/>
<path d="M260.747 85.1432C260.52 85.1432 260.293 85.1108 260.067 85.0784C255.825 87.0538 251.55 88.9644 247.34 91.0045C245.3 92.0084 243.357 93.2389 241.155 93.9837C247.081 88.8996 253.882 85.4023 261.653 82.4878C261.232 83.7183 261.006 84.4308 260.747 85.1432Z" fill="#575D27" fill-opacity="0.2"/>
<path d="M105.956 74.2952C106.248 73.8418 106.409 73.2589 106.798 72.9999C111.914 69.4053 117.29 66.3613 123.443 64.7422C121.856 65.6165 120.269 66.5233 118.65 67.3976C114.408 69.6644 110.134 71.9312 105.859 74.198L105.924 74.2952H105.956Z" fill="#575D27" fill-opacity="0.2"/>
<path d="M268.292 93.8545C264.6 97.9024 260.909 101.95 256.731 106.549C257.865 103.213 262.884 97.3519 268.292 93.8545Z" fill="#575D27" fill-opacity="0.2"/>
<path d="M208.157 72.1257C208.578 71.8018 208.999 71.2189 209.452 71.1866C216.253 70.7008 223.053 70.2798 229.886 70.5389C222.632 71.057 215.378 71.6075 208.125 72.1257H208.157Z" fill="#575D27" fill-opacity="0.2"/>
<path d="M130.502 108.75C124.123 109.009 117.776 109.268 111.397 109.528C111.397 109.236 111.397 108.945 111.397 108.653C114.57 108.653 117.776 108.75 120.95 108.653C124.123 108.524 127.297 108.135 130.47 107.876C130.47 108.167 130.47 108.491 130.502 108.783V108.75Z" fill="#575D27" fill-opacity="0.2"/>
<path d="M282.087 113.835C282.541 119.826 281.472 125.007 278.59 130.577C279.82 124.748 280.857 119.632 282.087 113.835Z" fill="#575D27" fill-opacity="0.2"/>
<path d="M224.802 67.1706C219.944 67.462 215.055 67.7535 210.197 68.0449C214.277 66.5553 218.94 66.1667 224.802 67.1706Z" fill="#575D27" fill-opacity="0.2"/>
<path d="M128.462 118.822C123.605 118.239 118.747 117.624 113.89 117.041C113.922 116.782 113.955 116.491 113.987 116.231C118.844 116.879 123.67 117.527 128.527 118.207C128.527 118.401 128.462 118.628 128.462 118.822Z" fill="#575D27" fill-opacity="0.2"/>
<path d="M66.0279 114.839C70.3348 114.644 74.6418 114.45 78.9488 114.256C78.9488 114.547 78.9487 114.839 78.9811 115.13C74.6742 115.357 70.3672 115.551 66.0603 115.778C66.0603 115.454 66.0603 115.13 66.0279 114.839Z" fill="#575D27" fill-opacity="0.2"/>
<path d="M265.896 133.394C263.305 135.985 260.714 138.608 258.124 141.199C257.929 141.037 257.735 140.843 257.573 140.681C260.164 138.122 262.722 135.564 265.313 133.006C265.507 133.135 265.701 133.265 265.928 133.427L265.896 133.394Z" fill="#575D27" fill-opacity="0.2"/>
<path d="M213.208 59.4634C215.734 59.0101 218.228 58.5891 220.754 58.1357C220.754 58.33 220.818 58.5243 220.851 58.7186C218.292 58.9777 215.767 59.2044 213.208 59.4634Z" fill="#575D27" fill-opacity="0.2"/>
<path d="M119.104 104.994C121.079 102.889 123.734 103.31 126.293 103.375C123.896 103.893 121.468 104.444 119.071 104.962H119.136L119.104 104.994Z" fill="#575D27" fill-opacity="0.2"/>
<path d="M105.406 142.364C106.766 142.947 108.093 143.562 109.972 144.372C108.331 144.286 106.809 143.616 105.406 142.364Z" fill="#575D27" fill-opacity="0.2"/>
<path d="M265.572 124.716C266.349 123.55 267.094 122.385 267.871 121.219C268.13 121.445 268.357 121.64 268.616 121.834C267.58 122.773 266.543 123.68 265.507 124.619L265.604 124.716H265.572Z" fill="#575D27" fill-opacity="0.2"/>
<path d="M252.295 145.862C252.651 143.919 254.303 143.466 255.468 142.462C255.663 142.689 255.825 142.915 256.019 143.142C254.756 144.016 253.493 144.891 252.23 145.765L252.295 145.862Z" fill="#575D27" fill-opacity="0.2"/>
<path d="M208.124 72.1253C206.602 72.19 205.08 72.2548 203.591 72.3196C203.591 72.1577 203.591 72.0281 203.591 71.8662C205.113 71.931 206.635 72.0281 208.157 72.0929L208.124 72.1253Z" fill="#575D27" fill-opacity="0.2"/>
<path d="M267.256 103.666C267.742 102.501 268.26 101.303 268.745 100.137C269.004 100.299 269.296 100.461 269.555 100.59C268.745 101.594 267.936 102.565 267.159 103.569L267.256 103.666Z" fill="#575D27" fill-opacity="0.2"/>
<path d="M105.859 74.2305C104.92 75.04 103.948 75.8496 103.009 76.6916C102.847 76.4325 102.653 76.1734 102.491 75.882C103.657 75.3639 104.79 74.8457 105.956 74.3276L105.891 74.2305H105.859Z" fill="#575D27" fill-opacity="0.2"/>
<path d="M102.945 65.6493C102.103 66.1674 101.261 66.6855 100.386 67.2037C100.289 67.0418 100.16 66.8475 100.062 66.6855C100.904 66.1026 101.746 65.5521 102.588 64.9692C102.718 65.1959 102.815 65.4226 102.945 65.6493Z" fill="#575D27" fill-opacity="0.2"/>
<path d="M72.1484 118.271H73.9618C73.9618 118.271 73.9618 118.369 73.9618 118.401H72.1484C72.1484 118.401 72.1484 118.304 72.1484 118.271Z" fill="#575D27" fill-opacity="0.2"/>
<path d="M119.039 104.962C117.711 105.027 116.384 105.091 115.056 105.156C115.056 104.962 115.056 104.768 115.056 104.573C116.384 104.703 117.711 104.865 119.039 104.994H119.007L119.039 104.962Z" fill="#575D27" fill-opacity="0.2"/>
<path d="M267.191 103.569C266.705 104.541 266.187 105.512 265.701 106.484C265.442 106.29 265.216 106.128 264.957 105.933C265.734 105.156 266.511 104.411 267.288 103.634L267.191 103.537V103.569Z" fill="#575D27" fill-opacity="0.2"/>
<path d="M122.536 31.1611C140.088 21.6405 164.861 14.581 188.014 18.5317C176.713 18.4022 165.541 19.2441 154.433 21.349C143.391 23.4215 133.158 27.8256 122.536 31.1611Z" fill="#575D27" fill-opacity="0.2"/>
<path d="M160.36 13.1881C179.692 8.97832 198.377 11.569 216.9 19.0494C207.282 17.1712 198.053 15.2606 188.792 13.6091C179.368 11.9252 169.88 12.8643 160.392 13.1881H160.36Z" fill="#575D27" fill-opacity="0.2"/>
<path d="M106.086 30.7406C106.377 30.1901 106.507 29.4453 106.96 29.0891C115.703 22.3858 125.321 17.5931 136.364 15.9092C125.386 19.0827 115.541 24.5878 105.988 30.6434L106.086 30.7406Z" fill="#575D27" fill-opacity="0.2"/>
<path d="M154.045 6.48516C163.986 4.76886 174.025 3.60307 184.161 6.48516H154.045Z" fill="#575D27" fill-opacity="0.2"/>
<path d="M116.481 28.5059C109.421 33.6224 102.88 38.3827 96.3059 43.143C101.941 37.0226 108.352 31.9708 116.481 28.5059Z" fill="#575D27" fill-opacity="0.2"/>
<path d="M216.674 24.2957C212.367 23.5185 208.06 22.709 203.429 21.867C207.218 20.7336 212.431 21.5756 216.674 24.2957Z" fill="#575D27" fill-opacity="0.2"/>
<path d="M105.989 30.6431C105.244 31.3231 104.499 32.0355 103.754 32.7156C103.592 32.4565 103.43 32.1975 103.268 31.9708C104.207 31.5498 105.147 31.1612 106.053 30.7402L105.956 30.6431H105.989Z" fill="#575D27" fill-opacity="0.2"/>
</svg>
