<svg width="200" height="112" viewBox="0 0 200 112" fill="none" xmlns="http://www.w3.org/2000/svg">
<path d="M60.5874 58.7165C60.5874 58.7165 59.4882 58.2918 59.1135 58.4667C53.7177 60.9897 47.7223 67.9594 41.1524 66.1358C40.9276 66.0858 39.4037 65.9858 40.0033 66.1607C48.2219 68.6837 53.7426 61.939 60.5624 58.7165H60.5874Z" fill="#FADAAB" fill-opacity="0.6"/>
<path d="M106.677 109.202C106.952 109.277 107.326 109.352 107.551 109.352C118.568 111.351 129.859 112 141 111.451C141.375 111.451 141.775 111.401 142.174 111.376C142.424 111.451 142.724 111.526 142.874 111.476C143.024 111.426 143.149 111.376 143.273 111.326C156.788 110.501 172.376 107.853 180.395 96.0126C180.445 96.0126 180.47 96.0126 180.47 96.0126C180.47 96.0126 180.47 95.9627 180.47 95.9377C180.67 95.6629 180.844 95.3881 181.019 95.0883C181.019 95.0883 180.695 94.9884 180.345 94.8885C180.345 94.8385 180.345 94.7885 180.345 94.7136C180.545 94.7136 180.794 94.7136 180.72 94.7136C180.595 94.6636 180.445 94.6137 180.32 94.5637C178.746 81.8235 172.451 70.4074 164.932 60.1903C161.135 55.0443 157.013 50.1231 152.816 45.2768C152.741 45.052 152.666 44.8271 152.541 44.6023C152.541 44.5523 152.316 44.5024 152.142 44.5024C147.145 38.7069 142.149 32.8864 136.479 27.7404C134.28 25.7669 131.982 23.9433 129.584 22.2945C128.86 21.5451 128.085 20.8207 127.211 20.1462C127.011 19.9963 126.262 20.0962 126.212 20.0713C124.688 19.122 123.139 18.2477 121.59 17.3983C113.047 12.0775 103.504 7.85573 93.5868 5.10785C91.3885 4.38341 89.1652 3.73389 86.9919 3.05941C82.4454 1.66049 77.774 0.436434 73.0027 0.0867047C66.9074 -0.362948 61.012 1.01101 55.0915 2.48487C55.0416 2.45989 54.9916 2.40991 54.9667 2.38492C54.7418 2.23504 53.9924 2.33497 53.9424 2.30999C54.0673 2.40991 54.2172 2.53482 54.3421 2.63475C51.4694 3.13436 48.5966 3.78387 45.7987 4.63321C45.2741 4.73313 44.7495 4.83306 44.2 4.908C44.125 4.908 44.0501 5.10783 44.0001 5.20776C41.602 5.98216 39.2538 6.85649 36.9306 7.90568C35.3068 8.28039 33.6831 8.6301 32.0344 8.90489C22.7166 10.4787 13.2738 10.5037 3.95604 8.97983C3.68126 8.77998 3.3815 8.60513 3.10671 8.40528C2.8569 8.23042 1.93262 8.33036 1.88266 8.30538C2.05752 8.45526 2.23238 8.58016 2.38227 8.73004C1.98257 8.6551 1.60786 8.60514 1.20817 8.53019C1.08327 8.53019 -0.115797 8.43026 0.00910694 8.55516C20.3184 32.6865 28.9118 64.7118 53.7926 85.2709C69.0308 97.8861 87.4166 105.555 106.652 109.152L106.677 109.202ZM108.525 109.227C118.043 107.953 127.261 105.031 135.729 100.459C140.051 98.111 144.148 95.3881 147.945 92.2655C149.743 90.8166 151.442 89.2678 153.091 87.6441C153.491 87.2444 153.865 86.8697 154.265 86.47C159.486 88.2936 164.732 90.0173 170.003 91.641C168.604 93.7893 165.331 95.8627 163.358 97.5115C161.16 99.36 158.886 101.159 156.538 102.832C152.142 106.005 147.495 108.453 142.674 110.876C131.283 111.65 119.767 111.176 108.5 109.202L108.525 109.227ZM123.314 73.7049C124.488 74.2045 125.687 74.704 126.861 75.2037C130.483 76.7275 134.105 78.3512 137.753 79.925C132.732 77.9765 127.735 75.9032 122.814 73.7049C122.989 73.7049 123.139 73.7049 123.314 73.7049ZM122.315 73.48C120.716 72.7555 119.142 72.0312 117.568 71.2817C119.317 72.0312 121.041 72.7556 122.789 73.505C122.639 73.505 122.465 73.505 122.315 73.505V73.48ZM179.071 94.8635C171.976 106.33 157.837 109.627 145.297 110.701C145.147 110.701 145.022 110.701 144.872 110.726C150.068 108.603 154.939 105.48 159.436 102.158C161.884 100.334 164.257 98.3858 166.555 96.3873C167.779 95.3381 170.253 93.7144 171.452 92.1156C173.975 92.89 176.473 93.6394 178.996 94.3639C179.021 94.5387 179.071 94.6887 179.096 94.8635H179.071ZM178.921 94.0641C176.548 93.2148 174.15 92.4154 171.751 91.616C171.876 91.4161 171.976 91.2163 172.026 90.9915C172.351 89.8673 171.627 88.2935 171.352 87.2194C170.902 85.4208 170.477 83.5972 170.028 81.7986C169.178 78.3762 168.304 74.9538 167.455 71.5315C166.78 68.8586 166.231 66.1107 165.481 63.4378C171.901 72.7306 176.997 82.8228 178.921 94.0891V94.0641ZM160.085 56.0934C160.235 56.2933 160.41 56.4931 160.56 56.6929C160.51 56.6929 160.485 56.6929 160.51 56.6929C160.56 56.6929 160.585 56.718 160.61 56.743C161.659 58.0919 162.683 59.4409 163.683 60.8148C164.132 62.3386 164.357 63.9873 164.657 65.2863C165.406 68.5088 166.206 71.7314 166.98 74.9289C167.755 78.1514 168.529 81.3739 169.328 84.5714C169.828 86.5699 171.077 89.1429 170.253 91.0664C165.107 89.3677 159.911 87.694 154.765 85.9703C155.239 85.5706 155.314 85.0461 154.939 84.3966C154.964 83.2225 154.39 81.7736 154.14 80.5995C152.841 74.6541 151.217 68.7586 149.319 62.9631C149.369 62.9631 149.419 62.9631 149.444 62.9132C150.818 60.2402 151.417 56.668 152.192 53.7452C152.716 51.8467 153.291 49.5985 153.216 47.4751C155.539 50.3229 157.837 53.1707 160.06 56.0185L160.085 56.0934ZM151.767 45.7764C151.717 46.7756 151.767 47.7999 151.667 48.7991C151.492 50.4229 151.092 52.0216 150.618 53.5954C150.018 55.6688 148.869 58.0669 148.444 60.3651C147.07 56.3682 145.572 52.3963 143.948 48.4993C141.825 43.3782 139.476 38.3571 136.903 33.4609C135.504 30.813 134.106 28.14 132.382 25.6919C139.401 31.6123 145.771 38.5819 151.767 45.7764ZM115.345 44.9021C114.046 38.632 110.873 32.3618 108.6 26.3914C106.427 20.7457 104.304 15.0751 102.005 9.45447C104.978 10.6286 107.926 11.8276 110.848 13.0517C113.197 14.0259 115.495 15.1001 117.743 16.2243C119.542 19.2969 121.665 22.1697 123.863 24.9675C126.861 28.7895 128.635 32.7115 130.159 37.283C130.184 37.3829 130.558 37.3329 130.558 37.3329C129.259 33.4109 127.86 29.6639 125.362 26.3164C122.989 23.1439 120.741 19.9464 118.543 16.6489C119.017 16.8987 119.467 17.1235 119.916 17.3733C121.016 17.9729 122.09 18.5724 123.164 19.197C124.613 20.0713 126.062 20.9706 127.461 21.9448C127.411 21.9448 127.361 21.9448 127.361 21.9448C128.984 23.044 129.859 24.6677 130.633 26.4164C131.508 28.3649 132.432 30.3133 133.331 32.2618C133.331 32.3118 133.531 32.2618 133.531 32.2868C132.607 30.0885 131.782 27.8652 130.758 25.6919C130.583 25.3172 130.408 24.9425 130.184 24.5928C132.382 27.5905 134.131 30.9379 135.829 34.2603C138.177 38.8568 140.351 43.5281 142.349 48.2995C146.521 58.3667 149.818 68.7587 152.267 79.3755C152.566 80.6245 152.841 81.8985 153.091 83.1725C153.341 84.3716 153.466 84.9212 153.191 85.4958C152.441 85.246 151.692 84.9961 150.967 84.7213C143.998 80.7993 136.704 77.5519 129.334 74.4043C128.76 70.7571 126.411 66.6852 124.938 63.5876C123.089 59.7156 121.016 55.9685 118.842 52.2714C114.646 45.2018 110.349 37.6827 105.128 31.3126C102.305 27.8903 98.7828 25.3672 95.4104 22.5693C92.3877 20.0463 89.8647 17.0986 87.3666 14.0759C83.2448 9.05479 79.098 4.00867 72.8029 2.0352C74.6514 2.11014 76.475 2.28502 78.3236 2.48487C85.6929 4.10861 92.7125 7.13125 100.107 8.70504C100.232 8.755 100.357 8.80499 100.481 8.85495C102.655 14.6755 104.978 20.421 107.201 26.2165C109.549 32.3368 111.423 39.0316 114.521 44.8022C114.596 44.9521 115.37 44.9271 115.37 44.9021H115.345ZM99.6321 32.5866C100.057 40.2557 100.332 47.9497 100.881 55.6188C96.4846 50.0981 92.088 44.6023 87.6664 39.0816C87.7413 39.1565 87.8163 39.2565 87.8912 39.3314C88.0161 39.4313 88.8155 39.4313 88.8155 39.4313C88.2659 38.1823 88.3409 37.1331 88.3159 35.8091C88.3159 33.6858 87.8163 31.6623 87.2667 29.6139C86.1176 25.3422 85.3182 20.9955 84.319 16.6739C84.319 16.5989 83.8943 16.599 83.8943 16.624C84.6937 21.1205 85.6429 25.567 86.3174 30.0885C86.5922 31.9371 86.9919 33.7607 86.9919 35.6342C86.9919 36.9082 86.7921 37.8825 87.4166 38.7818C85.8178 36.7834 84.219 34.8099 82.6453 32.8114C82.3455 32.4367 82.0208 32.037 81.721 31.6373C81.9208 31.6373 82.0957 31.6373 82.0957 31.6373C80.5469 26.0666 78.1987 20.6708 76.0504 15.3249C74.3267 11.0532 72.8279 6.05709 70.4797 1.96026C70.9043 1.96026 71.304 1.96026 71.7287 1.96026C78.8732 4.20852 83.1949 10.7285 87.8163 16.2243C92.8874 22.2696 99.9069 26.1916 104.703 32.4867C109.724 39.0566 114.096 46.3759 118.243 53.5204C120.291 57.0677 122.24 60.6649 123.938 64.387C125.287 67.3098 126.212 70.6572 127.561 73.6299C121.265 70.957 114.92 68.359 108.725 65.5112C106.427 62.5885 104.129 59.6906 101.83 56.7929C102.03 56.7929 102.18 56.7929 102.18 56.743C102.255 48.7491 101.431 40.5555 100.232 32.6366C100.232 32.5367 99.6072 32.5117 99.6072 32.5617L99.6321 32.5866ZM60.4874 2.73465C61.9113 2.45986 63.3102 2.23505 64.7091 2.08517C66.208 2.01023 67.7068 1.96026 69.2056 1.96026C69.8302 3.98369 70.8794 5.9572 71.6538 7.88071C72.7279 10.5037 73.8021 13.1017 74.8513 15.7246C76.8497 20.6708 78.6733 25.7169 80.8966 30.5632C73.5773 21.1704 66.3329 10.6036 56.6903 3.58403C57.9643 3.28426 59.2134 2.98446 60.4874 2.73465ZM35.8064 8.92989C36.3061 9.10476 36.9556 9.27963 37.3053 9.12974C37.9548 8.805 38.6043 8.50523 39.2788 8.23044C39.2788 8.23044 39.2788 8.23044 39.3287 8.23044C44.8744 6.93144 50.2952 5.20775 55.791 3.83381C65.5335 12.1774 73.0777 22.7692 81.0965 32.7365C89.6399 43.4032 98.1583 54.07 106.802 64.6369C106.152 64.3371 105.503 64.0373 104.878 63.7126C104.778 63.6626 104.678 63.6126 104.578 63.5377C101.93 61.839 99.2574 60.1403 96.6095 58.4666C93.0872 55.8686 89.6399 53.1207 85.8178 50.9474C81.721 48.6242 77.6242 46.401 73.6272 44.0278C71.8786 42.9286 70.1549 41.8544 68.4063 40.7802C68.4812 40.7802 68.5312 40.7802 68.6061 40.7802C68.6561 40.7802 69.2306 40.7803 69.1807 40.7303C55.4663 32.8114 49.296 16.474 35.157 9.0298C35.4068 8.97984 35.6316 8.92988 35.8814 8.87992L35.8064 8.92989ZM89.6149 55.344C88.0411 54.3198 86.4923 53.2706 84.9435 52.2215C86.6422 53.2457 88.3159 54.2698 89.9396 55.369C89.8397 55.369 89.7148 55.369 89.6149 55.369V55.344ZM4.53061 9.37953C14.4979 10.9034 24.6151 10.9033 34.5324 9.17968C46.0735 15.9245 52.3936 28.5397 62.5608 36.9083C63.56 37.7326 64.5842 38.4571 65.6334 39.1815C64.859 38.7319 64.0846 38.2822 63.3102 37.8325C56.4655 33.5608 49.396 29.6139 41.9267 26.4164C29.1616 20.9706 16.0717 17.2485 4.53061 9.35456V9.37953ZM37.1054 25.2423C37.1054 25.2423 37.3303 25.2423 37.4552 25.2423C40.3779 26.4414 43.2257 27.7653 46.0236 29.1392C45.8237 29.2392 45.6488 29.3391 45.449 29.4391C41.7768 28.0152 38.1047 26.5912 34.5324 24.9175C35.3818 24.8676 36.2311 24.9425 37.0805 25.2173L37.1054 25.2423ZM33.9329 24.6427C33.4083 24.3929 32.8587 24.1431 32.3341 23.8933C31.9095 23.6935 31.5098 23.4687 31.0851 23.2438C31.3099 23.2438 31.4848 23.2438 31.4098 23.1939C30.3856 22.7442 29.3864 22.2696 28.3622 21.7949C28.3372 21.7949 28.2873 21.7699 28.2623 21.745C30.3107 22.4944 32.3091 23.2189 34.3076 23.9933C35.1819 24.318 36.0313 24.6927 36.8806 25.0424C35.9064 24.7427 34.9321 24.6427 33.9329 24.6677V24.6427ZM46.5232 29.3891C47.9221 30.0885 49.296 30.813 50.67 31.5374C49.1961 30.9379 47.7222 30.3383 46.2234 29.7638C46.3233 29.6388 46.4232 29.539 46.5232 29.4141V29.3891ZM2.13246 8.97983C2.38227 9.02979 2.63208 9.05478 2.88189 9.10474C4.031 10.054 5.23006 10.9283 6.45411 11.7527C6.15435 11.6278 5.85459 11.4779 5.55483 11.353C5.23008 11.2031 4.33076 11.2531 3.90609 11.2531C3.30655 10.5037 2.73199 9.75425 2.10748 9.00483L2.13246 8.97983ZM4.13093 11.4779C7.60324 13.8261 11.4503 15.275 15.3722 16.6739C15.697 16.7988 15.9967 16.9237 16.2965 17.0486C17.8453 17.7231 19.3941 18.3726 20.9679 18.9971C23.8157 20.2961 26.5886 21.72 29.4114 23.1939C30.4356 23.7434 31.4848 24.2431 32.534 24.7427C30.9602 24.9675 29.4613 25.5421 27.9625 26.0167C23.9656 27.3157 20.3934 27.2407 16.2216 26.4663C15.697 26.3664 14.6478 26.4663 15.7719 26.6662C18.1951 27.1408 20.7181 27.5905 23.1912 27.5405C22.4668 28.0151 21.4925 28.4648 20.6681 28.19C20.3184 28.0651 19.8438 27.9902 19.4691 28.0151C19.3941 28.0151 18.8695 28.0401 19.2193 28.165C19.8688 28.4148 20.4933 28.6646 21.1178 28.9394C21.3926 29.0643 21.6924 29.1643 21.9671 29.2892C22.3419 29.4391 22.9164 29.439 22.5417 29.9636C21.9422 30.788 20.3184 31.0877 19.4191 31.1127C19.0944 31.1127 19.1193 31.1627 19.3192 31.2876C19.594 31.4875 20.2185 31.4624 20.5183 31.4874C22.2169 31.5873 23.7658 31.0878 24.9648 29.8887C24.9648 29.8387 24.8899 29.7888 24.8399 29.7888C23.8157 29.3891 22.7915 29.0144 21.7673 28.6147C22.7415 28.5897 23.6908 28.2899 24.4402 27.5655C24.4402 27.5655 24.3153 27.5655 24.1654 27.5155C24.3653 27.5155 24.5402 27.5155 24.74 27.4656C27.5878 27.1658 30.4356 25.592 33.3084 25.0674C37.0805 26.7911 41.0024 28.2649 44.8744 29.7638C37.655 33.6607 29.7112 35.6592 21.4925 35.934C20.9929 35.934 22.142 36.1838 22.3169 36.1838C26.6136 36.1838 30.8603 35.6343 34.9821 34.5101C35.2819 34.4352 35.5816 34.3103 35.8814 34.2353C32.7838 37.1081 29.0866 39.0067 24.8899 39.6562C24.715 39.6811 25.8392 39.9809 26.1389 39.9309C30.6604 39.2315 34.7573 37.1581 37.8299 33.7607C37.8299 33.7607 37.705 33.7607 37.5551 33.7107C38.979 33.2361 40.4029 32.7365 41.7768 32.1119C43.0259 31.5624 44.6746 31.0378 45.7738 30.1135C48.9463 31.3626 52.1188 32.6865 55.1665 34.2353C57.04 35.1846 58.8886 36.2088 60.7372 37.233C62.3609 38.2323 63.9597 39.2315 65.5835 40.2557C65.4086 40.2307 65.2087 40.2057 65.0339 40.2057C61.9862 40.0059 58.9386 40.1308 55.8909 40.4306C51.8441 40.8302 47.8222 41.5547 43.8003 42.2042C42.9759 42.354 42.1266 42.5039 41.2522 42.6538C41.1273 42.6538 41.0274 42.6288 40.9775 42.6538C40.9025 42.6788 40.8276 42.7288 40.7526 42.7537C35.4068 43.703 29.4114 44.5524 24.8149 41.7545C24.4402 41.5297 23.466 41.6546 23.1662 41.6296C17.3707 31.2126 11.5252 20.7957 4.13093 11.428V11.4779ZM58.1892 87.2694C70.3548 88.9681 82.5203 90.4419 94.661 92.3655C86.3674 93.7644 77.8989 93.5645 69.4305 93.5645C68.9808 93.5645 69.9551 93.7643 70.055 93.7893C80.2471 94.4138 91.1137 94.3389 101.031 91.6659C111.273 88.918 120.816 83.7221 129.834 78.2513C129.809 78.2513 129.159 78.0015 128.96 78.1014C120.191 82.7228 111.573 87.719 102.03 90.6418C99.7571 91.3412 97.4588 91.8658 95.1356 92.2904C82.8201 90.292 70.4547 88.2935 58.0393 87.0695C57.9144 87.0695 57.8394 87.0695 57.7645 87.0695C55.9159 85.6206 54.1173 84.0968 52.3687 82.5231C41.502 72.6557 33.6331 60.3651 26.4886 47.6749C25.3895 45.7015 24.2654 43.728 23.1662 41.7545C27.8626 44.7272 33.6331 44.3775 38.929 43.6281C35.2069 45.2768 31.4848 46.9255 27.6877 48.4243C27.8126 48.3744 28.7369 48.824 29.1366 48.6742C33.1085 47.1004 37.0805 45.4017 40.8276 43.3533C49.1711 42.0543 57.4897 40.1058 65.9332 40.6304C66.6576 41.105 67.407 41.5797 68.1315 42.0543C70.1799 43.6531 72.3782 45.0519 74.6264 46.4009C79.0231 49.3736 83.4197 52.3713 87.8662 55.294C68.8559 54.5696 49.4209 58.9412 31.1351 51.9716C30.8353 51.8717 29.5863 51.8468 29.7611 51.9217C48.2718 59.4659 68.8309 55.294 88.3159 55.6188C92.063 58.0669 95.8351 60.4401 99.6821 62.6884C101.031 63.5877 102.405 64.437 103.904 65.1614C104.279 65.3363 104.653 65.5111 105.028 65.686C110.149 68.4589 115.37 71.0319 120.691 73.43C109.549 73.1553 98.4331 74.1295 87.3167 74.879C73.0527 75.8282 59.1884 75.8781 45.0993 73.3301C45.0493 73.3301 44.4747 73.3052 44.7495 73.3801C56.6653 76.6276 69.6803 76.2779 81.8959 75.6284C95.0107 74.9289 108.101 73.555 121.24 73.6799C126.461 76.028 131.757 78.2014 137.103 80.2498C142.299 82.2483 147.545 84.1468 152.816 85.9953C152.641 86.2202 152.416 86.47 152.117 86.7697C150.268 88.6183 148.32 90.367 146.296 92.0157C142.599 95.0134 138.652 97.6613 134.48 99.9595C134.355 100.034 134.23 100.084 134.106 100.159C132.906 99.7847 131.732 99.5349 130.433 99.41C130.184 99.41 130.308 99.4599 130.483 99.4849C131.283 99.7597 132.057 100.059 132.856 100.334C132.457 100.334 132.057 100.334 131.632 100.359C130.858 100.484 129.959 100.434 129.159 100.484C127.536 100.584 125.912 100.734 124.288 100.909C120.616 101.284 116.944 101.683 113.272 102.058C105.952 102.832 98.5829 103.382 91.3136 104.431C91.1387 104.456 92.1879 104.706 92.4627 104.681C106.027 103.657 119.567 101.059 133.156 100.609C124.988 104.906 116.119 107.729 106.976 108.953C102.28 108.078 97.6587 106.954 93.0872 105.53C80.422 101.583 68.3813 95.4381 57.9144 87.2694C57.9643 87.2694 58.0143 87.2693 58.0643 87.2943L58.1892 87.2694Z" fill="#FADAAB" fill-opacity="0.6"/>
<path d="M67.6318 19.7215C64.3843 14.6255 59.8628 10.129 54.8167 6.80652C54.7418 6.75656 54.467 6.80654 54.442 6.78156C59.3632 10.6036 63.535 14.7754 67.382 19.7215C67.432 19.7715 67.6068 19.7216 67.6318 19.7465V19.7215Z" fill="#FADAAB" fill-opacity="0.6"/>
<path d="M64.5093 18.6473C60.4374 13.8011 55.5662 9.4794 49.8956 6.60662C49.8206 6.55666 49.5958 6.60662 49.5708 6.60662C54.9417 10.054 59.7629 13.7011 63.8848 18.5974C63.9847 18.7223 64.5093 18.6473 64.5093 18.6473Z" fill="#FADAAB" fill-opacity="0.6"/>
<path d="M62.0361 19.1221C57.3147 14.5006 51.9189 10.4787 45.8736 7.75584C45.7737 7.70588 45.4989 7.75582 45.4739 7.73083C51.3194 10.9034 56.6652 14.4257 61.4865 19.0721C61.5864 19.172 62.0361 19.0971 62.0611 19.1221H62.0361Z" fill="#FADAAB" fill-opacity="0.6"/>
<path d="M53.6676 17.4483C49.6957 14.5505 45.6488 11.378 41.4271 8.85497C41.3521 8.80501 41.0274 8.82996 41.0274 8.82996C44.3748 12.2024 49.1212 14.9752 53.168 17.4233C53.2929 17.4983 53.6427 17.4233 53.6676 17.4733V17.4483Z" fill="#FADAAB" fill-opacity="0.6"/>
<path d="M40.5027 17.3234C38.3544 14.7504 35.2318 12.9018 32.0343 11.9026C31.9593 11.9026 31.5846 11.8776 31.6596 11.9026C34.8821 13.2515 37.4551 14.9503 40.0531 17.2735C40.128 17.3484 40.5027 17.2984 40.5027 17.3234Z" fill="#FADAAB" fill-opacity="0.6"/>
<path d="M32.3091 15.5748C31.235 14.1759 30.0359 12.802 28.5371 11.8527C28.4621 11.8027 28.0874 11.8027 28.0874 11.8027C29.1116 13.1017 30.4106 14.1509 31.4098 15.4999C31.5347 15.6747 32.2842 15.5748 32.2842 15.5748H32.3091Z" fill="#FADAAB" fill-opacity="0.6"/>
<path d="M74.7263 47.0254C74.7263 47.0254 75.2259 47.0753 75.151 47.0254C71.8535 45.5515 68.4811 44.4024 64.9838 43.5531C64.9339 43.5531 64.6341 43.5531 64.784 43.5531C68.1814 44.4524 71.5038 45.6015 74.7263 47.0004V47.0254Z" fill="#FADAAB" fill-opacity="0.6"/>
<path d="M55.2914 44.2525C59.688 44.5273 63.7348 45.5265 67.6818 47.4251C67.8317 47.5 68.4312 47.5 68.3563 47.4251C64.1845 45.4266 59.7379 44.2525 55.0915 44.1526C54.8417 44.1526 55.2164 44.2275 55.2914 44.2275V44.2525Z" fill="#FADAAB" fill-opacity="0.6"/>
<path d="M47.8472 45.8512C51.7941 46.0011 55.5412 46.6756 59.2384 48.0995C59.3882 48.1495 60.0377 48.1495 59.9378 48.1245C55.9659 46.6256 51.8191 45.7513 47.5724 45.7763C47.3975 45.7763 47.7972 45.8762 47.8222 45.8762L47.8472 45.8512Z" fill="#FADAAB" fill-opacity="0.6"/>
<path d="M38.979 47.0005C43.3756 46.8257 47.5974 47.4501 51.7192 48.974C51.8441 49.0239 52.4186 49.0239 52.3187 48.974C47.8472 47.2753 43.1508 46.5259 38.3795 46.8007C38.0298 46.8007 38.8291 46.9755 38.979 46.9755V47.0005Z" fill="#FADAAB" fill-opacity="0.6"/>
<path d="M34.2328 47.6999C36.506 48.1745 38.8042 48.4993 41.0775 48.874C41.3522 48.9239 41.8519 48.874 41.3023 48.774C39.0041 48.3993 36.7058 47.9497 34.3826 47.6249C34.2827 47.6249 33.958 47.6249 34.2328 47.6749V47.6999Z" fill="#FADAAB" fill-opacity="0.6"/>
<path d="M68.706 80.1998C71.5039 80.2998 74.2767 80.2498 77.0746 80.2748C78.7233 80.2748 80.372 80.2998 81.9958 80.3747C82.8201 80.4247 87.4166 80.2498 85.0434 81.5488C85.0434 81.5488 85.2433 81.6237 85.2932 81.5988C85.8428 81.324 86.3924 81.0242 86.9419 80.7494C86.9669 80.7494 86.7921 80.6995 86.7671 80.6995C76.55 79.3006 66.183 81.0492 56.0908 78.3263C56.0658 78.3263 55.841 78.3263 55.9159 78.3263C60.0627 79.6003 64.3594 80.05 68.6811 80.1998H68.706Z" fill="#FADAAB" fill-opacity="0.6"/>
<path d="M58.1892 82.1232C62.7857 82.8477 67.3821 83.1475 72.0285 83.0725C72.1284 83.0725 71.9036 83.0225 71.8786 83.0225C67.3072 83.0725 62.7857 82.7228 58.2891 82.0483C58.0893 82.0233 57.8645 82.0483 58.2142 82.1232H58.1892Z" fill="#FADAAB" fill-opacity="0.6"/>
<path d="M64.3094 85.3959C68.706 86.0454 73.1526 86.3202 77.5992 86.3951C77.9739 86.3951 77.4243 86.2703 77.2994 86.2703C72.9527 86.1953 68.6311 85.8206 64.3094 85.321C64.0346 85.296 64.0097 85.346 64.3094 85.3959Z" fill="#FADAAB" fill-opacity="0.6"/>
<path d="M77.2745 95.513C86.2675 96.6621 96.035 96.2125 104.678 93.2897C104.628 93.2897 104.204 93.1398 104.004 93.1648C95.0357 95.3381 86.3924 96.3124 77.1745 95.3631C76.6999 95.3131 76.9497 95.463 77.2745 95.513Z" fill="#FADAAB" fill-opacity="0.6"/>
<path d="M82.4455 98.4857C89.8897 99.6848 97.6587 98.9354 104.753 96.3874C104.703 96.3874 104.304 96.2375 104.129 96.2874C97.0092 98.5856 89.9647 99.2601 82.5204 98.4108C82.3455 98.4108 82.1207 98.4108 82.4455 98.4857Z" fill="#FADAAB" fill-opacity="0.6"/>
<path d="M90.9888 101.084C93.8117 100.759 96.6595 100.359 99.4823 99.9846C99.5822 99.9846 98.9577 99.8097 98.8078 99.8347C95.985 100.209 93.1622 100.534 90.3643 100.934C90.2644 100.934 90.8639 101.109 91.0138 101.084H90.9888Z" fill="#FADAAB" fill-opacity="0.6"/>
<path d="M101.631 104.906C106.752 104.431 111.848 103.732 116.944 103.082C117.019 103.082 116.494 102.932 116.344 102.957C111.273 103.532 106.177 104.056 101.131 104.806C101.056 104.806 101.506 104.931 101.631 104.931V104.906Z" fill="#FADAAB" fill-opacity="0.6"/>
<path d="M61.1618 59.4659C69.8551 59.4659 78.5984 59.341 87.2667 58.8664C87.4416 58.8664 87.0169 58.7664 86.9419 58.7664C78.1737 59.0412 69.4055 59.291 60.6373 59.291C60.3375 59.291 61.037 59.4409 61.1369 59.4409L61.1618 59.4659Z" fill="#FADAAB" fill-opacity="0.6"/>
<path d="M57.6146 60.69C62.7357 60.9148 67.8817 61.0897 73.0028 61.2896C73.4025 61.2896 72.8029 61.1646 72.678 61.1646C67.532 60.9648 62.361 60.715 57.215 60.5401C56.7153 60.5401 57.4648 60.69 57.6146 60.715V60.69Z" fill="#FADAAB" fill-opacity="0.6"/>
<path d="M58.1892 63.0131C62.7357 63.0881 67.3071 63.1879 71.8536 63.2879C72.4282 63.2879 71.5788 63.113 71.404 63.113C66.8325 63.0131 62.261 62.9132 57.6896 62.8132C57.0401 62.8132 57.9893 63.0131 58.1892 63.0131Z" fill="#FADAAB" fill-opacity="0.6"/>
<path d="M52.8433 64.6868C57.8395 65.0865 62.8856 65.3613 67.9067 65.1364C68.1065 65.1364 67.6569 65.0366 67.5819 65.0366C62.5608 65.0116 57.5896 64.9117 52.5935 64.487C51.894 64.437 52.4936 64.6368 52.8433 64.6618V64.6868Z" fill="#FADAAB" fill-opacity="0.6"/>
<path d="M50.4701 66.8602C54.7168 67.2349 58.9885 67.2849 63.2352 67.4847C63.8097 67.5097 62.9604 67.3098 62.7855 67.3098C58.6138 67.11 54.392 66.7353 50.2202 66.7852C50.0204 66.7852 50.4201 66.8852 50.4451 66.8852L50.4701 66.8602Z" fill="#FADAAB" fill-opacity="0.6"/>
<path d="M45.8486 68.2839C50.3452 68.6836 54.8167 69.0584 59.3132 69.558C59.9377 69.6329 59.9627 69.458 59.3132 69.3831C54.7418 68.8835 50.1703 68.4088 45.5988 68.1091C44.9243 68.0591 45.4989 68.259 45.8486 68.2839Z" fill="#FADAAB" fill-opacity="0.6"/>
<path d="M53.4928 71.3567C53.4928 71.3567 53.3679 71.3067 53.3679 71.3567C53.3679 71.3567 53.4928 71.4066 53.4928 71.3567Z" fill="#FADAAB" fill-opacity="0.6"/>
<path d="M133.831 36.8333C131.183 30.6631 127.71 24.8426 123.289 19.7715C123.189 19.6716 122.739 19.7215 122.739 19.7215C126.936 24.9675 130.483 30.5132 133.131 36.7334C133.206 36.9082 133.831 36.7834 133.831 36.8333Z" fill="#FADAAB" fill-opacity="0.6"/>
<path d="M127.186 36.7334C124.213 29.1142 120.041 21.6201 114.546 15.5248C114.471 15.4498 114.121 15.4998 114.096 15.4748C119.442 22.0447 123.863 28.7895 126.986 36.7083C126.986 36.7583 127.186 36.7084 127.186 36.7334Z" fill="#FADAAB" fill-opacity="0.6"/>
<path d="M121.165 33.3611C118.617 27.5905 115.87 21.9199 112.922 16.3243C112.822 16.1494 112.222 16.2743 112.197 16.2244C115.145 21.7951 117.893 27.4907 120.441 33.2612C120.516 33.4361 121.14 33.3111 121.165 33.3611Z" fill="#FADAAB" fill-opacity="0.6"/>
<path d="M117.643 29.7638C117.418 27.1658 115.77 24.2681 114.571 21.9948C113.371 19.7466 112.023 17.5733 110.399 15.5998C110.324 15.5248 109.974 15.5498 109.974 15.5748C111.598 17.848 113.147 20.1462 114.396 22.6443C115.545 24.9176 116.119 27.4656 117.293 29.7139C117.318 29.7638 117.668 29.7888 117.668 29.7638H117.643Z" fill="#FADAAB" fill-opacity="0.6"/>
<path d="M114.071 24.4179C112.272 20.1961 109.474 16.399 105.677 13.7761C105.602 13.7261 105.303 13.7761 105.303 13.7511C108.725 16.7738 111.498 20.0712 113.297 24.3179C113.371 24.4928 114.071 24.3929 114.096 24.4179H114.071Z" fill="#FADAAB" fill-opacity="0.6"/>
<path d="M108.95 77.0522C112.797 76.7274 116.619 76.2028 120.391 75.3534C120.441 75.3534 120.091 75.2535 120.016 75.2785C116.269 76.0029 112.497 76.6025 108.675 77.0022C108.625 77.0022 108.9 77.0771 108.95 77.0771V77.0522Z" fill="#FADAAB" fill-opacity="0.6"/>
<path d="M108.7 78.5511C112.197 77.8766 115.645 77.0772 119.117 76.3278C119.192 76.3278 118.692 76.178 118.567 76.2029C115.12 76.9524 111.673 77.6268 108.25 78.4761C108.3 78.4761 108.575 78.576 108.675 78.5511H108.7Z" fill="#FADAAB" fill-opacity="0.6"/>
<path d="M107.551 80.9494C112.123 79.9002 116.644 78.7261 121.166 77.602C121.116 77.602 120.791 77.477 120.641 77.502C116.194 78.6262 111.723 79.6753 107.301 80.8994C107.301 80.8994 107.476 80.9494 107.551 80.9494Z" fill="#FADAAB" fill-opacity="0.6"/>
<path d="M101.93 86.1953C109.275 84.2967 116.344 81.5238 123.164 78.1764C123.139 78.1764 122.689 78.0016 122.539 78.0765C115.77 81.349 108.8 83.922 101.606 86.1453C101.631 86.1453 101.83 86.2202 101.93 86.1953Z" fill="#FADAAB" fill-opacity="0.6"/>
<path d="M106.252 87.1945C110.724 85.6706 115.095 83.897 119.367 81.8735C119.367 81.8735 119.217 81.8236 119.167 81.8485C114.92 83.872 110.574 85.6207 106.127 87.1945C106.127 87.1945 106.227 87.2194 106.252 87.1945Z" fill="#FADAAB" fill-opacity="0.6"/>
<path d="M123.314 84.2467C126.287 83.0976 129.209 81.5987 131.882 79.8251C131.882 79.8251 131.607 79.7002 131.508 79.7501C128.71 81.3739 125.887 82.8477 122.964 84.1967C122.964 84.1967 123.214 84.2967 123.314 84.2467Z" fill="#FADAAB" fill-opacity="0.6"/>
<path d="M121.016 88.6433C126.162 86.395 131.133 83.7971 136.029 81.0242C136.029 81.0242 135.804 80.9492 135.754 80.9742C130.833 83.6471 125.787 86.0953 120.766 88.5934C120.766 88.5934 120.966 88.6683 121.041 88.6433H121.016Z" fill="#FADAAB" fill-opacity="0.6"/>
<path d="M128.785 87.1944C130.308 86.395 131.807 85.5956 133.331 84.7962C133.331 84.7962 133.031 84.6713 132.931 84.7213C131.433 85.5207 129.934 86.3201 128.46 87.1195C128.46 87.1195 128.71 87.2194 128.785 87.1694V87.1944Z" fill="#FADAAB" fill-opacity="0.6"/>
<path d="M124.938 91.3662C130.558 89.5176 135.804 86.7698 140.7 83.4723C140.7 83.4723 140.301 83.2975 140.176 83.3724C135.28 86.6699 130.084 89.1929 124.563 91.2913C124.588 91.2913 124.838 91.3912 124.938 91.3662Z" fill="#FADAAB" fill-opacity="0.6"/>
<path d="M126.836 93.1149C131.882 90.9166 136.654 88.0938 141.175 84.9962C141.175 84.9962 140.825 84.8463 140.7 84.9213C136.179 88.0189 131.433 90.6169 126.536 93.065C126.536 93.065 126.761 93.1399 126.836 93.1149Z" fill="#FADAAB" fill-opacity="0.6"/>
<path d="M131.507 93.6394C135.03 91.8408 138.452 89.9173 141.924 88.0437C141.924 88.0437 141.575 87.8939 141.45 87.9688C138.052 89.8424 134.605 91.666 131.258 93.6145C131.258 93.6145 131.433 93.6894 131.483 93.6644L131.507 93.6394Z" fill="#FADAAB" fill-opacity="0.6"/>
<path d="M133.556 95.5631C137.303 93.7145 140.975 91.691 144.672 89.7175C144.647 89.7175 144.323 89.5676 144.198 89.6426C140.55 91.5911 136.878 93.4646 133.281 95.513C133.281 95.513 133.481 95.588 133.556 95.5631Z" fill="#FADAAB" fill-opacity="0.6"/>
<path d="M143.623 92.0657C143.623 92.0657 143.498 92.0157 143.498 92.0657C143.498 92.0657 143.623 92.1156 143.623 92.0657Z" fill="#FADAAB" fill-opacity="0.6"/>
<path d="M100.781 15.2751C99.707 12.7271 97.0091 10.4788 94.7358 9.05487C94.6609 9.00491 94.3861 9.05489 94.3611 9.02991C95.4853 9.92921 96.6094 10.8285 97.6086 11.8527C98.6828 12.9269 99.5571 14.1759 100.581 15.2751H100.756H100.781Z" fill="#FADAAB" fill-opacity="0.6"/>
<path d="M96.6593 13.8761C94.7858 10.7785 91.1386 8.35532 87.8911 6.90644C87.7662 6.85648 87.3915 6.90645 87.3416 6.88147C90.7889 8.87993 93.3619 11.1532 96.2596 13.8511C96.3096 13.9011 96.6344 13.8511 96.6344 13.901L96.6593 13.8761Z" fill="#FADAAB" fill-opacity="0.6"/>
<path d="M93.6868 13.1766C90.839 10.9783 87.7913 8.97984 84.5189 7.43103C84.394 7.38107 84.0692 7.43105 84.0443 7.40607C87.2168 9.25464 90.3644 11.0782 93.387 13.1516C93.462 13.2016 93.6868 13.1516 93.7118 13.1766H93.6868Z" fill="#FADAAB" fill-opacity="0.6"/>
<path d="M93.8617 72.3559C98.633 72.1811 103.404 72.0312 108.176 71.7814C108.301 71.7814 108.001 71.7064 107.951 71.7064C103.229 71.8563 98.4831 72.1061 93.7617 72.3309C93.7118 72.3309 93.8367 72.3559 93.8617 72.3559Z" fill="#FADAAB" fill-opacity="0.6"/>
<path d="M110.499 93.1647C110.499 93.1647 109.325 92.79 109.25 93.0148C109.25 93.0648 110.424 93.3895 110.499 93.1647Z" fill="#FADAAB" fill-opacity="0.6"/>
<path d="M102.505 92.3405C105.403 91.2913 108.275 90.2421 111.248 89.3928C113.796 88.6683 116.369 88.1437 118.667 86.7947C118.667 86.7947 118.518 86.7198 118.468 86.7697C116.094 88.1187 113.446 88.6183 110.824 89.3427C107.851 90.1671 104.903 91.0914 102.08 92.2904C102.105 92.2904 102.405 92.4154 102.505 92.3655V92.3405Z" fill="#FADAAB" fill-opacity="0.6"/>
<path d="M106.077 92.84C110.224 92.1406 114.346 91.2163 118.368 89.9673C118.343 89.9673 118.093 89.8673 117.968 89.8923C113.971 90.9665 109.974 91.9657 105.927 92.8151C105.927 92.8151 106.052 92.865 106.077 92.84Z" fill="#FADAAB" fill-opacity="0.6"/>
<path d="M106.077 94.0141C107.976 93.8642 109.849 93.4895 111.723 93.2147C111.798 93.2147 111.323 93.0648 111.198 93.0898C109.375 93.3646 107.476 93.4645 105.703 93.9391C105.703 93.9391 106.002 94.0141 106.077 94.0141Z" fill="#FADAAB" fill-opacity="0.6"/>
<path d="M106.577 95.2631C108.126 95.1132 109.674 94.9383 111.223 94.7884C111.273 94.7884 110.973 94.7135 110.898 94.7135C109.375 94.8884 107.876 95.0383 106.352 95.2131C106.327 95.2131 106.527 95.2631 106.577 95.2631Z" fill="#FADAAB" fill-opacity="0.6"/>
<path d="M108.45 72.8555C110.724 72.9554 112.997 72.8055 115.245 72.5058C115.27 72.5058 115.045 72.4309 114.995 72.4558C112.747 72.7556 110.524 72.8305 108.275 72.8055C108.051 72.8055 108.375 72.8805 108.45 72.8805V72.8555Z" fill="#FADAAB" fill-opacity="0.6"/>
<path d="M167.68 92.4904C167.68 92.4904 167.755 92.3406 167.755 92.3655C166.256 93.6146 164.682 94.8136 163.083 95.9877C163.033 96.0127 163.008 96.1626 162.983 96.1626C164.632 95.0384 166.181 93.8144 167.68 92.5154V92.4904Z" fill="#FADAAB" fill-opacity="0.6"/>
<path d="M166.506 91.9907C166.506 91.9907 166.63 91.7159 166.655 91.7159C165.107 92.94 163.533 94.1391 161.884 95.2132C161.834 95.2382 161.784 95.413 161.784 95.413C163.483 94.4388 165.082 93.3147 166.53 91.9907H166.506Z" fill="#FADAAB" fill-opacity="0.6"/>
<path d="M164.207 91.6908C164.207 91.6908 164.332 91.466 164.257 91.5409C163.358 92.5901 162.284 93.3396 161.11 94.064C161.06 94.089 161.01 94.2638 160.985 94.2638C162.234 93.7142 163.333 92.74 164.182 91.6908H164.207Z" fill="#FADAAB" fill-opacity="0.6"/>
<path d="M162.633 91.4911C162.633 91.4911 162.733 91.2912 162.708 91.3162C161.584 92.4903 160.31 93.4396 158.961 94.2889C158.911 94.3139 158.861 94.4638 158.861 94.4638C160.31 93.7393 161.559 92.6652 162.633 91.4911Z" fill="#FADAAB" fill-opacity="0.6"/>
<path d="M146.921 96.0625L146.946 96.0126C139.626 102.208 131.557 105.855 122.564 108.853C122.539 108.853 122.489 108.978 122.489 108.978C131.482 107.154 140.076 101.983 146.921 96.0375V96.0625Z" fill="#FADAAB" fill-opacity="0.6"/>
<path d="M136.354 104.856C132.757 106.555 128.984 107.854 125.337 109.452C125.262 109.477 125.187 109.752 125.187 109.752C129.034 108.578 132.757 106.679 136.354 104.881V104.856Z" fill="#FADAAB" fill-opacity="0.6"/>
<path d="M138.202 105.28C138.202 105.28 138.277 105.131 138.302 105.106C135.454 106.704 132.457 107.729 129.459 108.978C129.384 109.003 129.309 109.252 129.309 109.252C132.432 108.578 135.479 106.879 138.202 105.28Z" fill="#FADAAB" fill-opacity="0.6"/>
<path d="M135.654 107.928C136.978 107.304 138.302 106.654 139.601 105.98C139.726 105.905 139.801 105.555 139.851 105.53C138.552 106.18 137.228 106.829 135.929 107.429C134.58 108.053 133.156 108.553 131.882 109.302C131.832 109.327 131.682 109.627 131.707 109.627C133.056 109.327 134.43 108.528 135.679 107.928H135.654Z" fill="#FADAAB" fill-opacity="0.6"/>
<path d="M141.6 107.029C141.6 107.029 141.8 106.629 141.825 106.629C139.926 107.329 137.977 108.103 136.279 109.202C136.204 109.252 136.129 109.502 136.104 109.502C137.953 108.678 139.701 107.704 141.6 107.004V107.029Z" fill="#FADAAB" fill-opacity="0.6"/>
<path d="M145.422 106.829L145.547 106.579C143.124 107.479 140.675 108.353 138.252 109.277C138.177 109.302 138.102 109.552 138.102 109.552C140.551 108.678 142.974 107.728 145.397 106.829H145.422Z" fill="#FADAAB" fill-opacity="0.6"/>
<path d="M146.446 107.878C146.446 107.878 146.396 107.928 146.396 107.953C146.396 108.003 146.446 107.903 146.446 107.878Z" fill="#FADAAB" fill-opacity="0.6"/>
<path d="M162.758 101.384C162.758 101.384 162.883 101.159 162.858 101.184C160.185 103.682 157.238 105.555 154.215 107.554C154.14 107.604 154.04 107.903 154.015 107.903C157.263 106.43 160.21 103.857 162.758 101.384Z" fill="#FADAAB" fill-opacity="0.6"/>
<path d="M162.009 103.906L162.059 103.832C161.235 104.381 160.41 104.931 159.586 105.455L159.561 105.53C160.385 104.981 161.21 104.456 162.034 103.906H162.009Z" fill="#FADAAB" fill-opacity="0.6"/>
<path d="M166.356 103.232C166.356 103.232 166.306 103.282 166.306 103.307C166.306 103.357 166.356 103.257 166.356 103.232Z" fill="#FADAAB" fill-opacity="0.6"/>
<path d="M51.4443 64.4121C52.5684 63.7126 53.6426 62.9881 54.7168 62.2637C56.6153 61.5393 58.4139 60.0404 60.1626 59.0412C62.211 57.8671 64.2594 57.0428 66.4827 56.2934C74.1268 56.0186 81.7709 55.4939 89.39 56.0185C89.6148 56.0185 89.9895 55.0942 89.9646 55.0942C79.8973 52.6961 68.9808 55.6439 58.7637 55.519C48.1968 55.3941 37.6799 53.9701 27.7876 50.148C27.5877 50.0731 27.0382 51.2222 27.1131 51.2472C37.0804 54.9443 47.6223 56.2933 58.1891 56.4182C59.3632 56.4182 60.5373 56.4182 61.7364 56.4182C58.7637 57.6423 56.0158 60.2153 53.5677 61.889C48.8213 65.1365 43.8502 66.1857 38.1546 65.4862C37.9298 65.4613 37.4301 66.5604 37.4801 66.5854C42.3264 68.2841 47.1976 67.085 51.4443 64.437V64.4121Z" fill="#FADAAB" fill-opacity="0.6"/>
<path d="M64.1845 77.7018C69.2056 77.5019 74.3017 77.2022 79.2479 76.2279C79.2729 76.2279 79.2978 76.1779 79.3228 76.153C80.322 76.153 81.3462 76.203 82.3455 76.178C88.7655 76.128 95.1106 74.9039 101.506 74.5042C108.675 74.0546 115.82 74.5542 122.989 74.4044C123.114 74.4044 123.289 73.8797 123.314 73.8797C116.544 73.1803 109.624 73.2053 102.805 73.3052C96.2347 73.4051 89.7897 74.6791 83.2198 74.7041C76.6499 74.7291 70.03 74.5043 63.4601 74.4044C56.4405 74.2795 49.1711 74.6042 42.5762 71.8063C42.4013 71.7314 41.9017 72.7556 41.9767 72.7806C48.3467 75.5035 55.4413 75.1787 62.236 75.4535C66.0331 75.6034 69.8551 75.8282 73.6522 75.9781C70.1299 76.2529 66.6326 76.5527 63.0854 76.6526C58.0892 76.7775 53.118 76.6276 48.2218 77.7268C47.8971 77.8017 47.6223 78.8509 47.5973 78.8509C53.0431 77.5769 58.6138 77.9017 64.1595 77.6768L64.1845 77.7018Z" fill="#FADAAB" fill-opacity="0.6"/>
<path d="M92.2378 45.0519C91.5883 43.628 90.5891 42.379 89.7647 41.055C89.0403 39.8809 88.3408 38.7068 87.4915 37.6077C87.4915 37.6077 87.2167 37.9324 87.2417 38.0324C87.7413 39.4563 88.4157 40.7552 89.1652 42.0542C89.9396 43.3282 90.689 44.7771 91.8131 45.7763C91.8631 45.8263 92.2877 45.2018 92.2378 45.0769V45.0519Z" fill="#FADAAB" fill-opacity="0.6"/>
<path d="M62.4609 43.953C62.4609 43.953 62.386 43.878 62.361 43.878C58.8138 43.0536 55.1916 42.3542 51.5444 42.1293C51.5444 42.1293 51.6943 42.2792 51.7692 42.3042C55.3664 42.7788 58.9387 43.2285 62.4859 43.9779L62.4609 43.953Z" fill="#FADAAB" fill-opacity="0.6"/>
<path d="M61.7864 46.8007C61.7864 46.8007 61.6615 46.6508 61.5866 46.6508C56.4905 44.7773 51.0447 43.5782 45.5989 43.6032C45.5989 43.6032 45.6739 43.7031 45.7238 43.7031C51.2446 44.1777 56.4905 45.077 61.7615 46.8257L61.7864 46.8007Z" fill="#FADAAB" fill-opacity="0.6"/>
<path d="M45.0243 45.3267C45.0243 45.3267 44.8994 45.1769 44.8244 45.1769C44.2249 45.1269 43.6254 45.0769 43.0258 45.027C43.0258 45.027 43.1507 45.1519 43.2007 45.1519C43.8002 45.2018 44.4247 45.2768 45.0243 45.3267Z" fill="#FADAAB" fill-opacity="0.6"/>
<path d="M41.4771 46.0761C41.4771 46.0761 41.2023 45.7265 41.0524 45.7515C40.4029 45.8014 39.7284 45.8513 39.0789 45.9263C38.5293 45.9762 37.9548 45.9513 37.4302 46.1262C37.4302 46.1262 37.63 46.326 37.705 46.326C38.929 46.4259 40.253 46.2011 41.4771 46.1012V46.0761Z" fill="#FADAAB" fill-opacity="0.6"/>
<path d="M41.727 48.3246C41.727 48.3246 41.5771 48.1497 41.4771 48.1247C39.5536 47.775 37.5801 47.5502 35.6317 47.6751C35.6317 47.6751 35.7066 47.75 35.7316 47.75C37.755 47.8249 39.7285 47.9249 41.727 48.2996V48.3246Z" fill="#FADAAB" fill-opacity="0.6"/>
<path d="M37.8048 49.6483C37.8048 49.6483 37.5051 49.3235 37.3552 49.2986C35.1319 48.799 32.6338 48.2994 30.3606 48.5492C30.3606 48.5492 30.6354 48.8489 30.7603 48.8489C33.1584 49.0488 35.4566 49.1237 37.8048 49.6483Z" fill="#FADAAB" fill-opacity="0.6"/>
<path d="M49.7457 57.1676C49.7457 57.1676 49.6957 57.0926 49.6458 57.0926C43.2257 57.3424 37.2304 56.3183 31.0601 54.5696C31.0102 54.5696 31.26 54.7695 31.3349 54.7945C37.2304 56.9678 43.5005 57.6173 49.7457 57.1427V57.1676Z" fill="#FADAAB" fill-opacity="0.6"/>
<path d="M40.4028 58.2669C40.4028 58.2669 40.0531 57.8672 39.8533 57.8422C37.1054 57.7173 34.4574 57.2927 31.7595 56.843C31.8095 56.843 32.1092 57.1927 32.2841 57.2426C34.9321 57.9171 37.6799 58.1669 40.4028 58.2669Z" fill="#FADAAB" fill-opacity="0.6"/>
<path d="M39.7034 59.5159C39.7034 59.5159 39.4037 59.1412 39.2538 59.1662C37.1554 59.3411 35.157 59.1662 33.0836 58.9663C33.1335 58.9663 33.3833 59.2661 33.5082 59.2911C35.5317 59.6658 37.655 59.6908 39.7034 59.5159Z" fill="#FADAAB" fill-opacity="0.6"/>
<path d="M45.1991 61.0146C45.1991 61.0146 44.9493 60.7149 44.8244 60.7399C41.2022 61.0896 37.7299 60.7399 34.1077 60.6649C34.1077 60.6649 34.2576 60.8147 34.3325 60.8397C37.8548 61.5642 41.6269 61.4143 45.1742 61.0146H45.1991Z" fill="#FADAAB" fill-opacity="0.6"/>
<path d="M44.9993 62.6633C44.9993 62.6633 44.6996 62.3136 44.5247 62.2886C41.6519 62.2637 38.7542 62.0388 35.8814 62.0888C35.8814 62.0888 36.1312 62.3636 36.2311 62.3636C39.1289 62.6384 42.0766 62.6134 44.9993 62.6383V62.6633Z" fill="#FADAAB" fill-opacity="0.6"/>
<path d="M43.0009 63.9624C43.0009 63.9624 42.6761 63.5877 42.5262 63.5877C40.7026 63.7376 38.904 63.4878 37.1054 63.5627C37.1054 63.5627 37.2803 63.7376 37.3552 63.7376C39.1788 64.1623 41.1523 64.0874 43.0009 63.9375V63.9624Z" fill="#FADAAB" fill-opacity="0.6"/>
<path d="M53.9424 70.9069C53.9424 70.9069 53.8675 70.832 53.8425 70.832C49.9206 70.5822 46.1735 69.8078 42.3015 69.1583C42.3015 69.1583 42.4513 69.3082 42.5263 69.3332C46.2234 70.3574 50.1204 70.7071 53.9424 70.9069Z" fill="#FADAAB" fill-opacity="0.6"/>
<path d="M59.4632 80.4495C59.4632 80.4495 59.3133 80.2746 59.2384 80.2746C56.5155 80.1247 53.7926 79.5502 51.0697 79.4253C51.0697 79.4253 51.2196 79.5752 51.2696 79.5752C53.9175 80.2497 56.7403 80.3496 59.4632 80.4495Z" fill="#FADAAB" fill-opacity="0.6"/>
<path d="M55.6162 81.5988C55.6162 81.5988 55.3165 81.274 55.1416 81.2241C54.4921 81.0492 53.8426 80.9243 53.1681 80.8244C52.6685 80.7494 52.044 80.5996 51.5444 80.7744C51.5444 80.7744 51.7692 80.9493 51.7942 80.9743C53.0682 81.249 54.3422 81.274 55.6162 81.5988Z" fill="#FADAAB" fill-opacity="0.6"/>
<path d="M65.3837 84.3967C65.3837 84.3967 65.1589 84.1219 65.034 84.1219C61.4617 83.947 57.9394 83.4724 54.3672 83.0728C54.3672 83.0728 54.4421 83.1477 54.4671 83.1477C58.0643 83.8971 61.7365 84.2219 65.3837 84.3967Z" fill="#FADAAB" fill-opacity="0.6"/>
<path d="M64.2844 86.295C64.2844 86.295 64.0846 86.0452 63.9597 86.0452C61.5616 85.8204 59.0885 85.4207 56.6653 85.4457C56.6653 85.4457 56.7653 85.5457 56.8152 85.5706C59.2633 85.9953 61.8114 86.0952 64.2844 86.32V86.295Z" fill="#FADAAB" fill-opacity="0.6"/>
<path d="M76.9248 91.8657C76.9248 91.8657 76.7999 91.7159 76.7249 91.7159C72.2284 91.3911 67.7568 90.6667 63.2603 90.3669C63.2603 90.3669 63.4102 90.5418 63.4851 90.5418C67.8817 91.3661 72.4532 91.591 76.9248 91.8657Z" fill="#FADAAB" fill-opacity="0.6"/>
<path d="M154.79 52.3463C154.74 52.2214 154.365 52.0966 154.365 52.0716C155.614 55.5939 156.813 59.1411 158.187 62.6135C158.212 62.6884 158.462 62.7633 158.462 62.7883C157.363 59.266 156.039 55.8187 154.79 52.3463Z" fill="#FADAAB" fill-opacity="0.6"/>
<path d="M157.937 54.4199L157.737 54.2949C159.286 58.8164 160.61 63.3629 161.934 67.9344C161.934 67.9843 162.109 68.0593 162.109 68.0593C160.935 63.4629 159.461 58.9164 157.937 54.4199Z" fill="#FADAAB" fill-opacity="0.6"/>
<path d="M161.584 59.4159L161.235 59.191C161.909 63.3878 162.609 67.6096 163.508 71.7564C163.508 71.8313 163.783 71.9312 163.783 71.9312C163.208 67.7345 162.409 63.5627 161.584 59.4159Z" fill="#FADAAB" fill-opacity="0.6"/>
<path d="M167.23 67.3598C167.23 67.3598 166.955 67.2099 166.955 67.1849C168.879 71.7064 170.253 76.2528 171.252 81.0491C171.252 81.1491 171.577 81.249 171.577 81.249C170.877 76.4527 169.328 71.7314 167.23 67.3598Z" fill="#FADAAB" fill-opacity="0.6"/>
<path d="M172.501 76.6525C172.426 76.5026 172.001 76.3527 171.976 76.3278C173.475 79.2255 174.524 82.2482 175.498 85.3708C175.523 85.4707 175.873 85.6206 175.873 85.6206C175.199 82.498 173.95 79.5003 172.501 76.6774V76.6525Z" fill="#FADAAB" fill-opacity="0.6"/>
<path d="M136.529 30.8129L136.454 30.7629C138.502 34.7349 140.7 38.6568 143.049 42.4789C143.099 42.5538 143.298 42.6038 143.298 42.6288C141.05 38.6818 138.802 34.7348 136.529 30.7879V30.8129Z" fill="#FADAAB" fill-opacity="0.6"/>
<path d="M141.425 34.2854C141.425 34.2854 141.15 34.1355 141.15 34.1105C144.098 39.6812 146.946 45.2519 149.744 50.8975C149.793 51.0224 150.143 51.1223 150.143 51.1473C147.62 45.3768 144.672 39.6812 141.425 34.2854Z" fill="#FADAAB" fill-opacity="0.6"/>
<path d="M152.566 49.6983C152.566 49.6983 152.192 49.4735 152.192 49.4485C152.841 51.347 153.516 53.2706 154.165 55.1691C154.19 55.269 154.465 55.3439 154.49 55.3689C153.84 53.4704 153.216 51.5718 152.566 49.6733V49.6983Z" fill="#FADAAB" fill-opacity="0.6"/>
<path d="M64.7341 37.283C60.6372 31.5874 56.4155 25.9918 52.2687 20.3711C50.62 18.1478 48.9962 15.25 45.9736 14.9253C45.9986 14.9253 46.1984 15.1501 46.2983 15.1751C49.1961 15.6997 50.9447 18.9472 52.5185 21.0955C53.8675 22.9191 55.2414 24.7677 56.5904 26.5913C59.2133 30.1136 61.7864 33.6358 64.4343 37.1331C64.4843 37.1831 64.7341 37.333 64.7091 37.283H64.7341Z" fill="#FADAAB" fill-opacity="0.6"/>
<path d="M70.1548 12.7519C67.5319 9.25457 64.2594 6.30683 60.6372 3.90868C60.4124 3.7588 60.5123 3.9087 60.6372 4.00862C64.1595 6.43175 67.1322 9.27953 69.8301 12.577C69.8801 12.6519 70.1798 12.8018 70.1548 12.7519Z" fill="#FADAAB" fill-opacity="0.6"/>
<path d="M72.1033 11.528C69.93 8.3804 67.2071 5.6575 64.1595 3.35927C64.0346 3.25935 63.7598 3.13445 64.0096 3.35927C66.9323 5.68248 69.4554 8.33045 71.7036 11.3032C71.7536 11.3781 72.1533 11.6029 72.1033 11.528Z" fill="#FADAAB" fill-opacity="0.6"/>
<path d="M73.1776 8.755C71.354 6.40681 69.2806 4.23349 67.0823 2.23504C67.0074 2.16009 66.3579 1.78541 66.5827 1.98525C68.7311 4.05865 70.7795 6.23195 72.728 8.48021C72.8029 8.55515 73.2026 8.77999 73.1526 8.73003L73.1776 8.755Z" fill="#FADAAB" fill-opacity="0.6"/>
<path d="M28.0624 50.223C34.4075 46.6257 41.1024 44.5773 48.2219 43.1285C51.5193 42.454 54.8168 41.7546 58.1642 41.3049C61.5865 40.8553 64.7841 41.18 68.2064 41.18C68.2064 41.18 68.0565 41.0551 68.0316 41.0301C61.1369 38.6819 53.293 40.8053 46.3983 42.2292C44.5747 42.6039 42.7511 43.0036 40.9025 43.4532C34.3576 43.3533 28.0374 42.7788 21.7173 40.9802C21.5175 40.9302 22.4418 41.7795 22.7665 41.8794C27.8126 43.3033 33.0836 44.2026 38.3295 44.1527C34.2576 45.3268 30.3107 46.9255 26.8384 49.3986C26.8384 49.3986 27.7876 50.3979 28.0624 50.248V50.223Z" fill="#FADAAB" fill-opacity="0.6"/>
<path d="M55.0915 34.8598C55.0915 34.8598 54.9916 34.7599 54.9417 34.7349C49.7457 33.361 44.3748 33.0362 39.1539 34.4601C39.1539 34.4601 39.2788 34.61 39.3537 34.61C44.6496 33.6857 49.8456 33.5858 55.0915 34.8598Z" fill="#FADAAB" fill-opacity="0.6"/>
<path d="M49.371 37.358C49.371 37.358 49.0462 37.0083 48.8714 36.9833C43.4506 36.3088 37.9798 36.3588 32.6339 37.6328C32.6339 37.6328 32.7588 37.7827 32.8088 37.7577C38.3295 36.9583 43.8003 36.6835 49.371 37.358Z" fill="#FADAAB" fill-opacity="0.6"/>
<path d="M38.9291 39.9559C38.9291 39.9559 38.6043 39.5812 38.4545 39.5812C36.2312 39.7561 33.7081 39.6562 31.5348 40.2058C31.5348 40.2058 31.7596 40.4305 31.8346 40.4555C34.1578 40.5554 36.6059 40.1558 38.9291 39.9559Z" fill="#FADAAB" fill-opacity="0.6"/>
<path d="M176.273 94.7137C176.273 94.7137 176.098 94.5388 176.073 94.5638C171.701 98.7605 166.356 101.433 160.46 102.757C160.46 102.757 160.56 102.882 160.61 102.882C166.655 101.983 172.026 99.0853 176.273 94.7137Z" fill="#FADAAB" fill-opacity="0.6"/>
<path d="M167.805 102.033C167.805 102.033 167.68 101.883 167.63 101.908L163.808 103.657C163.808 103.657 163.908 103.782 163.957 103.757C165.232 103.182 166.506 102.608 167.805 102.008V102.033Z" fill="#FADAAB" fill-opacity="0.6"/>
<path d="M38.4544 18.4975C35.3319 16.3742 32.0844 14.4506 28.637 12.9268C28.4871 12.8519 28.7869 13.1017 28.8618 13.1267C32.1593 14.7504 35.3568 16.5241 38.4045 18.5725C38.7042 18.7723 38.7792 18.6974 38.4544 18.4975Z" fill="#FADAAB" fill-opacity="0.6"/>
<path d="M32.484 18.8224C28.9118 16.2244 24.79 13.9011 20.4183 13.0768C20.4183 13.0768 20.5682 13.2267 20.6432 13.2517C24.8899 14.6506 28.7619 16.2493 32.434 18.8973C32.7838 19.1471 32.8587 19.0472 32.509 18.7974L32.484 18.8224Z" fill="#FADAAB" fill-opacity="0.6"/>
<path d="M25.5144 17.3983C25.7642 17.5233 25.2646 17.0986 25.1647 17.0486C21.3676 15.2 16.8961 13.4014 12.6244 13.3015C12.6244 13.3015 12.7993 13.4764 12.8492 13.4764C17.2708 14.4756 21.3926 15.3999 25.5144 17.3733V17.3983Z" fill="#FADAAB" fill-opacity="0.6"/>
<path d="M108.775 109.302C123.739 111.675 139.501 113.124 154.415 109.677C161.609 108.003 168.604 105.205 174.699 100.959C176.198 99.9095 177.647 98.7854 179.021 97.5613C179.271 97.3365 179.52 97.0617 179.77 96.7869C186.365 98.4357 193.06 99.8096 199.73 101.084C199.755 101.084 199.78 101.084 199.755 101.034C199.605 100.034 199.605 99.1351 199.63 98.1859C199.655 98.1859 199.68 98.1859 199.705 98.1859C199.68 98.1859 199.655 98.1359 199.63 98.1359C199.63 97.8611 199.63 97.5863 199.655 97.2865C199.655 97.1366 199.055 96.8369 199.055 96.8619C199.005 96.9868 198.98 97.2366 198.93 97.5114C198.781 97.4115 198.656 97.3115 198.531 97.2865C192.411 96.0375 186.34 94.6136 180.32 93.0398C179.471 91.0664 178.471 89.1429 177.597 87.1944C176.398 84.4964 175.299 81.7486 174.05 79.0756C173.95 78.8758 173.325 78.626 173.325 78.601C174.874 83.3973 177.022 88.3934 179.545 92.8399C173.725 91.3161 167.954 89.6674 162.209 87.9187C161.384 84.4464 160.585 80.9992 160.036 77.4519C160.036 77.302 159.511 77.1271 159.511 77.1271C160.061 80.6994 160.76 84.2966 161.759 87.7939C152.491 84.9211 143.348 81.7235 134.305 78.2512C130.683 69.9576 126.786 61.789 123.039 53.5454C123.039 53.4954 122.889 53.4704 122.889 53.4454C126.686 61.689 130.308 70.0076 134.205 78.2013C133.731 78.0264 133.256 77.8516 132.782 77.6517C132.632 77.6018 133.356 78.2262 133.581 78.3262C142.899 82.1232 152.366 85.4956 161.959 88.4683C162.109 88.9929 162.259 89.5175 162.434 90.0421C162.459 90.1171 162.733 90.217 162.733 90.242C162.609 89.6924 162.484 89.1428 162.334 88.5933C168.154 90.3919 174.025 92.0656 179.945 93.5894C180.07 93.8142 180.195 94.039 180.345 94.2639C179.495 94.3888 179.146 94.9134 178.097 95.9126C177.122 95.7128 176.173 95.488 175.199 95.3131C175.249 95.3131 175.599 95.7378 175.798 95.7877C176.423 95.9626 177.072 96.1125 177.722 96.2624C173.175 100.384 167.78 103.507 162.084 105.755C149.094 110.901 134.83 111.201 121.091 109.977C92.038 107.404 60.8871 99.0352 42.7012 74.5041C37.6551 67.6844 33.1086 60.4151 28.662 53.1707C26.6636 49.9481 24.765 46.6507 22.9914 43.3032C22.0921 41.6295 21.2428 39.9308 20.4184 38.2072C20.0936 37.5077 19.2943 36.4086 19.2193 35.6092C19.0444 33.8356 20.2185 34.7599 21.4926 35.2095C21.8173 35.3344 20.7931 34.4601 20.6182 34.3602C12.5495 29.6388 10.576 18.9221 4.43074 12.3522C4.33082 12.2522 3.00685 10.8783 2.95689 10.9282C3.18171 10.7034 4.88039 11.278 5.30506 11.3779C7.70321 11.8026 10.1263 12.0524 12.5495 12.1523C16.7962 12.3022 21.0429 11.9275 25.2397 11.303C42.8511 8.65502 59.788 1.36064 77.849 2.11006C77.849 2.11006 77.7241 1.96018 77.6492 1.96018C51.6443 -0.787694 27.0133 15.6496 1.05835 9.62928C0.858504 9.57931 1.35812 10.0539 1.33314 10.0539C6.60407 14.6254 9.05217 21.3452 12.8243 27.0408C14.0483 28.8894 15.4472 30.663 17.096 32.1619C17.8204 32.8114 18.5948 33.4358 19.3942 33.9854C19.669 34.1853 20.1436 34.6349 20.4683 34.6849C19.594 34.535 18.1951 33.4858 17.2958 33.1611C17.2708 33.1611 17.1209 33.1112 17.1709 33.1861C23.1413 47.1753 31.7596 60.465 40.6528 72.7804C48.1969 83.1974 58.0643 91.3411 69.5055 97.2116C81.746 103.507 95.2106 107.129 108.75 109.302H108.775ZM180.57 93.7393C182.143 94.139 183.717 94.5387 185.316 94.9384C184.167 94.7385 183.043 94.5387 181.894 94.3388C181.419 94.2639 181.069 94.2389 180.77 94.2139C180.695 94.0391 180.645 93.8892 180.57 93.7143V93.7393ZM180.819 95.8377C182.293 95.0133 183.642 95.5129 185.141 95.7627C189.713 96.5371 194.284 97.2866 198.856 98.061C198.781 98.6605 198.706 99.26 198.606 99.4349C197.881 100.559 196.033 99.7596 195.083 99.5598C192.91 99.1101 190.737 98.6605 188.563 98.1859C185.766 97.5863 182.993 96.9618 180.195 96.3622C180.395 96.1624 180.62 95.9876 180.844 95.8627L180.819 95.8377Z" fill="#FADAAB" fill-opacity="0.6"/>
<path d="M72.8279 26.6411C70.9544 23.9932 68.831 21.4951 66.5078 19.1969C66.4578 19.1469 66.233 19.022 66.258 19.072C68.4063 21.4951 70.5047 23.9182 72.5031 26.4663C72.5531 26.5162 72.8529 26.6911 72.8029 26.6411H72.8279Z" fill="#FADAAB" fill-opacity="0.6"/>
<path d="M71.5038 30.8379C68.2063 26.1915 64.6091 21.7699 60.837 17.4732C60.7871 17.4233 60.5872 17.3233 60.6122 17.3483C64.4093 21.645 67.9315 26.1165 71.3289 30.738C71.3289 30.7629 71.5038 30.8629 71.4788 30.8379H71.5038Z" fill="#FADAAB" fill-opacity="0.6"/>
<path d="M69.9051 33.311C66.2329 28.3399 62.5108 23.4187 58.6637 18.5724C58.6138 18.5225 58.364 18.3726 58.389 18.4225C61.9862 23.3937 65.7583 28.265 69.5553 33.1112C69.6053 33.1862 69.955 33.361 69.9051 33.311Z" fill="#FADAAB" fill-opacity="0.6"/>
<path d="M66.8324 33.7108C62.8105 28.5897 58.9135 23.3938 55.3913 17.898C55.2913 17.7481 54.9166 17.6232 54.8917 17.5732C58.4639 23.1439 62.3109 28.5148 66.5826 33.5609C66.6326 33.6109 66.8574 33.7358 66.8324 33.7108Z" fill="#FADAAB" fill-opacity="0.6"/>
<path d="M104.353 76.4028C104.353 76.4028 104.229 76.2529 104.154 76.2529C95.8101 76.7775 87.4166 77.1272 79.123 77.9516C79.123 77.9516 79.2978 78.1515 79.3728 78.1265C87.7163 77.8017 96.0599 77.0023 104.378 76.3778L104.353 76.4028Z" fill="#FADAAB" fill-opacity="0.6"/>
<path d="M94.5859 80.1499C94.5859 80.1499 94.2612 79.7502 94.1113 79.7752C88.6905 80.5995 83.2697 81.0242 77.8239 81.5738C77.8239 81.5738 77.9738 81.7237 78.0237 81.7237C83.5695 81.6237 89.1152 80.9492 94.5859 80.1249V80.1499Z" fill="#FADAAB" fill-opacity="0.6"/>
<path d="M85.5681 83.6722C85.5681 83.6722 85.2933 83.3475 85.1684 83.3475C80.422 83.7721 75.5758 84.1469 70.8794 85.0212C70.8794 85.0212 71.0792 85.271 71.1792 85.246C75.9755 84.8214 80.7718 84.0969 85.5681 83.6472V83.6722Z" fill="#FADAAB" fill-opacity="0.6"/>
<path d="M107.276 71.0819C107.276 71.0819 107.026 70.8071 106.927 70.8071C97.7336 72.0562 88.5907 73.4051 79.3229 74.0796C79.3229 74.0796 79.4228 74.1795 79.4478 74.1795C88.7156 73.7798 98.1833 73.0054 107.276 71.0569V71.0819Z" fill="#FADAAB" fill-opacity="0.6"/>
<path d="M83.3697 72.5557C90.4642 71.6314 97.5088 70.2075 104.528 68.9585C104.528 68.9585 104.354 68.7337 104.254 68.7587C97.1841 69.9078 90.0645 70.857 83.0699 72.3309C83.0699 72.3309 83.2698 72.5807 83.3697 72.5557Z" fill="#FADAAB" fill-opacity="0.6"/>
<path d="M143.099 99.1602C146.996 96.862 151.517 93.9392 154.34 90.342C154.34 90.342 154.165 90.1672 154.115 90.1921C150.193 92.7901 146.596 96.1376 142.824 98.9604C142.824 98.9604 143.049 99.1852 143.099 99.1602Z" fill="#FADAAB" fill-opacity="0.6"/>
<path d="M150.493 61.1895L150.118 60.9647C150.618 66.1357 151.142 71.3067 151.817 76.4777C151.817 76.5527 152.092 76.6276 152.092 76.6775C151.667 71.5065 151.092 66.3606 150.468 61.2145L150.493 61.1895Z" fill="#FADAAB" fill-opacity="0.6"/>
<path d="M152.292 65.3113L152.092 65.1865C153.241 70.907 154.215 76.6775 155.464 82.3981C155.464 82.4731 155.689 82.548 155.689 82.548C154.69 76.7775 153.391 71.0569 152.292 65.3113Z" fill="#FADAAB" fill-opacity="0.6"/>
<path d="M155.889 74.4793L155.689 74.3544C156.039 75.8532 156.388 77.3521 156.763 78.8259C156.763 78.8759 156.913 78.9259 156.913 78.9259C156.563 77.427 156.214 75.9532 155.889 74.4543V74.4793Z" fill="#FADAAB" fill-opacity="0.6"/>
<path d="M157.463 77.302C157.463 77.302 157.413 77.302 157.413 77.277C157.812 78.626 158.212 79.9999 158.612 81.3489H158.637C158.237 79.9999 157.837 78.626 157.438 77.277L157.463 77.302Z" fill="#FADAAB" fill-opacity="0.6"/>
<path d="M165.456 80.7995C165.406 80.6746 165.057 80.5747 165.057 80.5497C166.156 83.3725 167.23 86.2203 168.329 89.0431C168.354 89.118 168.579 89.193 168.579 89.193C167.555 86.3951 166.506 83.5973 165.456 80.7995Z" fill="#FADAAB" fill-opacity="0.6"/>
<path d="M117.993 45.6016L117.868 45.5267C119.517 50.7726 121.49 55.9186 123.339 61.0896C125.087 65.9858 126.636 71.0069 129.284 75.5284C129.334 75.6034 129.559 75.6783 129.559 75.7033C124.563 66.2107 121.94 55.5439 117.993 45.6016Z" fill="#FADAAB" fill-opacity="0.6"/>
<path d="M128.71 59.8406C128.71 59.8406 128.535 59.7407 128.535 59.7157C131.882 65.4613 134.755 71.3816 137.403 77.4769C137.403 77.5019 137.528 77.5519 137.528 77.5519C135.105 71.4066 132.057 65.5112 128.735 59.8156L128.71 59.8406Z" fill="#FADAAB" fill-opacity="0.6"/>
<path d="M131.308 56.693L131.108 56.5681C134.405 64.1123 137.603 71.6814 141.025 79.1756L141.1 79.2256C137.952 71.6815 134.58 64.2122 131.333 56.718L131.308 56.693Z" fill="#FADAAB" fill-opacity="0.6"/>
<path d="M134.43 59.2161L134.23 59.0912C136.953 65.2364 139.601 71.4317 142.424 77.527C142.424 77.527 142.474 77.5519 142.499 77.5769C139.926 71.4067 137.128 65.3363 134.43 59.2161Z" fill="#FADAAB" fill-opacity="0.6"/>
<path d="M143.948 75.004C143.498 72.6058 142.674 70.3326 141.475 68.2092C141.45 68.1343 141.275 68.0843 141.25 68.0593C141.65 68.7838 142.024 69.5331 142.324 70.2826C142.324 70.2826 142.324 70.2826 142.349 70.3076C142.974 71.7565 143.448 73.2803 143.723 74.8541C143.723 74.929 143.948 74.979 143.948 75.004Z" fill="#FADAAB" fill-opacity="0.6"/>
</svg>
