<svg width="221" height="159" viewBox="0 0 221 159" fill="none" xmlns="http://www.w3.org/2000/svg">
<path d="M23.0752 83.4169C23.0752 83.4169 21.5136 82.8135 20.9813 83.062C13.3155 86.6464 4.79806 96.548 -4.5357 93.9573C-4.8551 93.8863 -7.01999 93.7443 -6.16824 93.9927C5.50782 97.5771 13.351 87.995 23.0397 83.4169H23.0752Z" fill="#FADAAB" fill-opacity="0.6"/>
<path d="M88.5534 155.142C88.9438 155.248 89.4761 155.355 89.7955 155.355C105.446 158.194 121.488 159.116 137.316 158.336C137.848 158.336 138.416 158.265 138.984 158.229C139.339 158.336 139.765 158.442 139.978 158.371C140.191 158.3 140.368 158.229 140.546 158.158C159.745 156.987 181.891 153.225 193.283 136.403C193.354 136.403 193.389 136.403 193.389 136.403C193.389 136.403 193.389 136.332 193.389 136.297C193.673 135.906 193.922 135.516 194.17 135.09C194.17 135.09 193.709 134.948 193.212 134.806C193.212 134.735 193.212 134.664 193.212 134.558C193.496 134.558 193.851 134.558 193.744 134.558C193.567 134.487 193.354 134.416 193.177 134.345C190.941 116.245 181.997 100.026 171.315 85.5111C165.921 78.2003 160.065 71.2088 154.103 64.3238C153.996 64.0044 153.89 63.6849 153.712 63.3655C153.712 63.2946 153.393 63.2237 153.144 63.2237C146.046 54.9901 138.949 46.721 130.892 39.4101C127.769 36.6065 124.504 34.0157 121.097 31.6734C120.068 30.6087 118.968 29.5795 117.726 28.6213C117.442 28.4084 116.377 28.5503 116.306 28.5148C114.141 27.1662 111.941 25.9241 109.741 24.7175C97.6032 17.1582 84.0462 11.1605 69.9568 7.25662C66.8337 6.22742 63.6752 5.30466 60.5876 4.34645C54.1285 2.35903 47.4919 0.620033 40.7134 0.12318C32.054 -0.515633 23.6784 1.43632 15.2674 3.5302C15.1964 3.49471 15.1255 3.4237 15.09 3.38821C14.7706 3.17528 13.7059 3.31724 13.6349 3.28175C13.8123 3.42371 14.0253 3.60117 14.2027 3.74313C10.1214 4.45292 6.04011 5.37566 2.06528 6.5823C1.32 6.72426 0.574718 6.86622 -0.206051 6.97269C-0.312523 6.97269 -0.418968 7.25659 -0.489948 7.39855C-3.89695 8.49873 -7.23297 9.74087 -10.5335 11.2314C-12.8403 11.7638 -15.1471 12.2606 -17.4894 12.651C-30.7271 14.8868 -44.1421 14.9223 -57.3797 12.7575C-57.7701 12.4735 -58.196 12.2251 -58.5864 11.9412C-58.9413 11.6928 -60.2544 11.8348 -60.3253 11.7993C-60.0769 12.0122 -59.8285 12.1897 -59.6156 12.4026C-60.1834 12.2961 -60.7157 12.2251 -61.2836 12.1187C-61.461 12.1187 -63.1645 11.9767 -62.9871 12.1541C-34.1341 46.4371 -21.9256 91.9346 13.422 121.143C35.0706 139.065 61.1909 149.96 88.5179 155.071L88.5534 155.142ZM91.1796 155.177C104.701 153.367 117.797 149.215 129.828 142.72C135.967 139.384 141.788 135.516 147.182 131.08C149.737 129.021 152.151 126.821 154.493 124.514C155.061 123.946 155.593 123.414 156.161 122.846C163.578 125.437 171.031 127.886 178.519 130.192C176.532 133.245 171.883 136.19 169.079 138.533C165.956 141.159 162.727 143.714 159.391 146.092C153.144 150.599 146.543 154.077 139.694 157.519C123.511 158.62 107.15 157.945 91.1441 155.142L91.1796 155.177ZM112.189 104.711C113.857 105.421 115.561 106.13 117.229 106.84C122.375 109.005 127.521 111.312 132.702 113.548C125.569 110.78 118.471 107.834 111.48 104.711C111.728 104.711 111.941 104.711 112.189 104.711ZM110.77 104.391C108.498 103.362 106.263 102.333 104.027 101.268C106.511 102.333 108.96 103.362 111.444 104.427C111.231 104.427 110.983 104.427 110.77 104.427V104.391ZM191.402 134.771C181.323 151.06 161.236 155.745 143.42 157.271C143.207 157.271 143.03 157.271 142.817 157.306C150.199 154.29 157.119 149.854 163.507 145.134C166.985 142.543 170.357 139.775 173.622 136.935C175.361 135.445 178.874 133.138 180.578 130.867C184.162 131.967 187.711 133.032 191.296 134.061C191.331 134.309 191.402 134.522 191.438 134.771H191.402ZM191.189 133.635C187.818 132.428 184.411 131.293 181.004 130.157C181.181 129.873 181.323 129.589 181.394 129.27C181.855 127.673 180.826 125.437 180.436 123.911C179.797 121.355 179.194 118.765 178.555 116.21C177.348 111.347 176.106 106.485 174.899 101.623C173.941 97.8259 173.16 93.9221 172.096 90.1247C181.217 103.327 188.456 117.665 191.189 133.67V133.635ZM164.43 79.6908C164.643 79.9747 164.891 80.2586 165.104 80.5425C165.033 80.5425 164.998 80.5425 165.033 80.5425C165.104 80.5425 165.14 80.578 165.175 80.6135C166.666 82.53 168.121 84.4464 169.541 86.3983C170.179 88.5632 170.499 90.9054 170.925 92.7509C171.989 97.329 173.125 101.907 174.225 106.45C175.325 111.028 176.425 115.606 177.561 120.149C178.271 122.988 180.045 126.643 178.874 129.376C171.563 126.963 164.182 124.585 156.871 122.136C157.545 121.568 157.652 120.823 157.119 119.9C157.155 118.232 156.338 116.174 155.984 114.506C154.138 106.06 151.831 97.684 149.134 89.4504C149.205 89.4504 149.276 89.4504 149.311 89.3794C151.263 85.5821 152.115 80.507 153.215 76.3547C153.961 73.6575 154.777 70.4635 154.67 67.4469C157.971 71.4927 161.236 75.5385 164.395 79.5843L164.43 79.6908ZM152.612 65.0336C152.541 66.4531 152.612 67.9083 152.47 69.3279C152.222 71.6347 151.654 73.906 150.979 76.1418C150.128 79.0874 148.495 82.4944 147.892 85.7594C145.94 80.0811 143.811 74.4383 141.504 68.9019C138.487 61.6265 135.151 54.4932 131.496 47.5372C129.508 43.7753 127.521 39.978 125.072 36.5C135.045 44.911 144.094 54.8126 152.612 65.0336ZM100.868 63.7915C99.0228 54.8836 94.5156 45.9757 91.286 37.4937C88.1984 29.473 85.1818 21.4169 81.9168 13.4318C86.14 15.0998 90.3279 16.8033 94.4801 18.5423C97.8161 19.9264 101.081 21.4524 104.275 23.0495C106.83 27.4147 109.847 31.496 112.97 35.4708C117.229 40.9007 119.749 46.4725 121.914 52.9671C121.949 53.1091 122.481 53.0381 122.481 53.0381C120.636 47.4662 118.649 42.1428 115.1 37.3872C111.728 32.88 108.534 28.3374 105.411 23.6528C106.085 24.0077 106.724 24.3271 107.363 24.6819C108.924 25.5337 110.45 26.3855 111.976 27.2727C114.035 28.5149 116.093 29.7925 118.081 31.1765C118.01 31.1765 117.939 31.1765 117.939 31.1765C120.246 32.7381 121.488 35.0449 122.588 37.5292C123.83 40.2974 125.143 43.0655 126.421 45.8337C126.421 45.9047 126.705 45.8337 126.705 45.8692C125.392 42.7461 124.22 39.5876 122.765 36.5C122.517 35.9676 122.268 35.4353 121.949 34.9384C125.072 39.1972 127.556 43.9528 129.97 48.6729C133.306 55.203 136.393 61.8395 139.232 68.618C145.159 82.9203 149.844 97.684 153.322 112.767C153.748 114.542 154.138 116.351 154.493 118.161C154.848 119.865 155.025 120.646 154.635 121.462C153.57 121.107 152.506 120.752 151.476 120.362C141.575 114.79 131.212 110.176 120.742 105.705C119.926 100.523 116.59 94.7383 114.496 90.3376C111.87 84.8367 108.924 79.5133 105.837 74.2609C99.8745 64.2173 93.7703 53.535 86.353 44.4852C82.3427 39.6231 77.3386 36.0386 72.5475 32.0638C68.2533 28.4793 64.6689 24.2916 61.1199 19.9974C55.2642 12.864 49.3729 5.69504 40.4295 2.89136C43.0557 2.99783 45.6465 3.24628 48.2727 3.5302C58.7421 5.83702 68.7147 10.1312 79.2196 12.3671C79.397 12.438 79.5745 12.5091 79.7519 12.58C82.8395 20.8491 86.1401 29.0117 89.2986 37.2453C92.6346 45.9402 95.2964 55.4514 99.6971 63.6495C99.8036 63.8625 100.904 63.827 100.904 63.7915H100.868ZM78.5453 46.2951C79.1486 57.1904 79.539 68.1212 80.3198 79.0164C74.0736 71.1733 67.8274 63.3656 61.5458 55.5224C61.6523 55.6289 61.7587 55.7708 61.8652 55.8773C62.0427 56.0193 63.1783 56.0193 63.1783 56.0193C62.3975 54.2448 62.504 52.7542 62.4685 50.8733C62.4685 47.8566 61.7587 44.982 60.978 42.0718C59.3455 36.0031 58.2098 29.8279 56.7902 23.6882C56.7902 23.5818 56.1869 23.5818 56.1869 23.6173C57.3225 30.0054 58.6711 36.3225 59.6294 42.7461C60.0197 45.3723 60.5876 47.9631 60.5876 50.6248C60.5876 52.4348 60.3037 53.8189 61.1909 55.0965C58.9196 52.2574 56.6482 49.4536 54.4124 46.6145C53.9865 46.0821 53.5252 45.5143 53.0993 44.9465C53.3832 44.9465 53.6316 44.9465 53.6316 44.9465C51.4313 37.0323 48.0952 29.3666 45.0431 21.7718C42.5944 15.7031 40.465 8.60518 37.129 2.7849C37.7323 2.7849 38.3001 2.7849 38.9035 2.7849C49.0535 5.97896 55.1932 15.2418 61.7588 23.0495C68.9631 31.6379 78.9357 37.2098 85.7497 46.1532C92.8831 55.487 99.0937 65.8853 104.985 76.0353C107.895 81.0749 110.663 86.1854 113.077 91.4733C114.993 95.6256 116.306 100.381 118.223 104.604C109.279 100.807 100.265 97.1162 91.4635 93.0704C88.1985 88.9181 84.9334 84.8013 81.6684 80.6845C81.9523 80.6845 82.1652 80.6845 82.1652 80.6135C82.2717 69.2569 81.1006 57.6163 79.3971 46.3661C79.3971 46.2242 78.5098 46.1887 78.5098 46.2597L78.5453 46.2951ZM22.9332 3.88506C24.9561 3.49468 26.9435 3.17529 28.9309 2.96236C31.0603 2.85589 33.1896 2.7849 35.319 2.7849C36.2062 5.65955 37.6968 8.46326 38.797 11.196C40.323 14.9224 41.8491 18.6133 43.3397 22.3397C46.1788 29.3666 48.7696 36.5355 51.9281 43.4204C41.5297 30.0764 31.2377 15.0643 17.5387 5.09175C19.3487 4.66588 21.1232 4.23996 22.9332 3.88506ZM-12.1305 12.6865C-11.4208 12.9349 -10.498 13.1834 -10.0011 12.9704C-9.07842 12.5091 -8.15569 12.0832 -7.19747 11.6928C-7.19747 11.6928 -7.19748 11.6928 -7.1265 11.6928C0.752178 9.84735 8.4534 7.39854 16.2611 5.44661C30.102 17.3001 40.8199 32.3477 52.2121 46.508C64.3495 61.662 76.4514 76.8162 88.7308 91.8282C87.8081 91.4024 86.8854 90.9765 85.9981 90.5151C85.8562 90.4442 85.7142 90.3732 85.5722 90.2667C81.8103 87.8534 78.0129 85.4401 74.251 83.0623C69.247 79.3714 64.3495 75.4675 58.9196 72.3799C53.0993 69.0794 47.279 65.9209 41.6007 62.5494C39.1164 60.9878 36.6676 59.4617 34.1833 57.9356C34.2898 57.9356 34.3608 57.9356 34.4673 57.9356C34.5382 57.9356 35.3545 57.9357 35.2835 57.8647C15.7997 46.6145 7.03384 23.4043 -13.0533 12.8284C-12.6984 12.7575 -12.3789 12.6865 -12.0241 12.6155L-12.1305 12.6865ZM64.314 78.6261C62.0781 77.171 59.8778 75.6805 57.6774 74.1899C60.0907 75.645 62.4685 77.1 64.7754 78.6615C64.6334 78.6615 64.4559 78.6615 64.314 78.6615V78.6261ZM-56.5635 13.3253C-42.4031 15.4902 -28.0298 15.4902 -13.9405 13.0414C2.45569 22.6236 11.4345 40.5458 25.8788 52.4348C27.2984 53.606 28.7534 54.6352 30.244 55.6644C29.1438 55.0256 28.0436 54.3867 26.9435 53.7479C17.2193 47.6792 7.17579 42.0719 -3.43559 37.5292C-21.5708 29.7925 -40.1673 24.5045 -56.5635 13.2898V13.3253ZM-10.2851 35.8612C-10.2851 35.8612 -9.96567 35.8612 -9.78822 35.8612C-5.63594 37.5647 -1.59013 39.4456 2.3847 41.3975C2.10078 41.5395 1.85234 41.6815 1.56843 41.8235C-3.64854 39.8006 -8.86549 37.7776 -13.9405 35.3998C-12.7338 35.3288 -11.5272 35.4353 -10.3206 35.8257L-10.2851 35.8612ZM-14.7923 35.0094C-15.5375 34.6545 -16.3183 34.2996 -17.0636 33.9447C-17.6669 33.6608 -18.2347 33.3414 -18.8381 33.022C-18.5187 33.022 -18.2702 33.022 -18.3767 32.951C-19.8318 32.3122 -21.2513 31.6379 -22.7064 30.9636C-22.7419 30.9636 -22.8129 30.9281 -22.8484 30.8926C-19.9382 31.9573 -17.0991 32.9865 -14.2599 34.0867C-13.0178 34.5481 -11.8111 35.0804 -10.6045 35.5773C-11.9886 35.1514 -13.3727 35.0094 -14.7923 35.0449V35.0094ZM3.09447 41.7524C5.08189 42.7461 7.03383 43.7754 8.98576 44.8046C6.89188 43.9528 4.798 43.101 2.66862 42.2847C2.81058 42.1073 2.95252 41.9654 3.09447 41.7879V41.7524ZM-59.9705 12.7575C-59.6156 12.8284 -59.2607 12.8639 -58.9058 12.9349C-57.2732 14.2835 -55.5698 15.5256 -53.8308 16.6968C-54.2567 16.5193 -54.6825 16.3065 -55.1084 16.129C-55.5697 15.9161 -56.8474 15.987 -57.4507 15.987C-58.3024 14.9223 -59.1187 13.8577 -60.006 12.793L-59.9705 12.7575ZM-57.1313 16.3064C-52.1982 19.6424 -46.7328 21.7008 -41.161 23.6882C-40.6996 23.8657 -40.2738 24.0432 -39.8479 24.2206C-37.6475 25.1788 -35.4472 26.1016 -33.2113 26.9888C-29.1655 28.8343 -25.2262 30.8571 -21.2159 32.951C-19.7608 33.7318 -18.2702 34.4416 -16.7797 35.1514C-19.0155 35.4708 -21.1449 36.2871 -23.2743 36.9614C-28.9526 38.8068 -34.0276 38.7003 -39.9543 37.6001C-40.6996 37.4582 -42.1902 37.6002 -40.5932 37.8841C-37.1507 38.5584 -33.5662 39.1972 -30.0528 39.1262C-31.082 39.8005 -32.4661 40.4393 -33.6372 40.0489C-34.1341 39.8715 -34.8083 39.765 -35.3407 39.8005C-35.4472 39.8005 -36.1925 39.836 -35.6956 40.0135C-34.7729 40.3684 -33.8856 40.7232 -32.9984 41.1136C-32.608 41.2911 -32.1821 41.4331 -31.7917 41.6105C-31.2594 41.8235 -30.4431 41.8234 -30.9755 42.5687C-31.8272 43.7399 -34.1341 44.1657 -35.4117 44.2012C-35.8731 44.2012 -35.8376 44.2722 -35.5536 44.4497C-35.1633 44.7336 -34.276 44.698 -33.8501 44.7335C-31.4368 44.8755 -29.2365 44.1658 -27.533 42.4623C-27.533 42.3913 -27.6395 42.3203 -27.7105 42.3203C-29.1655 41.7524 -30.6206 41.2201 -32.0757 40.6523C-30.6916 40.6168 -29.343 40.1909 -28.2783 39.1617C-28.2783 39.1617 -28.4557 39.1617 -28.6687 39.0907C-28.3847 39.0907 -28.1363 39.0907 -27.8524 39.0198C-23.8066 38.5939 -19.7608 36.358 -15.6795 35.6127C-10.3206 38.0615 -4.7487 40.1554 0.752182 42.2847C-9.5043 47.8211 -20.79 50.6603 -32.466 51.0507C-33.1758 51.0507 -31.5433 51.4056 -31.2949 51.4056C-25.1907 51.4056 -19.1575 50.6249 -13.3017 49.0278C-12.8758 48.9214 -12.4499 48.7439 -12.0241 48.6374C-16.4248 52.7187 -21.6772 55.416 -27.6395 56.3387C-27.8879 56.3742 -26.2909 56.8 -25.865 56.729C-19.4414 55.7353 -13.6211 52.7897 -9.25587 47.9631C-9.25587 47.9631 -9.43332 47.9631 -9.64626 47.8922C-7.62335 47.2178 -5.60044 46.508 -3.64852 45.6208C-1.87404 44.84 0.468266 44.0948 2.02981 42.7816C6.53698 44.5561 11.0441 46.437 15.3739 48.6374C18.0356 49.986 20.6618 51.4411 23.288 52.8962C25.5949 54.3158 27.8662 55.7353 30.173 57.1904C29.9246 57.1549 29.6407 57.1195 29.3923 57.1195C25.0625 56.8355 20.7328 57.013 16.4031 57.4388C10.6538 58.0067 4.93995 59.0358 -0.773872 59.9586C-1.94503 60.1715 -3.15169 60.3844 -4.39382 60.5974C-4.57127 60.5974 -4.7132 60.5619 -4.78418 60.5974C-4.89065 60.6329 -4.99713 60.7039 -5.1036 60.7393C-12.6984 62.088 -21.2158 63.2946 -27.7459 59.3198C-28.2783 59.0004 -29.6624 59.1778 -30.0883 59.1423C-38.3218 44.3431 -46.6264 29.5441 -57.1313 16.2355V16.3064ZM19.6681 123.982C36.9515 126.395 54.2349 128.489 71.4828 131.222C59.7003 133.209 47.6694 132.925 35.6384 132.925C34.9996 132.925 36.3837 133.209 36.5257 133.245C51.0054 134.132 66.4433 134.025 80.5327 130.228C95.0834 126.324 108.64 118.942 121.452 111.17C121.417 111.17 120.494 110.815 120.21 110.957C107.753 117.523 95.5093 124.621 81.9523 128.773C78.7228 129.767 75.4577 130.512 72.1572 131.115C54.6608 128.276 37.0935 125.437 19.4552 123.698C19.2777 123.698 19.1712 123.698 19.0648 123.698C16.4386 121.639 13.8833 119.475 11.399 117.239C-4.03891 103.22 -15.2181 85.7595 -25.3681 67.7308C-26.9297 64.9271 -28.5267 62.1235 -30.0883 59.3198C-23.4162 63.543 -15.2181 63.0462 -7.69435 61.9815C-12.9823 64.3238 -18.2702 66.6661 -23.6646 68.7954C-23.4872 68.7245 -22.1741 69.3633 -21.6063 69.1504C-15.9634 66.9145 -10.3206 64.5012 -4.99714 61.5911C6.85638 59.7456 18.6744 56.9774 30.6699 57.7227C31.6991 58.397 32.7638 59.0713 33.793 59.7456C36.7031 62.017 39.8262 64.0044 43.0202 65.9208C49.2664 70.1441 55.5126 74.4028 61.8297 78.5551C34.8222 77.5259 7.21128 83.7366 -18.7671 73.835C-19.1929 73.693 -20.9674 73.6576 -20.719 73.7641C5.57875 84.4819 34.7867 78.5551 62.4685 79.0164C67.792 82.4944 73.1509 85.866 78.6163 89.0601C80.5327 90.3377 82.4847 91.5443 84.614 92.5735C85.1464 92.8219 85.6787 93.0703 86.2111 93.3187C93.4864 97.2581 100.904 100.914 108.463 104.321C92.6347 103.93 76.8418 105.314 61.0489 106.379C40.7844 107.728 21.0877 107.798 1.07157 104.179C1.0006 104.179 0.184338 104.143 0.574722 104.25C17.5032 108.863 35.9933 108.366 53.3477 107.444C71.9797 106.45 90.5762 104.498 109.244 104.675C116.661 108.011 124.185 111.099 131.78 114.009C139.161 116.848 146.614 119.546 154.103 122.172C153.854 122.491 153.535 122.846 153.109 123.272C150.483 125.898 147.714 128.382 144.84 130.725C139.587 134.984 133.98 138.745 128.053 142.01C127.876 142.117 127.698 142.188 127.521 142.294C125.817 141.762 124.149 141.407 122.304 141.23C121.949 141.23 122.126 141.301 122.375 141.336C123.511 141.727 124.611 142.152 125.746 142.543C125.179 142.543 124.611 142.543 124.007 142.578C122.907 142.756 121.63 142.685 120.494 142.756C118.187 142.898 115.88 143.111 113.573 143.359C108.357 143.891 103.14 144.459 97.9226 144.992C87.5242 146.092 77.0547 146.873 66.7273 148.363C66.4788 148.399 67.9694 148.753 68.3598 148.718C87.6306 147.263 106.866 143.572 126.172 142.933C114.567 149.037 101.968 153.048 88.9792 154.787C82.3072 153.545 75.7416 151.948 69.2471 149.925C51.2538 144.317 34.1479 135.587 19.2777 123.982C19.3487 123.982 19.4197 123.982 19.4907 124.017L19.6681 123.982Z" fill="#FADAAB" fill-opacity="0.6"/>
<path d="M33.0831 28.0178C28.4694 20.778 22.0458 14.3899 14.8769 9.66975C14.7705 9.59877 14.3801 9.66977 14.3446 9.63428C21.336 15.0642 27.2628 20.9909 32.7282 28.0178C32.7992 28.0888 33.0476 28.0179 33.0831 28.0534V28.0178Z" fill="#FADAAB" fill-opacity="0.6"/>
<path d="M28.647 26.492C22.8622 19.6071 15.9417 13.4673 7.88558 9.38604C7.77911 9.31506 7.45968 9.38604 7.42419 9.38604C15.0545 14.2836 21.9039 19.4651 27.7597 26.421C27.9017 26.5985 28.647 26.492 28.647 26.492Z" fill="#FADAAB" fill-opacity="0.6"/>
<path d="M25.1333 27.1667C18.4258 20.6011 10.7601 14.8873 2.17161 11.0189C2.02965 10.9479 1.63925 11.0189 1.60376 10.9834C9.90832 15.4906 17.5031 20.4946 24.3526 27.0957C24.4945 27.2376 25.1333 27.1312 25.1688 27.1667H25.1333Z" fill="#FADAAB" fill-opacity="0.6"/>
<path d="M13.2445 24.7884C7.60161 20.6716 1.8523 16.1645 -4.14544 12.58C-4.25191 12.509 -4.71326 12.5445 -4.71326 12.5445C0.0423441 17.3356 6.78536 21.2749 12.5347 24.7529C12.7121 24.8594 13.209 24.7529 13.2445 24.8239V24.7884Z" fill="#FADAAB" fill-opacity="0.6"/>
<path d="M43.1621 66.808C43.1621 66.808 43.8719 66.879 43.7654 66.808C39.0808 64.7141 34.2897 63.0816 29.3212 61.875C29.2502 61.875 28.8243 61.875 29.0373 61.875C33.8639 63.1526 38.584 64.7852 43.1621 66.7726V66.808Z" fill="#FADAAB" fill-opacity="0.6"/>
<path d="M15.5513 62.8686C21.7974 63.2589 27.5468 64.6785 33.1541 67.3757C33.367 67.4822 34.2188 67.4822 34.1123 67.3757C28.1856 64.5365 21.8684 62.8685 15.2674 62.7266C14.9125 62.7266 15.4448 62.833 15.5513 62.833V62.8686Z" fill="#FADAAB" fill-opacity="0.6"/>
<path d="M4.97547 65.1399C10.5828 65.3529 15.9062 66.3112 21.1587 68.3341C21.3716 68.405 22.2944 68.405 22.1524 68.3695C16.5096 66.2401 10.6183 64.998 4.58508 65.0335C4.33665 65.0335 4.90448 65.1754 4.93997 65.1754L4.97547 65.1399Z" fill="#FADAAB" fill-opacity="0.6"/>
<path d="M-7.6233 66.7725C-1.37714 66.524 4.62059 67.4112 10.4764 69.5761C10.6538 69.647 11.4701 69.647 11.3281 69.5761C4.97548 67.1628 -1.69654 66.0981 -8.47504 66.4885C-8.9719 66.4885 -7.83624 66.7369 -7.6233 66.7369V66.7725Z" fill="#FADAAB" fill-opacity="0.6"/>
<path d="M34.6092 113.939C38.5841 114.081 42.5234 114.01 46.4982 114.045C48.8405 114.045 51.1828 114.081 53.4897 114.187C54.6608 114.258 61.1909 114.01 57.8194 115.855C57.8194 115.855 58.1033 115.961 58.1743 115.926C58.9551 115.536 59.7358 115.11 60.5166 114.719C60.5521 114.719 60.3036 114.648 60.2682 114.648C45.7529 112.661 31.0248 115.145 16.687 111.277C16.6515 111.277 16.3321 111.277 16.4386 111.277C22.3298 113.087 28.434 113.726 34.5737 113.939H34.6092Z" fill="#FADAAB" fill-opacity="0.6"/>
<path d="M19.6682 116.671C26.1983 117.7 32.7284 118.126 39.3294 118.02C39.4714 118.02 39.152 117.949 39.1165 117.949C32.6219 118.02 26.1983 117.523 19.8102 116.565C19.5262 116.529 19.2068 116.565 19.7037 116.671H19.6682Z" fill="#FADAAB" fill-opacity="0.6"/>
<path d="M28.3631 121.32C34.6092 122.243 40.9264 122.634 47.2435 122.74C47.7759 122.74 46.9951 122.563 46.8176 122.563C40.6424 122.456 34.5028 121.924 28.3631 121.214C27.9727 121.179 27.9372 121.25 28.3631 121.32Z" fill="#FADAAB" fill-opacity="0.6"/>
<path d="M46.7822 135.693C59.5585 137.326 73.4349 136.687 85.7143 132.535C85.6433 132.535 85.04 132.322 84.756 132.357C72.0153 135.445 59.7359 136.829 46.6403 135.48C45.966 135.409 46.3209 135.622 46.7822 135.693Z" fill="#FADAAB" fill-opacity="0.6"/>
<path d="M54.1285 139.917C64.7044 141.62 75.7417 140.556 85.8207 136.936C85.7497 136.936 85.1819 136.723 84.9335 136.794C74.8189 140.059 64.8109 141.017 54.235 139.81C53.9866 139.81 53.6672 139.81 54.1285 139.917Z" fill="#FADAAB" fill-opacity="0.6"/>
<path d="M66.2659 143.607C70.2762 143.146 74.322 142.578 78.3324 142.046C78.4743 142.046 77.5871 141.797 77.3741 141.833C73.3638 142.365 69.3535 142.826 65.3787 143.394C65.2367 143.394 66.0885 143.643 66.3014 143.607H66.2659Z" fill="#FADAAB" fill-opacity="0.6"/>
<path d="M81.3844 149.038C88.6597 148.363 95.8996 147.37 103.14 146.447C103.246 146.447 102.501 146.234 102.288 146.27C95.0834 147.086 87.8435 147.831 80.6746 148.896C80.5681 148.896 81.2069 149.073 81.3844 149.073V149.038Z" fill="#FADAAB" fill-opacity="0.6"/>
<path d="M23.8914 84.482C36.2417 84.482 48.6631 84.3046 60.978 83.6303C61.2264 83.6303 60.6231 83.4883 60.5166 83.4883C48.0598 83.8787 35.6029 84.2335 23.1461 84.2335C22.7202 84.2335 23.714 84.4465 23.8559 84.4465L23.8914 84.482Z" fill="#FADAAB" fill-opacity="0.6"/>
<path d="M18.8519 86.2207C26.1273 86.5401 33.4382 86.7886 40.7135 87.0726C41.2814 87.0726 40.4296 86.8951 40.2521 86.8951C32.9413 86.6111 25.595 86.2562 18.2841 86.0078C17.5743 86.0078 18.639 86.2208 18.8519 86.2563V86.2207Z" fill="#FADAAB" fill-opacity="0.6"/>
<path d="M19.6682 89.5213C26.1273 89.6278 32.6219 89.7697 39.081 89.9116C39.8972 89.9116 38.6906 89.6632 38.4421 89.6632C31.9476 89.5212 25.453 89.3793 18.9584 89.2373C18.0357 89.2373 19.3843 89.5213 19.6682 89.5213Z" fill="#FADAAB" fill-opacity="0.6"/>
<path d="M12.0734 91.8992C19.1713 92.4671 26.3402 92.8574 33.4736 92.538C33.7575 92.538 33.1187 92.3961 33.0122 92.3961C25.8788 92.3606 18.8164 92.2187 11.7185 91.6154C10.7248 91.5444 11.5766 91.8282 12.0734 91.8637V91.8992Z" fill="#FADAAB" fill-opacity="0.6"/>
<path d="M8.70175 94.9869C14.735 95.5193 20.8037 95.5903 26.8369 95.8742C27.6532 95.9097 26.4465 95.6257 26.1981 95.6257C20.2713 95.3418 14.2736 94.8095 8.34686 94.8805C8.06294 94.8805 8.63076 95.0225 8.66625 95.0225L8.70175 94.9869Z" fill="#FADAAB" fill-opacity="0.6"/>
<path d="M2.13619 97.0098C8.52431 97.5776 14.8769 98.11 21.2651 98.8198C22.1523 98.9263 22.1878 98.6778 21.2651 98.5713C14.7705 97.8616 8.27589 97.1872 1.7813 96.7613C0.823079 96.6904 1.63933 96.9743 2.13619 97.0098Z" fill="#FADAAB" fill-opacity="0.6"/>
<path d="M12.9961 101.375C12.9961 101.375 12.8187 101.304 12.8187 101.375C12.8187 101.375 12.9961 101.446 12.9961 101.375Z" fill="#FADAAB" fill-opacity="0.6"/>
<path d="M127.131 52.3281C123.369 43.5622 118.436 35.2931 112.154 28.0887C112.012 27.9468 111.373 28.0177 111.373 28.0177C117.335 35.4705 122.375 43.3492 126.137 52.1861C126.243 52.4345 127.131 52.2571 127.131 52.3281Z" fill="#FADAAB" fill-opacity="0.6"/>
<path d="M117.69 52.1865C113.467 41.3621 107.54 30.7153 99.7326 22.0559C99.6261 21.9494 99.1292 22.0204 99.0938 21.9849C106.689 31.3186 112.97 40.9007 117.406 52.1509C117.406 52.2219 117.69 52.151 117.69 52.1865Z" fill="#FADAAB" fill-opacity="0.6"/>
<path d="M109.137 47.3956C105.517 39.1975 101.613 31.1414 97.4257 23.1917C97.2838 22.9433 96.432 23.1208 96.3965 23.0498C100.584 30.964 104.488 39.0556 108.108 47.2537C108.215 47.5021 109.102 47.3246 109.137 47.3956Z" fill="#FADAAB" fill-opacity="0.6"/>
<path d="M104.133 42.2848C103.814 38.5939 101.471 34.4772 99.768 31.2476C98.0645 28.0536 96.1481 24.966 93.8412 22.1623C93.7348 22.0558 93.2379 22.0913 93.2379 22.1268C95.5447 25.3563 97.7451 28.6214 99.5196 32.1703C101.152 35.3999 101.968 39.0198 103.636 42.2139C103.672 42.2849 104.169 42.3203 104.169 42.2848H104.133Z" fill="#FADAAB" fill-opacity="0.6"/>
<path d="M99.0582 34.6902C96.5029 28.6925 92.5281 23.298 87.1337 19.5716C87.0272 19.5006 86.6014 19.5716 86.6014 19.5361C91.4634 23.8304 95.4028 28.515 97.958 34.5482C98.0645 34.7966 99.0582 34.6547 99.0937 34.6902H99.0582Z" fill="#FADAAB" fill-opacity="0.6"/>
<path d="M91.7828 109.466C97.2482 109.005 102.678 108.26 108.037 107.053C108.108 107.053 107.611 106.911 107.505 106.947C102.181 107.976 96.8223 108.828 91.3924 109.395C91.3215 109.395 91.7118 109.502 91.7828 109.502V109.466Z" fill="#FADAAB" fill-opacity="0.6"/>
<path d="M91.428 111.596C96.3965 110.638 101.294 109.502 106.227 108.437C106.334 108.437 105.624 108.224 105.446 108.26C100.549 109.325 95.6512 110.283 90.7891 111.489C90.8601 111.489 91.2505 111.631 91.3924 111.596H91.428Z" fill="#FADAAB" fill-opacity="0.6"/>
<path d="M89.7955 115.003C96.2901 113.513 102.714 111.845 109.137 110.248C109.066 110.248 108.605 110.07 108.392 110.106C102.075 111.703 95.7223 113.193 89.4407 114.932C89.4407 114.932 89.6891 115.003 89.7955 115.003Z" fill="#FADAAB" fill-opacity="0.6"/>
<path d="M81.8103 122.456C92.2443 119.758 102.288 115.819 111.976 111.063C111.941 111.063 111.302 110.815 111.089 110.922C101.472 115.571 91.5699 119.226 81.3489 122.385C81.3844 122.385 81.6684 122.491 81.8103 122.456Z" fill="#FADAAB" fill-opacity="0.6"/>
<path d="M87.95 123.875C94.3026 121.71 100.513 119.191 106.582 116.316C106.582 116.316 106.369 116.245 106.298 116.28C100.265 119.155 94.0897 121.639 87.7726 123.875C87.7726 123.875 87.9145 123.911 87.95 123.875Z" fill="#FADAAB" fill-opacity="0.6"/>
<path d="M112.189 119.687C116.413 118.055 120.565 115.925 124.362 113.405C124.362 113.405 123.972 113.228 123.83 113.299C119.855 115.606 115.845 117.7 111.693 119.616C111.693 119.616 112.047 119.758 112.189 119.687Z" fill="#FADAAB" fill-opacity="0.6"/>
<path d="M108.924 125.933C116.235 122.739 123.298 119.048 130.253 115.109C130.253 115.109 129.934 115.003 129.863 115.038C122.872 118.835 115.703 122.313 108.569 125.862C108.569 125.862 108.853 125.969 108.96 125.933H108.924Z" fill="#FADAAB" fill-opacity="0.6"/>
<path d="M119.962 123.875C122.126 122.739 124.256 121.604 126.421 120.468C126.421 120.468 125.995 120.291 125.853 120.361C123.723 121.497 121.594 122.633 119.5 123.769C119.5 123.769 119.855 123.91 119.962 123.84V123.875Z" fill="#FADAAB" fill-opacity="0.6"/>
<path d="M114.496 129.802C122.481 127.176 129.934 123.272 136.89 118.587C136.89 118.587 136.322 118.339 136.145 118.445C129.189 123.13 121.807 126.714 113.964 129.696C113.999 129.696 114.354 129.838 114.496 129.802Z" fill="#FADAAB" fill-opacity="0.6"/>
<path d="M117.193 132.286C124.362 129.163 131.141 125.153 137.564 120.752C137.564 120.752 137.067 120.539 136.89 120.646C130.466 125.046 123.723 128.737 116.767 132.215C116.767 132.215 117.087 132.322 117.193 132.286Z" fill="#FADAAB" fill-opacity="0.6"/>
<path d="M123.83 133.031C128.834 130.476 133.696 127.743 138.629 125.082C138.629 125.082 138.132 124.869 137.955 124.975C133.128 127.637 128.231 130.228 123.475 132.996C123.475 132.996 123.723 133.102 123.794 133.067L123.83 133.031Z" fill="#FADAAB" fill-opacity="0.6"/>
<path d="M126.74 135.764C132.064 133.138 137.281 130.263 142.533 127.46C142.497 127.46 142.036 127.247 141.859 127.353C136.677 130.121 131.46 132.783 126.35 135.693C126.35 135.693 126.634 135.8 126.74 135.764Z" fill="#FADAAB" fill-opacity="0.6"/>
<path d="M141.042 130.796C141.042 130.796 140.865 130.725 140.865 130.796C140.865 130.796 141.042 130.867 141.042 130.796Z" fill="#FADAAB" fill-opacity="0.6"/>
<path d="M80.1777 21.701C78.6517 18.0811 74.8188 14.887 71.5892 12.8641C71.4827 12.7931 71.0924 12.8641 71.0569 12.8286C72.6539 14.1062 74.251 15.3839 75.6705 16.839C77.1966 18.365 78.4387 20.1395 79.8938 21.701H80.1422H80.1777Z" fill="#FADAAB" fill-opacity="0.6"/>
<path d="M74.3219 19.7135C71.6602 15.3127 66.4788 11.8702 61.8651 9.81184C61.6877 9.74086 61.1553 9.81186 61.0844 9.77637C65.9819 12.6155 69.6373 15.8451 73.7541 19.678C73.8251 19.749 74.2865 19.6779 74.2865 19.7489L74.3219 19.7135Z" fill="#FADAAB" fill-opacity="0.6"/>
<path d="M70.0988 18.7196C66.053 15.5965 61.7233 12.7573 57.0742 10.557C56.8967 10.486 56.4354 10.557 56.3999 10.5215C60.9071 13.1477 65.3788 15.7384 69.673 18.684C69.7795 18.755 70.0989 18.6841 70.1344 18.7196H70.0988Z" fill="#FADAAB" fill-opacity="0.6"/>
<path d="M70.3473 102.794C77.1258 102.546 83.9043 102.333 90.6828 101.978C90.8603 101.978 90.4344 101.872 90.3634 101.872C83.6559 102.085 76.9128 102.439 70.2053 102.759C70.1343 102.759 70.3118 102.794 70.3473 102.794Z" fill="#FADAAB" fill-opacity="0.6"/>
<path d="M93.9832 132.357C93.9832 132.357 92.3152 131.825 92.2087 132.145C92.2087 132.216 93.8767 132.677 93.9832 132.357Z" fill="#FADAAB" fill-opacity="0.6"/>
<path d="M82.6266 131.186C86.7434 129.696 90.8247 128.205 95.048 126.998C98.6679 125.969 102.323 125.224 105.588 123.307C105.588 123.307 105.375 123.201 105.304 123.272C101.933 125.188 98.1711 125.898 94.4447 126.927C90.2214 128.099 86.0336 129.412 82.0233 131.115C82.0588 131.115 82.4847 131.293 82.6266 131.222V131.186Z" fill="#FADAAB" fill-opacity="0.6"/>
<path d="M87.7016 131.896C93.5928 130.902 99.4486 129.589 105.162 127.814C105.127 127.814 104.772 127.672 104.595 127.708C98.9163 129.234 93.238 130.654 87.4886 131.86C87.4886 131.86 87.6661 131.931 87.7016 131.896Z" fill="#FADAAB" fill-opacity="0.6"/>
<path d="M87.7016 133.564C90.3988 133.351 93.0605 132.818 95.7223 132.428C95.8287 132.428 95.1545 132.215 94.977 132.251C92.3863 132.641 89.6891 132.783 87.1693 133.457C87.1693 133.457 87.5952 133.564 87.7016 133.564Z" fill="#FADAAB" fill-opacity="0.6"/>
<path d="M88.4114 135.338C90.6118 135.125 92.8121 134.877 95.0125 134.664C95.0835 134.664 94.6576 134.558 94.5511 134.558C92.3863 134.806 90.2569 135.019 88.092 135.267C88.0566 135.267 88.3405 135.338 88.4114 135.338Z" fill="#FADAAB" fill-opacity="0.6"/>
<path d="M91.0731 103.504C94.3026 103.646 97.5322 103.433 100.726 103.007C100.762 103.007 100.442 102.901 100.371 102.936C97.1772 103.362 94.0187 103.469 90.8247 103.433C90.5052 103.433 90.9666 103.54 91.0731 103.54V103.504Z" fill="#FADAAB" fill-opacity="0.6"/>
<path d="M175.219 131.399C175.219 131.399 175.325 131.186 175.325 131.222C173.196 132.996 170.96 134.7 168.689 136.368C168.618 136.403 168.582 136.616 168.547 136.616C170.889 135.019 173.089 133.28 175.219 131.435V131.399Z" fill="#FADAAB" fill-opacity="0.6"/>
<path d="M173.551 130.689C173.551 130.689 173.728 130.299 173.764 130.299C171.563 132.038 169.328 133.741 166.985 135.267C166.914 135.303 166.843 135.551 166.843 135.551C169.257 134.167 171.528 132.57 173.586 130.689H173.551Z" fill="#FADAAB" fill-opacity="0.6"/>
<path d="M170.286 130.263C170.286 130.263 170.463 129.944 170.357 130.05C169.079 131.541 167.553 132.605 165.885 133.635C165.814 133.67 165.743 133.918 165.708 133.918C167.482 133.138 169.044 131.754 170.25 130.263H170.286Z" fill="#FADAAB" fill-opacity="0.6"/>
<path d="M168.05 129.98C168.05 129.98 168.192 129.696 168.156 129.731C166.559 131.399 164.749 132.748 162.833 133.954C162.762 133.99 162.691 134.203 162.691 134.203C164.749 133.174 166.524 131.648 168.05 129.98Z" fill="#FADAAB" fill-opacity="0.6"/>
<path d="M145.727 136.474L145.762 136.403C135.364 145.205 123.901 150.386 111.125 154.645C111.089 154.645 111.018 154.822 111.018 154.822C123.794 152.232 136.003 144.885 145.727 136.439V136.474Z" fill="#FADAAB" fill-opacity="0.6"/>
<path d="M130.715 148.967C125.604 151.38 120.245 153.226 115.064 155.497C114.958 155.532 114.851 155.923 114.851 155.923C120.316 154.255 125.604 151.557 130.715 149.002V148.967Z" fill="#FADAAB" fill-opacity="0.6"/>
<path d="M133.341 149.57C133.341 149.57 133.448 149.357 133.483 149.321C129.437 151.593 125.179 153.048 120.92 154.822C120.813 154.858 120.707 155.213 120.707 155.213C125.143 154.254 129.473 151.841 133.341 149.57Z" fill="#FADAAB" fill-opacity="0.6"/>
<path d="M129.721 153.332C131.602 152.445 133.483 151.522 135.329 150.564C135.506 150.457 135.613 149.96 135.684 149.925C133.838 150.848 131.957 151.77 130.112 152.622C128.195 153.509 126.172 154.219 124.362 155.284C124.291 155.319 124.078 155.745 124.114 155.745C126.03 155.319 127.982 154.184 129.757 153.332H129.721Z" fill="#FADAAB" fill-opacity="0.6"/>
<path d="M138.168 152.054C138.168 152.054 138.452 151.486 138.487 151.486C135.79 152.48 133.022 153.58 130.608 155.142C130.502 155.213 130.395 155.568 130.36 155.568C132.986 154.396 135.47 153.012 138.168 152.019V152.054Z" fill="#FADAAB" fill-opacity="0.6"/>
<path d="M143.598 151.769L143.775 151.415C140.333 152.692 136.855 153.934 133.412 155.247C133.306 155.283 133.199 155.638 133.199 155.638C136.677 154.396 140.12 153.047 143.562 151.769H143.598Z" fill="#FADAAB" fill-opacity="0.6"/>
<path d="M145.053 153.261C145.053 153.261 144.982 153.332 144.982 153.367C144.982 153.438 145.053 153.296 145.053 153.261Z" fill="#FADAAB" fill-opacity="0.6"/>
<path d="M168.227 144.033C168.227 144.033 168.405 143.714 168.369 143.749C164.572 147.298 160.384 149.96 156.09 152.799C155.983 152.87 155.841 153.296 155.806 153.296C160.42 151.202 164.607 147.547 168.227 144.033Z" fill="#FADAAB" fill-opacity="0.6"/>
<path d="M167.163 147.618L167.234 147.511C166.063 148.292 164.891 149.073 163.72 149.818L163.685 149.924C164.856 149.144 166.027 148.398 167.198 147.618H167.163Z" fill="#FADAAB" fill-opacity="0.6"/>
<path d="M173.338 146.659C173.338 146.659 173.267 146.73 173.267 146.766C173.267 146.837 173.338 146.695 173.338 146.659Z" fill="#FADAAB" fill-opacity="0.6"/>
<path d="M10.0859 91.5089C11.6829 90.5152 13.209 89.4859 14.735 88.4567C17.4322 87.4275 19.9875 85.2981 22.4717 83.8785C25.3819 82.2105 28.292 81.0394 31.4506 79.9748C42.3104 79.5844 53.1702 78.839 63.9945 79.5843C64.3139 79.5843 64.8463 78.2712 64.8108 78.2712C50.5085 74.8642 34.9996 79.052 20.4843 78.8746C5.47224 78.6971 -9.46887 76.6741 -23.5227 71.2442C-23.8067 71.1378 -24.5874 72.7703 -24.4809 72.8058C-10.3206 78.0583 4.65599 79.9747 19.6681 80.1522C21.3361 80.1522 23.0041 80.1522 24.7076 80.1522C20.4843 81.8911 16.5805 85.5466 13.1025 87.9244C6.35947 92.538 -0.702942 94.0286 -8.79456 93.0349C-9.11397 92.9994 -9.82375 94.5609 -9.75277 94.5964C-2.86779 97.0097 4.05266 95.3062 10.0859 91.5443V91.5089Z" fill="#FADAAB" fill-opacity="0.6"/>
<path d="M28.1856 110.389C35.319 110.105 42.5589 109.68 49.5858 108.295C49.6213 108.295 49.6568 108.225 49.6923 108.189C51.1119 108.189 52.5669 108.26 53.9865 108.225C63.1073 108.154 72.1217 106.415 81.207 105.847C91.3925 105.208 101.543 105.918 111.728 105.705C111.905 105.705 112.154 104.959 112.189 104.959C102.572 103.966 92.7411 104.001 83.0525 104.143C73.7187 104.285 64.5624 106.095 55.2286 106.131C45.8949 106.166 36.4902 105.847 27.1564 105.705C17.1838 105.527 6.85639 105.989 -2.51286 102.014C-2.76129 101.907 -3.4711 103.362 -3.36463 103.398C5.68521 107.266 15.7642 106.805 25.4174 107.195C30.8118 107.408 36.2417 107.728 41.6361 107.941C36.6321 108.331 31.6636 108.757 26.6241 108.899C19.5262 109.076 12.4637 108.863 5.50776 110.425C5.0464 110.531 4.65601 112.022 4.62052 112.022C12.3572 110.212 20.2714 110.673 28.1501 110.354L28.1856 110.389Z" fill="#FADAAB" fill-opacity="0.6"/>
<path d="M68.0403 64.0046C67.1176 61.9817 65.698 60.2072 64.5269 58.3263C63.4977 56.6583 62.5039 54.9903 61.2973 53.4287C61.2973 53.4287 60.9069 53.8901 60.9424 54.0321C61.6522 56.055 62.6104 57.9004 63.6751 59.7458C64.7753 61.5558 65.8399 63.6142 67.437 65.0338C67.508 65.1047 68.1113 64.2175 68.0403 64.0401V64.0046Z" fill="#FADAAB" fill-opacity="0.6"/>
<path d="M25.737 62.4433C25.737 62.4433 25.6305 62.3369 25.595 62.3369C20.5555 61.1657 15.4095 60.1719 10.228 59.8525C10.228 59.8525 10.441 60.0655 10.5474 60.101C15.6579 60.7753 20.7329 61.414 25.7724 62.4787L25.737 62.4433Z" fill="#FADAAB" fill-opacity="0.6"/>
<path d="M24.7787 66.4885C24.7787 66.4885 24.6012 66.2756 24.4948 66.2756C17.2549 63.6139 9.51816 61.9104 1.78143 61.9459C1.78143 61.9459 1.88789 62.0878 1.95886 62.0878C9.80206 62.7621 17.2549 64.0398 24.7432 66.524L24.7787 66.4885Z" fill="#FADAAB" fill-opacity="0.6"/>
<path d="M0.965003 64.3951C0.965003 64.3951 0.787549 64.1822 0.68108 64.1822C-0.170669 64.1112 -1.0224 64.0402 -1.87415 63.9692C-1.87415 63.9692 -1.6967 64.1466 -1.62572 64.1466C-0.77397 64.2176 0.113254 64.3241 0.965003 64.3951Z" fill="#FADAAB" fill-opacity="0.6"/>
<path d="M7.67267 81.2167C7.67267 81.2167 7.60169 81.1103 7.53071 81.1103C-1.59011 81.4651 -10.1076 80.0101 -18.8735 77.5259C-18.9445 77.5259 -18.5896 77.8098 -18.4831 77.8453C-10.1076 80.9329 -1.19972 81.8556 7.67267 81.1813V81.2167Z" fill="#FADAAB" fill-opacity="0.6"/>
<path d="M1.21346 86.6823C1.21346 86.6823 0.85856 86.2565 0.681111 86.292C-4.46487 86.7889 -9.3979 86.292 -14.5439 86.1855C-14.5439 86.1855 -14.331 86.3984 -14.2245 86.4339C-9.22046 87.4631 -3.86155 87.2502 1.17796 86.6823H1.21346Z" fill="#FADAAB" fill-opacity="0.6"/>
<path d="M0.92962 89.0243C0.92962 89.0243 0.503763 88.5275 0.255337 88.492C-3.82596 88.4565 -7.94275 88.137 -12.024 88.208C-12.024 88.208 -11.6692 88.5985 -11.5272 88.5985C-7.41041 88.9888 -3.22266 88.9533 0.92962 88.9888V89.0243Z" fill="#FADAAB" fill-opacity="0.6"/>
<path d="M13.6349 100.736C13.6349 100.736 13.5285 100.629 13.493 100.629C7.9211 100.274 2.59768 99.1742 -2.9032 98.2515C-2.9032 98.2515 -2.69027 98.4644 -2.58381 98.4999C2.66865 99.955 8.20502 100.452 13.6349 100.736Z" fill="#FADAAB" fill-opacity="0.6"/>
<path d="M21.4781 114.293C21.4781 114.293 21.2652 114.045 21.1588 114.045C17.2904 113.832 13.422 113.015 9.55365 112.838C9.55365 112.838 9.76659 113.051 9.83757 113.051C13.5995 114.009 17.6098 114.151 21.4781 114.293Z" fill="#FADAAB" fill-opacity="0.6"/>
<path d="M16.0128 115.926C16.0128 115.926 15.587 115.464 15.3385 115.393C14.4158 115.145 13.4931 114.967 12.5349 114.825C11.8251 114.719 10.9378 114.506 10.228 114.754C10.228 114.754 10.5474 115.003 10.5829 115.038C12.3929 115.429 14.2028 115.464 16.0128 115.926Z" fill="#FADAAB" fill-opacity="0.6"/>
<path d="M29.8893 119.9C29.8893 119.9 29.5698 119.51 29.3924 119.51C24.3174 119.262 19.3133 118.587 14.2383 118.02C14.2383 118.02 14.3448 118.126 14.3803 118.126C19.4908 119.191 24.7078 119.652 29.8893 119.9Z" fill="#FADAAB" fill-opacity="0.6"/>
<path d="M28.3276 122.597C28.3276 122.597 28.0437 122.242 27.8662 122.242C24.4592 121.923 20.9458 121.355 17.5033 121.391C17.5033 121.391 17.6452 121.533 17.7162 121.568C21.1942 122.172 24.8141 122.313 28.3276 122.633V122.597Z" fill="#FADAAB" fill-opacity="0.6"/>
<path d="M46.2854 130.512C46.2854 130.512 46.108 130.299 46.0015 130.299C39.6134 129.837 33.2607 128.808 26.8726 128.382C26.8726 128.382 27.0855 128.631 27.192 128.631C33.4382 129.802 39.9328 130.121 46.2854 130.512Z" fill="#FADAAB" fill-opacity="0.6"/>
<path d="M156.906 74.3674C156.835 74.1899 156.303 74.0125 156.303 73.9771C158.077 78.9811 159.781 84.0206 161.733 88.9536C161.768 89.0601 162.123 89.1665 162.123 89.202C160.562 84.198 158.681 79.3004 156.906 74.3674Z" fill="#FADAAB" fill-opacity="0.6"/>
<path d="M161.378 77.3133L161.094 77.1357C163.294 83.5594 165.175 90.0184 167.056 96.513C167.056 96.584 167.305 96.6905 167.305 96.6905C165.637 90.1604 163.543 83.7014 161.378 77.3133Z" fill="#FADAAB" fill-opacity="0.6"/>
<path d="M166.559 84.4108L166.063 84.0913C167.021 90.0536 168.014 96.0514 169.292 101.943C169.292 102.049 169.683 102.191 169.683 102.191C168.866 96.2288 167.731 90.3021 166.559 84.4108Z" fill="#FADAAB" fill-opacity="0.6"/>
<path d="M174.58 95.6967C174.58 95.6967 174.19 95.4837 174.19 95.4482C176.922 101.872 178.874 108.331 180.294 115.145C180.294 115.287 180.755 115.429 180.755 115.429C179.761 108.615 177.561 101.907 174.58 95.6967Z" fill="#FADAAB" fill-opacity="0.6"/>
<path d="M182.068 108.898C181.962 108.685 181.358 108.473 181.323 108.437C183.452 112.554 184.943 116.848 186.327 121.284C186.362 121.426 186.859 121.639 186.859 121.639C185.901 117.203 184.127 112.944 182.068 108.934V108.898Z" fill="#FADAAB" fill-opacity="0.6"/>
<path d="M130.963 43.775L130.857 43.7041C133.767 49.3469 136.89 54.9188 140.226 60.3487C140.297 60.4552 140.581 60.5262 140.581 60.5616C137.387 54.9543 134.193 49.3469 130.963 43.7395V43.775Z" fill="#FADAAB" fill-opacity="0.6"/>
<path d="M137.919 48.7084C137.919 48.7084 137.529 48.4955 137.529 48.46C141.717 56.3741 145.763 64.2883 149.737 72.3089C149.808 72.4864 150.305 72.6284 150.305 72.6639C146.721 64.4658 142.533 56.3742 137.919 48.7084Z" fill="#FADAAB" fill-opacity="0.6"/>
<path d="M153.748 70.6054C153.748 70.6054 153.215 70.286 153.215 70.2505C154.138 72.9477 155.096 75.6804 156.019 78.3776C156.055 78.5196 156.445 78.626 156.48 78.6615C155.558 75.9643 154.67 73.2671 153.748 70.5699V70.6054Z" fill="#FADAAB" fill-opacity="0.6"/>
<path d="M28.9664 52.9672C23.1461 44.8756 17.1483 36.926 11.2571 28.9409C8.91477 25.7823 6.60796 21.6655 2.31372 21.2041C2.34921 21.2041 2.63312 21.5235 2.77508 21.559C6.89186 22.3043 9.37613 26.9179 11.612 29.97C13.5284 32.5608 15.4803 35.187 17.3968 37.7777C21.1232 42.7817 24.7786 47.7858 28.5405 52.7543C28.6115 52.8253 28.9664 53.0382 28.9309 52.9672H28.9664Z" fill="#FADAAB" fill-opacity="0.6"/>
<path d="M36.6675 18.1163C32.9411 13.1478 28.292 8.95997 23.146 5.55297C22.8266 5.34003 22.9686 5.553 23.146 5.69496C28.1501 9.13744 32.3733 13.1832 36.2062 17.8678C36.2772 17.9743 36.703 18.1873 36.6675 18.1163Z" fill="#FADAAB" fill-opacity="0.6"/>
<path d="M39.4357 16.3779C36.3481 11.9062 32.4798 8.03779 28.15 4.77275C27.9726 4.63079 27.5822 4.45335 27.9371 4.77275C32.0894 8.07328 35.6738 11.8352 38.8679 16.0585C38.9388 16.1649 39.5067 16.4843 39.4357 16.3779Z" fill="#FADAAB" fill-opacity="0.6"/>
<path d="M40.9619 12.4378C38.3712 9.10182 35.4256 6.01423 32.3025 3.17506C32.196 3.06859 31.2733 2.53628 31.5927 2.8202C34.6448 5.76583 37.5549 8.85339 40.3231 12.0475C40.4296 12.1539 40.9974 12.4733 40.9264 12.4024L40.9619 12.4378Z" fill="#FADAAB" fill-opacity="0.6"/>
<path d="M-23.1323 71.3508C-14.1179 66.2403 -4.60672 63.3302 5.5078 61.2718C10.1924 60.3136 14.8771 59.3199 19.6327 58.6811C24.4947 58.0423 29.0374 58.5036 33.8995 58.5036C33.8995 58.5036 33.6865 58.3262 33.651 58.2907C23.8559 54.9547 12.7122 57.9713 2.91708 59.9942C0.32634 60.5266 -2.26441 61.0944 -4.89064 61.7332C-14.1889 61.5912 -23.1678 60.775 -32.1466 58.2197C-32.4305 58.1488 -31.1174 59.3554 -30.656 59.4973C-23.4871 61.5202 -15.9989 62.7979 -8.54606 62.7269C-14.3309 64.3949 -19.9382 66.6662 -24.8713 70.1797C-24.8713 70.1797 -23.5227 71.5993 -23.1323 71.3863V71.3508Z" fill="#FADAAB" fill-opacity="0.6"/>
<path d="M15.2674 49.5247C15.2674 49.5247 15.1254 49.3828 15.0545 49.3473C7.67263 47.3954 0.0423784 46.9339 -7.37494 48.9568C-7.37494 48.9568 -7.19748 49.1698 -7.09102 49.1698C0.43277 47.8567 7.81458 47.7147 15.2674 49.5247Z" fill="#FADAAB" fill-opacity="0.6"/>
<path d="M7.1403 53.0737C7.1403 53.0737 6.67895 52.5768 6.43052 52.5413C-1.27072 51.5831 -9.04293 51.6541 -16.6377 53.4641C-16.6377 53.4641 -16.4602 53.677 -16.3893 53.6415C-8.54608 52.5058 -0.773873 52.1154 7.1403 53.0737Z" fill="#FADAAB" fill-opacity="0.6"/>
<path d="M187.427 134.558C187.427 134.558 187.179 134.309 187.143 134.345C180.933 140.307 173.338 144.104 164.962 145.985C164.962 145.985 165.104 146.163 165.175 146.163C173.764 144.885 181.394 140.768 187.427 134.558Z" fill="#FADAAB" fill-opacity="0.6"/>
<path d="M175.396 144.956C175.396 144.956 175.219 144.743 175.148 144.778L169.718 147.263C169.718 147.263 169.86 147.44 169.931 147.405C171.741 146.588 173.551 145.772 175.396 144.92V144.956Z" fill="#FADAAB" fill-opacity="0.6"/>
<path d="M91.5346 155.284C112.793 158.655 135.187 160.714 156.374 155.816C166.595 153.438 176.532 149.463 185.192 143.43C187.321 141.939 189.379 140.342 191.331 138.603C191.686 138.284 192.041 137.894 192.396 137.503C201.765 139.846 211.276 141.798 220.752 143.608C220.788 143.608 220.823 143.607 220.788 143.536C220.575 142.117 220.575 140.839 220.61 139.491C220.646 139.491 220.681 139.491 220.717 139.491C220.681 139.491 220.646 139.42 220.61 139.42C220.61 139.029 220.61 138.639 220.646 138.213C220.646 138 219.794 137.574 219.794 137.61C219.723 137.787 219.687 138.142 219.616 138.533C219.403 138.391 219.226 138.249 219.049 138.213C210.354 136.439 201.73 134.416 193.177 132.18C191.97 129.376 190.55 126.644 189.308 123.875C187.605 120.042 186.043 116.139 184.269 112.341C184.127 112.057 183.24 111.702 183.24 111.667C185.44 118.481 188.492 125.579 192.077 131.896C183.807 129.731 175.609 127.389 167.447 124.904C166.276 119.971 165.14 115.074 164.359 110.034C164.359 109.821 163.614 109.573 163.614 109.573C164.395 114.648 165.388 119.759 166.808 124.727C153.641 120.646 140.652 116.103 127.805 111.17C122.659 99.3875 117.123 87.7825 111.799 76.0709C111.799 75.9999 111.586 75.9644 111.586 75.9289C116.981 87.6405 122.127 99.4585 127.663 111.099C126.989 110.851 126.314 110.602 125.64 110.318C125.427 110.247 126.456 111.135 126.776 111.276C140.013 116.671 153.464 121.462 167.092 125.685C167.305 126.431 167.518 127.176 167.766 127.921C167.802 128.028 168.192 128.17 168.192 128.205C168.015 127.424 167.837 126.644 167.624 125.863C175.893 128.418 184.233 130.796 192.644 132.961C192.822 133.28 192.999 133.599 193.212 133.919C192.005 134.096 191.509 134.842 190.018 136.261C188.634 135.977 187.285 135.658 185.901 135.409C185.972 135.409 186.469 136.013 186.753 136.084C187.64 136.332 188.563 136.545 189.486 136.758C183.027 142.614 175.361 147.05 167.269 150.244C148.815 157.555 128.55 157.981 109.031 156.242C67.7566 152.586 23.5011 140.697 -2.33531 105.847C-9.5042 96.1579 -15.9633 85.8306 -22.2804 75.5386C-25.1196 70.9604 -27.8168 66.2758 -30.3366 61.5202C-31.6142 59.1424 -32.8208 56.729 -33.992 54.2803C-34.4534 53.2865 -35.589 51.7251 -35.6955 50.5894C-35.9439 48.0697 -34.2759 49.3828 -32.4659 50.0216C-32.0046 50.199 -33.4596 48.9569 -33.7081 48.8149C-45.1712 42.1074 -47.9749 26.8823 -56.7053 17.5486C-56.8473 17.4066 -58.7282 15.4547 -58.7992 15.5257C-58.4798 15.2063 -56.0665 16.0225 -55.4632 16.1645C-52.0562 16.7678 -48.6137 17.1227 -45.1712 17.2647C-39.138 17.4776 -33.1048 16.9453 -27.1425 16.058C-2.12237 12.2961 21.9395 1.93317 47.5985 2.99785C47.5985 2.99785 47.421 2.78492 47.3146 2.78492C10.3699 -1.11893 -24.6227 22.2332 -61.4964 13.6802C-61.7803 13.6093 -61.0705 14.2836 -61.106 14.2836C-53.6177 20.7782 -50.1397 30.3249 -44.7808 38.4165C-43.0418 41.0427 -41.0544 43.5625 -38.7121 45.6918C-37.6829 46.6146 -36.5827 47.5017 -35.4471 48.2825C-35.0567 48.5664 -34.3824 49.2052 -33.921 49.2762C-35.1632 49.0633 -37.1506 47.5728 -38.4282 47.1114C-38.4637 47.1114 -38.6766 47.0405 -38.6056 47.1469C-30.1236 67.0211 -17.8797 85.9014 -5.24546 103.398C5.47239 118.197 19.4908 129.767 35.745 138.107C53.1349 147.05 72.2637 152.196 91.4991 155.284H91.5346ZM193.532 133.174C195.767 133.741 198.003 134.309 200.275 134.877C198.642 134.593 197.045 134.309 195.413 134.025C194.738 133.919 194.241 133.883 193.815 133.848C193.709 133.599 193.638 133.386 193.532 133.138V133.174ZM193.886 136.155C195.98 134.984 197.897 135.693 200.026 136.048C206.521 137.148 213.015 138.213 219.51 139.313C219.403 140.165 219.297 141.017 219.155 141.265C218.126 142.862 215.5 141.727 214.151 141.443C211.063 140.804 207.976 140.165 204.888 139.491C200.913 138.639 196.974 137.752 192.999 136.9C193.283 136.616 193.603 136.368 193.922 136.19L193.886 136.155Z" fill="#FADAAB" fill-opacity="0.6"/>
<path d="M40.4651 37.8489C37.8034 34.087 34.7868 30.538 31.4862 27.273C31.4153 27.202 31.0959 27.0246 31.1313 27.0955C34.1834 30.538 37.1646 33.9805 40.0037 37.6004C40.0747 37.6714 40.5006 37.9199 40.4296 37.8489H40.4651Z" fill="#FADAAB" fill-opacity="0.6"/>
<path d="M38.5839 43.8111C33.8993 37.2101 28.7888 30.9284 23.4299 24.8242C23.3589 24.7532 23.075 24.6112 23.1105 24.6467C28.5049 30.7509 33.5089 37.1036 38.3355 43.6691C38.3355 43.7046 38.5839 43.8466 38.5485 43.8111H38.5839Z" fill="#FADAAB" fill-opacity="0.6"/>
<path d="M36.3126 47.3243C31.0957 40.2619 25.8077 33.2704 20.3423 26.3855C20.2714 26.3145 19.9165 26.1015 19.9519 26.1725C25.0624 33.2349 30.4214 40.1554 35.8158 47.0404C35.8868 47.1469 36.3836 47.3953 36.3126 47.3243Z" fill="#FADAAB" fill-opacity="0.6"/>
<path d="M31.9475 47.8921C26.2336 40.6167 20.6973 33.2349 15.6932 25.4272C15.5513 25.2143 15.0189 25.0368 14.9835 24.9658C20.0585 32.88 25.5239 40.5103 31.5926 47.6792C31.6636 47.7502 31.983 47.9276 31.9475 47.8921Z" fill="#FADAAB" fill-opacity="0.6"/>
<path d="M85.2528 108.544C85.2528 108.544 85.0754 108.331 84.9689 108.331C73.1154 109.076 61.1909 109.573 49.4084 110.744C49.4084 110.744 49.6568 111.028 49.7633 110.993C61.6168 110.531 73.4703 109.396 85.2883 108.508L85.2528 108.544Z" fill="#FADAAB" fill-opacity="0.6"/>
<path d="M71.3763 113.867C71.3763 113.867 70.9149 113.299 70.702 113.335C63.0007 114.506 55.2995 115.109 47.5628 115.89C47.5628 115.89 47.7757 116.103 47.8467 116.103C55.7254 115.961 63.6041 115.003 71.3763 113.831V113.867Z" fill="#FADAAB" fill-opacity="0.6"/>
<path d="M58.5648 118.872C58.5648 118.872 58.1744 118.41 57.9969 118.41C51.2539 119.013 44.3689 119.546 37.6969 120.788C37.6969 120.788 37.9808 121.143 38.1228 121.107C44.9368 120.504 51.7508 119.475 58.5648 118.836V118.872Z" fill="#FADAAB" fill-opacity="0.6"/>
<path d="M89.4052 100.985C89.4052 100.985 89.0503 100.594 88.9083 100.594C75.8482 102.369 62.859 104.285 49.6924 105.243C49.6924 105.243 49.8343 105.385 49.8698 105.385C63.0364 104.817 76.487 103.717 89.4052 100.949V100.985Z" fill="#FADAAB" fill-opacity="0.6"/>
<path d="M55.4416 103.078C65.5206 101.765 75.5287 99.7423 85.5013 97.9678C85.5013 97.9678 85.2529 97.6484 85.1109 97.6839C75.0674 99.3164 64.9528 100.665 55.0157 102.759C55.0157 102.759 55.2996 103.114 55.4416 103.078Z" fill="#FADAAB" fill-opacity="0.6"/>
<path d="M140.297 140.875C145.833 137.61 152.257 133.458 156.267 128.347C156.267 128.347 156.019 128.099 155.948 128.134C150.376 131.825 145.266 136.581 139.907 140.591C139.907 140.591 140.226 140.911 140.297 140.875Z" fill="#FADAAB" fill-opacity="0.6"/>
<path d="M150.802 86.9307L150.27 86.6113C150.979 93.9577 151.725 101.304 152.683 108.65C152.683 108.757 153.073 108.863 153.073 108.934C152.47 101.588 151.654 94.2771 150.767 86.9662L150.802 86.9307Z" fill="#FADAAB" fill-opacity="0.6"/>
<path d="M153.357 92.7868L153.073 92.6094C154.706 100.736 156.09 108.935 157.865 117.062C157.865 117.168 158.184 117.275 158.184 117.275C156.764 109.076 154.919 100.949 153.357 92.7868Z" fill="#FADAAB" fill-opacity="0.6"/>
<path d="M158.468 105.811L158.184 105.634C158.681 107.763 159.178 109.893 159.71 111.986C159.71 112.057 159.923 112.128 159.923 112.128C159.426 109.999 158.929 107.905 158.468 105.776V105.811Z" fill="#FADAAB" fill-opacity="0.6"/>
<path d="M160.704 109.822C160.704 109.822 160.633 109.822 160.633 109.786C161.201 111.703 161.768 113.655 162.336 115.571H162.372C161.804 113.655 161.236 111.703 160.668 109.786L160.704 109.822Z" fill="#FADAAB" fill-opacity="0.6"/>
<path d="M172.06 114.79C171.989 114.613 171.492 114.471 171.492 114.435C173.054 118.445 174.58 122.491 176.142 126.501C176.177 126.608 176.497 126.714 176.497 126.714C175.041 122.74 173.551 118.765 172.06 114.79Z" fill="#FADAAB" fill-opacity="0.6"/>
<path d="M104.63 64.7852L104.453 64.6787C106.795 72.1315 109.599 79.4423 112.225 86.7886C114.709 93.7446 116.909 100.878 120.671 107.302C120.742 107.408 121.062 107.515 121.062 107.55C113.964 94.064 110.237 78.91 104.63 64.7852Z" fill="#FADAAB" fill-opacity="0.6"/>
<path d="M119.855 85.0143C119.855 85.0143 119.607 84.8724 119.607 84.8369C124.362 92.9995 128.444 101.41 132.206 110.07C132.206 110.105 132.383 110.176 132.383 110.176C128.941 101.446 124.611 93.0704 119.891 84.9788L119.855 85.0143Z" fill="#FADAAB" fill-opacity="0.6"/>
<path d="M123.546 80.5426L123.262 80.3652C127.947 91.0831 132.489 101.836 137.351 112.483L137.458 112.554C132.986 101.836 128.195 91.225 123.581 80.5782L123.546 80.5426Z" fill="#FADAAB" fill-opacity="0.6"/>
<path d="M127.982 84.1266L127.698 83.9492C131.567 92.6797 135.329 101.481 139.339 110.141C139.339 110.141 139.41 110.176 139.445 110.211C135.79 101.446 131.815 92.8216 127.982 84.1266Z" fill="#FADAAB" fill-opacity="0.6"/>
<path d="M141.504 106.557C140.865 103.15 139.694 99.92 137.99 96.9034C137.955 96.7969 137.706 96.7259 137.671 96.6904C138.239 97.7196 138.771 98.7843 139.197 99.8489C139.197 99.8489 139.197 99.849 139.232 99.8845C140.12 101.943 140.794 104.108 141.184 106.344C141.184 106.45 141.504 106.521 141.504 106.557Z" fill="#FADAAB" fill-opacity="0.6"/>
</svg>
