<svg width="345" height="466" viewBox="0 0 345 466" fill="none" xmlns="http://www.w3.org/2000/svg">
<path d="M174.394 196.112C174.394 196.112 172.671 194.109 171.758 194.037C158.603 193.007 139.738 199.821 128.712 189.216C128.322 188.877 125.436 187.034 126.433 188.018C139.98 201.746 157.684 194.848 174.345 196.085L174.394 196.112Z" fill="#FADAAB" fill-opacity="0.6"/>
<path d="M212.693 342.145C213.157 342.587 213.818 343.138 214.261 343.382C233.911 359.189 255.485 372.711 277.991 383.773C278.729 384.181 279.568 384.519 280.38 384.906C280.796 385.321 281.309 385.791 281.656 385.858C282.002 385.926 282.299 385.966 282.596 386.006C310.059 399.122 343.472 411.001 371.396 397.042C371.495 397.097 371.544 397.124 371.544 397.124C371.544 397.124 371.595 397.028 371.621 396.98C372.296 396.671 372.922 396.335 373.573 395.951C373.573 395.951 373.036 395.407 372.45 394.835C372.501 394.739 372.552 394.644 372.629 394.5C373.022 394.717 373.515 394.989 373.367 394.908C373.172 394.676 372.928 394.417 372.733 394.186C382.685 368.074 381.982 339.365 377.64 311.62C375.433 297.636 372.357 283.729 369.056 269.884C369.139 269.371 369.221 268.859 369.206 268.293C369.257 268.197 368.865 267.857 368.521 267.667C364.618 251.135 360.741 234.554 354.844 218.532C352.536 212.362 349.878 206.371 346.844 200.605C346.185 198.382 345.402 196.153 344.371 193.91C344.13 193.406 342.552 192.782 342.479 192.68C340.451 189.205 338.296 185.847 336.115 182.536C324.74 163.055 310.27 144.593 293.553 128.547C289.965 124.769 286.252 121.107 282.662 117.452C275.141 109.829 267.194 102.405 258.155 96.5473C246.611 89.0583 233.592 85.2791 220.422 81.6642C220.349 81.562 220.302 81.412 220.278 81.337C219.989 80.8054 218.41 80.1819 218.337 80.0797C218.481 80.4069 218.648 80.8092 218.792 81.1364C212.622 78.9694 206.299 77.0896 199.918 75.674C198.782 75.2949 197.647 74.9159 196.488 74.4618C196.34 74.3803 195.988 74.6816 195.787 74.8186C190.27 73.6941 184.75 72.8153 179.099 72.2985C175.517 71.2505 171.961 70.1547 168.432 68.8882C148.468 61.7704 129.845 51.5505 113.054 38.5001C112.717 37.8185 112.306 37.1577 111.97 36.4762C111.657 35.8696 109.734 35.056 109.661 34.9538C109.852 35.431 110.069 35.8604 110.21 36.3104C109.5 35.7323 108.813 35.2291 108.102 34.651C107.856 34.5152 105.597 33.0199 105.715 33.395C120.994 101.696 105.11 172.376 133.052 238.806C150.14 279.536 178.495 314.216 212.695 342.022L212.693 342.145ZM216.308 344.203C236.359 352.112 257.508 356.537 278.87 356.99C289.788 357.192 300.646 356.432 311.323 354.581C316.35 353.761 321.283 352.642 326.193 351.325C327.39 350.994 328.512 350.684 329.709 350.353C338.123 359.523 346.69 368.528 355.407 377.37C350.451 379.963 341.882 380.376 336.306 381.388C330.083 382.538 323.763 383.51 317.423 384.163C305.514 385.458 293.854 385.094 281.876 384.493C258.647 373.589 236.452 360.158 216.284 344.128L216.308 344.203ZM281.826 292.25C283.627 294.483 285.477 296.744 287.277 298.977C292.85 305.835 298.321 312.883 303.892 319.863C295.999 310.672 288.283 301.268 280.842 291.706C281.187 291.897 281.482 292.06 281.826 292.25ZM280.089 290.732C277.682 287.607 275.325 284.508 272.993 281.361C275.669 284.698 278.322 287.96 280.998 291.296C280.703 291.133 280.358 290.943 280.063 290.78L280.089 290.732ZM369.966 393.402C344.246 407.648 313.021 398.589 287.221 387.01C286.926 386.847 286.68 386.711 286.359 386.596C298.769 388.179 311.562 387.496 323.821 386.022C330.511 385.191 337.182 384.04 343.755 382.711C347.241 382.033 353.775 381.612 357.775 379.854C361.951 384.081 366.103 388.233 370.33 392.364C370.2 392.726 370.145 393.067 370.015 393.429L369.966 393.402ZM370.49 391.708C366.686 387.501 362.781 383.362 358.877 379.223C359.328 378.976 359.729 378.702 360.058 378.326C361.849 376.526 362.035 372.724 362.594 370.368C363.551 366.435 364.583 362.48 365.54 358.547C367.373 351.068 369.157 343.563 370.99 336.085C372.4 330.232 374.133 324.372 375.395 318.438C378.52 343.216 378.218 368.087 370.464 391.756L370.49 391.708ZM372.292 298.504C372.382 299.05 372.522 299.623 372.613 300.169C372.514 300.114 372.465 300.087 372.514 300.114C372.613 300.169 372.636 300.244 372.66 300.319C373.344 304.043 373.98 307.74 374.54 311.458C373.865 314.866 372.618 318.268 371.878 321.082C370.053 328.068 368.326 335.11 366.575 342.076C364.799 349.089 363.023 356.103 361.322 363.097C360.258 367.467 360.082 373.753 356.488 376.541C348.093 367.692 339.574 358.836 331.205 349.94C332.549 349.69 333.234 348.767 333.161 347.116C334.413 344.894 334.766 341.494 335.477 338.974C339.009 326.175 341.851 313.118 344.049 299.954C344.147 300.008 344.246 300.063 344.346 299.994C349.79 296.369 354.631 290.179 359.15 285.423C362.128 282.358 365.563 278.677 367.591 274.528C369.249 282.509 370.858 290.462 372.32 298.334L372.292 298.504ZM366.478 269.699C365.356 271.559 364.405 273.575 363.184 275.38C361.176 278.3 358.751 280.927 356.204 283.425C352.899 286.744 348.179 290.088 344.988 294.027C346.377 284.878 347.494 275.642 348.288 266.412C349.353 254.295 349.872 242.126 349.82 229.95C349.777 223.358 349.761 216.717 348.874 210.154C356.634 229.126 362.04 249.401 366.478 269.699ZM295.639 228.421C299.504 215 299.679 199.541 301.318 185.634C302.821 172.459 304.449 159.289 305.68 146.025C310.332 151.506 314.91 157.008 319.412 162.531C323.039 166.95 326.465 171.506 329.741 176.104C330.136 183.944 331.375 191.755 332.838 199.504C334.827 210.084 334.302 219.524 332.62 229.936C332.567 230.155 333.356 230.467 333.356 230.467C334.816 221.543 335.899 212.845 334.409 203.718C332.985 195.061 331.832 186.492 330.881 177.787C331.56 178.781 332.215 179.701 332.845 180.668C334.395 183.011 335.897 185.328 337.373 187.692C339.33 190.942 341.263 194.24 343.02 197.627C342.922 197.572 342.823 197.518 342.823 197.518C344.895 201.389 344.954 205.449 344.688 209.64C344.413 214.323 344.238 219.06 344.013 223.769C343.962 223.865 344.406 223.987 344.381 224.035C344.812 218.819 345.466 213.665 345.676 208.389C345.715 207.481 345.755 206.573 345.67 205.659C346.929 213.791 346.943 222.103 346.885 230.313C346.801 241.67 346.296 252.98 345.344 264.291C343.247 288.108 339.096 311.597 333.041 334.593C332.351 337.311 331.587 340.049 330.774 342.761C330.038 345.329 329.721 346.518 328.591 347.319C327.371 346.026 326.151 344.733 325.006 343.419C315.297 328.328 304.257 314.177 292.967 300.136C295.572 292.526 295.119 282.174 295.389 274.639C295.715 265.213 295.47 255.782 294.977 246.338C293.954 228.234 293.195 209.161 289.438 191.284C287.384 181.66 283.031 172.998 279.256 163.972C275.887 155.853 273.938 147.464 272.114 138.959C269.14 124.86 266.142 110.687 255.766 100.062C259.33 102.215 262.742 104.533 266.178 106.926C279.029 118.049 289.758 131.471 302.709 142.526C302.904 142.757 303.098 142.989 303.293 143.22C301.611 156.731 300.3 170.261 298.742 183.778C297.097 198.054 293.928 212.913 294.118 227.333C294.112 227.702 295.662 228.496 295.688 228.448L295.639 228.421ZM277.308 187.748C270.288 202.898 262.947 217.932 256.173 233.218C253.169 217.864 250.14 202.558 247.087 187.176C247.158 187.401 247.203 187.674 247.274 187.899C247.418 188.226 248.992 189.096 248.992 189.096C249.189 186.106 250.412 184.178 251.719 181.615C253.894 177.548 254.983 173.13 255.999 168.609C258.112 159.178 260.991 149.984 263.45 140.621C263.527 140.477 262.691 140.015 262.665 140.063C259.633 149.544 256.947 159.092 253.643 168.486C252.291 172.325 251.21 176.252 249.291 179.84C247.985 182.28 246.594 183.929 246.902 186.33C245.801 180.765 244.674 175.246 243.621 169.708C243.415 168.664 243.185 167.545 243.004 166.454C243.398 166.671 243.742 166.861 243.742 166.861C246.398 154.508 247.301 141.621 248.547 129.046C249.528 118.99 251.694 107.792 251.267 97.3921C252.103 97.8539 252.89 98.2885 253.727 98.7503C265.495 110.825 267.327 128.011 270.799 143.562C274.594 160.655 284.401 175.799 287.398 193.071C290.557 211.114 291.669 229.885 292.517 248.078C292.917 257.099 293.07 266.107 292.602 275.083C292.265 282.148 290.656 289.564 290.267 296.724C280.607 284.76 270.772 272.884 261.487 260.694C259.955 252.597 258.397 244.548 256.839 236.499C257.233 236.716 257.528 236.879 257.579 236.784C265.916 221.555 272.687 204.966 278.438 188.496C278.54 188.304 277.336 187.577 277.285 187.673L277.308 187.748ZM230.793 88.0099C233.879 89.0319 236.865 90.1225 239.773 91.3566C242.802 92.8429 245.805 94.377 248.757 96.0068C247.914 100.561 247.959 105.482 247.514 110.008C246.942 116.199 246.396 122.343 245.776 128.508C244.645 140.154 243.067 151.801 242.481 163.5C237.687 137.552 234.245 109.437 222.444 85.5078C225.261 86.319 228.028 87.103 230.793 88.0099ZM175.836 73.0378C176.641 73.9159 177.741 74.9571 178.583 75.0503C180.195 75.1346 181.782 75.2667 183.391 75.4739C183.391 75.4739 183.391 75.4739 183.49 75.5282C195.743 79.0706 208.186 81.6638 220.417 85.0083C231.058 111.582 235.066 140.071 240.648 167.88C246.547 197.599 252.396 227.291 258.595 256.927C257.622 255.647 256.65 254.367 255.753 253.066C255.607 252.861 255.462 252.657 255.342 252.405C251.867 246.272 248.342 240.112 244.842 234.027C240.566 225.222 236.592 216.21 231.29 207.892C225.601 198.988 219.81 190.275 214.369 181.383C212.051 177.377 209.757 173.445 207.413 169.487C207.561 169.568 207.659 169.622 207.807 169.704C207.905 169.758 209.037 170.383 208.99 170.233C190.091 140.154 194.676 102.155 174.454 72.5229C174.998 72.6988 175.492 72.8476 176.035 73.0236L175.836 73.0378ZM234.265 220.441C232.214 216.768 230.239 213.075 228.263 209.381C230.559 213.19 232.807 216.971 234.879 220.842C234.682 220.733 234.436 220.598 234.239 220.489L234.265 220.441ZM113.776 39.8904C131.846 53.647 151.772 64.6482 173.071 72.1308C188.892 97.5981 188.416 128.632 199.867 155.715C200.991 158.38 202.266 160.881 203.59 163.41C202.525 161.706 201.461 160.003 200.396 158.3C191.291 142.676 181.411 127.429 169.976 113.183C150.413 88.873 128.445 67.5106 113.802 39.8426L113.776 39.8904ZM161.683 105.692C161.683 105.692 162.126 105.937 162.372 106.072C166.9 111.547 171.152 117.179 175.255 122.853C174.759 122.827 174.312 122.828 173.816 122.802C168.043 116.082 162.269 109.362 156.948 102.272C158.672 103.1 160.268 104.167 161.659 105.617L161.683 105.692ZM156.049 101.094C155.271 100.045 154.445 98.9692 153.668 97.9204C153.036 97.0758 152.479 96.2107 151.873 95.3183C152.316 95.5628 152.66 95.7529 152.564 95.5757C151.007 93.6008 149.525 91.6053 147.994 89.5825C147.945 89.5554 147.872 89.4532 147.849 89.3782C151.115 93.0409 154.309 96.6015 157.452 100.258C158.841 101.83 160.13 103.472 161.445 105.065C159.833 103.431 158.017 102.181 156.023 101.142L156.049 101.094ZM175.983 123.875C178.022 126.736 179.986 129.617 181.95 132.499C179.661 129.748 177.373 126.997 175.009 124.266C175.334 124.136 175.633 124.053 175.958 123.923L175.983 123.875ZM109.462 36.5172C109.903 36.8845 110.37 37.204 110.81 37.5713C112.101 40.6389 113.567 43.6172 115.133 46.5271C114.671 45.9619 114.234 45.349 113.772 44.7838C113.285 44.1436 111.463 43.2613 110.627 42.7996C110.214 40.7123 109.85 38.6523 109.387 36.5379L109.462 36.5172ZM110.839 43.4746C115.272 51.7476 121.365 58.7057 127.656 65.6496C128.168 66.242 128.63 66.8072 129.093 67.3724C131.452 70.3483 133.837 73.2763 136.297 76.1837C140.575 81.7682 144.578 87.5104 148.628 93.4026C150.082 95.5689 151.636 97.6667 153.191 99.7644C149.861 98.4837 146.32 97.9543 142.882 97.2335C133.679 95.3752 126.72 91.3473 119.297 85.3279C118.366 84.5661 116.198 83.6166 118.207 85.2217C122.493 88.7656 127.002 92.3703 131.924 94.9638C130.011 95.0851 127.631 94.8869 126.289 93.4642C125.728 92.8447 124.87 92.1851 124.107 91.8255C123.959 91.744 122.9 91.2214 123.461 91.8409C124.484 93.0256 125.458 94.1831 126.407 95.3885C126.82 95.9265 127.308 96.4439 127.721 96.9819C128.306 97.6764 129.438 98.3011 128.162 98.8984C126.137 99.8253 122.632 98.6338 120.835 97.7037C120.195 97.3506 120.193 97.4735 120.459 97.93C120.795 98.6116 122.051 99.2427 122.616 99.6165C125.859 101.655 129.421 102.382 133.011 101.39C133.062 101.294 132.966 101.117 132.868 101.062C131.26 99.1833 129.627 97.3519 128.019 95.4727C129.963 96.4842 132.14 96.9423 134.358 96.3698C134.358 96.3698 134.112 96.2339 133.868 95.9753C134.262 96.1926 134.606 96.3828 135.051 96.5044C140.967 99.0269 148.188 99.1093 154.384 101.228C160.047 108.631 166.262 115.719 172.352 122.8C154.141 122.413 136.448 117.603 119.979 109.192C118.995 108.649 121.003 110.377 121.347 110.567C129.809 115.239 138.737 118.804 148.006 121.133C148.673 121.316 149.392 121.402 150.059 121.585C141.015 123.719 131.788 123.335 122.857 120.015C122.487 119.873 124.394 121.669 125.036 121.899C134.658 125.476 144.851 125.96 154.383 122.795C154.383 122.795 154.137 122.659 153.893 122.4C157.184 123.039 160.5 123.631 163.846 123.929C166.869 124.234 170.653 125.022 173.765 124.447C178.734 130.289 183.626 136.275 188.042 142.555C190.76 146.41 193.351 150.382 195.943 154.354C198.117 158.033 200.242 161.685 202.391 165.412C202.072 165.174 201.704 164.909 201.36 164.719C195.562 161.023 189.432 157.948 183.122 155.208C174.742 151.573 166.079 148.587 157.492 145.458C155.715 144.848 153.888 144.212 152.013 143.548C151.767 143.412 151.596 143.256 151.472 143.249C151.298 143.216 151.1 143.23 150.926 143.196C139.425 139.201 126.747 134.309 120.56 123.952C120.052 123.114 118.006 122.294 117.441 121.92C116.698 95.6677 115.857 69.3607 110.89 43.379L110.839 43.4746ZM139.664 247.414C161.884 263.896 184.335 279.947 206.276 296.833C188.508 290.494 172.034 280.902 155.355 271.694C154.469 271.205 156.183 272.647 156.355 272.804C175.789 285.082 197.268 296.755 219.539 302.419C242.526 308.294 266.644 308.719 290.01 308.047C289.961 308.02 288.938 306.835 288.442 306.809C266.438 306.126 244.345 306.323 222.556 301.545C217.362 300.412 212.298 298.918 207.288 297.205C185.079 279.986 162.772 262.713 139.573 246.868C139.327 246.732 139.18 246.651 139.032 246.569C136.876 241.784 134.894 236.91 133.062 231.995C121.769 201.28 118.862 169.185 117.791 137.111C117.648 132.136 117.456 127.135 117.313 122.16C123.517 132.96 135.241 138.565 146.439 142.888C137.419 141.998 128.399 141.109 119.385 139.85C119.682 139.891 121.042 141.757 121.983 141.904C131.418 143.209 140.981 144.275 150.46 144.426C168.224 151.011 186.604 156.324 202.696 166.51C203.637 168.207 204.626 169.931 205.567 171.628C207.963 176.917 210.86 181.987 213.906 187.015C219.52 197.489 225.108 208.011 230.872 218.444C194.172 196.385 151.416 183.625 122.541 150.393C122.053 149.876 119.618 148.47 119.886 148.803C148.615 183.38 193.381 197.746 231.425 219.555C236.297 228.318 241.295 236.965 246.569 245.454C248.304 248.643 250.14 251.764 252.35 254.781C252.909 255.524 253.468 256.266 254.026 257.008C261.272 267.887 268.919 278.492 276.942 288.871C255.28 276.23 232.387 266.008 209.725 255.356C180.659 241.664 153.302 226.684 128.163 206.483C128.064 206.429 126.958 205.757 127.423 206.199C147.565 225.376 173.557 238.858 198.281 250.897C224.828 263.818 252.017 275.42 277.768 289.947C285.646 300.122 293.85 310.043 302.28 319.779C310.466 329.256 318.854 338.597 327.341 347.869C326.766 348.109 326.068 348.343 325.17 348.591C319.636 350.122 314.007 351.352 308.332 352.309C297.98 354.03 287.493 354.81 276.922 354.675C276.599 354.683 276.302 354.643 275.979 354.651C274.002 352.629 271.945 350.874 269.515 349.222C269.023 348.951 269.217 349.182 269.536 349.42C270.829 350.816 272.047 352.232 273.34 353.627C272.553 353.193 271.766 352.758 270.904 352.344C269.251 351.741 267.531 350.668 265.905 349.894C262.604 348.32 259.253 346.841 255.876 345.411C248.259 342.135 240.617 338.908 233.001 335.633C217.792 329.157 202.715 322.196 187.322 316.301C186.952 316.159 188.763 317.778 189.33 318.029C217.095 330.817 246.423 340.564 273.649 354.48C253.159 353.826 232.801 349.59 213.539 341.992C205.185 335.211 197.235 328.033 189.69 320.335C168.788 299.004 151.369 274.141 139.123 247.115C139.221 247.169 139.319 247.224 139.392 247.326L139.664 247.414Z" fill="#FADAAB" fill-opacity="0.6"/>
<path d="M230.381 127.761C229.2 114.429 224.877 100.859 218.305 88.9724C218.208 88.7946 217.612 88.5909 217.588 88.5156C223.398 101.226 227.363 113.791 229.886 127.489C229.934 127.639 230.331 127.734 230.355 127.809L230.381 127.761Z" fill="#FADAAB" fill-opacity="0.6"/>
<path d="M225.47 122.33C222.406 108.596 217.223 94.9977 208.971 83.3081C208.874 83.1306 208.378 82.9814 208.329 82.9542C215.398 95.4195 221.176 107.669 224.287 121.553C224.357 121.902 225.47 122.33 225.47 122.33Z" fill="#FADAAB" fill-opacity="0.6"/>
<path d="M220.157 120.599C215.586 106.604 209.071 93.0245 199.942 81.2273C199.796 81.0228 199.203 80.8194 199.18 80.7444C207.453 93.1858 214.382 105.754 219.124 119.905C219.219 120.205 220.182 120.551 220.206 120.626L220.157 120.599Z" fill="#FADAAB" fill-opacity="0.6"/>
<path d="M205.587 108.382C200.727 98.5065 196 88.0228 190.263 78.5934C190.167 78.4161 189.501 78.1106 189.501 78.1106C192.642 88.2161 199.158 98.6951 204.627 107.791C204.797 108.07 205.563 108.307 205.561 108.43L205.587 108.382Z" fill="#FADAAB" fill-opacity="0.6"/>
<path d="M180.038 94.0272C178.442 86.764 174.185 79.8285 168.911 74.438C168.763 74.3565 168.051 73.9012 168.173 74.0305C173.138 80.1179 176.466 86.1687 179.203 93.4426C179.274 93.6676 180.063 93.9794 180.038 94.0272Z" fill="#FADAAB" fill-opacity="0.6"/>
<path d="M165.915 81.8524C165.23 77.9956 164.271 74.0507 162.283 70.5941C162.186 70.4164 161.444 70.0078 161.444 70.0078C162.134 73.6182 163.624 77.0488 164.213 80.7279C164.28 81.1997 165.866 81.8251 165.866 81.8251L165.915 81.8524Z" fill="#FADAAB" fill-opacity="0.6"/>
<path d="M214.524 188.339C214.524 188.339 215.451 188.975 215.356 188.798C210.398 182.416 204.962 176.572 198.977 171.165C198.88 171.111 198.292 170.787 198.586 170.949C204.324 176.343 209.662 182.133 214.549 188.291L214.524 188.339Z" fill="#FADAAB" fill-opacity="0.6"/>
<path d="M179.427 162.129C187.741 167.404 194.636 173.681 200.422 181.563C200.639 181.868 201.811 182.516 201.741 182.292C195.616 173.976 188.118 166.934 179.138 161.723C178.65 161.453 179.306 162.001 179.453 162.082L179.427 162.129Z" fill="#FADAAB" fill-opacity="0.6"/>
<path d="M163.318 157.252C170.868 161.796 177.497 167.123 183.269 173.822C183.511 174.079 184.778 174.779 184.609 174.624C178.377 167.486 171.17 161.348 162.858 156.813C162.516 156.625 163.195 157.246 163.244 157.273L163.318 157.252Z" fill="#FADAAB" fill-opacity="0.6"/>
<path d="M144.897 149.971C153.647 154.379 161.247 160.118 167.741 167.46C167.934 167.689 169.054 168.309 168.91 168.106C161.911 160.054 153.512 153.566 143.93 148.945C143.248 148.568 144.63 149.762 144.922 149.924L144.897 149.971Z" fill="#FADAAB" fill-opacity="0.6"/>
<path d="M134.981 146.244C138.935 149.598 143.088 152.694 147.143 155.859C147.628 156.25 148.653 156.694 147.683 155.911C143.579 152.72 139.552 149.386 135.349 146.263C135.155 146.155 134.521 145.805 135.007 146.196L134.981 146.244Z" fill="#FADAAB" fill-opacity="0.6"/>
<path d="M167.098 246.236C172.444 249.437 177.892 252.326 183.314 255.385C186.524 257.159 189.708 258.981 192.793 260.871C194.348 261.853 203.473 266.468 197.54 266.381C197.54 266.381 197.853 266.739 197.976 266.745C199.323 266.814 200.696 266.836 202.044 266.906C202.092 266.933 201.803 266.65 201.754 266.623C183.277 252.97 161.328 245.134 144.432 229.101C144.384 229.074 143.946 228.832 144.092 228.912C150.877 235.795 158.788 241.274 167.049 246.209L167.098 246.236Z" fill="#FADAAB" fill-opacity="0.6"/>
<path d="M144.574 238.714C152.784 245.029 161.422 250.54 170.536 255.393C170.73 255.5 170.343 255.164 170.295 255.137C161.352 250.317 152.91 244.793 144.844 238.679C144.481 238.417 144.018 238.222 144.623 238.741L144.574 238.714Z" fill="#FADAAB" fill-opacity="0.6"/>
<path d="M152.939 251.624C160.837 257.584 169.209 262.887 177.784 267.81C178.513 268.213 177.57 267.385 177.327 267.251C168.947 262.435 160.918 257.077 153.015 251.482C152.505 251.139 152.406 251.207 152.939 251.624Z" fill="#FADAAB" fill-opacity="0.6"/>
<path d="M167.278 285.06C183.625 296.921 203.094 306.579 222.874 310.329C222.777 310.275 222.102 309.533 221.687 309.366C202.032 303.843 184.221 296.392 167.235 284.668C166.362 284.062 166.697 284.616 167.278 285.06Z" fill="#FADAAB" fill-opacity="0.6"/>
<path d="M174.126 296.377C187.413 306.672 203.304 313.614 219.699 316.412C219.601 316.358 218.974 315.643 218.583 315.55C202.392 312.25 187.989 305.946 174.348 296.316C174.007 296.127 173.569 295.885 174.126 296.377Z" fill="#FADAAB" fill-opacity="0.6"/>
<path d="M187.955 310.617C193.784 313.041 199.738 315.349 205.617 317.678C205.812 317.786 204.772 316.781 204.455 316.667C198.575 314.338 192.746 311.914 186.89 309.66C186.695 309.552 187.687 310.53 188.004 310.644L187.955 310.617Z" fill="#FADAAB" fill-opacity="0.6"/>
<path d="M204.503 329.411C214.959 334.024 225.593 338.183 236.176 342.437C236.322 342.517 235.452 341.668 235.134 341.554C224.675 337.185 214.218 332.693 203.631 328.683C203.485 328.603 204.235 329.324 204.478 329.459L204.503 329.411Z" fill="#FADAAB" fill-opacity="0.6"/>
<path d="M174.69 197.91C191.572 207.239 208.678 216.384 225.99 224.787C226.329 224.975 225.605 224.33 225.46 224.249C208.155 215.361 190.875 206.425 173.847 197.015C173.265 196.694 174.472 197.728 174.667 197.836L174.69 197.91Z" fill="#FADAAB" fill-opacity="0.6"/>
<path d="M166.457 196.508C176.182 202.434 186.006 208.293 195.757 214.172C196.534 214.601 195.494 213.72 195.252 213.586C185.453 207.68 175.656 201.653 165.832 195.795C164.861 195.258 166.166 196.347 166.432 196.556L166.457 196.508Z" fill="#FADAAB" fill-opacity="0.6"/>
<path d="M165.102 201.629C173.858 206.651 182.637 211.748 191.368 216.817C192.484 217.434 191.01 216.191 190.67 216.003C181.891 210.907 173.112 205.81 164.333 200.714C163.071 200.017 164.714 201.415 165.102 201.629Z" fill="#FADAAB" fill-opacity="0.6"/>
<path d="M152.92 199.146C162.226 205.27 171.755 211.211 181.74 216.177C182.128 216.391 181.355 215.719 181.209 215.639C171.477 210.199 161.917 204.67 152.636 198.499C151.327 197.653 152.29 198.676 152.945 199.099L152.92 199.146Z" fill="#FADAAB" fill-opacity="0.6"/>
<path d="M145.978 200.825C153.855 206.097 162.108 210.781 170.161 215.722C171.252 216.387 169.803 215.095 169.463 214.907C161.556 210.047 153.727 204.801 145.568 200.414C145.18 200.2 145.856 200.818 145.905 200.845L145.978 200.825Z" fill="#FADAAB" fill-opacity="0.6"/>
<path d="M135.448 198.631C143.797 204.229 152.123 209.752 160.371 215.54C161.511 216.354 161.736 216.049 160.548 215.207C152.154 209.339 143.735 203.519 135.139 198.03C133.876 197.209 134.793 198.207 135.448 198.631Z" fill="#FADAAB" fill-opacity="0.6"/>
<path d="M147.063 212.793C147.063 212.793 146.87 212.562 146.819 212.658C146.819 212.658 147.012 212.888 147.063 212.793Z" fill="#FADAAB" fill-opacity="0.6"/>
<path d="M340.541 231.923C341.662 217.142 340.776 202.133 337.221 187.53C337.126 187.228 336.177 186.832 336.177 186.832C339.103 201.527 340.423 216.088 339.25 230.965C339.218 231.384 340.593 231.826 340.541 231.923Z" fill="#FADAAB" fill-opacity="0.6"/>
<path d="M327.879 224.607C329.858 206.675 329.314 187.672 324.677 169.916C324.605 169.69 323.856 169.403 323.832 169.328C327.677 187.834 329.497 205.667 327.506 224.34C327.454 224.436 327.905 224.558 327.879 224.607Z" fill="#FADAAB" fill-opacity="0.6"/>
<path d="M319.632 211.61C320.541 197.693 320.945 183.75 320.872 169.733C320.854 169.286 319.525 168.871 319.527 168.747C319.626 182.716 319.196 196.707 318.287 210.624C318.255 211.043 319.634 211.486 319.632 211.61Z" fill="#FADAAB" fill-opacity="0.6"/>
<path d="M316.568 200.854C318.821 195.599 318.539 188.207 318.506 182.512C318.447 176.865 318.011 171.198 316.817 165.616C316.745 165.389 316.02 165.055 315.994 165.103C316.876 171.263 317.582 177.389 317.481 183.573C317.414 189.213 315.912 194.755 315.921 200.374C315.919 200.498 316.592 200.929 316.618 200.881L316.568 200.854Z" fill="#FADAAB" fill-opacity="0.6"/>
<path d="M315.323 186.652C316.114 176.567 314.48 166.208 309.647 157.015C309.55 156.837 308.903 156.606 308.929 156.558C312.604 166.11 314.704 175.481 313.888 185.614C313.856 186.032 315.349 186.604 315.373 186.679L315.323 186.652Z" fill="#FADAAB" fill-opacity="0.6"/>
<path d="M248.561 283.221C256.389 286.75 264.371 289.872 272.585 292.323C272.682 292.377 272.102 291.81 271.93 291.777C263.892 289.115 255.931 286.189 248.076 282.83C247.978 282.776 248.438 283.215 248.536 283.268L248.561 283.221Z" fill="#FADAAB" fill-opacity="0.6"/>
<path d="M246.474 285.847C253.987 288.339 261.53 290.54 269.071 292.862C269.217 292.943 268.394 292.118 268.124 292.031C260.632 289.736 253.216 287.297 245.672 285.219C245.769 285.273 246.204 285.76 246.425 285.82L246.474 285.847Z" fill="#FADAAB" fill-opacity="0.6"/>
<path d="M241.672 289.232C251.672 292.173 261.701 294.823 271.679 297.567C271.581 297.513 271.073 296.924 270.755 296.81C260.923 294.146 251.119 291.313 241.234 288.867C241.234 288.867 241.525 289.151 241.672 289.232Z" fill="#FADAAB" fill-opacity="0.6"/>
<path d="M225.146 293.257C241.477 297.59 258.161 299.955 274.941 300.953C274.892 300.926 274.189 300.105 273.819 300.086C257.213 298.999 240.929 296.36 224.56 292.809C224.609 292.836 224.924 293.196 225.146 293.257Z" fill="#FADAAB" fill-opacity="0.6"/>
<path d="M232.455 299.916C242.78 301.853 253.163 303.204 263.605 303.97C263.605 303.97 263.363 303.712 263.239 303.706C252.846 302.967 242.537 301.595 232.21 299.781C232.21 299.781 232.381 299.937 232.455 299.916Z" fill="#FADAAB" fill-opacity="0.6"/>
<path d="M268.726 312.525C275.744 313.555 283.021 313.862 290.088 313.373C290.088 313.373 289.675 312.835 289.428 312.822C282.269 312.89 275.214 312.643 268.09 312.05C268.09 312.05 268.479 312.512 268.726 312.525Z" fill="#FADAAB" fill-opacity="0.6"/>
<path d="M259.552 318.503C271.964 319.791 284.389 320.219 296.846 320.232C296.846 320.232 296.481 319.845 296.357 319.838C283.953 319.607 271.534 318.811 259.112 318.137C259.112 318.137 259.428 318.497 259.601 318.531L259.552 318.503Z" fill="#FADAAB" fill-opacity="0.6"/>
<path d="M276.181 324.164C279.994 324.29 283.758 324.389 287.571 324.515C287.571 324.515 287.109 323.951 286.861 323.938C283.098 323.839 279.334 323.74 275.62 323.668C275.62 323.668 276.009 324.13 276.207 324.116L276.181 324.164Z" fill="#FADAAB" fill-opacity="0.6"/>
<path d="M264.246 327.982C277.181 330.548 290.298 330.989 303.289 329.998C303.289 329.998 302.683 329.23 302.36 329.238C289.369 330.228 276.58 329.412 263.586 327.431C263.635 327.459 264.024 327.921 264.246 327.982Z" fill="#FADAAB" fill-opacity="0.6"/>
<path d="M266.054 333.415C278.232 334.691 290.509 334.473 302.575 333.458C302.575 333.458 302.041 332.791 301.718 332.799C289.652 333.814 277.654 333.629 265.515 332.994C265.515 332.994 265.881 333.382 266.054 333.415Z" fill="#FADAAB" fill-opacity="0.6"/>
<path d="M274.553 339.503C283.319 339.888 292.017 339.925 300.763 340.112C300.763 340.112 300.228 339.446 299.906 339.453C291.308 339.347 282.663 339.092 274.087 339.184C274.087 339.184 274.354 339.517 274.478 339.524L274.553 339.503Z" fill="#FADAAB" fill-opacity="0.6"/>
<path d="M276.467 345.423C285.724 345.956 295.013 346.073 304.3 346.313C304.251 346.286 303.766 345.647 303.444 345.654C294.28 345.421 285.145 345.017 275.978 345.029C275.978 345.029 276.294 345.389 276.467 345.423Z" fill="#FADAAB" fill-opacity="0.6"/>
<path d="M299.743 349.586C299.743 349.586 299.549 349.356 299.498 349.451C299.498 349.451 299.692 349.682 299.743 349.586Z" fill="#FADAAB" fill-opacity="0.6"/>
<path d="M299.191 154.667C299.689 148.601 296.661 141.34 293.625 136.125C293.529 135.947 292.933 135.743 292.909 135.668C294.209 138.622 295.509 141.575 296.433 144.632C297.454 147.867 297.899 151.22 298.795 154.449L299.141 154.639L299.191 154.667Z" fill="#FADAAB" fill-opacity="0.6"/>
<path d="M292.748 147.535C292.23 139.555 287.518 130.936 282.595 124.621C282.4 124.39 281.608 124.077 281.535 123.975C286.289 131.561 289.034 138.722 291.984 147.052C292.032 147.202 292.724 147.46 292.673 147.555L292.748 147.535Z" fill="#FADAAB" fill-opacity="0.6"/>
<path d="M287.691 142.99C284.335 135.685 280.381 128.545 275.523 122.022C275.329 121.791 274.638 121.533 274.615 121.458C278.968 128.447 283.298 135.36 287.126 142.616C287.223 142.794 287.717 142.942 287.74 143.017L287.691 142.99Z" fill="#FADAAB" fill-opacity="0.6"/>
<path d="M224.319 257.975C233.767 262.767 243.189 267.606 252.713 272.257C252.955 272.391 252.448 271.927 252.351 271.873C243.026 267.087 233.551 262.464 224.15 257.82C224.053 257.766 224.27 257.948 224.319 257.975Z" fill="#FADAAB" fill-opacity="0.6"/>
<path d="M234.308 316.214C234.308 316.214 232.391 314.233 232.017 314.579C231.967 314.674 233.934 316.56 234.308 316.214Z" fill="#FADAAB" fill-opacity="0.6"/>
<path d="M219.673 305.87C226.416 307.005 233.111 308.113 239.798 309.711C245.526 311.088 251.099 312.873 256.974 312.787C256.974 312.787 256.757 312.482 256.608 312.523C250.587 312.527 244.892 310.614 239.017 309.156C232.355 307.51 225.641 306.083 218.892 305.314C218.941 305.341 219.401 305.904 219.647 305.917L219.673 305.87Z" fill="#FADAAB" fill-opacity="0.6"/>
<path d="M226.064 310.738C234.877 313.886 243.868 316.578 252.994 318.544C252.945 318.517 252.559 318.057 252.289 317.97C243.39 315.698 234.566 313.283 225.797 310.529C225.797 310.529 225.99 310.759 226.064 310.738Z" fill="#FADAAB" fill-opacity="0.6"/>
<path d="M224.809 313.084C228.662 314.846 232.694 316.155 236.625 317.653C236.771 317.733 235.998 316.937 235.729 316.85C231.895 315.406 228.092 313.549 224.154 312.538C224.154 312.538 224.663 313.003 224.809 313.084Z" fill="#FADAAB" fill-opacity="0.6"/>
<path d="M224.436 316.057C227.604 317.44 230.797 318.776 233.965 320.159C234.062 320.212 233.554 319.747 233.408 319.667C230.263 318.358 227.193 317.029 224.049 315.72C224 315.693 224.339 316.003 224.436 316.057Z" fill="#FADAAB" fill-opacity="0.6"/>
<path d="M252.089 274.592C256.409 277.224 260.98 279.384 265.654 281.233C265.702 281.259 265.34 280.876 265.218 280.87C260.544 279.021 256.146 276.773 251.799 274.309C251.362 274.068 251.918 274.559 252.064 274.639L252.089 274.592Z" fill="#FADAAB" fill-opacity="0.6"/>
<path d="M345.967 376.277C345.967 376.277 346.269 376.071 346.243 376.119C341.998 376.882 337.657 377.467 333.292 377.977C333.167 377.971 332.964 378.231 332.915 378.204C337.327 377.844 341.645 377.183 345.941 376.325L345.967 376.277Z" fill="#FADAAB" fill-opacity="0.6"/>
<path d="M344.228 374.044C344.228 374.044 344.757 373.653 344.806 373.68C340.491 374.341 336.152 374.926 331.794 375.19C331.67 375.183 331.391 375.464 331.391 375.464C335.746 375.446 340.057 375.032 344.278 374.071L344.228 374.044Z" fill="#FADAAB" fill-opacity="0.6"/>
<path d="M340.089 370.978C340.089 370.978 340.567 370.682 340.341 370.745C337.485 371.777 334.591 372.044 331.525 372.154C331.401 372.148 331.122 372.429 331.073 372.402C334.107 372.709 337.281 372.038 340.039 370.95L340.089 370.978Z" fill="#FADAAB" fill-opacity="0.6"/>
<path d="M337.25 368.912C337.25 368.912 337.652 368.637 337.577 368.658C334.149 369.685 330.655 370.118 327.116 370.277C326.991 370.27 326.738 370.503 326.738 370.503C330.347 370.693 333.92 369.993 337.25 368.912Z" fill="#FADAAB" fill-opacity="0.6"/>
<path d="M301.857 361.223L301.957 361.154C281.229 365.058 261.633 363.273 240.883 359.24C240.834 359.213 240.608 359.398 240.608 359.398C260.157 365.677 282.343 365.116 301.883 361.175L301.857 361.223Z" fill="#FADAAB" fill-opacity="0.6"/>
<path d="M271.928 366.754C263.134 366.098 254.404 364.488 245.613 363.587C245.441 363.554 245.013 363.997 245.013 363.997C253.763 365.927 263.007 366.336 271.903 366.801L271.928 366.754Z" fill="#FADAAB" fill-opacity="0.6"/>
<path d="M275.067 369.528C275.067 369.528 275.367 369.323 275.442 369.302C268.217 369.268 261.284 367.973 254.122 367.107C253.949 367.074 253.547 367.47 253.547 367.47C260.368 369.569 268.087 369.629 275.067 369.528Z" fill="#FADAAB" fill-opacity="0.6"/>
<path d="M267.292 371.811C270.532 372.054 273.798 372.249 277.041 372.37C277.363 372.362 277.868 371.775 277.991 371.781C274.774 371.613 271.508 371.418 268.342 371.154C265.053 370.883 261.744 370.293 258.474 370.343C258.35 370.336 257.749 370.747 257.798 370.774C260.756 371.665 264.273 371.628 267.341 371.838L267.292 371.811Z" fill="#FADAAB" fill-opacity="0.6"/>
<path d="M279.791 376.516C279.791 376.516 280.593 375.968 280.642 375.995C276.195 375.271 271.574 374.637 267.112 374.894C266.914 374.909 266.511 375.305 266.462 375.278C270.938 375.708 275.371 375.744 279.817 376.468L279.791 376.516Z" fill="#FADAAB" fill-opacity="0.6"/>
<path d="M287.418 380.24L287.918 379.898C282.248 378.989 276.556 378.005 270.861 377.143C270.688 377.11 270.287 377.506 270.287 377.506C275.98 378.49 281.7 379.303 287.369 380.213L287.418 380.24Z" fill="#FADAAB" fill-opacity="0.6"/>
<path d="M288.27 383.295C288.27 383.295 288.117 383.335 288.091 383.383C288.04 383.479 288.244 383.342 288.27 383.295Z" fill="#FADAAB" fill-opacity="0.6"/>
<path d="M326.888 388.321C326.888 388.321 327.365 388.026 327.29 388.047C319.447 389.927 311.703 390.309 303.682 390.85C303.483 390.864 302.978 391.33 302.929 391.302C310.854 392.013 319.317 390.289 326.888 388.321Z" fill="#FADAAB" fill-opacity="0.6"/>
<path d="M322.728 392.308L322.903 392.219C320.714 392.374 318.524 392.528 316.36 392.635L316.234 392.752C318.424 392.597 320.588 392.49 322.777 392.335L322.728 392.308Z" fill="#FADAAB" fill-opacity="0.6"/>
<path d="M331.881 395.621C331.881 395.621 331.728 395.661 331.702 395.709C331.651 395.805 331.855 395.669 331.881 395.621Z" fill="#FADAAB" fill-opacity="0.6"/>
<path d="M150.738 196.864C153.647 196.746 156.484 196.526 159.321 196.307C163.77 196.978 168.81 196.066 173.245 196.052C178.444 196.028 183.288 196.671 188.397 197.647C203.624 205.388 219.106 212.653 233.472 221.891C233.912 222.134 235.584 220.777 235.535 220.75C218.285 205.293 193.942 199.109 174.089 187.824C153.552 176.161 134.433 162.076 118.973 144.094C118.658 143.735 116.415 145.331 116.537 145.46C132.271 163.285 151.515 177.254 172.052 188.918C174.348 190.187 176.644 191.456 178.988 192.753C171.931 191.872 163.943 193.806 157.454 194.35C144.873 195.409 134.085 192.034 123.658 184.543C123.244 184.252 121.15 185.807 121.222 185.909C128.973 194.387 139.717 197.368 150.713 196.912L150.738 196.864Z" fill="#FADAAB" fill-opacity="0.6"/>
<path d="M161.055 236.399C171.026 241.42 181.244 246.332 191.851 249.801C191.9 249.828 191.999 249.76 192.073 249.74C194.017 250.814 195.959 252.011 197.929 253.038C210.471 259.848 224.052 264.348 236.898 270.467C251.302 277.324 264.698 285.957 278.799 293.383C279.042 293.517 279.912 292.709 279.96 292.736C267.495 284.127 254.006 276.732 240.637 269.587C227.753 262.711 213.926 258.199 201.118 251.18C188.31 244.161 175.657 236.615 162.975 229.359C149.443 221.572 134.972 214.37 124.965 201.965C124.701 201.635 122.695 203.042 122.815 203.17C132.46 215.191 146.591 222.205 159.534 230.035C166.77 234.403 173.98 238.94 181.216 243.309C174.086 240.042 166.978 236.85 159.976 233.225C150.129 228.089 140.608 222.457 129.971 219.279C129.264 219.072 127.67 220.768 127.621 220.741C139.503 224.179 150.014 230.787 161.031 236.325L161.055 236.399Z" fill="#FADAAB" fill-opacity="0.6"/>
<path d="M250.688 203.295C250.87 199.841 250.172 196.341 249.902 192.888C249.675 189.833 249.498 186.806 248.944 183.759C248.944 183.759 248.058 184.084 248.005 184.304C247.523 187.594 247.521 190.834 247.668 194.157C247.891 197.459 247.882 201.07 249.088 204.225C249.136 204.376 250.632 203.638 250.662 203.343L250.688 203.295Z" fill="#FADAAB" fill-opacity="0.6"/>
<path d="M193.946 169.235C193.946 169.235 193.876 169.012 193.827 168.985C187.744 163.592 181.388 158.355 174.502 153.995C174.502 153.995 174.643 154.441 174.763 154.57C181.298 159.352 187.81 164.059 193.969 169.31L193.946 169.235Z" fill="#FADAAB" fill-opacity="0.6"/>
<path d="M189.664 174.037C189.664 174.037 189.572 173.617 189.426 173.536C181.378 164.47 171.964 156.311 161.309 150.481C161.309 150.481 161.354 150.752 161.451 150.806C171.746 157.667 181.074 165.041 189.59 174.058L189.664 174.037Z" fill="#FADAAB" fill-opacity="0.6"/>
<path d="M158.553 153.209C158.553 153.209 158.461 152.79 158.315 152.709C157.196 151.968 156.077 151.227 154.959 150.485C154.959 150.485 155.076 150.857 155.174 150.911C156.292 151.652 157.434 152.467 158.553 153.209Z" fill="#FADAAB" fill-opacity="0.6"/>
<path d="M150.868 150.872C150.868 150.872 150.686 149.911 150.369 149.797C149.052 149.192 147.686 148.56 146.344 148.002C145.223 147.505 144.128 146.838 142.928 146.605C142.928 146.605 143.116 147.2 143.262 147.281C145.547 148.79 148.356 149.79 150.843 150.919L150.868 150.872Z" fill="#FADAAB" fill-opacity="0.6"/>
<path d="M148.966 155.491C148.966 155.491 148.851 154.997 148.681 154.842C145.289 152.108 141.673 149.556 137.752 147.696C137.752 147.696 137.822 147.919 137.871 147.945C141.736 150.266 145.478 152.58 148.991 155.443L148.966 155.491Z" fill="#FADAAB" fill-opacity="0.6"/>
<path d="M139.966 153.855C139.966 153.855 139.71 152.914 139.443 152.705C135.613 149.359 131.247 145.717 126.562 143.741C126.562 143.741 126.795 144.606 127.038 144.741C131.512 147.706 135.918 150.326 139.966 153.855Z" fill="#FADAAB" fill-opacity="0.6"/>
<path d="M155.159 181.249C155.159 181.249 155.137 181.053 155.04 180.999C142.274 174.556 131.625 166.148 121.368 156.175C121.271 156.121 121.556 156.77 121.677 156.898C130.968 167.383 142.531 175.374 155.184 181.202L155.159 181.249Z" fill="#FADAAB" fill-opacity="0.6"/>
<path d="M135.78 173.362C135.78 173.362 135.503 172.225 135.139 171.962C129.907 168.762 125.173 165.099 120.367 161.335C120.464 161.389 120.695 162.377 120.985 162.661C125.466 166.799 130.572 170.236 135.78 173.362Z" fill="#FADAAB" fill-opacity="0.6"/>
<path d="M133.036 175.041C133.036 175.041 132.83 174.007 132.513 173.893C128.252 171.967 124.538 169.484 120.704 166.874C120.801 166.928 120.985 167.765 121.203 167.947C124.763 170.836 128.872 173.168 133.036 175.041Z" fill="#FADAAB" fill-opacity="0.6"/>
<path d="M142.08 183.85C142.08 183.85 141.896 183.013 141.628 182.927C134.233 179.697 127.834 175.303 120.867 171.268C120.867 171.268 121.008 171.713 121.128 171.841C127.246 177 134.731 180.77 142.031 183.823L142.08 183.85Z" fill="#FADAAB" fill-opacity="0.6"/>
<path d="M139.94 186.82C139.94 186.82 139.71 185.835 139.395 185.6C133.834 182.465 128.426 178.924 122.789 175.931C122.789 175.931 122.998 176.721 123.193 176.828C128.55 180.463 134.307 183.584 139.966 186.773L139.94 186.82Z" fill="#FADAAB" fill-opacity="0.6"/>
<path d="M134.659 187.202C134.659 187.202 134.405 186.142 134.113 185.981C130.413 184.303 127.165 181.895 123.59 180.102C123.59 180.102 123.754 180.622 123.9 180.703C127.02 183.47 130.935 185.451 134.684 187.155L134.659 187.202Z" fill="#FADAAB" fill-opacity="0.6"/>
<path d="M148.522 212.401C148.522 212.401 148.452 212.178 148.403 212.151C141.011 207.449 134.49 201.938 127.6 196.53C127.6 196.53 127.741 196.977 127.861 197.105C134.032 203.037 141.274 207.902 148.522 212.401Z" fill="#FADAAB" fill-opacity="0.6"/>
<path d="M148.966 236.834C148.966 236.834 148.85 236.34 148.704 236.26C143.551 233.043 138.828 229.02 133.65 225.85C133.65 225.85 133.79 226.296 133.888 226.35C138.364 230.482 143.762 233.712 148.966 236.834Z" fill="#FADAAB" fill-opacity="0.6"/>
<path d="M140.258 234.94C140.258 234.94 140.001 233.998 139.71 233.714C138.619 232.68 137.477 231.74 136.261 230.822C135.361 230.139 134.293 229.18 133.14 228.973C133.14 228.973 133.401 229.548 133.425 229.623C135.635 231.522 138.098 232.946 140.258 234.94Z" fill="#FADAAB" fill-opacity="0.6"/>
<path d="M156.237 250.84C156.237 250.84 156.077 250.075 155.834 249.941C149.053 245.762 142.673 241.068 136.12 236.462C136.12 236.462 136.19 236.685 136.238 236.712C142.487 242.009 149.31 246.58 156.237 250.84Z" fill="#FADAAB" fill-opacity="0.6"/>
<path d="M152.044 253.344C152.044 253.344 151.907 252.655 151.664 252.521C147.22 249.512 142.807 246.091 138.062 243.529C138.062 243.529 138.156 243.826 138.228 243.927C142.567 247.369 147.429 250.302 152.019 253.392L152.044 253.344Z" fill="#FADAAB" fill-opacity="0.6"/>
<path d="M170.635 277.702C170.635 277.702 170.544 277.283 170.398 277.202C161.971 271.746 153.997 265.556 145.545 260.147C145.545 260.147 145.66 260.641 145.806 260.721C153.533 267.02 162.207 272.367 170.635 277.702Z" fill="#FADAAB" fill-opacity="0.6"/>
<path d="M351.252 223.135L351.154 222.957C351.118 232.853 351.433 242.818 352.152 252.754C352.173 252.953 352.521 253.268 352.495 253.316C352.106 243.249 351.717 233.181 351.278 223.087L351.252 223.135Z" fill="#FADAAB" fill-opacity="0.6"/>
<path d="M356.899 235.123C356.899 235.123 356.506 234.534 356.532 234.485C356.631 248.454 356.53 262.313 356.252 276.262C356.222 276.557 356.817 277.133 356.791 277.181C357.749 263.292 357.78 249.083 356.899 235.123Z" fill="#FADAAB" fill-opacity="0.6"/>
<path d="M206.258 158.729C204.007 143.301 201.405 127.928 198.977 112.589C198.001 106.512 197.77 99.1654 192.102 95.2393C192.152 95.2665 192.317 95.9172 192.489 96.0744C197.702 100.248 197.819 108.404 198.725 114.255C199.52 119.235 200.338 124.291 201.133 129.272C202.702 138.911 204.172 148.495 205.817 158.114C205.865 158.264 206.206 158.826 206.208 158.702L206.258 158.729Z" fill="#FADAAB" fill-opacity="0.6"/>
<path d="M242.588 116.942C240.998 107.367 237.556 98.1383 232.855 89.5835C232.565 89.0505 232.608 89.4473 232.753 89.7754C237.229 98.2692 240.181 106.979 242.125 116.253C242.147 116.451 242.586 117.066 242.588 116.942Z" fill="#FADAAB" fill-opacity="0.6"/>
<path d="M247.643 116.657C246.581 108.238 243.993 100.036 240.322 92.2946C240.178 91.9664 239.762 91.4265 240.025 92.1311C243.422 99.7838 245.692 107.624 247.083 115.789C247.105 115.987 247.665 116.855 247.643 116.657Z" fill="#FADAAB" fill-opacity="0.6"/>
<path d="M252.64 112.427C251.447 105.926 249.578 99.4873 247.281 93.2485C247.209 93.0228 246.308 91.594 246.548 92.2234C248.668 98.5516 250.488 104.963 252.032 111.409C252.103 111.635 252.664 112.503 252.616 112.352L252.64 112.427Z" fill="#FADAAB" fill-opacity="0.6"/>
<path d="M120.452 144.211C136.494 144.212 151.647 147.54 167.021 152.468C174.145 154.744 181.294 156.973 188.288 159.731C195.428 162.571 201.343 166.642 208.027 170.337C208.027 170.337 207.861 169.938 207.837 169.863C196.755 157.946 179.282 153.52 164.372 148.786C160.43 147.531 156.464 146.323 152.397 145.183C139.717 137.925 127.957 130.006 117.439 119.756C117.099 119.445 118.043 122.061 118.575 122.602C126.985 130.763 136.367 138.167 146.662 143.737C137.519 141.576 128.189 140.359 118.898 141.319C118.898 141.319 119.738 144.247 120.427 144.259L120.452 144.211Z" fill="#FADAAB" fill-opacity="0.6"/>
<path d="M189.369 143.691C189.369 143.691 189.276 143.394 189.204 143.293C180.482 135.097 170.361 128.705 158.766 125.793C158.766 125.793 158.858 126.212 159.004 126.293C170.24 130.233 180.45 135.631 189.369 143.691Z" fill="#FADAAB" fill-opacity="0.6"/>
<path d="M175.56 142.424C175.56 142.424 175.281 141.411 174.966 141.175C165.104 134.068 154.414 128.282 142.732 124.953C142.732 124.953 142.823 125.372 142.946 125.378C154.489 129.796 165.406 135.155 175.56 142.424Z" fill="#FADAAB" fill-opacity="0.6"/>
<path d="M152.49 136.276C152.49 136.276 152.236 135.215 151.944 135.054C147.436 132.991 142.622 130.084 137.834 128.787C137.834 128.787 138.045 129.455 138.165 129.583C142.59 132.275 147.763 134.153 152.49 136.276Z" fill="#FADAAB" fill-opacity="0.6"/>
<path d="M360.262 389.943C360.262 389.943 360.097 389.418 360.022 389.439C347.135 392.72 333.89 392.027 320.944 388.157C320.944 388.157 321.013 388.504 321.111 388.558C333.918 393.404 347.441 393.694 360.262 389.943Z" fill="#FADAAB" fill-opacity="0.6"/>
<path d="M335.984 394.896C335.984 394.896 335.892 394.474 335.768 394.467L326.476 393.662C326.476 393.662 326.544 394.009 326.668 394.015C329.757 394.3 332.846 394.584 336.009 394.848L335.984 394.896Z" fill="#FADAAB" fill-opacity="0.6"/>
<path d="M174.81 94.112C170.838 86.6537 166.415 79.4421 161.19 72.7785C160.972 72.4722 161.306 73.2761 161.428 73.4054C166.256 80.0974 170.733 86.9678 174.635 94.2012C175.02 94.9095 175.244 94.8475 174.81 94.112Z" fill="#FADAAB" fill-opacity="0.6"/>
<path d="M162.896 88.3431C158.532 79.4976 152.807 70.581 145.06 64.2593C145.06 64.2593 145.202 64.7086 145.323 64.8377C152.238 72.1225 158.212 79.3826 162.721 88.4321C163.153 89.2895 163.403 89.1798 162.971 88.3225L162.896 88.3431Z" fill="#FADAAB" fill-opacity="0.6"/>
<path d="M150.839 78.1065C151.201 78.6151 150.655 77.2643 150.511 77.0609C144.958 69.4252 138.033 61.1548 129.772 56.3408C129.772 56.3408 129.937 56.8636 130.035 56.9177C137.674 63.6092 144.803 69.8333 150.865 78.0588L150.839 78.1065Z" fill="#FADAAB" fill-opacity="0.6"/>
<path d="M216.441 344.412C243.45 365.212 272.978 385.111 305.844 394.717C321.71 399.331 338.333 401.575 354.669 400.07C358.691 399.691 362.692 399.113 366.647 398.263C367.369 398.105 368.141 397.85 368.914 397.596C380.201 407.917 391.966 417.82 403.784 427.506C403.833 427.533 403.882 427.56 403.884 427.437C404.611 425.362 405.531 423.641 406.552 421.851C406.601 421.878 406.65 421.905 406.699 421.932C406.65 421.905 406.652 421.782 406.603 421.755C406.884 421.229 407.165 420.703 407.521 420.157C407.675 419.87 406.802 418.645 406.776 418.693C406.55 418.877 406.245 419.328 405.866 419.8C405.673 419.446 405.53 419.119 405.31 418.935C394.547 409.895 384.062 400.574 373.829 391.021C374.177 386.321 374.18 381.554 374.453 376.875C374.855 370.408 375.504 363.955 375.782 357.482C375.79 356.991 374.817 355.834 374.842 355.786C372.982 366.649 372.096 378.545 372.51 389.797C362.619 380.557 352.953 371.131 343.439 361.542C345.371 354 347.325 346.534 349.873 339.148C350.027 338.861 349.174 337.956 349.174 337.956C346.6 345.39 344.295 353.035 342.683 360.814C327.39 345.246 312.675 329.192 298.437 312.721C299.797 292.912 300.489 273.044 301.552 253.195C301.603 253.099 301.334 252.889 301.359 252.841C300.395 272.744 299.009 292.601 298.292 312.517C297.537 311.667 296.782 310.816 296.053 309.918C295.809 309.66 296.595 311.642 296.935 312.078C311.381 329.469 326.556 346.21 342.386 362.322C342.144 363.489 341.902 364.656 341.709 365.85C341.682 366.021 342.12 366.51 342.094 366.558C342.411 365.371 342.728 364.183 342.995 362.968C352.605 372.735 362.442 382.317 372.529 391.666C372.545 392.232 372.561 392.798 372.626 393.391C370.827 392.707 369.602 393.331 366.516 394.104C364.804 392.663 363.166 391.201 361.429 389.808C361.527 389.862 361.78 391.055 362.122 391.368C363.172 392.381 364.296 393.373 365.421 394.366C352.259 397.315 338.449 397.429 324.944 395.543C294.124 391.279 265.756 376.354 239.979 359.083C185.458 322.593 132.738 272.73 122.061 206.02C119.111 187.485 117.605 168.632 116.27 149.935C115.636 141.596 115.274 133.222 115.21 124.889C115.154 120.708 115.221 116.534 115.363 112.34C115.439 110.648 114.991 107.676 115.662 106.064C117.133 102.48 118.497 105.525 120.543 107.769C121.054 108.361 119.934 105.575 119.692 105.194C108.649 87.3907 115.732 64.7354 110.365 45.4841C110.271 45.1843 109.072 41.1161 108.922 41.1575C109.595 40.9714 112.349 43.9168 113.082 44.5694C117.365 47.9879 121.876 51.0987 126.541 53.9227C134.742 58.8237 143.48 62.7207 152.375 66.0853C189.731 80.1524 230.514 84.5937 265.278 105.652C265.278 105.652 265.186 105.229 265.039 105.148C216.691 71.6337 151.417 76.3316 106.516 36.6085C106.174 36.2958 106.672 37.747 106.623 37.7199C112.314 52.1963 110.255 67.7174 111.848 82.7168C112.365 87.5848 113.302 92.4994 115.012 97.1594C115.773 99.1896 116.657 101.226 117.667 103.147C118.003 103.828 118.477 105.204 119.065 105.652C117.498 104.416 115.82 100.888 114.383 99.289C114.334 99.2619 114.09 99.0034 114.111 99.2011C111.543 132.462 114.9 167.262 119.794 200.495C123.978 228.629 135.057 254.937 151.558 278.604C169.198 303.952 191.98 325.514 216.392 344.384L216.441 344.412ZM373.605 392.631C376.292 395.106 378.979 397.581 381.715 400.083C379.659 398.452 377.652 396.848 375.596 395.217C374.739 394.558 374.076 394.13 373.512 393.757C373.544 393.341 373.599 392.999 373.63 392.583L373.605 392.631ZM371.949 396.919C375.692 396.942 377.835 399.364 380.528 401.471C388.729 407.92 396.955 414.321 405.156 420.77C404.395 421.837 403.634 422.902 403.259 423.129C400.684 424.493 397.865 420.954 396.202 419.541C392.387 416.319 388.571 413.097 384.781 409.827C379.89 405.64 375.075 401.432 370.184 397.244C370.781 397.079 371.403 396.988 371.973 396.994L371.949 396.919Z" fill="#FADAAB" fill-opacity="0.6"/>
<path d="M232.807 146.757C231.822 139.619 230.186 132.497 227.947 125.541C227.9 125.391 227.582 124.905 227.58 125.028C229.343 132.034 231.006 138.984 232.342 146.066C232.39 146.216 232.805 146.88 232.757 146.73L232.807 146.757Z" fill="#FADAAB" fill-opacity="0.6"/>
<path d="M225.955 153.48C224.206 140.94 221.629 128.504 218.575 116.118C218.527 115.967 218.233 115.557 218.257 115.632C221.361 128.046 223.737 140.495 225.711 153.097C225.685 153.145 225.929 153.528 225.905 153.453L225.955 153.48Z" fill="#FADAAB" fill-opacity="0.6"/>
<path d="M220.246 156.565C218.086 142.987 215.776 129.45 213.14 115.922C213.092 115.771 212.751 115.209 212.749 115.333C214.759 128.829 217.22 142.324 219.757 155.798C219.779 155.997 220.293 156.715 220.246 156.565Z" fill="#FADAAB" fill-opacity="0.6"/>
<path d="M213.891 154.047C211.19 139.795 208.814 125.535 207.495 111.108C207.452 110.71 206.835 110.06 206.837 109.937C208.178 124.563 210.273 139.104 213.549 153.485C213.597 153.636 213.915 154.122 213.891 154.047Z" fill="#FADAAB" fill-opacity="0.6"/>
<path d="M240.347 277.174C240.347 277.174 240.256 276.756 240.11 276.675C223.353 268.701 206.675 260.341 189.712 252.99C189.712 252.99 189.85 253.557 190.021 253.59C206.577 261.944 223.612 269.396 240.421 277.154L240.347 277.174Z" fill="#FADAAB" fill-opacity="0.6"/>
<path d="M217.393 273.965C217.393 273.965 217.164 272.856 216.847 272.742C205.457 268.472 194.471 263.443 183.311 258.624C183.311 258.624 183.451 259.07 183.548 259.124C194.449 264.905 205.931 269.594 217.418 273.918L217.393 273.965Z" fill="#FADAAB" fill-opacity="0.6"/>
<path d="M196.116 271.132C196.116 271.132 195.91 270.219 195.666 270.084C185.99 265.779 176.17 261.272 166.136 257.875C166.136 257.875 166.273 258.565 166.493 258.625C176.266 262.984 186.343 266.773 196.142 271.085L196.116 271.132Z" fill="#FADAAB" fill-opacity="0.6"/>
<path d="M251.729 270.034C251.729 270.034 251.52 269.243 251.326 269.135C232.158 261.611 212.987 254.329 194.255 245.632C194.255 245.632 194.349 245.93 194.397 245.956C212.852 255.176 232.074 263.899 251.754 269.987L251.729 270.034Z" fill="#FADAAB" fill-opacity="0.6"/>
<path d="M203.75 247.003C218.526 252.896 233.71 257.785 248.669 262.98C248.669 262.98 248.555 262.364 248.335 262.303C233.38 256.865 218.531 250.992 203.393 246.252C203.393 246.252 203.53 246.943 203.75 247.003Z" fill="#FADAAB" fill-opacity="0.6"/>
<path d="M291.129 362.594C301.187 362.431 313.12 361.75 322.391 357.926C322.391 357.926 322.225 357.4 322.101 357.393C311.686 358.104 301.142 360.606 290.792 361.911C290.792 361.911 291.005 362.587 291.129 362.594Z" fill="#FADAAB" fill-opacity="0.6"/>
<path d="M346.014 297.05L345.488 296.203C341.028 306.768 336.618 317.36 332.514 328.117C332.435 328.262 332.915 328.709 332.862 328.806C337.476 318.323 341.757 307.725 345.937 297.071L346.014 297.05Z" fill="#FADAAB" fill-opacity="0.6"/>
<path d="M344.948 306.971L344.674 306.51C340.974 318.841 336.868 331.075 333.37 343.515C333.291 343.66 333.668 344.052 333.668 344.052C337.724 331.79 341.12 319.295 344.948 306.971Z" fill="#FADAAB" fill-opacity="0.6"/>
<path d="M342.313 328.615L342.04 328.154C341.173 331.436 340.306 334.717 339.516 337.978C339.464 338.075 339.715 338.336 339.715 338.336C340.581 335.054 341.422 331.821 342.34 328.567L342.313 328.615Z" fill="#FADAAB" fill-opacity="0.6"/>
<path d="M342.33 335.776C342.33 335.776 342.23 335.722 342.256 335.673C341.648 338.719 341.014 341.813 340.407 344.858L340.457 344.885C341.065 341.84 341.699 338.746 342.306 335.701L342.33 335.776Z" fill="#FADAAB" fill-opacity="0.6"/>
<path d="M353.978 351.137C354.008 350.841 353.41 350.265 353.436 350.216C352.695 356.87 351.877 363.545 351.136 370.199C351.108 370.371 351.481 370.762 351.481 370.762C352.347 364.239 353.162 357.688 353.978 351.137Z" fill="#FADAAB" fill-opacity="0.6"/>
<path d="M299.023 231.961L298.851 231.68C296.68 243.616 295.266 255.716 293.575 267.727C291.971 279.098 289.834 290.491 290.429 302.124C290.451 302.323 290.824 302.714 290.798 302.763C290.682 278.957 296.561 255.485 299.023 231.961Z" fill="#FADAAB" fill-opacity="0.6"/>
<path d="M304.815 271.077C304.815 271.077 304.569 270.693 304.595 270.645C305.313 285.391 304.898 299.955 303.851 314.61C303.825 314.658 304.023 314.891 304.023 314.891C305.572 300.386 305.61 285.679 304.891 271.056L304.815 271.077Z" fill="#FADAAB" fill-opacity="0.6"/>
<path d="M313.13 267.755L312.86 267.295C311.602 285.467 310.118 303.577 309.163 321.789L309.261 321.968C310.82 303.96 311.849 285.851 313.154 267.831L313.13 267.755Z" fill="#FADAAB" fill-opacity="0.6"/>
<path d="M316.6 275.998L316.33 275.538C315.38 290.379 314.227 305.235 313.529 320.089C313.529 320.089 313.603 320.192 313.627 320.268C314.904 305.542 315.626 290.763 316.6 275.998Z" fill="#FADAAB" fill-opacity="0.6"/>
<path d="M318.848 316.83C320.451 311.706 321.17 306.414 320.98 300.999C321.008 300.827 320.709 300.539 320.685 300.463C320.731 302.3 320.7 304.158 320.519 305.934C320.519 305.934 320.519 305.934 320.544 306.009C320.284 309.491 319.645 312.954 318.553 316.294C318.474 316.438 318.874 316.781 318.848 316.83Z" fill="#FADAAB" fill-opacity="0.6"/>
</svg>
