<svg width="361" height="525" viewBox="0 0 361 525" fill="none" xmlns="http://www.w3.org/2000/svg">
<path d="M68.8066 343.551C68.6389 340.794 67.3199 338.594 65.5451 336.63C63.4101 334.293 62.521 331.378 61.4932 328.465C60.1779 324.787 61.6144 322.13 64.2058 319.749C68.7585 315.56 73.8322 312.112 79.3729 309.477C87.6181 305.564 95.8595 301.544 104.296 298.141C112.636 294.792 120.586 290.76 128.311 286.245C130.754 284.821 133.314 283.607 135.808 282.28C136.362 281.991 136.851 281.59 137.798 280.922C136.711 280.73 136.126 280.599 135.564 280.532C135.002 280.465 134.437 280.429 133.882 280.44C116.067 281.059 98.3565 279.115 80.57 279.182C74.1077 279.207 67.6609 279.664 61.2155 279.675C54.9529 279.703 48.6598 279.728 42.559 278.091C40.7196 277.6 40.2778 277.128 40.977 275.328C41.8637 273.068 43.0317 270.911 44.227 268.787C45.6102 266.341 47.0985 263.92 48.6989 261.602C50.0269 259.675 51.5008 257.823 53.0563 256.071C55.1168 253.764 57.32 251.563 59.8259 248.974C65.7786 249.256 72.1105 249.589 78.4353 249.845C90.9766 250.361 103.436 251.501 115.899 252.749C125.881 253.755 135.916 252.824 145.907 251.875C154.872 251.016 163.688 249.112 172.587 247.724C178.406 246.808 184.319 246.594 190.194 246.023C200.032 245.059 209.831 245.91 219.66 245.9C224.813 245.894 229.741 244.682 234.535 243.133C236.829 242.388 238.793 240.412 240.735 238.787C247.032 233.526 253.207 228.114 259.504 222.853C261.749 220.979 264.158 219.305 266.563 217.661C271.923 213.978 277.457 210.541 282.708 206.724C294.395 198.228 306.401 190.193 319.147 183.442C329.369 178.016 339.924 173.206 351.041 169.772C365.847 165.196 380.643 160.574 395.408 155.81C399.246 154.575 402.937 152.848 406.621 151.183C412.827 148.363 419.281 146.396 425.893 144.968C426.9 144.752 427.939 144.816 428.967 144.695C430.773 144.49 432.599 144.242 435.047 143.926C437.27 145.439 438.879 148.236 440.11 151.259C441.964 155.803 443.733 160.417 445.378 165.049C446.066 166.96 446.369 169.021 446.865 171.007C447.134 172.095 447.464 173.188 447.839 174.578C446.138 176.393 443.697 177.649 441.153 178.571C435.924 180.449 430.629 182.075 425.39 183.906C417.674 186.604 409.941 189.316 402.297 192.205C394.041 195.347 385.793 198.566 377.657 202.027C368.313 206.008 359.088 210.308 349.805 214.434C344.719 216.695 339.538 218.701 334.582 221.189C322.364 227.311 310.255 233.565 299.398 242.075C289.076 250.172 278.881 258.389 269.892 267.978C260.143 278.361 251.994 289.737 246.487 303.034C239.754 319.315 234.508 335.932 232.358 353.371C231.796 357.925 231.66 362.518 231.464 367.106C230.793 381.63 231.31 396.125 231.827 410.62C232.292 423.432 230.218 435.826 226.262 447.986C225.481 450.41 224.568 452.776 223.742 455.18C222.289 459.437 218.985 461.291 214.881 462.132C213.968 462.326 213.004 462.284 212.091 462.477C210.377 462.829 208.667 463.289 206.95 463.671C206.24 463.837 205.342 464.186 204.816 463.922C203.385 463.206 202.315 463.724 201.199 464.531C200.899 464.75 200.558 464.919 200.23 465.104C197.398 466.57 195.94 465.821 195.98 462.559C196.021 459.575 196.356 456.571 196.749 453.604C197.65 446.878 197.594 440.188 197.439 433.412C197.161 421.727 197.103 410 197.471 398.312C197.665 392.169 198.646 385.99 199.847 379.908C201.648 370.8 203.933 361.768 206.005 352.716C206.267 351.554 206.56 350.395 206.33 349.08C205.035 352.15 203.562 355.142 202.504 358.295C198.629 369.692 194.947 381.154 191.102 392.554C188.467 400.4 185.964 408.303 182.959 416.007C179.155 425.732 174.924 435.28 170.763 444.88C169.299 448.227 167.524 451.469 165.809 454.716C164.497 457.214 161.415 457.995 159.4 456.116C156.924 453.81 154.777 451.149 152.509 448.616C151.397 447.359 151.418 446.006 152.031 444.444C154.697 437.603 157.229 430.734 159.882 423.876C163.726 413.924 166.374 403.646 168.724 393.279C171.363 381.645 173.806 369.978 176.248 358.311C176.563 356.799 176.454 355.218 176.57 353.119C175.69 353.731 175.271 353.909 174.992 354.222C168.983 361.111 162.987 368.018 157.035 374.943C155.699 376.516 154.515 378.24 153.349 379.951C149.725 385.241 146.131 390.534 142.564 395.861C138.958 401.276 135.439 406.73 131.876 412.165C128.055 418.007 124.264 423.852 120.388 429.628C119.676 430.687 118.665 431.657 117.578 432.328C116.147 433.198 115.236 432.807 114.208 431.48C112.615 429.394 112.738 427.372 114.516 425.409C113.169 423.761 111.904 422.213 110.659 420.62C109.648 419.28 108.576 417.934 107.812 416.447C107.505 415.865 107.74 414.808 108.032 414.096C109.438 410.712 110.993 407.374 112.413 404.007C115.745 396.118 119.002 388.206 122.379 380.336C123.46 377.832 124.834 375.478 126.092 373.052C126.438 372.406 126.797 371.776 126.888 370.922C126.416 371.31 125.886 371.662 125.455 372.1C120.701 377.318 115.831 382.464 111.229 387.834C105.24 394.818 100.473 402.607 96.6461 410.959C95.8885 412.584 95.0335 412.814 93.9358 411.712C91.4651 409.207 88.8764 406.798 86.608 404.126C85.0639 402.306 83.9277 400.123 82.8154 398.003C82.4947 397.404 82.7031 396.314 83.0384 395.621C83.8465 393.954 83.5048 392.398 82.6126 391.099C80.5187 388.089 78.6068 384.957 75.7706 382.418C73.3963 380.306 71.6886 377.424 69.7319 374.857C69.3237 374.358 69.0672 373.734 68.6084 373.276C67.558 372.163 67.4068 370.84 67.5155 369.387C67.6059 368.394 67.5135 367.384 67.5042 366.028C71.2965 362.047 76.784 359.622 81.2823 355.367C78.3812 355.024 77.2408 353.457 76.959 350.905C76.853 349.879 76.0742 348.96 75.6985 348.156C74.0709 348.13 72.4712 348.276 70.9442 348.029C69.0076 347.728 68.9726 347.479 68.9895 345.154C70.0332 347.052 71.4868 347.555 73.8581 346.663C75.5234 346.045 77.1681 345.333 78.7855 344.588C88.9217 339.816 99.0067 334.947 109.181 330.256C116.606 326.823 124.13 323.615 131.606 320.279C132.447 319.893 133.311 319.433 133.992 318.818C142.599 311.073 152.565 305.3 162.225 299.083C163.892 298.019 165.572 296.971 167.266 295.94C172.878 292.495 178.493 289.019 184.118 285.591C186.288 284.28 188.566 283.102 190.763 281.825C191.567 281.359 192.247 280.744 192.999 280.181C178.174 284.215 164.141 290.047 150.044 295.766C151.7 294.654 153.404 293.67 155.205 292.942C163.131 289.709 171.034 286.412 179.04 283.447C184.05 281.611 189.227 280.221 194.388 278.845C196.872 278.194 199.356 276.819 201.081 274.343C196.997 274.278 193.078 274.828 189.165 276.041C185.6 277.163 181.881 277.854 178.235 278.737C177.052 279.014 175.831 279.211 174.672 279.551C170.353 280.82 166.042 282.166 161.724 283.434C160.818 283.705 159.822 284.246 158.485 283.23C161.22 281.956 163.664 280.808 166.095 279.645C162.516 279.748 159.087 280.174 155.665 280.677C154.759 280.81 153.83 281.156 152.989 281.541C145.689 284.816 138.374 288.075 131.125 291.447C127.289 293.237 123.563 295.299 119.741 297.106C113.619 299.996 107.368 302.658 101.284 305.629C92.1481 310.107 82.7796 314.024 73.3838 317.909C70.5367 319.081 67.8198 320.619 65.0789 322.093C64.1641 322.595 63.2098 323.324 63.5891 324.96C64.5169 324.337 65.2929 323.838 66.0281 323.289C68.0346 321.778 70.2956 321.2 72.6664 321.755C74.7223 322.236 76.1984 321.663 77.7693 320.343C83.072 315.9 89.0459 312.518 95.323 309.612C102.586 306.256 109.76 302.723 117 299.304C118.603 298.542 120.299 297.927 121.951 297.292C123.538 296.683 125.144 296.198 126.717 295.572C134.928 292.272 143.108 288.97 151.306 285.654C152.221 285.291 153.115 284.695 154.323 285.483C153.425 286.834 152.047 287.216 150.793 287.717C146.237 289.487 141.646 291.147 137.1 292.964C131.429 295.233 125.755 297.533 120.156 299.993C113.443 302.952 106.804 306.072 100.153 309.176C92.9673 312.523 85.9284 316.084 79.5172 320.827C78.3807 321.678 77.1795 322.415 75.951 323.119C72.4444 325.139 68.9275 327.112 65.4209 329.133C65.2083 329.252 65.098 329.565 64.886 329.823C65.1756 330.281 65.4652 330.739 65.7412 331.18C66.1671 331.08 66.4444 331.075 66.674 330.942C75.5813 326.011 84.5229 321.192 93.3551 316.101C105.63 309.015 117.856 301.8 131.319 297.133C116.315 304.432 101.56 312.139 88.4381 320.534C95.6695 316.898 103.873 312.658 112.161 308.626C118.34 305.634 124.648 302.869 130.912 300.084C137.369 297.224 143.836 294.412 150.354 291.697C154.346 290.029 158.434 288.616 162.484 287.123C162.852 286.988 163.354 287.187 163.78 287.226L163.814 287.199C158.613 289.388 153.378 291.465 148.242 293.768C137.527 298.625 126.854 303.532 116.201 308.534C110.16 311.385 104.209 314.414 98.24 317.457C92.5313 320.369 86.8635 323.332 81.2468 326.391C77.2943 328.556 73.4273 330.928 69.5226 333.22C69.0468 333.5 68.6151 333.799 67.9706 334.218C68.6244 335.156 69.2029 335.932 69.9247 336.953C76.4691 333.27 82.8786 329.698 89.2609 326.092C95.9875 322.287 102.544 318.205 109.41 314.674C118.312 310.083 127.46 305.929 136.488 301.595C125.352 307.523 114.001 313.015 102.947 319.043C91.8753 325.084 81.1007 331.661 70.1999 337.98L70.7195 338.443C70.091 340.157 69.4624 341.871 68.8169 343.598L68.8066 343.551ZM73.4273 263.649C74.0981 263.849 74.7358 264.216 75.4261 264.233C81.9673 264.477 88.513 264.968 95.0493 264.827C104.593 264.606 114.121 263.953 123.67 263.394C129.38 263.07 135.062 262.573 140.768 262.14C141.668 262.068 142.55 261.872 143.426 261.736C142.869 261.331 142.341 261.237 141.82 261.22C130.789 260.965 119.737 260.755 108.706 260.5C95.973 260.198 83.2599 259.851 70.5435 259.535C66.9838 259.455 63.4376 259.393 59.8682 259.405C58.4065 259.41 56.963 259.678 55.5156 259.839C69.8188 261.717 84.1522 262.736 98.5493 262.867C93.7028 263.317 88.8687 263.506 84.0275 263.618C80.4819 263.694 76.9598 263.695 73.4039 263.724C73.0617 263.616 72.7293 263.416 72.3773 263.399C66.2548 262.978 60.0986 262.584 53.9761 262.162C53.702 262.137 53.3598 262.029 53.164 262.134C52.6914 262.383 52.2836 262.747 51.8654 263.063C58.9633 263.712 65.8358 263.879 72.7116 264.015C72.9417 264.021 73.1842 263.766 73.4273 263.649ZM242.926 287.953C242.715 287.764 242.521 287.561 242.311 287.373C241.944 287.786 241.489 288.16 241.193 288.626C238.017 293.603 234.855 298.597 231.724 303.593C231.337 304.19 231.168 304.913 230.897 305.582C234.95 300.885 237.85 295.467 241.295 290.407C240.854 291.521 240.544 292.694 239.96 293.704C235.826 300.888 231.665 308.039 227.474 315.188C223.394 322.162 221.039 329.832 218.571 337.4C216.191 344.73 214.336 352.184 212.836 359.764C211.095 368.6 209.219 377.408 208.219 386.358C206.337 403.159 205.104 419.928 206.538 436.786C206.881 440.791 207.067 444.813 207.085 448.835C207.085 452.008 206.747 455.181 206.487 458.345C206.423 459.094 206.071 459.801 205.854 460.536C205.641 460.516 205.431 460.466 205.234 460.433C205.21 459.645 205.156 458.855 205.146 458.084C205.155 453.233 205.398 448.357 205.13 443.511C204.431 430.725 203.719 417.922 205.053 405.106C206.183 394.211 206.998 383.242 208.855 372.446C210.677 361.846 212.582 351.177 216.12 340.919C218.055 335.32 219.959 329.718 221.832 324.113C222.013 323.575 222.088 323.012 222.194 322.452C219.85 325.688 217.705 328.927 216.266 332.476C213.263 339.872 210.854 347.476 208.949 355.249C207.131 362.646 205.106 369.962 204.479 377.575C204.418 378.293 204.069 378.97 203.856 379.674C203.459 380.362 202.806 381.01 202.714 381.726C201.748 389.062 200.336 396.403 200.09 403.758C199.716 414.783 200.261 425.83 200.256 436.858C200.246 441.709 199.882 446.574 199.521 451.408C199.281 454.667 198.734 457.928 198.372 461.176C198.297 461.739 198.496 462.327 198.587 463.059C200.03 461.928 199.986 461.909 200.201 460.758C201.597 453.431 201.585 446.037 201.603 438.645C201.598 429.018 201.302 419.38 201.511 409.772C201.67 402.208 202.385 394.634 202.944 387.076C203.107 384.966 203.609 382.855 203.955 380.761C204.024 381.122 204.185 381.491 204.163 381.843C203.735 387.734 203.477 393.625 202.806 399.494C201.698 409.312 202.299 419.117 202.423 428.924C202.535 436.682 202.522 444.459 202.42 452.197C202.375 455.073 201.931 457.944 201.643 460.936C204.038 460.832 206.414 462.636 208.663 460.007C208.702 458.779 208.783 457.292 208.773 455.797C208.631 446.45 208.306 437.086 208.332 427.739C208.338 415.849 208.587 403.981 209.621 392.108C211.078 375.406 214.159 359.038 219.158 343.014C223.552 328.907 228.495 314.989 236.106 302.161C238.655 297.866 241.133 293.518 243.896 289.381C247.066 284.604 250.524 280.007 253.88 275.354C254.096 275.066 254.453 274.883 254.754 274.664C254.448 275.222 254.214 275.832 253.851 276.353C247.698 285.17 242.036 294.279 236.748 303.637C229.59 316.259 224.571 329.739 220.395 343.528C218.33 350.347 217.086 357.411 215.289 364.316C212.277 375.839 210.918 387.59 210.249 399.358C209.429 413.839 209.343 428.356 210.043 442.867C210.297 448.282 210.026 453.709 210.016 459.146C210.011 459.484 210.127 459.833 210.214 460.319C211.232 460.15 212.111 459.984 213.017 459.851C213.105 458.304 213.167 457 213.29 455.702C213.409 454.435 213.275 453.098 213.771 451.911C213.967 451.944 214.15 451.961 214.346 451.994C214.36 454.46 214.374 456.926 214.402 459.408C215.837 459.509 215.742 458.668 215.773 457.947C215.944 453.742 216.054 449.532 216.333 445.322C216.743 439.168 217.322 433.013 217.765 426.831C218.855 411.405 219.85 396.001 221.917 380.634C223.991 365.066 227.04 349.727 231.237 334.585C231.413 333.939 231.712 333.304 231.98 332.666C232.213 333.504 232.108 334.203 231.942 334.896C229.459 345.79 226.583 356.616 225.126 367.696C223.79 377.925 222.072 388.133 221.271 398.395C219.745 417.632 218.77 436.889 217.579 456.156C217.53 456.752 217.682 457.352 217.781 458.439C220.363 456.149 221.79 453.723 222.329 450.83C222.663 448.997 222.695 447.106 222.833 445.239C223.671 432.608 224.431 419.986 225.343 407.378C225.755 401.778 226.458 396.19 227.023 390.604C227.049 390.36 227.244 390.116 227.378 389.866C227.419 390.779 227.565 391.717 227.498 392.635C226.544 408.812 225.59 424.99 224.635 441.168C224.597 441.812 224.665 442.48 224.721 443.687C226.973 437.993 229.197 427.508 229.221 420.501C229.242 409.183 228.956 397.866 228.747 386.542C228.738 386.048 228.405 385.571 228.21 385.091C228.167 384.625 228.094 384.156 228.126 383.712C228.458 376.842 228.763 369.939 229.172 363.061C229.406 359.139 229.639 355.217 230.129 351.334C232.738 331.18 239.347 312.162 247.786 293.727C248.325 292.559 248.804 291.386 249.3 290.199C249.828 289.57 250.445 288.979 250.871 288.295C258.852 275.609 268.622 264.458 279.913 254.617C281.251 253.461 282.6 252.352 283.965 251.229C279.092 253.371 274.519 255.879 270.612 260.066C271.582 259.769 272.187 259.578 273.14 259.296C272.273 260.064 271.7 260.535 271.168 261.056C262.465 269.409 255.711 279.249 249.398 289.423C249.284 289.628 249.343 289.941 249.3 290.199C248.879 290.685 248.343 291.098 248.054 291.641C240.992 303.794 234.808 316.367 229.516 329.376C229.201 330.163 228.93 330.97 228.69 331.78C226.736 338.147 224.794 344.531 222.853 350.915C220.275 359.382 218.354 368.032 217.377 376.768C216.214 387.105 215.356 397.469 214.698 407.836C214.112 417.086 213.388 426.338 214.217 435.594C214.548 439.275 214.381 443.002 213.935 446.905C213.602 446.566 213.385 446.438 213.354 446.297C213.253 445.656 213.152 445.016 213.129 444.367C212.745 435.691 212.19 427.045 212.551 418.314C213.197 402.863 214.04 387.445 216.501 372.144C218.039 362.612 220.122 353.16 222.805 343.856C224.392 338.349 226.114 332.869 228.293 327.569C233.198 315.742 238.984 304.304 245.453 293.251C249.59 286.175 253.856 279.187 259.144 272.863C261.665 269.844 264.145 266.775 267.046 263.22C266.122 263.813 265.727 264.055 265.359 264.329C262.101 266.619 259.285 269.38 256.747 272.413C255.107 271.924 254.512 273.471 253.544 274.184C248.758 277.812 245.661 282.781 242.936 288L242.926 287.953ZM44.3629 273.574L44.4031 273.485C43.9401 274.367 43.5075 275.252 43.0042 276.222C45.6076 277.338 48.0434 277.284 50.4657 277.213C58.2263 276.983 65.9825 276.507 73.7404 276.447C80.9604 276.383 88.1182 276.037 95.3009 275.169C103.762 274.141 112.241 273.377 120.61 271.478C124.818 270.523 129.102 269.868 133.37 269.365C140.349 268.525 147.34 267.732 154.341 267.264C163.589 266.646 172.851 266.323 182.127 265.878C182.884 265.84 183.673 265.943 184.452 265.998C184.463 266.184 184.474 266.37 184.468 266.57C156.717 267.481 129.368 271.987 102.006 276.476C110.158 276.899 118.279 277.041 126.403 277.153C129.689 277.207 132.947 277.228 136.216 277.296C146.144 277.511 156.075 277.557 165.846 275.201C172.775 273.54 179.641 271.596 186.619 270.201C193.251 268.868 198.88 265.547 204.546 262.169C205.039 261.875 205.429 261.387 206.383 260.519C202.182 260.828 198.662 261.245 195.173 260.495C196.254 260.024 197.333 259.861 198.432 259.792C201.141 259.624 203.861 259.503 206.571 259.335C207.67 259.266 208.844 259.358 209.761 257.825C207.771 257.597 205.973 257.294 204.152 257.204C201.827 257.084 199.466 257.16 197.151 257.087C196.539 257.062 195.407 256.712 195.403 256.604C195.544 255.431 194.82 255.441 194.045 255.494C189.766 255.811 185.592 256.738 181.471 258.317C183.585 258.249 185.697 258.211 187.811 258.142L187.83 258.545C179.67 259.631 171.511 260.717 163.368 261.79C163.393 261.992 163.417 262.195 163.442 262.397L184.044 261.017C183.269 261.654 182.451 261.826 181.626 261.92C174.449 262.727 167.297 263.597 160.104 264.279C151.06 265.146 142.013 266.043 133.062 267.781C129.576 268.448 126.008 268.737 122.471 269.169C121.784 269.26 121.087 269.165 120.397 269.148C120.372 268.946 120.347 268.743 120.336 268.557C126.886 266.846 133.656 266.095 140.175 264.242C125.234 265.032 110.316 266.47 95.413 266.754C80.4628 267.05 65.5143 266.175 50.3109 265.816C49.5302 266.792 48.5576 267.981 47.373 269.429C50.8789 269.58 53.9681 269.601 57.0144 269.88C66.539 270.705 76.0834 270.623 85.6253 269.987C92.6269 269.518 99.6318 269.02 106.647 268.568C108.119 268.471 109.587 268.544 111.049 268.539C110.402 269.127 109.787 269.271 109.168 269.307C99.2504 270.001 89.3578 270.898 79.4562 271.301C72.5518 271.579 65.6172 271.129 58.711 270.99C55.334 270.927 51.9609 270.973 48.6138 270.775C46.3835 270.632 45.0577 271.527 44.407 273.593L44.3629 273.574ZM111.824 418.632C112.296 419.107 112.799 419.584 113.424 420.211C114.083 419.224 114.655 418.475 115.095 417.668C118.465 411.585 121.849 405.518 125.148 399.381C128.216 393.685 131.5 388.118 134.948 382.611C137.565 378.399 139.891 374.037 142.816 369.961C144.801 367.216 146.524 364.324 148.963 361.929C150.028 360.887 150.858 359.592 151.796 358.43C152.167 357.986 152.564 357.576 152.948 357.149C152.111 359.229 150.993 361.067 149.602 362.711C144.564 368.72 140 375.033 136.526 382.093C136.271 382.609 135.975 383.075 135.676 383.571C132.728 388.723 129.753 393.842 126.879 399.016C123.075 405.845 119.33 412.711 115.556 419.543C115.288 420.043 114.918 420.486 114.724 421.008C114.349 421.928 114.875 422.331 115.797 422.631C116.931 420.501 117.998 418.427 119.122 416.389C121.405 412.285 123.661 408.148 126.032 404.083C128.497 399.857 131.121 395.723 133.674 391.536C135.186 389.04 136.857 386.636 138.148 384.043C140.167 379.962 142.702 376.235 145.511 372.672C145.885 372.198 146.401 371.83 146.863 371.394C146.862 372.118 146.594 372.617 146.312 373.1C141.422 381.463 136.56 389.859 131.643 398.189C129.124 402.487 126.415 406.69 123.924 411.021C120.922 416.245 118.096 421.547 115.182 426.81C114.689 427.689 114.418 428.496 115.011 429.428C115.59 430.344 116.166 431.151 117.568 430.694C117.944 430.051 118.374 429.336 118.807 428.59C121.813 423.474 124.774 418.338 127.852 413.275C130.146 409.496 132.556 405.789 134.979 402.098C138.689 396.431 142.444 390.782 146.182 385.148C146.454 384.757 146.798 384.419 147.067 384.059C148.385 382.223 149.69 380.371 150.964 378.516C151.818 377.285 152.533 375.918 153.485 374.773C158.194 369.119 162.998 363.583 167.679 357.896C170.503 354.489 173.33 351.051 175.781 347.394C178.981 342.619 181.662 337.52 184.804 332.709C188.475 327.13 192.25 321.576 197.2 316.977C201.416 313.065 205.631 309.154 209.83 305.256C210.187 304.934 210.514 304.61 210.827 304.269C211.073 303.984 211.261 303.662 211.48 303.343C204.978 305.32 200.078 309.601 195.173 313.773C190.15 318.042 185.138 322.358 180.462 326.982C175.874 331.507 171.747 336.458 167.393 341.235C173.185 331.769 181.385 324.386 188.888 316.324C185.167 318.91 181.487 321.546 178.096 324.502C170.856 330.816 163.875 337.448 156.594 343.713C145.915 352.855 136.829 363.36 129.065 375.034C128.349 376.123 127.715 377.313 127.233 378.516C123.655 387.415 120.165 396.353 116.57 405.266C115.087 408.934 113.458 412.528 111.888 416.158C111.623 416.765 111.257 417.317 111.097 417.949C111.05 418.099 111.617 418.413 111.898 418.654L111.824 418.632ZM102.924 362.568C101.509 363.286 100.003 363.857 98.7243 364.741C96.3191 366.385 94.0195 368.192 91.7095 369.952C87.0119 373.481 83.1805 377.828 79.4282 382.444C79.9071 382.858 80.2874 383.185 80.6134 383.446C84.2099 379.57 87.4714 375.664 91.178 372.199C94.8678 368.747 99.0164 365.754 102.927 362.538C104.858 360.728 111.189 357.025 114.192 355.975C101.695 363.996 90.5399 373.28 81.337 384.883C81.7212 385.319 81.9492 385.632 82.2344 385.843C82.4314 386.015 82.7191 386.057 83.0276 386.193C87.9011 380.293 92.5813 374.329 98.6334 369.492C104.669 364.669 110.456 359.576 117.346 355.971C115.009 357.837 112.482 359.469 110.173 361.368C106.026 364.778 102.083 368.437 97.8822 371.78C92.5717 376.007 88.7116 381.492 84.3997 386.596C83.4842 387.683 83.5727 388.584 85.0341 389.303C91.7886 381.049 98.7607 373.062 106.586 365.876C106.604 366.14 106.554 366.32 106.446 366.464C99.6908 375.303 92.9524 384.129 86.2412 392.987C85.6155 393.808 85.0578 394.712 84.7237 395.682C84.5199 396.295 84.5981 397.15 84.9052 397.732C86.9212 401.475 89.992 404.266 93.3261 406.897C93.5245 406.623 93.7637 406.398 93.8202 406.157C95.1538 400.857 98.149 396.418 101.049 391.862C104.725 386.084 109.583 381.337 114.149 376.303C114.708 375.676 115.237 375.047 115.782 374.404C112.437 376.932 109.36 379.684 106.422 382.573C103.535 385.42 100.675 388.301 98.0695 391.389C95.4979 394.45 93.2355 397.786 90.8473 401.002C91.2212 399.08 91.7442 397.203 92.8374 395.747C95.9123 391.716 98.9392 387.557 102.561 384.022C110.374 376.373 118.503 369.077 126.536 361.664C128.036 360.292 129.672 359.086 131.239 357.797L131.498 358.113C128.237 361.434 124.977 364.756 121.716 368.077C121.838 368.227 121.978 368.363 122.117 368.499C124.821 366.22 127.51 363.925 130.197 361.66C129.961 362.578 129.432 363.207 128.88 363.773C122.629 370.194 116.295 376.514 110.156 383.038C104.885 388.624 100.599 394.932 96.971 401.701C96.0481 403.434 95.3864 405.314 94.6975 407.161C94.5671 407.519 94.8807 408.04 95.1156 409.156C96.3543 406.912 97.2505 405.285 98.1332 403.64C104.665 391.7 113.214 381.331 122.94 371.886C125.771 369.141 128.648 366.385 131.74 363.927C133.84 362.255 135.493 360.311 137.2 358.296C140.39 354.475 143.673 350.663 147.309 347.284C154.055 340.985 161.175 335.075 167.992 328.829C175.44 322.01 182.982 315.307 191.583 309.932C198.453 305.648 205.262 301.218 212.132 296.934C220.483 291.737 228.572 286.254 235.036 278.852C235.602 279.027 236.208 279.113 236.528 278.85C239.799 276.161 243.14 273.525 246.244 270.666C250.628 266.616 255.073 262.71 260.411 259.964C266.187 256.996 271.98 254.014 277.681 250.885C281.893 248.591 286.017 246.119 290.103 243.566C299.132 237.923 308.094 232.197 317.099 226.49C317.659 226.141 318.465 225.506 318.818 225.662C320.371 226.389 321.282 225.194 322.383 224.679C323.906 223.955 325.343 223.024 326.896 222.304C333.7 219.075 340.493 215.8 347.348 212.669C356.758 208.355 366.159 203.993 375.655 199.887C380.653 197.726 385.884 196.125 390.971 194.142C395.351 192.432 399.568 190.246 404.004 188.742C415.315 184.925 426.718 181.394 438.064 177.688C440.088 177.026 442.026 176.156 444.164 175.289C443.805 174.47 443.58 173.988 443.371 173.491C442.567 171.508 441.588 169.585 441.007 167.53C439.969 163.846 439.09 160.115 438.302 156.392C437.677 153.455 436.036 151.102 434.361 148.777C433.251 147.212 432.177 146.898 430.466 147.805C427.812 149.179 424.949 149.641 422.092 150.181C416.832 151.193 411.692 152.664 406.755 154.831C403.479 156.271 400.252 157.84 396.856 158.961C387.66 161.986 378.446 165.025 369.153 167.655C357.245 171.017 345.853 175.735 334.762 181.097C327.142 184.774 319.911 189.273 312.516 193.433C301.654 199.524 291.212 206.301 281.366 213.979C275.344 218.68 269.373 223.479 262.486 226.915C261.82 227.239 261.282 227.821 260.722 228.309C255.123 233.08 249.619 237.967 243.898 242.588C239.589 246.076 235.41 249.79 230.267 252.154C225.739 254.235 221.273 256.46 216.768 258.605C215.749 259.081 214.651 259.428 213.709 260.035C208.723 263.244 203.777 266.504 198.814 269.777C198.73 269.846 198.71 270.029 198.527 270.598C203.4 268.595 208.126 266.963 212.573 264.782C220.183 261.058 227.697 257.079 234.438 251.842C238.845 248.441 243.075 244.824 247.401 241.322C248.901 240.089 250.446 238.875 251.973 237.674C248.485 241.545 244.806 245.182 241.086 248.769C235.652 254.017 230.166 259.168 223.857 263.381C219.155 266.524 214.506 269.734 209.868 272.991C208.489 273.958 207.255 275.139 205.941 276.22C203.82 277.936 201.791 279.799 199.524 281.302C195.999 283.644 192.296 285.769 188.652 287.931C181.268 292.277 173.737 296.409 166.469 300.965C159.927 305.064 153.711 309.702 147.22 313.898C138.016 319.879 129.363 326.466 121.748 334.425C118.303 338.037 114.674 341.494 110.136 343.806C108.054 344.878 106.046 346.111 104.028 347.298C98.105 350.776 92.2062 354.318 86.2563 357.763C81.2074 360.689 76.077 363.516 70.977 366.346C69.5559 367.124 68.6903 368.031 69.6387 369.812C70.1956 369.493 70.7525 369.175 71.2958 368.839C74.4613 366.988 77.5893 365.056 80.8197 363.318C85.3868 360.871 90.1994 358.863 94.6097 356.155C103.842 350.484 112.679 344.192 121.329 337.637C125.747 334.283 130.344 331.114 134.963 328.041C139.433 325.061 144.169 322.475 148.598 319.446C157.47 313.403 166.239 307.167 175.047 301.011C176.261 300.151 177.407 299.209 178.581 298.3C173.628 303.068 168.573 307.781 163.042 311.772C154.576 317.898 145.719 323.511 137.121 329.439C130.516 333.98 123.857 338.453 117.548 343.39C112.042 347.723 106.143 351.403 100.348 355.278C98.1615 356.742 95.9689 358.266 93.643 359.455C90.0476 361.298 86.258 362.799 82.6523 364.595C79.3708 366.236 76.1916 368.07 73.0125 369.905C72.1924 370.384 71.5362 371.202 70.8891 371.79C71.6633 373.186 72.3387 372.908 73.0869 372.238C76.2613 369.293 80.2538 367.764 83.96 365.747C89.9851 362.463 96.0678 359.215 101.871 355.556C108.087 351.643 114.039 347.305 120.067 343.128C124.334 340.176 128.561 337.174 132.801 334.189C136.427 331.625 140.022 329.058 143.635 326.477C140.717 329.322 137.558 331.836 134.317 334.25C127.791 339.06 121.238 343.836 114.657 348.578C110.293 351.721 105.928 354.865 101.472 357.861C97.7949 360.328 93.9849 362.598 90.2429 364.951C89.8481 365.192 89.4501 365.464 89.0145 365.655C85.952 367.115 82.8417 368.448 79.8305 370.005C77.3561 371.288 75.0896 372.929 73.1742 375.172C73.9356 375.966 74.5576 376.623 75.2885 377.414C78.9442 373.128 82.89 369.438 88.0164 367.227C83.9993 370.864 79.7748 374.282 76.3667 378.699C76.9252 379.52 77.4325 380.244 78.0862 381.182C79.16 379.909 79.9737 378.767 80.9709 377.78C83.9119 374.861 86.6112 371.611 89.9131 369.203C98.817 362.716 108.044 356.66 117.03 350.274C123.553 345.634 129.943 340.797 136.307 335.927C139.74 333.299 142.944 330.357 146.353 327.666C148.538 325.925 150.886 324.384 153.166 322.76C146.289 329.138 139.241 335.24 132.043 341.158C128.048 344.443 123.886 347.559 119.646 350.544C114.492 354.17 109.134 357.545 103.912 361.088C103.463 361.401 103.297 362.094 102.951 362.602L102.924 362.568ZM227.742 293.756C227.54 293.923 227.321 294.103 227.146 294.303C220.995 302.088 214.144 309.224 207.029 316.105C201.112 321.833 195.831 328.096 191.131 334.828C186.847 340.967 183.55 347.658 181.372 354.821C178.32 364.846 176.399 375.083 174.871 385.386C173.649 393.684 171.739 401.796 169.256 409.794C168.392 412.564 167.555 415.368 166.735 418.158C164.942 424.309 163.019 430.371 160.128 436.144C158.407 439.591 156.769 443.137 156.413 447.048C156.326 448.01 156.416 449.189 156.906 449.927C157.806 451.303 159.002 452.491 160.168 453.676C161.891 455.405 162.885 455.311 163.908 453.217C166.61 447.627 169.418 442.061 171.839 436.368C175.001 428.925 177.959 421.372 180.781 413.79C183.644 406.119 186.357 398.405 188.922 390.645C193.002 378.327 196.504 365.817 200.94 353.623C206.985 337.018 215.579 321.601 225.679 307.06C229.859 301.035 231.933 294.124 235.301 287.625C234.933 287.76 234.673 287.752 234.599 287.868C232.095 291.736 229.313 295.471 227.145 299.509C221.413 310.151 214.805 320.205 207.702 329.998C203.787 335.416 199.713 340.742 196.185 346.426C193.121 351.368 190.4 356.556 188.543 362.146C184.736 373.627 182.389 385.411 180.797 397.326C179.109 409.848 174.755 421.556 169.984 433.134C167.517 439.115 164.294 444.827 163.023 451.272C162.927 451.741 162.377 452.137 162.054 452.57C161.847 452.489 161.627 452.392 161.42 452.312C161.538 451.352 161.479 450.315 161.82 449.422C163.477 445.137 165.122 440.806 167.012 436.635C172.706 424.048 177.112 411.128 179.035 397.411C180.052 390.172 181.299 382.94 182.98 375.823C184.475 369.445 186.294 363.05 188.741 356.974C191.505 350.08 195.419 343.661 199.9 337.694C203.287 333.183 206.976 328.869 210.35 324.341C213.256 320.448 215.905 316.378 218.651 312.394C218.495 312.272 218.326 312.133 218.153 312.025C214.516 316.852 211.263 321.976 206.833 326.176C214.03 315.498 221.77 305.209 227.678 293.781L227.742 293.756ZM229.408 247.655C229.306 247.461 229.207 247.236 229.105 247.042C226.819 247.418 224.538 248.041 222.248 248.17C216.071 248.545 209.927 248.475 203.756 247.787C193.861 246.682 183.899 247.218 174.113 249.142C163.981 251.126 153.822 252.938 143.578 253.957C134.328 254.882 125.077 255.529 115.824 254.76C101.385 253.577 86.9586 252.273 72.5165 251.121C69.1759 250.861 65.7794 250.982 62.4264 250.983C61.6583 250.974 60.6563 250.852 60.6144 252.111C74.4 253.218 88.154 254.045 101.84 255.652C87.4158 256.211 73.1054 254.255 58.7996 254.132C57.8412 255.477 57.0443 256.605 56.1365 257.908C59.4622 257.874 62.5307 257.8 65.5894 257.818C79.5328 257.877 93.473 257.967 107.413 258.056C108.059 258.054 108.91 258.301 109.345 257.971C111.466 256.394 113.616 257.438 115.748 257.633C119.57 257.998 123.349 258.76 127.159 258.8C145.752 258.961 164.138 256.87 182.274 252.368C188.973 250.701 195.674 249.589 202.547 251.343C205.781 252.162 209.143 252.655 212.474 253.006C214.573 253.229 216.932 253.46 218.837 252.756C222.489 251.396 225.918 249.384 229.442 247.627L229.408 247.655ZM129.159 323.043C129.023 322.876 128.92 322.682 128.784 322.516C126.11 323.657 123.411 324.735 120.787 325.974C111.154 330.498 101.548 335.057 91.9695 339.648C87.8199 341.641 83.7183 343.76 79.5791 345.8C78.4751 346.346 77.8183 347.025 78.0986 348.437C82.4173 346.445 86.6044 344.533 90.7779 342.604C94.9851 340.648 99.042 338.37 103.485 336.944C97.1175 340.843 90.4462 344.13 83.6518 347.128C82.3618 347.687 81.0582 348.23 79.8025 348.901C79.3467 349.136 79.0854 349.713 78.732 350.143C78.8816 350.326 78.9976 350.537 79.1168 350.717C80.6467 350.072 82.1869 349.473 83.676 348.778C91.1718 345.259 98.6541 341.723 106.136 338.187C112.244 335.281 118.471 332.554 123.236 327.245C118.084 328.976 113.788 332.48 108.584 333.975C108.802 333.379 109.097 332.913 109.55 332.708C114.243 330.519 118.971 328.441 123.624 326.202C125.535 325.299 127.309 324.09 129.162 323.012L129.159 323.043ZM78.7591 352.487C79.6814 352.925 80.262 353.394 80.9017 353.453C82.7839 353.687 84.5114 353.352 86.2734 352.404C90.7964 349.938 95.3052 347.316 100.112 345.507C103.142 344.352 105.465 342.608 107.757 340.584C108.401 340.027 109.014 339.467 109.617 338.86C110.032 338.436 110.375 337.959 110.799 337.443C100.146 342.445 89.672 347.355 78.7455 352.47L78.7591 352.487ZM192.239 327.598L208.998 310.032C202.959 315.471 196.475 320.469 192.239 327.598ZM258.67 266.628L258.478 265.979C252.678 269.746 247.188 273.926 241.902 278.356C242.052 278.539 242.199 278.752 242.331 278.949C247.768 274.841 253.221 270.719 258.657 266.611L258.67 266.628ZM64.4114 328.07C67.1011 326.499 69.4939 325.116 72.4099 323.442C68.7789 323.31 66.5 325.211 63.7502 326.192C63.9866 326.86 64.1647 327.354 64.4283 328.056L64.4114 328.07ZM78.4792 326.384C78.3943 326.315 78.2958 326.229 78.194 326.173C76.2433 327.304 74.2279 328.321 72.386 329.585C70.6252 330.81 68.1654 330.801 67.0214 333.022C70.8417 330.799 74.6452 328.59 78.4792 326.384Z" fill="#FADAAB" fill-opacity="0.6"/>
<path d="M163.917 286.824C164.596 286.348 165.245 285.869 165.924 285.393C166.005 285.492 166.053 285.62 166.117 285.733C165.407 286.068 164.667 286.4 163.941 286.749L163.89 286.791L163.917 286.824Z" fill="#FADAAB" fill-opacity="0.6"/>
<path d="M183.471 309.912C193.885 301.91 204.298 293.909 214.698 285.89C220.633 281.303 226.49 276.586 232.465 272.048C244.335 263.012 255.907 253.611 268.169 245.056C281.985 235.415 296.236 226.582 311.127 218.776C316.699 215.877 322.056 212.543 327.591 209.563C334.616 205.798 341.757 202.243 348.816 198.589C351.066 197.428 353.344 196.3 355.502 194.993C365.668 188.889 376.405 184.036 387.335 179.523C393.128 177.135 398.764 174.349 404.468 171.784C407.522 170.405 410.613 169.106 413.853 168.128C411.697 169.129 409.527 170.113 407.37 171.113C396.046 176.312 384.701 181.417 373.427 186.712C368.678 188.934 364.128 191.575 359.439 193.941C352.339 197.545 345.199 201.1 338.085 204.687C336.661 205.417 335.237 206.147 333.853 206.926C321.977 213.58 310.09 220.187 298.267 226.907C287.747 232.887 277.458 239.287 267.694 246.503C260.289 251.969 252.779 257.272 245.468 262.855C238.759 267.97 232.33 273.465 225.63 278.627C213.214 288.197 200.706 297.62 188.222 307.106C186.756 308.232 185.246 309.338 183.767 310.447C183.678 310.269 183.576 310.076 183.471 309.912Z" fill="#FADAAB" fill-opacity="0.6"/>
<path d="M195.433 303.754C195.874 303.195 196.221 302.521 196.755 302.109C203.217 297.28 209.662 292.465 216.178 287.702C225.25 281.054 234.375 274.473 243.447 267.825C252.616 261.124 261.636 254.242 270.91 247.704C277.273 243.235 283.926 239.191 290.475 234.985C293.545 233.009 296.659 231.052 299.82 229.222C311.015 222.739 322.223 216.272 333.456 209.868C336.288 208.254 339.29 206.917 342.394 205.773C339.803 207.271 337.243 208.772 334.652 210.27C322.833 217.157 310.919 223.928 299.191 230.962C290.272 236.318 281.55 241.984 272.787 247.6C270.193 249.267 267.834 251.324 265.332 253.137C254.043 261.225 242.743 269.266 231.484 277.356C224.944 282.055 218.415 286.801 211.915 291.55C206.395 295.575 200.929 299.666 195.436 303.724L195.433 303.754Z" fill="#FADAAB" fill-opacity="0.6"/>
<path d="M104.637 379.211C105.5 378.138 106.265 376.98 107.223 376.024C123.343 359.537 139.791 343.417 158.205 329.368C157.639 329.945 157.114 330.573 156.521 331.117C149.407 337.651 142.184 344.052 135.222 350.738C129.228 356.514 123.575 362.675 117.648 368.535C114.129 372.02 110.374 375.284 106.703 378.617C106.23 379.035 105.633 379.333 105.093 379.667C104.958 379.501 104.776 379.346 104.64 379.18L104.637 379.211Z" fill="#FADAAB" fill-opacity="0.6"/>
<path d="M168.143 317.312C169.978 315.715 171.796 314.131 173.631 312.534C180.442 306.666 187.135 300.617 194.109 294.947C201.518 288.919 209.089 283.089 216.819 277.489C224.1 272.232 231.742 267.453 239.145 262.344C245.854 257.725 252.665 253.3 258.951 248.058C263.027 244.641 267.457 241.624 271.736 238.455C272.168 238.126 272.665 237.911 273.256 237.811C265.554 243.721 257.943 249.777 250.107 255.521C244.605 259.56 238.809 263.204 233.162 267.03C228.504 270.18 223.846 273.329 219.241 276.545C207.462 284.736 196.717 294.266 185.732 303.467C180.012 308.269 174.154 312.935 168.38 317.671C168.302 317.541 168.224 317.411 168.159 317.298L168.143 317.312Z" fill="#FADAAB" fill-opacity="0.6"/>
<path d="M158.366 323.358C160.51 321.145 162.665 318.979 164.783 316.732C173.903 307.101 184.099 298.688 194.512 290.541C201.592 285.005 208.942 279.8 216.171 274.447C218.79 272.507 221.454 270.587 224.316 268.947C220.348 272.082 216.409 275.22 212.413 278.323C207.955 281.751 203.474 285.116 199.002 288.528C184.824 299.338 171.736 311.384 158.821 323.676C158.679 323.571 158.538 323.466 158.383 323.344L158.366 323.358Z" fill="#FADAAB" fill-opacity="0.6"/>
<path d="M230.51 266.376C258.538 243.732 287.775 222.811 319.072 204.937C288.343 223.647 259.12 244.584 230.51 266.376Z" fill="#FADAAB" fill-opacity="0.6"/>
<path d="M373.616 183.57C348.324 196.438 322.588 208.45 299.483 222.657C306.374 217.339 315.082 212.497 324.025 208.044C327.875 206.122 331.68 204.042 335.312 201.716C340.57 198.355 346.41 196.293 351.954 193.558C355.057 192.028 358.113 190.372 361.267 188.939C365.356 187.07 369.489 185.359 373.599 183.583L373.616 183.57Z" fill="#FADAAB" fill-opacity="0.6"/>
<path d="M137.141 341.802C125.658 353.824 114.192 365.831 102.723 377.869C102.567 377.747 102.426 377.642 102.27 377.52C103.9 375.427 105.5 373.33 107.161 371.239C115.965 360.232 126.717 351.201 136.641 341.326C136.806 341.495 136.958 341.647 137.124 341.816L137.141 341.802Z" fill="#FADAAB" fill-opacity="0.6"/>
<path d="M194.254 298.166C203.894 290.546 212.953 281.936 223.812 275.64C223.411 276.11 223.091 276.679 222.625 277.036C213.18 284.106 203.725 291.129 194.254 298.166Z" fill="#FADAAB" fill-opacity="0.6"/>
<path d="M88.9817 396.032C91.8272 391.327 95.3219 387.142 99.5369 383.53C96.2384 387.887 92.9431 392.213 89.6446 396.57C89.418 396.395 89.1915 396.221 88.9649 396.046L88.9817 396.032Z" fill="#FADAAB" fill-opacity="0.6"/>
<path d="M319.695 207.335C323.718 205.243 327.753 203.168 331.776 201.076C331.83 201.142 331.837 201.22 331.891 201.286C327.866 203.409 323.823 205.545 319.784 207.65C319.75 207.539 319.733 207.415 319.699 207.304L319.695 207.335Z" fill="#FADAAB" fill-opacity="0.6"/>
<path d="M308.485 214.805C310.719 213.519 312.939 212.215 315.19 210.915C312.956 212.201 310.736 213.505 308.485 214.805Z" fill="#FADAAB" fill-opacity="0.6"/>
<path d="M275.506 235.747C276.86 234.963 278.215 234.18 279.539 233.393C279.566 233.427 279.593 233.46 279.634 233.51L275.715 235.796C275.715 235.796 275.597 235.755 275.523 235.733L275.506 235.747Z" fill="#FADAAB" fill-opacity="0.6"/>
<path d="M282.081 231.305C283.257 230.613 284.463 229.924 285.639 229.232C285.666 229.266 285.693 229.299 285.72 229.332C284.578 229.996 283.419 230.674 282.276 231.338L282.097 231.291L282.081 231.305Z" fill="#FADAAB" fill-opacity="0.6"/>
<path d="M188.354 302.492C188.989 302.135 189.611 301.762 190.263 301.391C190.29 301.424 190.317 301.457 190.344 301.491C189.709 301.848 189.07 302.235 188.435 302.592C188.408 302.559 188.381 302.526 188.354 302.492Z" fill="#FADAAB" fill-opacity="0.6"/>
<path d="M195.439 303.644C194.748 304.102 194.073 304.548 193.368 304.99C193.341 304.957 193.314 304.923 193.287 304.89C193.989 304.478 194.707 304.053 195.423 303.657L195.439 303.644Z" fill="#FADAAB" fill-opacity="0.6"/>
<path d="M185.266 304.955C185.609 304.755 185.952 304.556 186.296 304.356C186.309 304.373 186.336 304.406 186.35 304.423C186.007 304.622 185.663 304.822 185.32 305.021C185.307 305.004 185.28 304.971 185.266 304.955Z" fill="#FADAAB" fill-opacity="0.6"/>
<path d="M113.054 418.285C115.898 412.162 118.773 406.042 121.59 399.886C123.491 395.708 124.946 391.257 127.281 387.334C130.211 382.419 132.08 376.96 135.693 372.4C138.777 368.499 141.176 364.104 144.161 360.117C149.36 353.195 155.205 346.825 161.857 341.236C163.928 339.503 165.984 337.753 168.055 336.02C168.177 336.17 168.299 336.319 168.424 336.439C165.663 339.185 162.973 341.984 160.158 344.664C152.619 351.817 145.981 359.73 140.064 368.217C136.953 372.669 134.238 377.435 131.776 382.27C126.163 393.23 120.843 404.309 115.332 415.325C114.783 416.444 114.537 417.898 112.963 418.276L113.024 418.282L113.054 418.285Z" fill="#FADAAB" fill-opacity="0.6"/>
<path d="M162.091 354.506C159.693 357.593 157.308 360.696 154.909 363.783C156.584 360.154 159.138 357.188 161.635 354.187C161.777 354.293 161.933 354.414 162.075 354.52L162.091 354.506Z" fill="#FADAAB" fill-opacity="0.6"/>
<path d="M157.238 366.517C157.667 364.527 159.282 363.474 160.403 362.023C160.558 362.145 160.727 362.283 160.883 362.405C159.633 363.767 158.414 365.132 157.164 366.494L157.238 366.517Z" fill="#FADAAB" fill-opacity="0.6"/>
<path d="M157.193 366.493C156.834 367.122 156.476 367.751 156.134 368.365C155.992 368.26 155.836 368.138 155.694 368.033C156.208 367.526 156.736 367.036 157.267 366.515L157.193 366.493Z" fill="#FADAAB" fill-opacity="0.6"/>
<path d="M157.044 352.716C156.654 353.204 156.294 353.694 155.904 354.182C155.806 354.096 155.704 354.04 155.606 353.955C155.949 353.478 156.278 352.985 156.638 352.495C156.783 352.569 156.915 352.627 157.044 352.716Z" fill="#FADAAB" fill-opacity="0.6"/>
<path d="M217.425 309.873C215.18 312.47 213.031 315.184 210.648 317.645C204.696 323.738 199.44 330.371 195.252 337.795C194.057 339.918 192.89 342.075 191.899 344.31C186.434 356.791 182.673 369.736 180.524 383.136C179.325 390.634 177.87 398.092 176.354 405.545C175.695 408.842 174.763 412.113 173.698 415.327C170.864 423.891 168.254 432.522 163.839 440.495C162.567 442.765 161.994 445.408 161.085 447.881C160.844 448.552 160.56 449.203 160.242 450.021C158.949 449.025 159.388 447.941 159.698 447.045C160.686 444.118 161.634 441.14 162.917 438.332C169.592 423.713 174.683 408.672 177.147 392.76C178.998 380.718 181.123 368.701 184.904 357.02C188.994 344.444 194.882 332.895 204.136 323.224C208.044 319.147 211.854 314.984 215.708 310.84C216.142 310.372 216.603 309.937 217.065 309.501C217.19 309.621 217.316 309.74 217.441 309.859L217.425 309.873Z" fill="#FADAAB" fill-opacity="0.6"/>
<path d="M208.843 335.017C206.256 339.37 203.379 343.573 201.128 348.096C198.076 354.224 195.031 360.43 192.836 366.883C188.791 378.726 186.496 391.023 183.846 403.195C183.206 406.17 182.251 409.071 181.432 412C181.235 411.966 181.025 411.916 180.812 411.897C180.83 411.298 180.787 410.693 180.896 410.102C183.416 395.393 186.178 380.736 190.995 366.56C194.87 355.163 200.508 344.681 208.093 335.271C208.234 335.1 208.447 334.98 208.618 334.811L208.846 334.986L208.843 335.017Z" fill="#FADAAB" fill-opacity="0.6"/>
<path d="M198.495 358.121C198.51 358.554 198.675 359.031 198.531 359.372C194.701 367.727 193.2 376.756 190.415 385.421C190.301 385.765 190.187 386.109 190.054 386.497C189.884 386.359 189.663 386.261 189.683 386.217C191.934 377.518 193.527 368.636 197.378 360.376C197.736 359.608 198.167 358.892 198.57 358.143L198.495 358.121Z" fill="#FADAAB" fill-opacity="0.6"/>
<path d="M198.409 358.144C198.633 357.487 198.87 356.846 199.094 356.189C199.254 356.281 199.43 356.358 199.589 356.45C199.175 357.013 198.748 357.559 198.334 358.121L198.409 358.144Z" fill="#FADAAB" fill-opacity="0.6"/>
<path d="M174.869 269.546C157.499 271.161 140.342 274.521 122.95 275.903C126.678 273.117 165.253 268.404 174.869 269.546Z" fill="#FADAAB" fill-opacity="0.6"/>
<path d="M44.163 272.732C44.596 272.571 45.0252 272.302 45.4724 272.296C50.9845 272.168 56.5102 272.057 62.0327 271.976C62.3715 271.976 62.7142 272.084 63.0581 272.47C60.2942 272.68 57.544 272.906 54.7833 273.086C52.0701 273.254 49.3601 273.391 46.6365 273.512C45.7083 273.551 44.706 273.706 44.1728 272.64L44.1325 272.729L44.163 272.732Z" fill="#FADAAB" fill-opacity="0.6"/>
</svg>
