<svg width="153" height="699" viewBox="0 0 153 699" fill="none" xmlns="http://www.w3.org/2000/svg">
<path d="M-8.1174 388.933C-9.07566 387.51 -10.3806 386.366 -11.818 385.34C-13.5385 384.12 -14.8763 382.611 -16.2764 381.101C-18.0526 379.195 -18.2474 377.835 -17.8277 376.625C-17.092 374.497 -15.882 372.755 -14.1991 371.436C-11.6918 369.476 -9.22088 367.461 -6.46295 365.766C-3.73281 364.098 -1.39814 362.075 0.679378 359.802C1.3376 359.084 2.1161 358.477 2.82871 357.81C2.98891 357.665 3.0832 357.461 3.30162 357.124C2.74476 357.017 2.43589 356.945 2.15835 356.907C1.88081 356.868 1.61155 356.846 1.36208 356.847C-6.56095 357.04 -15.2563 355.912 -23.3431 355.82C-26.2811 355.787 -29.0736 355.978 -32.0083 355.937C-34.8544 355.907 -37.7152 355.876 -41.0197 354.988C-42.0154 354.722 -42.3677 354.475 -42.6246 353.552C-42.9433 352.393 -43.1008 351.289 -43.2353 350.202C-43.387 348.95 -43.4828 347.712 -43.4946 346.528C-43.5056 345.544 -43.4261 344.599 -43.2774 343.707C-43.0759 342.532 -42.7756 341.412 -42.4614 340.095C-39.6574 340.283 -36.6644 340.499 -33.6996 340.676C-27.8174 341.031 -21.773 341.707 -15.6922 342.439C-10.8201 343.029 -6.5432 342.62 -2.29263 342.201C1.51992 341.822 4.92959 340.903 8.54231 340.25C10.9021 339.819 13.5295 339.751 16.0247 339.498C20.2013 339.071 24.9402 339.579 29.4178 339.643C31.7649 339.677 33.6234 339.086 35.3138 338.322C36.1213 337.954 36.3843 336.949 36.7499 336.125C37.9378 333.456 39.0218 330.709 40.2097 328.04C40.6338 327.09 41.1963 326.244 41.767 325.413C43.0323 323.551 44.4557 321.818 45.6288 319.887C48.2389 315.589 51.1422 311.53 54.7936 308.139C57.7176 305.413 60.991 303.007 64.9602 301.315C70.2464 299.061 75.5128 296.782 80.7198 294.43C82.0744 293.82 83.2046 292.956 84.3514 292.123C86.2785 290.712 88.5916 289.744 91.1488 289.054C91.539 288.95 92.0332 288.991 92.4629 288.935C93.2208 288.843 93.9736 288.727 94.9889 288.582C96.486 289.378 98.114 290.832 99.6424 292.4C101.941 294.756 104.223 297.148 106.454 299.549C107.379 300.539 108.177 301.604 109.038 302.632C109.508 303.195 110.008 303.761 110.624 304.48C110.429 305.405 109.718 306.035 108.853 306.492C107.07 307.424 105.177 308.225 103.374 309.132C100.719 310.468 98.0615 311.812 95.501 313.248C92.7425 314.809 90.012 316.411 87.4102 318.138C84.4238 320.125 81.594 322.277 78.6818 324.339C77.0866 325.469 75.3662 326.467 73.9028 327.715C70.291 330.785 66.7714 333.925 64.5438 338.236C62.4285 342.339 60.4087 346.504 59.3784 351.386C58.2547 356.671 58.1789 362.48 59.9211 369.298C62.0591 377.647 64.9825 386.179 69.5802 395.157C70.7806 397.502 72.1878 399.87 73.5655 402.234C77.9055 409.72 82.7772 417.199 87.649 424.678C91.9588 431.288 94.9775 437.665 97.0635 443.908C97.4827 445.153 97.8229 446.366 98.2157 447.6C98.9148 449.785 98.0015 450.718 96.3998 451.123C96.0457 451.216 95.5926 451.187 95.2385 451.281C94.5696 451.45 93.9371 451.675 93.2765 451.86C93.0061 451.94 92.7082 452.114 92.3842 451.974C91.5028 451.595 91.1807 451.854 90.9297 452.262C90.8629 452.373 90.7615 452.458 90.6717 452.551C89.8494 453.287 88.945 452.891 87.9199 451.209C86.9841 449.67 86.1763 448.123 85.4063 446.596C83.6659 443.134 81.5005 439.683 79.2627 436.188C75.3986 430.159 71.6214 424.111 68.0511 418.087C66.1742 414.92 64.6451 411.74 63.2476 408.612C61.1555 403.928 59.3081 399.286 57.3573 394.632C57.1051 394.035 56.8678 393.439 56.3428 392.76C56.7339 394.334 57.0197 395.866 57.5456 397.485C59.4246 403.335 61.4122 409.22 63.306 415.072C64.614 419.099 66.0008 423.157 67.0951 427.109C68.4714 432.097 69.5961 436.991 70.7702 441.913C71.1734 443.628 71.4007 445.287 71.6576 446.95C71.8586 448.229 70.7032 448.61 69.184 447.627C67.3175 446.42 65.4878 445.032 63.6438 443.71C62.7349 443.054 62.3116 442.356 62.0914 441.555C61.1189 438.046 60.0758 434.521 59.0918 431.004C57.6608 425.898 55.5808 420.617 53.3364 415.287C50.8184 409.306 48.2001 403.306 45.5818 397.307C45.2419 396.529 44.6868 395.713 44.0682 394.631C43.8627 394.941 43.7285 395.03 43.7014 395.189C43.1656 398.7 42.6413 402.219 42.1433 405.748C42.0369 406.549 42.0491 407.43 42.0645 408.304C42.1044 411.007 42.1591 413.711 42.2369 416.433C42.3248 419.2 42.4652 421.988 42.5794 424.765C42.7059 427.751 42.8473 430.738 42.9277 433.689C42.9416 434.231 42.7912 434.724 42.5104 435.062C42.1365 435.501 41.5956 435.292 40.703 434.601C39.3096 433.514 38.7191 432.472 38.9017 431.472C37.7605 430.613 36.6885 429.805 35.6114 428.975C34.722 428.277 33.8031 427.575 32.979 426.803C32.6527 426.5 32.4221 425.957 32.327 425.592C31.8859 423.857 31.5271 422.146 31.0976 420.42C30.0932 416.375 29.0477 412.318 28.0695 408.284C27.7618 407 27.635 405.795 27.4325 404.553C27.3834 404.222 27.3459 403.9 27.1142 403.46C27.0231 403.657 26.8943 403.835 26.8378 404.058C26.3392 406.715 25.765 409.334 25.385 412.071C24.8888 415.63 25.2069 419.613 26.1336 423.893C26.308 424.726 25.9917 424.838 25.139 424.263C23.2112 422.953 21.2608 421.692 19.3721 420.298C18.086 419.349 16.8697 418.215 15.6847 417.114C15.3469 416.802 15.0933 416.242 15.0244 415.887C14.8598 415.033 14.2063 414.228 13.3843 413.552C11.4669 411.985 9.59354 410.356 7.48846 409.026C5.7307 407.92 4.03026 406.422 2.3174 405.084C1.97158 404.824 1.65501 404.5 1.29944 404.261C0.464735 403.68 -0.0273815 402.996 -0.442669 402.247C-0.719035 401.736 -1.08408 401.215 -1.52213 400.515C-1.06669 398.489 0.659411 397.278 1.34893 395.115C-0.0831036 394.918 -1.10432 394.101 -2.04899 392.783C-2.42555 392.253 -3.07433 391.774 -3.50292 391.356C-4.25307 391.332 -4.93553 391.396 -5.71082 391.257C-6.68974 391.089 -6.78551 390.96 -7.52121 389.761C-6.43852 390.747 -5.61507 391.017 -4.8194 390.573C-4.25783 390.267 -3.73585 389.911 -3.23693 389.538C-0.142366 387.149 2.89781 384.71 6.03523 382.363C8.32202 380.645 10.7259 379.044 13.067 377.377C13.3271 377.184 13.5739 376.953 13.6874 376.64C15.1338 372.707 17.8306 369.8 20.2456 366.663C20.665 366.126 21.0959 365.597 21.5384 365.078C22.9946 363.341 24.4426 361.588 25.9104 359.86C26.4802 359.2 27.1423 358.608 27.7352 357.965C27.9524 357.731 28.0659 357.418 28.2288 357.133C22.7608 359.109 18.2291 362.017 13.6316 364.866C14.0312 364.304 14.4935 363.809 15.0811 363.446C17.6605 361.835 20.2085 360.191 22.91 358.719C24.6063 357.807 26.5218 357.127 28.4342 356.454C29.3584 356.136 30.0512 355.445 30.0456 354.18C28.1628 354.117 26.5522 354.373 25.1566 354.971C23.8904 355.524 22.4164 355.855 21.0364 356.284C20.5856 356.418 20.092 356.511 19.6726 356.679C18.1096 357.302 16.5748 357.966 15.0118 358.589C14.6858 358.723 14.4047 358.994 13.4701 358.461C14.3092 357.823 15.0567 357.249 15.7927 356.666C14.1942 356.694 12.7672 356.889 11.3683 357.124C10.9977 357.186 10.6849 357.358 10.4248 357.551C8.14426 359.188 5.85215 360.817 3.62596 362.504C2.44991 363.4 1.4107 364.437 0.246173 365.342C-1.62003 366.789 -3.61805 368.118 -5.44138 369.606C-8.17388 371.851 -11.1916 373.805 -14.2324 375.741C-15.1554 376.326 -15.902 377.1 -16.68 377.84C-16.9365 378.093 -17.1384 378.462 -16.442 379.308C-16.2186 378.993 -16.0244 378.742 -15.8648 378.464C-15.4332 377.699 -14.5876 377.417 -13.3291 377.72C-12.2381 377.983 -11.7487 377.697 -11.4546 377.028C-10.4586 374.774 -8.81672 373.073 -6.88491 371.618C-4.64718 369.939 -2.50671 368.168 -0.300317 366.456C0.187066 366.074 0.763433 365.769 1.31348 365.454C1.84225 365.151 2.41889 364.912 2.93614 364.6C5.62371 362.957 8.29653 361.312 10.9726 359.66C11.2738 359.479 11.4907 359.178 12.2935 359.593C12.3162 360.283 11.8099 360.471 11.3991 360.72C9.88817 361.601 8.3261 362.424 6.83497 363.329C4.97556 364.459 3.12444 365.605 1.35903 366.834C-0.754856 368.312 -2.78303 369.874 -4.82272 371.428C-7.02764 373.103 -9.09748 374.889 -10.5032 377.29C-10.7491 377.72 -11.0609 378.092 -11.3958 378.446C-12.3481 379.463 -13.3202 380.456 -14.2725 381.473C-14.3313 381.533 -14.2813 381.694 -14.2955 381.825C-14.0171 382.064 -13.7386 382.302 -13.4717 382.531C-13.3095 382.483 -13.1848 382.482 -13.1227 382.415C-10.6391 379.936 -8.10432 377.514 -5.70641 374.951C-2.37748 371.383 0.888796 367.75 5.53303 365.438C1.02774 369.096 -3.23372 372.965 -6.53012 377.202C-4.39644 375.378 -2.013 373.25 0.475952 371.229C2.33535 369.73 4.32656 368.349 6.29148 366.957C8.32024 365.528 10.3688 364.124 12.4718 362.77C13.7581 361.938 15.1697 361.238 16.5385 360.497C16.6629 360.43 16.9555 360.536 17.1624 360.559L17.1689 360.545C15.4981 361.637 13.7761 362.672 12.1712 363.823C8.84046 366.252 5.54432 368.707 2.28778 371.21C0.446114 372.638 -1.2983 374.158 -3.04597 375.685C-4.71679 377.146 -6.35304 378.634 -7.93489 380.172C-9.04444 381.26 -10.0485 382.456 -11.0954 383.61C-11.2227 383.751 -11.3238 383.902 -11.4837 384.114C-10.8858 384.602 -10.3735 385.007 -9.71796 385.538C-7.91266 383.685 -6.13337 381.889 -4.37713 380.074C-2.52779 378.16 -0.844871 376.101 1.1561 374.329C3.74554 372.024 6.58711 369.947 9.31665 367.776C6.13608 370.754 2.71818 373.506 -0.393224 376.536C-3.50788 379.573 -6.31601 382.888 -9.26425 386.07L-8.87913 386.312C-8.61754 387.192 -8.35593 388.071 -8.09759 388.957L-8.1174 388.933ZM-31.5672 347.759C-31.1974 347.867 -30.7895 348.061 -30.4694 348.074C-27.4094 348.247 -24.2684 348.547 -21.334 348.52C-17.0538 348.474 -12.9191 348.205 -8.74478 347.984C-6.24574 347.857 -3.81439 347.642 -1.35171 347.459C-0.964518 347.428 -0.625206 347.333 -0.269339 347.27C-0.652699 347.057 -0.923741 347.004 -1.1667 346.992C-6.2768 346.782 -11.3819 346.595 -16.492 346.386C-22.3933 346.139 -28.2997 345.87 -34.1978 345.617C-35.8459 345.551 -37.4825 345.494 -39.1057 345.475C-39.7705 345.467 -40.3427 345.595 -40.9513 345.667C-33.8301 346.737 -26.9702 347.365 -20.3651 347.534C-22.4305 347.732 -24.5737 347.795 -26.745 347.818C-28.3369 347.833 -29.9421 347.808 -31.5539 347.798C-31.7445 347.74 -31.96 347.634 -32.1258 347.623C-35.0516 347.362 -37.984 347.115 -40.9098 346.855C-41.0429 346.84 -41.2335 346.781 -41.2891 346.834C-41.4247 346.96 -41.4945 347.144 -41.584 347.304C-38.1406 347.689 -34.9544 347.824 -31.7764 347.943C-31.6697 347.948 -31.6408 347.818 -31.5672 347.759ZM53.474 361.495C53.3177 361.397 53.1645 361.291 53.0082 361.192C52.973 361.402 52.8852 361.592 52.8994 361.83C53.0437 364.374 53.1995 366.927 53.3701 369.482C53.3846 369.787 53.5389 370.159 53.6291 370.501C53.9745 368.108 53.5633 365.334 53.5157 362.749C53.6709 363.321 53.905 363.924 53.9615 364.44C54.375 368.116 54.7656 371.774 55.1413 375.431C55.5117 378.999 56.8915 382.938 58.1873 386.823C59.4465 390.586 60.985 394.417 62.7257 398.316C64.7582 402.86 66.7199 407.389 69.1269 411.998C73.6427 420.649 78.4441 429.288 84.4899 437.992C85.927 440.06 87.2985 442.136 88.5928 444.21C89.6078 445.846 90.4685 447.48 91.3621 449.11C91.5722 449.496 91.6379 449.858 91.7741 450.235C91.6707 450.224 91.559 450.197 91.4588 450.178C91.196 449.772 90.9184 449.364 90.6672 448.966C89.1198 446.464 87.6709 443.951 85.9988 441.451C81.5906 434.851 77.1708 428.244 73.68 421.644C70.7106 416.033 67.5736 410.382 64.9672 404.828C62.4071 399.374 59.8634 393.885 58.1954 388.62C57.2864 385.747 56.3627 382.871 55.4242 379.994C55.3344 379.718 55.1886 379.428 55.0577 379.14C55.024 380.792 55.0823 382.447 55.5615 384.267C56.5582 388.06 57.8919 391.965 59.5099 395.96C61.0466 399.761 62.4634 403.52 64.6128 407.442C64.8147 407.812 64.8721 408.158 65 408.52C65.0394 408.872 64.9489 409.202 65.136 409.57C67.0419 413.346 68.746 417.122 70.9868 420.914C74.3422 426.597 78.1244 432.298 81.6489 437.985C83.1962 440.486 84.586 442.993 85.9676 445.483C86.9007 447.162 87.6943 448.84 88.5684 450.512C88.7141 450.802 88.9928 451.107 89.2686 451.485C89.5647 450.912 89.5385 450.902 89.2683 450.31C87.561 446.541 85.1905 442.728 82.8347 438.916C79.7533 433.951 76.5356 428.978 73.5577 424.025C71.2114 420.126 69.1145 416.225 66.9521 412.331C66.3515 411.244 65.9051 410.159 65.3932 409.081C65.5401 409.268 65.7313 409.459 65.8339 409.641C67.5231 412.676 69.2895 415.712 70.8605 418.734C73.4959 423.789 76.906 428.85 80.0994 433.908C82.6316 437.91 85.113 441.921 87.5418 445.911C88.4412 447.394 89.1568 448.871 89.9827 450.412C91.0411 450.375 92.7013 451.322 92.8857 449.983C92.5104 449.349 92.072 448.583 91.5894 447.812C88.5348 442.991 85.3916 438.16 82.4143 433.339C78.6137 427.208 74.9314 421.089 71.6053 414.973C66.9271 406.37 63.0967 397.951 60.2502 389.723C57.7413 382.478 55.543 375.336 54.9097 368.775C54.6981 366.578 54.437 364.353 54.3734 362.239C54.2903 359.798 54.3964 357.452 54.4383 355.076C54.4442 354.929 54.5489 354.837 54.6157 354.726C54.6547 355.012 54.7431 355.324 54.7443 355.591C54.7594 360.094 55.092 364.751 55.6747 369.54C56.4486 375.999 58.4719 382.915 60.9785 389.996C62.2184 393.498 63.9104 397.132 65.2999 400.681C67.6126 406.602 70.7513 412.652 74.2102 418.717C78.468 426.179 83.0722 433.664 88.0326 441.153C89.88 443.947 91.4927 446.744 93.2268 449.548C93.3326 449.722 93.4976 449.903 93.6924 450.154C94.1023 450.075 94.4499 449.995 94.8205 449.933C94.3657 449.136 93.977 448.464 93.6178 447.795C93.267 447.143 92.7781 446.452 92.6244 445.844C92.7246 445.862 92.8133 445.872 92.9135 445.891C93.7086 447.162 94.5037 448.434 95.3103 449.714C95.9966 449.776 95.6845 449.342 95.4678 448.971C94.201 446.804 92.9046 444.633 91.6853 442.464C89.9036 439.293 88.1989 436.123 86.4237 432.938C81.9865 424.99 77.5131 417.053 73.5405 409.143C69.5067 401.129 65.9905 393.24 63.0607 385.461C62.9345 385.129 62.8674 384.804 62.7855 384.477C63.16 384.911 63.3356 385.27 63.4816 385.627C65.8338 391.227 67.9857 396.79 70.8652 402.494C73.5278 407.759 76.0098 413.012 78.9269 418.298C84.3839 428.208 90.0986 438.132 95.7181 448.06C95.8869 448.367 96.1476 448.677 96.5407 449.239C96.9853 448.076 96.8599 446.835 96.1804 445.347C95.7462 444.404 95.1559 443.429 94.6215 442.467C90.9637 435.959 87.2731 429.455 83.6564 422.96C82.0532 420.075 80.5862 417.198 79.0569 414.321C78.9907 414.195 79.0016 414.071 78.983 413.943C79.2936 414.414 79.6601 414.899 79.9232 415.371C84.6625 423.708 89.4018 432.044 94.1412 440.38C94.3297 440.712 94.5742 441.057 94.9856 441.68C94.1914 438.76 91.8515 433.368 89.6214 429.755C86.0109 423.918 82.2609 418.08 78.5437 412.238C78.3817 411.983 78.077 411.735 77.8346 411.486C77.6661 411.245 77.4829 411.003 77.3555 410.775C75.3095 407.234 73.2404 403.676 71.2272 400.132C70.0792 398.111 68.9312 396.09 67.9129 394.091C62.6557 383.716 59.5857 373.955 57.5364 364.508C57.409 363.909 57.252 363.308 57.0983 362.699C57.1379 362.378 57.2301 362.078 57.2056 361.728C56.7861 355.243 57.6732 349.561 59.673 344.566C59.9132 343.979 60.1733 343.417 60.4367 342.848C58.9003 343.918 57.6176 345.179 57.1757 347.31C57.523 347.164 57.7376 347.07 58.0816 346.931C57.9324 347.321 57.8219 347.56 57.7459 347.825C56.4502 352.071 56.5186 357.098 56.8947 362.299C56.9083 362.404 57.0354 362.566 57.0983 362.699C57.0617 362.946 56.9493 363.156 56.9916 363.434C57.6594 369.651 58.8616 376.091 60.6098 382.762C60.7182 383.166 60.853 383.581 61.0026 383.997C62.148 387.266 63.3049 390.545 64.4618 393.823C65.9944 398.171 67.8853 402.619 70.2343 407.117C73.0104 412.44 75.9342 417.779 78.95 423.12C81.6416 427.886 84.2707 432.653 87.609 437.432C88.937 439.332 90.0534 441.254 91.098 443.263C90.8379 443.086 90.6981 443.019 90.6387 442.945C90.3878 442.614 90.1368 442.283 89.9187 441.948C86.9691 437.471 83.9507 433.009 81.3227 428.509C76.6753 420.545 72.1281 412.6 68.3559 404.726C66.0084 399.821 63.9352 394.962 62.1823 390.183C61.144 387.354 60.1762 384.54 59.4747 381.822C57.9279 375.758 56.9072 369.9 56.3207 364.246C55.9435 360.626 55.6535 357.053 56.0412 353.829C56.2247 352.289 56.3736 350.724 56.5592 348.912C56.3275 349.211 56.2246 349.333 56.1448 349.472C55.3918 350.629 54.991 352.033 54.8042 353.579C53.9004 353.316 54.1238 354.109 53.9104 354.47C52.8896 356.307 53.0667 358.848 53.4938 361.52L53.474 361.495ZM-41.6422 352.672L-41.6522 352.626C-41.5813 353.078 -41.4955 353.531 -41.4146 354.028C-39.8708 354.622 -38.7778 354.611 -37.6963 354.591C-34.2319 354.528 -30.8485 354.338 -27.3312 354.361C-24.0602 354.38 -20.9079 354.252 -17.9112 353.856C-14.383 353.386 -10.7622 353.051 -7.55445 352.132C-5.94154 351.669 -4.19828 351.361 -2.41364 351.132C0.499486 350.749 3.43242 350.389 6.47442 350.197C10.4927 349.945 14.6117 349.844 18.6977 349.68C19.0308 349.666 19.4233 349.724 19.796 349.759C19.8605 349.854 19.9249 349.95 19.9861 350.053C7.62715 350.326 -3.39903 352.456 -14.4367 354.577C-10.5852 354.853 -6.83764 354.984 -3.09839 355.099C-1.5833 355.15 -0.0912674 355.184 1.42057 355.242C6.01521 355.424 10.5569 355.518 14.2577 354.372C16.885 353.565 19.3935 352.611 22.1281 351.941C24.725 351.301 26.2291 349.628 27.7314 347.926C27.8621 347.778 27.8839 347.529 28.0412 347.088C26.2249 347.218 24.7536 347.408 22.9234 346.996C23.2654 346.761 23.7049 346.685 24.184 346.657C25.3654 346.59 26.5666 346.546 27.748 346.479C28.2271 346.451 28.7919 346.507 28.7195 345.723C27.7391 345.591 26.8225 345.422 25.9639 345.363C24.8655 345.284 23.8136 345.307 22.7351 345.253C22.4478 345.236 21.82 345.047 21.7836 344.991C21.4724 344.387 21.1458 344.388 20.8094 344.409C18.9603 344.542 17.3539 344.991 15.9804 345.776C16.9224 345.756 17.8727 345.751 18.8146 345.731L18.9518 345.938C15.5796 346.441 12.2075 346.943 8.83862 347.438C8.91458 347.543 8.99055 347.648 9.06651 347.752L18.0169 347.187C17.8674 347.51 17.5493 347.593 17.2032 347.635C14.1899 348 11.2079 348.398 8.14672 348.699C4.30138 349.082 0.464304 349.481 -3.06064 350.313C-4.43621 350.632 -5.97022 350.756 -7.44481 350.954C-7.72856 350.996 -8.07674 350.942 -8.39683 350.928C-8.4728 350.824 -8.54878 350.719 -8.61321 350.623C-6.17478 349.787 -3.32875 349.448 -0.949735 348.539C-7.50841 348.84 -13.8489 349.476 -20.5516 349.517C-27.2722 349.563 -34.3665 349.006 -41.412 348.713C-41.4557 349.211 -41.5187 349.817 -41.5958 350.555C-39.9492 350.658 -38.5343 350.691 -37.0564 350.856C-32.4506 351.349 -28.1258 351.375 -23.9795 351.114C-20.9376 350.922 -17.9038 350.715 -14.8503 350.532C-14.2104 350.492 -13.5176 350.54 -12.8529 350.548C-12.9598 350.847 -13.1942 350.917 -13.465 350.931C-17.7637 351.218 -21.9865 351.611 -26.3713 351.749C-29.4301 351.842 -32.7352 351.561 -35.9279 351.441C-37.4874 351.384 -39.0104 351.384 -40.5997 351.258C-41.662 351.169 -41.98 351.621 -41.6159 352.682L-41.6422 352.672ZM35.5067 427.958C35.8738 428.206 36.2557 428.456 36.7413 428.784C36.726 428.279 36.7472 427.897 36.6896 427.484C36.2802 424.371 35.8823 421.266 35.4235 418.125C35.0002 415.209 34.7167 412.361 34.5269 409.546C34.3728 407.392 34.0379 405.159 34.068 403.078C34.0946 401.676 33.9551 400.197 34.3008 398.979C34.4528 398.449 34.417 397.787 34.4734 397.195C34.5003 396.969 34.5503 396.76 34.5887 396.542C34.8725 397.609 34.9505 398.549 34.8426 399.387C34.4673 402.45 34.4062 405.673 35.0805 409.29C35.1292 409.554 35.1434 409.792 35.1659 410.046C35.4698 412.682 35.7506 415.301 36.0956 417.949C36.5461 421.444 37.0345 424.958 37.4998 428.455C37.537 428.71 37.5101 428.936 37.5885 429.204C37.712 429.676 38.0806 429.887 38.5967 430.048C38.4326 428.958 38.2555 427.896 38.1163 426.853C37.8443 424.753 37.5493 422.635 37.33 420.556C37.102 418.394 36.9761 416.28 36.8008 414.139C36.6917 412.863 36.6846 411.635 36.4439 410.307C36.0588 408.216 36.0224 406.313 36.1636 404.495C36.1822 404.253 36.2996 404.067 36.3708 403.846C36.6022 404.219 36.6395 404.474 36.6652 404.721C37.111 408.999 37.5799 413.295 38.0026 417.556C38.2291 419.754 38.3388 421.903 38.5883 424.119C38.8907 426.792 39.2983 429.506 39.6534 432.199C39.7095 432.649 39.8443 433.063 40.4127 433.548C40.9696 434.025 41.4901 434.445 41.9831 434.219C41.9488 433.89 41.916 433.524 41.8749 433.143C41.6088 430.526 41.3165 427.898 41.0998 425.309C40.9369 423.376 40.8496 421.482 40.7739 419.596C40.6527 416.699 40.5577 413.813 40.4596 410.934C40.4587 410.734 40.5071 410.562 40.5145 410.378C40.5284 409.441 40.5307 408.495 40.5183 407.547C40.5139 406.919 40.4024 406.219 40.4704 405.635C40.8088 402.753 41.2278 399.932 41.5431 397.032C41.7406 395.295 41.9297 393.542 41.877 391.673C41.8087 389.234 41.3999 386.623 41.2937 384.164C41.1825 381.313 41.1272 378.476 41.9128 376.139C42.5834 374.152 43.254 372.164 43.9214 370.184C43.9814 370.021 44.0266 369.856 44.0603 369.682C44.081 369.537 44.0638 369.372 44.0614 369.209C41.7303 370.183 40.8652 372.355 39.9638 374.472C39.0396 376.638 38.1352 378.829 37.4826 381.18C36.838 383.481 36.5407 386.005 36.0838 388.438C35.6962 383.597 37.0729 379.848 37.9146 375.744C37.0457 377.051 36.2113 378.384 35.6107 379.884C34.3301 383.089 33.2685 386.46 31.9533 389.639C30.0094 394.278 29.2274 399.631 29.4214 405.596C29.4436 406.153 29.5349 406.762 29.7002 407.379C30.9154 411.943 32.1831 416.528 33.3951 421.099C33.8925 422.98 34.2996 424.822 34.7444 426.683C34.818 426.994 34.8275 427.276 34.957 427.601C34.9836 427.678 35.3421 427.844 35.5478 427.97L35.5067 427.958ZM13.5179 398.982C13.1026 399.342 12.5984 399.626 12.2984 400.073C11.7277 400.904 11.2574 401.819 10.7674 402.711C9.75451 404.497 9.39839 406.712 9.16434 409.066C9.51489 409.283 9.79303 409.454 10.0251 409.591C10.4249 407.618 10.6622 405.626 11.2436 403.865C11.8217 402.112 12.7554 400.597 13.5096 398.967C13.8108 398.047 15.5126 396.182 16.5459 395.662C13.4144 399.71 11.2986 404.419 10.8145 410.337C11.129 410.565 11.3333 410.728 11.5307 410.839C11.6755 410.929 11.8201 410.952 12.0042 411.025C12.3387 408.017 12.5648 404.974 13.7766 402.523C14.9851 400.078 15.9944 397.493 17.9821 395.682C17.5136 396.628 16.8838 397.452 16.4384 398.415C15.6386 400.144 15.0117 402.003 14.1659 403.697C13.0971 405.84 13.0916 408.64 12.7585 411.242C12.6888 411.796 13.0174 412.262 13.9136 412.643C14.3528 408.434 14.9763 404.364 16.2451 400.714C16.3377 400.85 16.3725 400.943 16.3696 401.016C16.1173 405.527 15.8682 410.03 15.6421 414.551C15.6194 414.97 15.6543 415.432 15.8124 415.93C15.9156 416.245 16.2245 416.686 16.5508 416.989C18.6668 418.933 20.9596 420.395 23.3209 421.775C23.3235 421.635 23.3608 421.521 23.3094 421.397C22.2222 418.673 22.1678 416.405 22.0326 414.076C21.8603 411.122 22.5569 408.709 23.028 406.145C23.0823 405.826 23.122 405.505 23.1648 405.177C22.4484 406.457 21.9261 407.855 21.5109 409.324C21.1054 410.772 20.7229 412.237 20.5232 413.811C20.3299 415.371 20.3654 417.076 20.3054 418.717C19.8612 417.729 19.4991 416.764 19.5319 416.021C19.6441 413.964 19.6938 411.841 20.2142 410.044C21.3293 406.154 22.7013 402.449 23.9926 398.683C24.2373 397.986 24.5973 397.376 24.8996 396.722L25.1186 396.887C24.6945 398.577 24.2704 400.267 23.8463 401.956C23.9501 402.035 24.0571 402.106 24.1641 402.177C24.6677 401.021 25.1598 399.856 25.6602 398.707C25.8461 399.179 25.8065 399.5 25.7356 399.788C24.9394 403.054 24.074 406.269 23.3617 409.59C22.7458 412.434 22.8094 415.656 23.3205 419.121C23.4542 420.008 23.7539 420.973 24.0305 421.921C24.0855 422.104 24.3953 422.376 24.859 422.952C24.7062 421.804 24.5942 420.971 24.4706 420.13C23.6293 414.018 24.2097 408.731 25.6227 403.929C26.035 402.534 26.4653 401.133 27.0884 399.887C27.5113 399.04 27.6431 398.049 27.7764 397.022C28.009 395.074 28.2859 393.132 28.8625 391.415C29.9233 388.214 31.2787 385.217 32.3888 382.044C33.6026 378.58 34.8971 375.177 37.0991 372.466C38.8603 370.305 40.5474 368.069 42.3087 365.908C44.4536 363.288 46.3877 360.518 46.9667 356.746C47.2806 356.84 47.5844 356.889 47.6462 356.755C48.2769 355.392 48.957 354.056 49.4576 352.604C50.1608 350.547 50.9381 348.564 52.4927 347.185C54.1766 345.696 55.8637 344.199 57.4618 342.626C58.6482 341.472 59.7373 340.227 60.7836 338.939C63.0949 336.093 65.3486 333.204 67.6285 330.325C67.7722 330.148 67.9365 329.827 68.1469 329.91C69.0875 330.296 69.1208 329.686 69.4578 329.428C69.9206 329.066 70.278 328.596 70.7556 328.235C72.8246 326.619 74.8737 324.978 76.9971 323.412C79.9072 321.253 82.7975 319.071 85.8132 317.021C87.4004 315.942 89.2728 315.153 90.9572 314.166C92.4076 313.316 93.6303 312.218 95.1714 311.474C99.1069 309.586 103.176 307.846 107.163 306.015C107.873 305.688 108.479 305.253 109.176 304.821C108.751 304.396 108.493 304.146 108.24 303.888C107.239 302.86 106.177 301.861 105.255 300.797C103.604 298.89 102.01 296.96 100.46 295.034C99.2354 293.515 97.7348 292.29 96.2277 291.079C95.2212 290.264 94.6313 290.095 94.1409 290.55C93.371 291.24 92.2132 291.458 91.0836 291.716C89.0096 292.201 87.1369 292.923 85.5792 294.005C84.5468 294.725 83.5771 295.511 82.388 296.065C79.1631 297.56 75.9349 299.061 72.54 300.352C68.1866 302.001 64.5027 304.354 61.1616 307.04C58.8639 308.883 57.0063 311.151 54.9657 313.244C51.9628 316.308 49.3701 319.729 47.3376 323.619C46.0959 326.001 44.9087 328.433 42.8681 330.156C42.6686 330.319 42.6092 330.615 42.5102 330.863C41.4837 333.283 40.5379 335.765 39.4077 338.107C38.5589 339.875 37.8419 341.761 36.2535 342.944C34.8549 343.985 33.5304 345.101 32.1632 346.175C31.8507 346.413 31.4609 346.584 31.2259 346.89C29.9792 348.51 28.7672 350.156 27.5518 351.809C27.5355 351.844 27.5852 351.938 27.6833 352.23C29.2643 351.232 30.897 350.424 32.2265 349.331C34.5044 347.464 36.657 345.465 38.055 342.813C38.9762 341.09 39.7476 339.254 40.5997 337.479C40.8891 336.854 41.2047 336.239 41.5171 335.631C41.1649 337.602 40.6512 339.451 40.1029 341.275C39.3041 343.943 38.4508 346.56 36.9225 348.688C35.784 350.276 34.6916 351.898 33.619 353.545C33.2995 354.034 33.1151 354.634 32.8615 355.183C32.4436 356.052 32.1146 356.999 31.5616 357.757C30.7036 358.94 29.6957 360.01 28.7257 361.099C26.7495 363.288 24.6383 365.365 22.7825 367.664C21.1111 369.731 19.761 372.079 18.144 374.197C15.8613 377.216 14.0232 380.551 13.0976 384.602C12.6824 386.441 12.1338 388.198 10.8047 389.357C10.1982 389.896 9.67739 390.517 9.1368 391.115C7.54934 392.867 5.99321 394.651 4.38268 396.386C3.01718 397.859 1.58251 399.281 0.162615 400.704C-0.236095 401.095 -0.340718 401.557 0.661284 402.482C0.8132 402.321 0.96512 402.161 1.10552 401.992C1.95644 401.06 2.76451 400.086 3.68135 399.212C4.98065 397.983 6.53207 396.981 7.67649 395.616C10.0714 392.757 12.0874 389.575 13.9338 386.255C14.8749 384.557 15.9575 382.956 17.0798 381.403C18.1645 379.898 19.4963 378.599 20.5464 377.068C22.6582 374.014 24.6612 370.86 26.7071 367.748C26.9858 367.313 27.2069 366.836 27.451 366.375C26.7183 368.799 25.9215 371.194 24.6766 373.213C22.7767 376.312 20.5343 379.143 18.5109 382.14C16.9521 384.435 15.3472 386.694 14.0503 389.196C12.926 391.391 11.4145 393.247 10.0118 395.204C9.4833 395.944 8.9714 396.714 8.2913 397.311C7.24175 398.236 5.99447 398.983 4.92512 399.884C3.95389 400.706 3.09144 401.63 2.22899 402.554C2.0085 402.795 1.97097 403.212 1.86398 403.511C2.66321 404.236 2.88252 404.098 3.00902 403.757C3.51441 402.261 4.84533 401.501 5.88956 400.487C7.5858 398.836 9.31988 397.204 10.7953 395.359C12.3769 393.385 13.7031 391.19 15.115 389.078C16.116 387.586 17.0825 386.068 18.0605 384.559C18.8934 383.262 19.7115 381.964 20.5329 380.659C20.1126 382.105 19.4766 383.379 18.7714 384.601C17.3347 387.035 15.8749 389.452 14.3921 391.851C13.4078 393.441 12.4236 395.031 11.3504 396.544C10.4632 397.79 9.45233 398.934 8.49914 400.121C8.39629 400.243 8.30171 400.38 8.16427 400.475C7.23531 401.207 6.24369 401.872 5.36912 402.654C4.65149 403.298 4.14313 404.128 3.98738 405.271C4.58828 405.686 5.08217 406.029 5.6683 406.442C5.96383 404.258 6.58242 402.383 8.21217 401.279C7.54422 403.126 6.71163 404.859 6.57068 407.113C7.08794 407.54 7.55082 407.917 8.14877 408.405C8.23121 407.757 8.23681 407.173 8.37571 406.671C8.78269 405.187 8.97389 403.53 9.70865 402.311C11.693 399.03 13.9624 395.972 16.0159 392.742C17.5055 390.395 18.8716 387.946 20.2146 385.48C20.939 384.149 21.4592 382.655 22.1523 381.291C22.5915 380.408 23.169 379.63 23.6889 378.809C22.5939 382.05 21.3325 385.146 19.9442 388.148C19.1737 389.813 18.2731 391.39 17.2951 392.9C16.1052 394.733 14.7424 396.436 13.4948 398.226C13.3905 398.384 13.5365 398.741 13.5409 399L13.5179 398.982ZM48.4089 364.381C48.3699 364.465 48.3276 364.556 48.3117 364.658C47.9978 368.63 47.1573 372.261 46.1143 375.759C45.2492 378.671 44.845 381.863 44.8554 385.302C44.8661 388.437 45.5034 391.865 46.8016 395.543C48.6168 400.692 51.0151 405.957 53.6139 411.26C55.7108 415.531 57.4346 419.7 58.8611 423.807C59.3532 425.23 59.8684 426.67 60.3869 428.103C61.5367 431.262 62.5993 434.375 63.1279 437.332C63.4459 439.097 63.8332 440.915 64.9221 442.929C65.1902 443.425 65.6081 444.033 66.0677 444.417C66.9178 445.133 67.8429 445.754 68.7533 446.373C70.0917 447.277 70.5149 447.236 70.3116 446.163C69.7555 443.3 69.2554 440.449 68.5383 437.531C67.5989 433.715 66.5312 429.84 65.3929 425.95C64.2445 422.015 63.014 418.055 61.7013 414.072C59.6216 407.748 57.2164 401.321 55.3388 395.065C52.7832 386.544 51.7698 378.654 51.7235 371.227C51.7016 368.149 50.4368 364.6 49.8935 361.272C49.769 361.34 49.6476 361.333 49.6511 361.393C49.7469 363.37 49.6733 365.276 49.9763 367.343C50.7671 372.791 50.9706 377.929 50.8648 382.929C50.8132 385.695 50.6595 388.413 50.8694 391.319C51.053 393.846 51.4719 396.502 52.4136 399.372C54.3503 405.266 57.0493 411.326 60.1343 417.46C63.37 423.905 65.1299 429.912 66.6581 435.849C67.4465 438.916 67.8042 441.839 69.2862 445.154C69.3923 445.395 69.2685 445.596 69.2596 445.817C69.1396 445.774 69.0081 445.722 68.8881 445.679C68.6348 445.185 68.2763 444.649 68.1462 444.191C67.5308 441.994 66.8956 439.771 66.4232 437.634C64.9928 431.183 62.869 424.551 59.3581 417.491C57.5066 413.765 55.7618 410.044 54.2519 406.386C52.8931 403.107 51.6771 399.822 50.8491 396.706C49.9044 393.17 49.6354 389.888 49.7695 386.842C49.8709 384.54 50.1729 382.341 50.2627 380.03C50.3425 378.043 50.2479 375.963 50.2257 373.928C50.1154 373.864 49.9936 373.791 49.8801 373.734C49.7664 376.197 49.9225 378.817 49.246 380.951C49.1117 375.496 49.3492 370.244 48.3876 364.393L48.4089 364.381ZM34.423 340.617C34.3142 340.517 34.1972 340.4 34.0884 340.299C33.1668 340.477 32.3262 340.782 31.3236 340.832C28.6278 340.982 25.8045 340.902 22.7713 340.504C17.9071 339.864 13.5374 340.069 9.69122 340.992C5.70726 341.943 1.65562 342.806 -2.68836 343.258C-6.60908 343.67 -10.6191 343.938 -15.0837 343.476C-22.044 342.763 -29.0375 341.988 -35.9896 341.292C-37.5955 341.134 -39.1052 341.172 -40.6333 341.149C-40.9862 341.139 -41.4822 341.069 -41.0985 341.718C-34.46 342.387 -27.9256 342.911 -21.1727 343.837C-27.5694 344.023 -34.7186 342.912 -41.2794 342.748C-41.2862 343.434 -41.2885 344.011 -41.2856 344.676C-39.7805 344.682 -38.4052 344.666 -37.0051 344.697C-30.63 344.826 -24.2466 344.971 -17.8632 345.116C-17.5694 345.12 -17.1027 345.253 -17.0099 345.086C-16.5473 344.288 -15.2335 344.841 -14.199 344.957C-12.3402 345.172 -10.3737 345.592 -8.62394 345.64C-0.0967567 345.855 7.61611 344.907 14.4437 342.714C16.9643 341.902 19.6634 341.376 23.3572 342.329C25.094 342.774 26.784 343.052 28.4147 343.257C29.4427 343.387 30.5922 343.523 31.2356 343.173C32.4652 342.498 33.3847 341.484 34.4295 340.603L34.423 340.617ZM12.8353 378.785C12.7201 378.698 12.6113 378.597 12.496 378.51C11.6418 379.08 10.7563 379.617 9.95651 380.237C7.01239 382.502 4.09132 384.784 1.19331 387.084C-0.0610712 388.082 -1.25279 389.147 -2.48736 390.169C-2.81603 390.443 -2.89819 390.788 -2.31887 391.519C-0.987341 390.522 0.309899 389.565 1.59561 388.6C2.88782 387.621 4.00858 386.475 5.57775 385.771C3.9223 387.737 1.93226 389.385 -0.206153 390.883C-0.615212 391.162 -1.0358 391.433 -1.39373 391.77C-1.52614 391.888 -1.46081 392.184 -1.48445 392.403C-1.35765 392.498 -1.23736 392.608 -1.12534 392.702C-0.634404 392.38 -0.123656 392.082 0.332693 391.734C2.62421 389.972 4.9042 388.202 7.18419 386.432C9.03886 384.976 11.0055 383.614 11.4793 380.91C9.68432 381.766 8.847 383.542 6.953 384.277C6.86137 383.971 6.84718 383.733 6.98787 383.63C8.42728 382.535 9.91782 381.496 11.3226 380.375C11.9049 379.922 12.3272 379.312 12.827 378.769L12.8353 378.785ZM-0.722444 393.612C-0.161745 393.844 0.252937 394.09 0.563286 394.125C1.4961 394.259 2.1765 394.099 2.67659 393.622C3.94958 392.382 5.16642 391.062 6.77902 390.164C7.79075 389.589 8.29232 388.707 8.68984 387.679C8.8051 387.396 8.90559 387.112 8.98627 386.803C9.03947 386.587 9.04332 386.344 9.07169 386.081C5.81516 388.585 2.61093 391.043 -0.733985 393.603L-0.722444 393.612ZM43.0482 381.581L45.0697 372.641C44.0563 375.403 42.6987 377.935 43.0482 381.581ZM53.8308 350.61L53.5356 350.274C52.0965 352.175 50.9308 354.292 49.938 356.539C50.0648 356.634 50.1999 356.745 50.3234 356.848C51.4877 354.768 52.6551 352.681 53.8193 350.601L53.8308 350.61ZM-15.0726 380.918C-14.3491 380.127 -13.7006 379.43 -12.9067 378.588C-14.6042 378.494 -15.0348 379.459 -15.9747 379.945C-15.6531 380.291 -15.414 380.547 -15.0693 380.911L-15.0726 380.918ZM-9.19875 380.148C-9.25964 380.112 -9.33206 380.067 -9.3962 380.038C-9.92378 380.607 -10.5173 381.117 -10.9526 381.756C-11.3635 382.375 -12.4878 382.353 -12.2989 383.49C-11.2683 382.371 -10.2409 381.259 -9.19875 380.148Z" fill="#FADAAB" fill-opacity="0.2"/>
<path d="M15.9465 377.904C16.1225 377.621 16.2821 377.336 16.458 377.053C16.5346 377.114 16.604 377.191 16.677 377.26C16.4353 377.458 16.1772 377.653 15.9318 377.859L15.921 377.884L15.9465 377.904Z" fill="#FADAAB" fill-opacity="0.2"/>
<path d="M29.4694 372.649C32.0793 367.583 34.6891 362.516 37.2855 357.439C38.7627 354.534 40.149 351.544 41.6669 348.672C44.6737 342.952 47.3825 336.993 50.7823 331.589C54.6118 325.498 58.9796 319.935 64.0791 315.043C65.9951 313.227 67.6323 311.127 69.498 309.258C71.873 306.897 74.3893 304.673 76.8244 302.384C77.602 301.657 78.4067 300.952 79.0797 300.129C82.2697 296.288 86.238 293.263 90.4387 290.46C92.6665 288.977 94.6599 287.235 96.7734 285.636C97.9026 284.776 99.082 283.969 100.463 283.371C99.6754 283.995 98.8744 284.609 98.087 285.233C93.9315 288.476 89.7296 291.657 85.638 294.963C83.9107 296.35 82.4486 298.01 80.8084 299.49C78.3327 301.747 75.8164 303.97 73.3271 306.216C72.8332 306.673 72.3392 307.129 71.8858 307.619C67.9795 311.797 64.0498 315.945 60.1976 320.167C56.7698 323.923 53.6247 327.955 51.07 332.52C49.1298 335.978 47.0716 339.329 45.2263 342.863C43.5293 346.101 42.1266 349.588 40.4528 352.856C37.3519 358.916 34.1464 364.88 30.9777 370.885C30.6098 371.597 30.2109 372.297 29.8295 372.998C29.7153 372.883 29.5875 372.756 29.4694 372.649Z" fill="#FADAAB" fill-opacity="0.2"/>
<path d="M33.5218 372.999C33.5511 372.634 33.4834 372.191 33.6197 371.924C35.3348 368.801 37.046 365.686 38.8167 362.607C41.275 358.31 43.7888 354.057 46.2471 349.759C48.739 345.427 51.0784 340.973 53.6912 336.751C55.4898 333.865 57.6133 331.265 59.616 328.556C60.5531 327.283 61.5219 326.023 62.566 324.848C66.2619 320.686 69.9716 316.535 73.7191 312.426C74.6643 311.39 75.8097 310.54 77.086 309.82C76.2297 310.782 75.3913 311.746 74.5351 312.707C70.6494 317.13 66.6666 321.474 62.888 325.995C60.0169 329.437 57.3738 333.088 54.689 336.705C53.8962 337.779 53.3829 339.114 52.6972 340.286C49.5667 345.512 46.4124 350.706 43.2998 355.934C41.4915 358.97 39.707 362.038 37.9403 365.108C36.4364 367.709 34.9881 370.355 33.5119 372.979L33.5218 372.999Z" fill="#FADAAB" fill-opacity="0.2"/>
<path d="M10.7234 431.186C10.79 430.47 10.7674 429.694 10.9335 429.058C13.5757 418.091 16.5484 407.378 21.45 398.099C21.3569 398.484 21.3063 398.902 21.1848 399.264C19.7264 403.599 18.1545 407.844 16.8422 412.285C15.7202 416.123 14.9431 420.226 13.8921 424.121C13.2704 426.438 12.4277 428.601 11.66 430.812C11.5567 431.089 11.3358 431.283 11.1615 431.503C11.0195 431.388 10.8552 431.28 10.7132 431.165L10.7234 431.186Z" fill="#FADAAB" fill-opacity="0.2"/>
<path d="M24.5262 388.637C24.9482 387.557 25.3662 386.487 25.7883 385.408C27.3789 381.442 28.8283 377.35 30.5933 373.525C32.4664 369.458 34.5139 365.532 36.7462 361.768C38.8559 358.235 41.3684 355.04 43.6088 351.613C45.6436 348.514 47.8153 345.551 49.3538 342.012C50.3434 339.705 51.7006 337.681 52.9082 335.55C53.0267 335.329 53.2282 335.187 53.5315 335.128C51.4403 339.107 49.4613 343.19 47.2248 347.052C45.6576 349.768 43.7602 352.204 42.0227 354.77C40.5866 356.882 39.1505 358.993 37.7725 361.152C34.233 366.65 31.8334 373.094 29.1619 379.306C27.7751 382.549 26.2534 385.695 24.8085 388.89C24.711 388.799 24.6134 388.707 24.5303 388.627L24.5262 388.637Z" fill="#FADAAB" fill-opacity="0.2"/>
<path d="M21.9615 395.136C22.3202 393.619 22.7041 392.135 23.0334 390.594C24.4685 383.987 27.0341 378.256 29.835 372.715C31.7409 368.95 33.9409 365.423 36.0086 361.788C36.7582 360.472 37.5414 359.17 38.5557 358.067C37.5006 360.201 36.4644 362.336 35.3799 364.446C34.1564 366.776 32.893 369.061 31.6548 371.38C27.7254 378.725 24.9412 386.958 22.3587 395.367C22.2326 395.291 22.1065 395.215 21.9658 395.127L21.9615 395.136Z" fill="#FADAAB" fill-opacity="0.2"/>
<path d="M40.8425 351.775C47.7518 336.889 56.0145 323.181 66.6272 311.556C56.6609 323.752 48.4124 337.471 40.8425 351.775Z" fill="#FADAAB" fill-opacity="0.2"/>
<path d="M86.0469 292.264C77.6014 300.014 68.6157 307.231 61.7865 315.828C63.4322 312.596 66.1914 309.672 69.2131 306.992C70.5118 305.835 71.7303 304.58 72.7702 303.171C74.2781 301.135 76.5573 299.908 78.4396 298.262C79.4939 297.342 80.4772 296.342 81.5929 295.483C83.0347 294.36 84.5567 293.336 86.0432 292.272L86.0469 292.264Z" fill="#FADAAB" fill-opacity="0.2"/>
<path d="M14.8711 408.249C13.1892 415.93 11.5112 423.602 9.84283 431.293C9.71277 431.213 9.59629 431.143 9.46623 431.062C9.55899 429.72 9.63429 428.376 9.74451 427.037C10.359 419.985 12.7733 414.238 14.4207 407.934C14.5741 408.045 14.7139 408.146 14.8673 408.257L14.8711 408.249Z" fill="#FADAAB" fill-opacity="0.2"/>
<path d="M31.7343 375.909C34.2635 370.771 36.0553 364.935 39.8267 360.738C39.7829 361.058 39.8264 361.449 39.6995 361.689C37.0625 366.448 34.4004 371.174 31.7343 375.909Z" fill="#FADAAB" fill-opacity="0.2"/>
<path d="M6.90974 442.024C6.68271 439.181 6.9734 436.66 7.83691 434.494C7.70779 437.121 7.56945 439.73 7.44033 442.357C7.26225 442.249 7.08417 442.141 6.9061 442.033L6.90974 442.024Z" fill="#FADAAB" fill-opacity="0.2"/>
<path d="M93.6032 276.92C94.9496 276.112 96.2838 275.294 97.6389 274.503C98.012 274.293 98.4271 274.136 98.9818 274.11C98.661 274.35 98.3647 274.61 98.0107 274.814C96.7683 275.537 95.5172 276.242 94.2416 276.928C94.094 277.001 93.8137 276.928 93.5998 276.928L93.6032 276.92Z" fill="#FADAAB" fill-opacity="0.2"/>
<path d="M67.4013 308.69C68.7113 307.446 70.0342 306.213 71.3443 304.969C71.3958 305.01 71.4271 305.057 71.4786 305.098C70.1778 306.361 68.8734 307.631 67.5597 308.883C67.5026 308.815 67.4492 308.739 67.3921 308.671L67.4013 308.69Z" fill="#FADAAB" fill-opacity="0.2"/>
<path d="M64.0783 314.858C64.7866 314.062 65.4817 313.256 66.1938 312.451C65.4855 313.247 64.7904 314.054 64.0783 314.858Z" fill="#FADAAB" fill-opacity="0.2"/>
<path d="M54.0681 331.293C54.489 330.817 54.9098 330.341 55.3139 329.862C55.3401 329.883 55.3663 329.904 55.4055 329.935L54.1951 331.326C54.1951 331.326 54.1185 331.299 54.0718 331.285L54.0681 331.293Z" fill="#FADAAB" fill-opacity="0.2"/>
<path d="M56.0063 327.954C56.3675 327.533 56.7455 327.114 57.1067 326.693C57.1328 326.714 57.159 326.734 57.1852 326.755C56.8314 327.159 56.4739 327.572 56.1201 327.976L56.01 327.945L56.0063 327.954Z" fill="#FADAAB" fill-opacity="0.2"/>
<path d="M30.0696 379.557C30.2675 379.344 30.4524 379.12 30.654 378.898C30.6797 378.919 30.7055 378.939 30.7312 378.96C30.5334 379.173 30.3447 379.405 30.1469 379.619C30.1211 379.598 30.0953 379.578 30.0696 379.557Z" fill="#FADAAB" fill-opacity="0.2"/>
<path d="M91.5451 280.852C91.4032 281.014 91.2613 281.176 91.1195 281.338L91.0932 281.317C91.2351 281.155 91.377 280.993 91.5188 280.831L91.5451 280.852Z" fill="#FADAAB" fill-opacity="0.2"/>
<path d="M93.6034 278.355C93.3227 278.667 93.0554 278.989 92.7709 279.31C93.0516 278.998 93.3189 278.675 93.5996 278.363L93.6034 278.355Z" fill="#FADAAB" fill-opacity="0.2"/>
<path d="M33.4375 378.795C33.2405 379.08 33.0474 379.357 32.8371 379.631C32.8105 379.61 32.7839 379.589 32.7573 379.567C32.9771 379.312 33.2006 379.048 33.4337 378.803L33.4375 378.795Z" fill="#FADAAB" fill-opacity="0.2"/>
<path d="M29.2412 381.365C29.3447 381.246 29.4481 381.127 29.5516 381.009C29.5643 381.019 29.5896 381.039 29.6023 381.049C29.4989 381.168 29.3954 381.287 29.292 381.405C29.2793 381.395 29.2539 381.375 29.2412 381.365Z" fill="#FADAAB" fill-opacity="0.2"/>
<path d="M25.7245 446.762C25.0103 443.19 24.3121 439.62 23.5729 436.029C23.0657 433.591 22.243 430.991 22.0388 428.705C21.7862 425.843 20.8189 422.654 21.0279 420.004C21.2028 417.737 20.8677 415.176 20.964 412.858C21.1395 408.834 21.8267 405.138 23.1846 401.906C23.6097 400.904 24.0222 399.892 24.4473 398.89C24.5597 398.978 24.6721 399.067 24.7755 399.138C24.3598 400.73 23.9976 402.353 23.5319 403.905C22.277 408.049 21.7318 412.644 21.743 417.581C21.7455 420.171 22.053 422.947 22.51 425.766C23.53 432.156 24.7371 438.618 25.8267 445.042C25.943 445.694 26.3251 446.545 25.6765 446.756L25.7085 446.76L25.7245 446.762Z" fill="#FADAAB" fill-opacity="0.2"/>
<path d="M29.3353 408.391C29.2158 410.212 29.1088 412.044 28.9892 413.865C28.5549 411.715 28.7954 409.967 28.9944 408.198C29.1027 408.261 29.2235 408.335 29.3318 408.399L29.3353 408.391Z" fill="#FADAAB" fill-opacity="0.2"/>
<path d="M30.3639 414.573C29.8789 413.386 30.3209 412.769 30.3744 411.91C30.4954 411.984 30.6292 412.068 30.7502 412.142C30.601 412.947 30.468 413.754 30.3187 414.56L30.3639 414.573Z" fill="#FADAAB" fill-opacity="0.2"/>
<path d="M30.0346 414.572C30.074 414.929 30.1135 415.287 30.1564 415.636C30.0516 415.575 29.9345 415.504 29.8297 415.443C29.9073 415.157 29.9971 414.88 30.0782 414.585L30.0346 414.572Z" fill="#FADAAB" fill-opacity="0.2"/>
<path d="M27.0533 408.64C27.0305 408.906 27.023 409.174 27.0002 409.439C26.9251 409.391 26.8586 409.36 26.7835 409.312C26.7877 409.052 26.7798 408.783 26.7873 408.516C26.8811 408.558 26.9629 408.591 27.0533 408.64Z" fill="#FADAAB" fill-opacity="0.2"/>
<path d="M37.4793 376.941C37.2842 378.297 37.1709 379.715 36.8675 380.999C36.0922 384.175 35.8135 387.641 36.2846 391.532C36.4209 392.645 36.5805 393.776 36.8467 394.949C38.3667 401.502 40.8237 408.311 44.1726 415.371C46.0483 419.321 47.7927 423.249 49.5071 427.173C50.2711 428.909 50.9003 430.63 51.4497 432.319C52.9157 436.822 54.5066 441.361 55.0505 445.54C55.1987 446.73 55.7899 448.121 56.1714 449.421C56.2776 449.774 56.3573 450.116 56.4756 450.545C55.5557 450.011 55.4069 449.441 55.2602 448.971C54.7681 447.432 54.2409 445.866 53.9235 444.392C52.2704 436.719 49.7488 428.813 45.7308 420.429C42.6843 414.084 39.7724 407.754 37.734 401.612C35.5489 395.001 34.5263 388.943 35.6672 383.9C36.1513 381.774 36.5621 379.602 36.9995 377.44C37.0483 377.196 37.1204 376.969 37.1925 376.743C37.2892 376.806 37.3859 376.87 37.4826 376.934L37.4793 376.941Z" fill="#FADAAB" fill-opacity="0.2"/>
<path d="M42.2741 389.744C42.4878 391.976 42.5204 394.129 42.9417 396.452C43.5112 399.599 44.1088 402.786 45.1738 406.107C47.1206 412.202 50.0118 418.544 52.7005 424.819C53.3614 426.353 53.8545 427.846 54.4184 429.354C54.3181 429.336 54.2062 429.308 54.1026 429.297C53.9188 428.987 53.7054 428.674 53.566 428.369C50.0053 420.782 46.5713 413.223 44.2297 405.927C42.3481 400.062 41.5648 394.682 42.0133 389.87C42.0228 389.782 42.0817 389.722 42.106 389.636L42.2658 389.728L42.2741 389.744Z" fill="#FADAAB" fill-opacity="0.2"/>
<path d="M45.1171 402.025C45.261 402.244 45.4861 402.486 45.5291 402.657C46.4456 406.847 48.6254 411.395 50.111 415.749C50.1686 415.922 50.2262 416.095 50.2888 416.29C50.1683 416.219 50.0381 416.168 50.0332 416.146C48.2958 411.77 46.204 407.297 45.3267 403.155C45.2454 402.77 45.213 402.412 45.1577 402.037L45.1171 402.025Z" fill="#FADAAB" fill-opacity="0.2"/>
<path d="M46.5792 402.03C46.4696 401.682 46.3716 401.344 46.262 400.997C46.3655 401.046 46.4723 401.089 46.5758 401.138C46.5669 401.434 46.5464 401.721 46.5375 402.017L46.5792 402.03Z" fill="#FADAAB" fill-opacity="0.2"/>
<path d="M17.0663 373.642C9.69889 374.342 2.9841 375.935 -4.46717 376.516C-3.66296 375.119 12.3398 372.989 17.0663 373.642Z" fill="#FADAAB" fill-opacity="0.2"/>
</svg>
