<svg width="298" height="188" viewBox="0 0 298 188" fill="none" xmlns="http://www.w3.org/2000/svg">
<path d="M47.1743 110.623C43.5839 110.623 40.2745 110.623 36.9651 110.623C33.3435 110.654 33.2811 110.623 33.0625 106.876C28.8165 107.188 24.5706 107.469 20.3246 107.782C20.3246 107.563 20.2622 107.376 20.2309 107.157C24.1959 106.408 28.1921 105.659 32.1571 104.878C32.0947 104.566 32.0322 104.222 31.9698 103.91C27.0682 103.817 22.2602 104.691 17.6396 106.252C11.9262 108.187 5.96312 107.782 0 108.125C0.780513 107.782 1.49855 107.376 2.31029 107.157C7.33679 105.659 12.4258 104.285 17.4523 102.724C23.1656 100.944 28.9727 100.039 34.967 100.008C39.9623 100.008 44.9264 99.5394 49.8904 99.1023C52.5442 98.8838 52.5129 98.6964 53.9491 95.8866C49.0162 95.5119 44.3019 95.1685 39.4939 94.8251C39.5564 93.9821 39.4939 93.5763 39.6813 93.2641C39.8374 92.9206 40.1808 92.6709 40.493 92.3587C40.3681 92.265 40.1808 92.0777 40.0247 92.0777C31.3142 93.1704 22.6348 94.2943 13.9243 95.3871C11.8013 95.6368 9.61597 95.8241 7.46175 95.8554C6.6188 95.8554 5.80707 95.4183 4.9329 95.1373C5.33876 92.6084 7.21194 92.6709 8.6793 92.3899C17.9518 90.5479 27.2243 88.7371 36.4655 86.9263C40.9301 86.0521 45.6132 85.896 49.8279 83.3047C49.7343 79.6831 51.8885 77.6226 55.0105 75.9991C60.2244 73.2829 63.3152 68.8184 64.5953 63.105C65.0636 61.0133 65.5319 58.8903 66.0626 56.7985C67.6549 50.5856 70.4959 45.0284 74.0551 39.6584C83.7647 25.016 97.5329 15.806 113.362 9.0311C143.49 -3.86298 173.586 -2.14585 203.651 9.09354C208.054 10.7482 212.112 13.2459 216.327 15.3689C219.231 16.8362 222.072 18.366 224.975 19.8022C227.379 20.9886 229.752 22.0501 232.687 21.332C235.153 20.7076 237.494 21.9564 239.493 23.3613C245.674 27.7634 251.263 32.7899 256.102 38.6906C257.07 39.877 258.475 40.7199 259.692 41.719C261.035 42.8117 262.44 43.842 263.72 45.0284C265 46.2147 266.03 47.6821 267.404 48.7748C269.308 50.2734 271.4 51.491 273.336 52.7398C276.832 51.4598 280.111 50.3046 283.357 49.0246C286.854 47.6509 289.539 45.3093 291.444 42C293.473 38.4721 296.657 36.1617 300.435 34.788C303.651 33.6017 306.929 33.4143 310.613 35.631C309.27 36.0993 308.459 36.5052 307.616 36.6613C301.372 37.6915 296.158 40.3141 292.536 45.8089C291.319 47.6509 289.321 48.9621 287.198 50.9603C290.351 51.6471 293.254 52.3964 296.189 52.8023C297.032 52.9272 298.187 52.1466 298.936 51.491C302.34 48.4314 306.367 47.1826 310.831 47.245C313.797 47.2762 316.763 47.3387 319.729 47.4636C320.572 47.4948 321.384 47.8694 322.539 48.1816C320.978 50.7105 318.699 51.3661 316.639 51.9281C311.581 53.2706 306.429 54.457 301.247 55.2062C298.187 55.6433 297.219 58.0161 295.034 59.9518C301.528 62.4494 307.741 63.7607 314.11 61.4191C317.638 60.1079 320.916 58.2346 324.319 56.58C325.443 56.0492 326.473 54.8316 328.065 56.1741C327.816 56.7048 327.753 57.298 327.41 57.579C321.103 62.7616 314.297 66.7266 305.711 65.8212C303.464 65.6027 301.278 64.8222 299.03 64.4475C296.408 64.0417 293.723 63.667 291.069 63.5109C288.54 63.3548 286.823 64.6973 285.449 67.5696C292.411 66.2895 296.501 70.7229 301.028 74.2508C304.463 76.9357 308.115 79.1212 312.798 79.9017C314.453 77.3104 315.764 74.4381 317.825 72.2214C319.885 70.0048 322.477 68.1315 325.162 66.6954C327.722 65.3529 330.188 63.0738 334.309 63.6982C333.404 64.8846 333.029 65.8212 332.374 66.1334C329.845 67.4135 327.222 68.475 324.631 69.6301C319.792 71.7843 316.919 75.1249 315.483 80.4324C321.446 81.2129 327.16 80.3076 332.811 78.2158C332.936 78.4968 333.092 78.7465 333.217 79.0275C332.686 79.6207 332.249 80.37 331.593 80.7446C327.691 82.9613 323.413 83.3672 319.043 83.0237C315.952 82.774 313.236 83.0237 310.207 84.4911C305.462 86.8014 300.685 84.8657 296.501 82.0871C294.847 80.9944 293.504 79.3709 292.13 77.9036C289.789 75.4059 289.196 75.0313 284.918 74.0634C284.825 74.2196 284.481 74.5318 284.419 74.9064C283.732 78.528 281.984 81.7125 280.36 84.9594C279.517 86.6453 279.486 88.862 279.455 90.8601C279.361 97.6037 279.58 104.347 279.455 111.091C279.299 117.71 277.238 123.829 273.741 129.417C267.997 138.596 261.534 147.244 253.511 154.581C233.405 173.095 210.458 185.489 182.64 187.519C167.311 188.612 152.106 187.987 137.245 184.147C131.407 182.648 125.569 180.588 120.293 177.747C108.554 171.409 98.0012 163.541 91.1327 151.615C87.917 146.027 84.3579 140.594 80.9236 135.1C79.1128 132.196 76.9273 129.979 73.2433 129.136C65.2196 127.326 57.4458 124.547 49.1099 124.297C48.2357 124.297 46.862 123.579 46.6122 122.892C46.1127 121.456 47.4552 120.863 48.6416 120.395C49.7031 119.989 50.7333 119.583 51.7012 118.365C50.8894 118.084 50.0777 117.585 49.2347 117.522C46.6746 117.304 44.1146 117.241 41.5545 117.117C40.6179 117.085 39.65 117.148 38.7134 117.054C37.527 116.929 35.9348 116.96 36.0909 115.306C36.1534 114.619 37.4334 113.745 38.3075 113.526C40.1183 113.058 42.0228 112.902 43.896 112.746C45.2697 112.652 46.5498 112.558 47.2054 110.467L47.1743 110.623ZM270.776 89.1117C272.992 87.457 274.491 85.3965 274.959 82.5866C275.115 81.6813 275.646 80.8071 276.083 79.9953C277.082 78.2158 277.176 76.6235 275.989 74.7191C273.898 71.3785 274.335 68.0379 276.832 64.9783C277.332 64.3539 277.8 63.7295 278.3 63.0738C275.74 61.5752 273.367 60.1079 270.869 58.7966C270.245 58.4532 269.308 58.3907 268.559 58.5468C261.815 60.0142 255.072 59.1713 248.422 58.2659C233.03 56.2365 217.669 54.176 202.184 53.3018C193.942 52.8335 185.731 53.1457 177.676 55.2687C174.304 56.1741 170.901 56.8922 167.529 57.7039C167.935 57.017 168.435 56.6736 169.028 56.4551C178.488 52.8647 188.26 51.0539 198.375 51.8344C208.054 52.5837 217.732 52.8647 227.348 54.4257C236.776 55.9555 246.361 56.6112 255.883 57.5166C259.848 57.8912 263.845 57.9849 267.997 56.9234C263.845 54.3009 261.066 50.5856 258.787 46.6518C257.007 47.1201 255.634 47.6821 254.198 47.8694C252.73 48.0568 251.232 47.9943 249.764 47.9319C246.892 47.807 246.455 47.3387 245.549 44.5601C245.05 42.9678 244.269 41.4692 243.832 40.4389C240.835 40.6575 238.556 41.0634 236.339 40.9073C231.781 40.595 227.161 40.2516 222.665 39.4399C212.019 37.5042 201.341 36.0681 190.539 35.8807C179.893 35.6934 169.246 35.3812 158.694 37.2545C159.943 36.6613 161.223 36.2554 162.503 35.912C171.588 33.4455 180.892 33.1646 190.227 33.2582C200.81 33.3519 211.144 35.2563 221.51 37.1296C226.63 38.0662 231.812 38.5969 237.245 39.315C236.589 37.0671 236.09 35.4124 235.559 33.6017C234.372 33.3831 233.186 33.1646 232 32.946C223.539 31.3225 215.078 29.6366 206.586 28.0444C200.092 26.8268 193.63 25.0472 187.105 24.6414C167.779 23.455 148.922 26.1712 130.439 32.0094C113.518 37.3481 99.6871 46.8079 88.8848 60.7947C85.513 65.1656 82.1724 69.5989 78.7694 73.9386C74.9605 78.7777 70.4023 82.7428 64.6889 85.178C63.8772 85.5214 63.1591 85.9897 62.3786 86.4268C73.1497 87.5195 80.6426 81.1817 88.354 75.281C87.1677 76.8733 85.6691 78.0597 84.4515 79.4646C79.425 85.2092 72.8375 87.5195 65.5631 88.4873C64.6889 88.6122 63.8148 88.862 62.8782 89.0805C62.9718 89.9859 63.0655 90.6728 63.1279 91.3284C63.5025 96.3549 63.7523 96.6359 68.7164 97.3227C69.934 97.5101 71.1515 97.791 72.3691 98.0096C71.495 99.1647 70.7145 99.6643 69.8403 99.8516C66.9368 100.476 64.0333 101.038 61.0986 101.506C59.7249 101.725 58.3512 101.725 58.1638 103.785C63.6587 104.691 69.0286 103.223 74.461 103.38C69.2471 105.783 63.6275 105.846 58.0078 106.408C57.7892 107.157 57.6956 107.813 57.4146 108.375C55.7287 111.466 56.4467 114.088 57.5394 117.429C58.8819 121.519 61.3171 121.924 64.5953 122.393C72.8375 123.548 79.3001 127.17 82.4534 135.474C83.3588 137.816 85.1072 139.845 86.5745 141.937C88.3541 144.466 90.5395 146.776 92.1318 149.399C97.7515 158.796 106.056 165.446 114.829 171.565C122.322 176.779 130.502 180.463 139.4 182.617C152.138 185.708 165.032 185.958 178.019 185.646C196.877 185.177 213.985 179.495 229.752 169.192C246.517 158.265 260.629 144.809 270.963 127.575C274.116 122.268 276.27 116.555 275.989 110.342C275.74 104.285 274.865 98.2593 274.241 92.2338C274.147 91.2659 273.866 90.2981 273.679 89.3303C272.118 92.2026 271.244 95.1373 270.276 98.0408C268.84 102.318 267.685 103.973 265.53 105.284C266.405 102.849 267.466 100.257 268.309 97.5725C269.121 95.0124 269.683 92.3899 270.338 89.7986C270.463 89.5488 270.619 89.2678 270.744 89.0181L270.776 89.1117ZM84.2954 60.5137C84.4827 60.7011 84.7013 60.8884 84.8886 61.0757C85.7316 60.0454 86.6058 59.0152 87.4487 57.9849C97.2207 46.0274 109.147 37.0359 123.852 31.9782C137.183 27.3888 150.795 24.0794 164.876 23.2052C174.304 22.6432 183.764 22.1749 193.13 23.8921C199.905 25.1409 206.617 26.6395 213.33 28.0444C219.106 29.262 224.881 30.5733 231.219 31.947C228.347 29.3869 226.984 26.8684 227.129 24.3916C221.572 20.8637 216.14 17.0548 210.395 13.8703C206.18 11.5287 201.685 9.46819 197.064 8.25059C188.603 6.00271 180.049 4.06704 171.213 3.78605C160.255 3.44263 149.328 3.62995 138.525 5.56562C124.976 8.03204 112.394 13.3708 100.78 20.6764C85.0447 30.6045 73.4619 43.8108 70.1213 62.8865C69.2471 67.9442 66.968 72.3151 63.2528 75.9055C62.9718 76.1552 62.8469 76.5611 62.4098 77.3728C69.1534 74.4069 76.3342 68.1003 80.2055 62.2309C82.5783 58.6405 85.0447 55.0814 87.6048 51.6159C90.6019 47.5572 96.3153 42.8741 99.812 41.6878C94.0674 47.4948 88.5414 53.4579 84.2954 60.4513V60.5137ZM256.196 43.1863C247.61 36.4427 239.68 29.5118 229.346 26.1399C229.408 27.1702 229.658 28.0756 230.251 28.419C231.625 29.2308 233.217 29.6991 234.653 30.4172C236.371 31.2601 238.088 32.2592 238.15 34.4758C238.213 36.7861 239.68 37.473 241.522 37.754C244.582 38.1911 246.205 40.0955 247.079 42.8741C247.329 43.7483 247.797 44.5288 248.297 45.7464C250.732 44.6537 253.479 45.7464 256.164 43.1863H256.196ZM54.2925 82.2744C56.0721 85.8648 57.6643 86.3955 60.7239 85.0218C67.4988 81.9622 72.8999 77.2479 77.3332 71.3473C78.3323 70.036 79.2689 68.6623 80.2055 67.3198C72.057 73.4078 64.7202 80.4012 54.2925 82.2432V82.2744ZM288.821 71.6907C291.131 73.9386 293.223 75.9679 295.284 78.0285C298.812 81.4939 302.933 83.4608 307.959 83.1798C308.709 83.1486 309.458 82.5867 311.144 81.8686C302.683 79.1524 297.126 72.6273 288.79 71.6907H288.821ZM295.284 55.0814C291.912 54.2696 288.977 53.5828 286.011 52.8959C283.077 52.2091 280.673 53.1457 278.206 55.2999C282.358 57.0795 287.322 56.2677 289.445 60.8572C292.193 59.5771 293.879 57.86 295.284 55.0814ZM251.825 36.7237C248.266 31.1664 240.741 25.6404 236.09 24.8599C241.459 28.9186 246.642 32.8211 251.825 36.7237ZM43.8648 104.878C43.7399 104.535 43.615 104.191 43.4902 103.848C41.492 104.472 39.494 105.128 37.4646 105.752C37.5583 106.064 37.6519 106.377 37.7456 106.689C39.7749 106.096 41.8043 105.471 43.8336 104.878H43.8648ZM309.739 51.491C307.158 51.2829 305.035 51.9177 303.37 53.3955C305.992 52.6149 307.866 52.053 309.739 51.491Z" fill="#FADAAB" fill-opacity="0.6"/>
<path d="M270.37 89.8923C265.468 97.7286 260.723 105.69 255.571 113.37C251.419 119.552 246.236 124.953 239.961 128.98C233.779 132.977 227.161 136.317 220.729 139.939L220.823 140.032C221.385 139.408 221.853 138.627 222.54 138.19C226.848 135.474 231.344 133.008 235.559 130.136C243.957 124.36 251.075 117.304 255.821 108.094C256.383 107.032 256.914 105.908 257.632 104.941C262.814 97.7911 267.966 90.6103 272.337 82.7115C271.837 84.8345 271.338 86.9575 270.807 89.0805C270.651 89.3615 270.526 89.6113 270.37 89.8923Z" fill="#FADAAB" fill-opacity="0.6"/>
<path d="M273.679 65.103C270.214 69.0368 265.812 71.2535 261.066 72.7208C250.701 75.9053 240.055 77.6537 229.221 78.0908C220.323 78.4654 211.394 78.4342 202.496 78.5278C191.663 78.6527 181.048 80.2762 170.433 82.5865C158.725 85.1154 146.799 86.7701 134.966 88.7057C121.979 90.8287 109.553 94.7625 97.2519 99.2895C92.6 101.007 87.8858 102.505 82.9529 103.442C84.3579 102.911 85.7316 102.349 87.1365 101.85C95.6285 98.79 104.058 95.4806 112.644 92.7332C119.044 90.7038 125.6 88.6745 132.219 87.8628C145.925 86.1769 159.443 83.8353 172.743 80.1825C180.611 78.0283 188.603 76.9668 196.721 76.6234C207.523 76.1863 218.325 76.0614 229.096 75.8429C238.025 75.6556 246.923 74.9687 255.509 72.4399C260.379 71.0037 265 68.7246 269.745 66.7889C271.057 66.2582 272.337 65.665 273.648 65.103H273.679Z" fill="#FADAAB" fill-opacity="0.6"/>
<path d="M72.8686 117.054C80.0181 114.9 86.6681 116.274 93.4742 118.646C111.207 124.859 129.315 129.386 148.297 129.948C159.349 130.261 170.433 130.916 181.422 129.105C198.094 126.358 213.767 120.738 227.629 110.81C229.596 109.405 231.313 107.657 233.124 106.065C234.279 105.034 235.434 103.973 236.776 103.13C233.217 108.063 228.878 112.184 223.633 115.243C210.614 122.83 196.908 128.762 181.891 131.01C172.806 132.384 163.627 132.196 154.448 131.946C138.151 131.509 122.26 128.824 106.587 124.578C100.749 122.986 94.9415 121.175 89.072 119.708C85.2944 118.74 81.4543 118.178 77.6142 117.491C76.0531 117.21 74.4608 117.179 72.8686 117.054Z" fill="#FADAAB" fill-opacity="0.6"/>
<path d="M92.2878 138.409C96.6899 139.47 100.187 142.062 102.278 145.871C108.085 156.423 117.202 162.886 127.629 168.224C138.713 173.875 150.42 176.435 162.721 176.779C173.524 177.06 184.326 177.185 195.035 175.468C195.409 175.405 195.815 175.468 196.97 175.468C191.07 177.653 185.606 177.84 180.205 178.121C168.466 178.746 156.696 178.746 145.144 176.154C131.032 173.001 118.482 166.663 108.054 156.548C105.962 154.519 104.183 151.99 102.809 149.398C100.343 144.684 96.846 141.125 92.2878 138.44V138.409Z" fill="#FADAAB" fill-opacity="0.6"/>
<path d="M117.327 129.948C120.23 130.354 123.165 130.729 126.068 131.197C145.175 134.35 164.345 135.381 183.639 133.164C193.879 132.009 204.245 129.012 216.733 124.172C215.39 124.984 214.079 125.921 212.674 126.608C202.59 131.447 191.913 134.288 180.829 135.131C159.755 136.723 138.838 135.599 118.201 130.666C117.889 130.604 117.576 130.448 117.264 130.323C117.264 130.198 117.296 130.073 117.327 129.948Z" fill="#FADAAB" fill-opacity="0.6"/>
<path d="M172.587 154.019C163.939 152.895 155.728 151.834 147.517 150.772C147.517 150.554 147.548 150.335 147.579 150.117C150.264 150.241 152.918 150.429 155.603 150.522C167.186 150.96 178.769 151.896 190.32 151.646C197.501 151.49 204.682 149.492 211.831 148.275C213.798 147.931 215.734 147.463 217.701 147.182C207.679 152.364 181.017 156.017 163.814 154.487C166.624 154.363 169.403 154.207 172.587 154.05V154.019Z" fill="#FADAAB" fill-opacity="0.6"/>
<path d="M180.704 48.8061C207.46 44.8411 233.748 50.0237 260.192 52.6463C256.664 52.6463 253.136 52.9272 249.639 52.5838C235.528 51.2726 221.447 49.5554 207.336 48.4627C200.654 47.932 193.879 48.4003 187.136 48.4627C184.982 48.4627 182.859 48.6813 180.704 48.7749V48.8061Z" fill="#FADAAB" fill-opacity="0.6"/>
<path d="M145.55 36.3491C127.785 39.7209 113.362 48.369 98.6567 56.861C104.152 49.0246 134.435 35.5374 145.55 36.3491Z" fill="#FADAAB" fill-opacity="0.6"/>
<path d="M253.167 69.6925C236.808 73.1892 220.323 73.7512 203.776 73.6887C212.3 73.0643 220.854 72.6584 229.377 71.753C234.185 71.2535 238.899 70.0047 243.614 68.9744C246.829 68.2563 249.983 68.0378 253.167 69.6925Z" fill="#FADAAB" fill-opacity="0.6"/>
<path d="M145.425 61.9811C131.626 67.1012 118.669 71.9092 106.244 76.5298C110.396 72.44 134.748 63.0426 145.425 61.9811Z" fill="#FADAAB" fill-opacity="0.6"/>
<path d="M87.7609 84.6474C98.3758 76.249 109.553 68.9434 122.197 64.1042C110.708 70.9415 99.2188 77.8101 87.7609 84.6474Z" fill="#FADAAB" fill-opacity="0.6"/>
<path d="M250.638 82.0871C254.197 80.1515 257.913 78.809 262.034 78.4343C249.702 83.1798 239.368 90.8289 230.033 100.008C232.468 96.3861 235.434 93.2329 238.837 90.5791C242.521 87.7068 246.268 84.897 250.014 82.0559C250.233 82.0559 250.451 82.0871 250.67 82.1183L250.638 82.0871Z" fill="#FADAAB" fill-opacity="0.6"/>
<path d="M132.157 123.142C118.014 124.141 104.526 120.082 91.5698 113.776C98.3135 115.899 104.995 118.459 111.863 120.051C118.669 121.612 125.663 122.205 132.157 123.142Z" fill="#FADAAB" fill-opacity="0.6"/>
<path d="M121.979 138.409C108.585 135.599 96.0342 130.167 83.0153 126.233C96.284 129.386 109.209 133.664 121.979 138.409Z" fill="#FADAAB" fill-opacity="0.6"/>
<path d="M137.121 45.1218C126.974 49.5239 117.046 53.8011 107.555 57.9222C110.739 53.7387 128.16 45.9648 137.121 45.1218Z" fill="#FADAAB" fill-opacity="0.6"/>
<path d="M176.021 30.1672C186.23 28.6374 196.408 27.9194 206.461 30.9165C196.315 30.6668 186.168 30.417 176.021 30.1672Z" fill="#FADAAB" fill-opacity="0.6"/>
<path d="M196.97 61.5752C207.179 59.7644 217.451 59.5771 227.754 61.5752H196.97Z" fill="#FADAAB" fill-opacity="0.6"/>
<path d="M135.591 83.6482C146.549 81.2754 157.539 78.9027 168.497 76.5299C168.56 76.8421 168.622 77.1543 168.716 77.4665C157.726 79.8393 146.736 82.1808 135.778 84.5536C135.716 84.2414 135.653 83.9604 135.622 83.6482H135.591Z" fill="#FADAAB" fill-opacity="0.6"/>
<path d="M239.961 148.993C231.001 155.892 220.542 159.514 209.521 161.793C214.641 159.951 219.824 158.328 224.819 156.236C229.97 154.082 234.903 151.428 239.961 148.993Z" fill="#FADAAB" fill-opacity="0.6"/>
<path d="M234.248 139.658C234.747 139.065 235.122 138.346 235.715 137.909C242.115 133.351 247.704 127.981 252.855 122.112C253.511 121.362 254.478 120.863 255.29 120.239L255.197 120.145C254.697 121.05 254.322 122.049 253.667 122.83C248.703 129.043 242.74 134.194 236.308 138.784C235.715 139.221 234.872 139.314 234.154 139.595L234.216 139.689L234.248 139.658Z" fill="#FADAAB" fill-opacity="0.6"/>
<path d="M193.161 42.4681C203.214 41.0008 214.797 41.1569 226.005 43.4984C214.735 43.155 203.183 42.7803 193.161 42.4681Z" fill="#FADAAB" fill-opacity="0.6"/>
<path d="M72.1818 120.957C79.9557 120.239 87.5111 120.894 95.004 124.609C87.1052 123.329 79.6435 122.143 72.1818 120.957Z" fill="#FADAAB" fill-opacity="0.6"/>
<path d="M250.638 82.0871C250.42 82.0871 250.201 82.0558 249.983 82.0246C245.893 83.9291 241.772 85.7711 237.713 87.738C235.746 88.7058 233.873 89.8922 231.75 90.6103C237.463 85.7086 244.02 82.3368 251.512 79.527C251.107 80.7134 250.888 81.4002 250.638 82.0871Z" fill="#FADAAB" fill-opacity="0.6"/>
<path d="M194.098 159.421C194.629 159.077 195.16 158.546 195.753 158.453C205.525 156.923 214.86 154.019 223.82 149.836C224.257 149.617 224.788 149.524 225.724 149.243C220.261 153.52 208.241 157.298 194.036 159.358L194.098 159.421Z" fill="#FADAAB" fill-opacity="0.6"/>
<path d="M113.487 164.696C113.112 164.603 112.644 164.634 112.363 164.416C105.713 159.077 100.499 152.52 96.409 144.996C97.2832 146.027 98.1574 147.088 99.0628 148.118C103.59 153.239 108.148 158.327 112.675 163.479C113.018 163.854 113.174 164.353 113.424 164.821L113.487 164.728V164.696Z" fill="#FADAAB" fill-opacity="0.6"/>
<path d="M101.404 71.6283C101.685 71.1912 101.841 70.6292 102.216 70.3794C107.149 66.914 112.331 63.9792 118.263 62.4182C116.734 63.2612 115.204 64.1353 113.643 64.9783C109.553 67.1637 105.432 69.3492 101.311 71.5346L101.373 71.6283H101.404Z" fill="#FADAAB" fill-opacity="0.6"/>
<path d="M257.913 90.4854C254.354 94.3879 250.795 98.2905 246.767 102.724C247.86 99.5081 252.699 93.8572 257.913 90.4854Z" fill="#FADAAB" fill-opacity="0.6"/>
<path d="M199.936 69.5365C200.342 69.2242 200.748 68.6623 201.185 68.6311C207.741 68.1627 214.298 67.7569 220.885 68.0066C213.892 68.5062 206.898 69.0369 199.905 69.5365H199.936Z" fill="#FADAAB" fill-opacity="0.6"/>
<path d="M123.446 149.086C118.638 148.868 113.362 146.932 108.054 143.186C113.674 145.34 118.544 147.213 123.446 149.086Z" fill="#FADAAB" fill-opacity="0.6"/>
<path d="M125.07 104.847C118.919 105.096 112.8 105.346 106.649 105.596C106.649 105.315 106.649 105.034 106.649 104.753C109.709 104.753 112.8 104.847 115.86 104.753C118.919 104.628 121.979 104.253 125.038 104.004C125.038 104.285 125.038 104.597 125.07 104.878V104.847Z" fill="#FADAAB" fill-opacity="0.6"/>
<path d="M192.225 148.743C185.544 148.961 178.862 149.149 172.181 149.367C172.181 149.149 172.181 148.93 172.181 148.712C175.522 148.712 178.831 148.836 182.172 148.68C185.512 148.524 188.822 148.15 192.162 147.837C192.194 148.15 192.225 148.431 192.256 148.743H192.225Z" fill="#FADAAB" fill-opacity="0.6"/>
<path d="M183.108 182.242H163.065C163.065 182.242 163.065 182.117 163.065 182.055H183.108C183.108 182.055 183.108 182.18 183.108 182.242Z" fill="#FADAAB" fill-opacity="0.6"/>
<path d="M271.213 109.749C271.65 115.524 270.62 120.52 267.841 125.89C269.027 120.27 270.026 115.337 271.213 109.749Z" fill="#FADAAB" fill-opacity="0.6"/>
<path d="M140.367 179.495C135.965 178.122 131.563 176.748 127.13 175.343C127.192 175.093 127.286 174.875 127.348 174.625C131.782 175.967 136.215 177.279 140.648 178.621C140.555 178.902 140.461 179.214 140.367 179.495Z" fill="#FADAAB" fill-opacity="0.6"/>
<path d="M215.984 64.7597C211.301 65.0407 206.586 65.3217 201.903 65.6026C205.837 64.1665 210.333 63.7918 215.984 64.7597Z" fill="#FADAAB" fill-opacity="0.6"/>
<path d="M123.102 114.556C118.419 113.995 113.736 113.401 109.053 112.839C109.084 112.59 109.116 112.309 109.147 112.059C113.83 112.683 118.482 113.308 123.165 113.963C123.165 114.151 123.102 114.369 123.102 114.556Z" fill="#FADAAB" fill-opacity="0.6"/>
<path d="M62.9094 110.717C67.0618 110.529 71.2141 110.342 75.3665 110.155C75.3665 110.436 75.3664 110.717 75.3976 110.997C71.2453 111.216 67.093 111.403 62.9407 111.622C62.9407 111.31 62.9406 110.997 62.9094 110.717Z" fill="#FADAAB" fill-opacity="0.6"/>
<path d="M255.602 128.606C253.105 131.103 250.607 133.632 248.109 136.13C247.922 135.974 247.735 135.786 247.579 135.63C250.076 133.164 252.543 130.697 255.04 128.231C255.228 128.356 255.415 128.481 255.634 128.637L255.602 128.606Z" fill="#FADAAB" fill-opacity="0.6"/>
<path d="M222.977 166.664C225.912 165.54 228.847 164.385 231.75 163.261C231.844 163.51 231.937 163.76 232.031 164.01C229.096 165.134 226.162 166.227 223.227 167.351C223.133 167.132 223.04 166.882 222.977 166.664Z" fill="#FADAAB" fill-opacity="0.6"/>
<path d="M204.807 57.3291C207.242 56.892 209.646 56.4862 212.081 56.0491C212.081 56.2364 212.143 56.4237 212.175 56.611C209.708 56.8608 207.273 57.0793 204.807 57.3291Z" fill="#FADAAB" fill-opacity="0.6"/>
<path d="M114.08 101.225C115.984 99.1958 118.544 99.6017 121.011 99.6641C118.701 100.164 116.359 100.694 114.049 101.194H114.111L114.08 101.225Z" fill="#FADAAB" fill-opacity="0.6"/>
<path d="M238.369 155.049C236.839 155.799 235.278 156.548 233.748 157.266C233.686 157.11 233.592 156.954 233.529 156.829C235.059 156.048 236.589 155.299 238.119 154.519C238.213 154.706 238.275 154.862 238.369 155.049Z" fill="#FADAAB" fill-opacity="0.6"/>
<path d="M233.935 145.059C233.03 147.588 230.407 147.307 228.347 147.931C230.251 146.995 232.125 146.089 234.029 145.152L233.935 145.059Z" fill="#FADAAB" fill-opacity="0.6"/>
<path d="M210.551 144.154C211.55 141.625 214.266 142.124 216.077 141.032L215.984 140.969C215.203 141.531 214.454 142.155 213.611 142.655C212.612 143.217 211.55 143.685 210.52 144.185L210.551 144.154Z" fill="#FADAAB" fill-opacity="0.6"/>
<path d="M234.154 139.595C232.687 140.75 231.219 141.906 229.752 143.061L229.159 142.124C230.845 141.312 232.562 140.469 234.248 139.658L234.185 139.564L234.154 139.595Z" fill="#FADAAB" fill-opacity="0.6"/>
<path d="M203.527 144.778C202.777 146.901 200.81 146.308 199.218 146.589C200.654 145.996 202.09 145.371 203.558 144.809L203.527 144.778Z" fill="#FADAAB" fill-opacity="0.6"/>
<path d="M100.873 137.254C102.185 137.816 103.465 138.409 105.276 139.189C103.694 139.106 102.226 138.461 100.873 137.254Z" fill="#FADAAB" fill-opacity="0.6"/>
<path d="M155.603 153.707H159.412C159.412 153.707 159.412 153.863 159.412 153.926H155.603C155.603 153.926 155.603 153.769 155.603 153.707Z" fill="#FADAAB" fill-opacity="0.6"/>
<path d="M210.551 144.154C208.21 144.372 205.899 144.591 203.558 144.778C205.868 144.56 208.21 144.341 210.551 144.154Z" fill="#FADAAB" fill-opacity="0.6"/>
<path d="M255.29 120.239C256.039 119.115 256.758 117.991 257.507 116.867C257.757 117.085 257.975 117.273 258.225 117.46C257.226 118.366 256.227 119.24 255.228 120.145L255.321 120.239H255.29Z" fill="#FADAAB" fill-opacity="0.6"/>
<path d="M242.49 140.626C242.833 138.752 244.426 138.315 245.549 137.347C245.737 137.566 245.893 137.784 246.08 138.003C244.863 138.846 243.645 139.689 242.427 140.532L242.49 140.626Z" fill="#FADAAB" fill-opacity="0.6"/>
<path d="M138.401 148.961C139.774 149.274 141.117 149.555 142.491 149.867C141.023 149.992 139.4 150.928 138.432 148.961H138.401Z" fill="#FADAAB" fill-opacity="0.6"/>
<path d="M234.029 145.152C235.403 144.372 236.776 143.591 238.15 142.811L238.088 142.717C237.307 144.528 235.902 145.277 233.967 145.059L234.06 145.152H234.029Z" fill="#FADAAB" fill-opacity="0.6"/>
<path d="M199.905 69.5363C198.438 69.5987 196.97 69.6611 195.534 69.7236C195.534 69.5675 195.534 69.4426 195.534 69.2865C197.001 69.3489 198.469 69.4426 199.936 69.505L199.905 69.5363Z" fill="#FADAAB" fill-opacity="0.6"/>
<path d="M256.914 99.9454C257.382 98.8215 257.882 97.6663 258.35 96.5424C258.6 96.6985 258.881 96.8546 259.13 96.9794C258.35 97.9473 257.569 98.8839 256.82 99.8517L256.914 99.9454Z" fill="#FADAAB" fill-opacity="0.6"/>
<path d="M101.311 71.5659C100.405 72.3464 99.4687 73.1269 98.5633 73.9387C98.4072 73.6889 98.2199 73.4391 98.0638 73.1582C99.1877 72.6586 100.28 72.1591 101.404 71.6596L101.342 71.5659H101.311Z" fill="#FADAAB" fill-opacity="0.6"/>
<path d="M98.5008 63.2922C97.6891 63.7918 96.8774 64.2913 96.0345 64.7908C95.9408 64.6347 95.8159 64.4474 95.7222 64.2913C96.534 63.7293 97.3457 63.1986 98.1574 62.6366C98.2823 62.8551 98.3759 63.0737 98.5008 63.2922Z" fill="#FADAAB" fill-opacity="0.6"/>
<path d="M238.15 142.811C239.586 142.093 241.022 141.375 242.49 140.626L242.427 140.532C240.991 141.25 239.555 141.968 238.088 142.686L238.15 142.78V142.811Z" fill="#FADAAB" fill-opacity="0.6"/>
<path d="M194.035 159.358C192.818 159.483 191.6 159.639 190.383 159.764C190.383 159.576 190.383 159.389 190.383 159.171C191.632 159.233 192.849 159.295 194.098 159.389L194.035 159.358Z" fill="#FADAAB" fill-opacity="0.6"/>
<path d="M138.401 148.961C137.152 149.024 135.903 149.118 134.654 149.18C134.654 149.055 134.654 148.899 134.654 148.774C135.903 148.837 137.121 148.899 138.369 148.961H138.401Z" fill="#FADAAB" fill-opacity="0.6"/>
<path d="M113.424 164.79C114.423 165.259 115.453 165.758 116.452 166.226C114.985 166.507 113.892 166.102 113.487 164.697L113.424 164.79Z" fill="#FADAAB" fill-opacity="0.6"/>
<path d="M220.729 139.939C219.168 140.282 217.607 140.625 216.015 140.969C216.015 140.969 216.108 141.031 216.077 141.031C217.638 140.688 219.199 140.344 220.76 140.001L220.698 139.939H220.729Z" fill="#FADAAB" fill-opacity="0.6"/>
<path d="M68.8102 114.026H70.5585C70.5585 114.026 70.5585 114.119 70.5585 114.151H68.8102C68.8102 114.151 68.8102 114.057 68.8102 114.026Z" fill="#FADAAB" fill-opacity="0.6"/>
<path d="M114.017 101.194C112.737 101.257 111.457 101.319 110.177 101.382C110.177 101.194 110.177 101.007 110.177 100.82C111.457 100.944 112.737 101.101 114.017 101.225H113.986L114.017 101.194Z" fill="#FADAAB" fill-opacity="0.6"/>
<path d="M256.851 99.8515C256.383 100.788 255.883 101.725 255.415 102.661C255.165 102.474 254.947 102.318 254.697 102.131C255.446 101.381 256.196 100.663 256.945 99.914L256.851 99.8203V99.8515Z" fill="#FADAAB" fill-opacity="0.6"/>
<path d="M186.324 160.388H184.763C184.763 160.388 184.763 160.263 184.763 160.17L186.387 160.076C186.387 160.076 186.355 160.263 186.324 160.388Z" fill="#FADAAB" fill-opacity="0.6"/>
<path d="M117.389 30.0423C134.311 20.8635 158.194 14.0574 180.517 17.8663C169.621 17.7414 158.85 18.5531 148.141 20.5825C137.495 22.5806 127.629 26.8266 117.389 30.0423Z" fill="#FADAAB" fill-opacity="0.6"/>
<path d="M153.855 12.715C172.493 8.65634 190.508 11.154 208.366 18.3659C199.093 16.5551 190.195 14.7131 181.266 13.1209C172.181 11.4974 163.034 12.4028 153.886 12.715H153.855Z" fill="#FADAAB" fill-opacity="0.6"/>
<path d="M101.529 29.6368C101.81 29.106 101.935 28.3879 102.372 28.0445C110.802 21.5819 120.074 16.9612 130.72 15.3378C120.137 18.3974 110.645 23.7049 101.435 29.5431L101.529 29.6368Z" fill="#FADAAB" fill-opacity="0.6"/>
<path d="M147.767 6.25261C157.351 4.59793 167.03 3.47399 176.802 6.25261H147.767Z" fill="#FADAAB" fill-opacity="0.6"/>
<path d="M111.551 27.4825C104.745 32.4154 98.4383 37.0048 92.1005 41.5942C97.5329 35.6935 103.715 30.8231 111.551 27.4825Z" fill="#FADAAB" fill-opacity="0.6"/>
<path d="M208.147 23.4236C203.995 22.6743 199.843 21.8938 195.378 21.0821C199.031 19.9894 204.057 20.8011 208.147 23.4236Z" fill="#FADAAB" fill-opacity="0.6"/>
<path d="M101.436 29.5428C100.717 30.1985 99.9994 30.8853 99.2813 31.541C99.1252 31.2912 98.9692 31.0414 98.813 30.8229C99.7184 30.417 100.624 30.0424 101.498 29.6365L101.404 29.5428H101.436Z" fill="#FADAAB" fill-opacity="0.6"/>
</svg>
