<svg width="176" height="251" viewBox="0 0 176 251" fill="none" xmlns="http://www.w3.org/2000/svg">
<path d="M173.798 223.783C157.21 231.54 141.487 243.504 122.78 245.473C104.253 247.412 85.0688 236.702 69.107 228.407C53.8911 220.531 38.8543 210.178 30.9181 194.455C22.1765 177.181 23.2803 157.072 16.3586 139.201C12.8977 130.25 6.51306 122.732 3.6489 113.542C-0.528012 100.117 1.56042 83.7372 6.33403 70.7291C9.67556 61.6891 15.0757 53.1861 22.8329 47.3385C31.2762 40.9836 41.5693 39.3726 51.6834 37.6123C59.6195 36.2399 67.4064 34.599 74.5668 30.7204C82.9803 26.1557 89.9916 19.5024 98.1067 14.4603C138.086 -10.3625 184.091 15.2957 212.017 45.6976C211.868 45.5186 213.628 42.7737 213.001 42.0577C186.687 11.9541 143.426 -12.988 103.626 7.44902C95.0933 11.8348 88.0224 18.3985 79.967 23.5898C69.8827 30.0938 59.1421 31.8242 47.6258 33.9127C29.2176 37.2542 16.0603 46.0556 8.30316 63.3301C2.0378 77.2332 -1.27386 94.269 0.456569 109.455C1.62014 119.629 6.66224 127.326 11.3463 136.157C16.5675 146.003 18.7454 156.714 20.7146 167.604C24.3544 187.862 29.4562 205.345 45.6268 219.039C60.5145 231.63 80.0863 240.61 98.3155 247.144C121.468 255.468 140.711 245.563 160.85 234.732C171.292 229.123 181.913 224.947 192.952 220.8C202.828 217.07 211.778 212.625 218.312 204.032C218.968 203.167 218.939 200.542 219.177 200.273C207.959 213.937 189.074 216.652 173.798 223.783Z" fill="#FADAAB" fill-opacity="0.6"/>
<path d="M72.18 68.1335C69.286 67.5069 65.9445 69.7147 63.7963 71.3258C57.5907 75.9204 52.5784 82.4245 49.4755 89.4656C49.386 89.6744 49.2965 90.5396 49.2965 90.5695C53.0557 85.587 56.2779 80.6344 61.0813 76.547C63.498 74.4883 66.5412 72.0121 69.8827 71.9226C73.8806 71.8032 74.6861 74.9658 75.4917 78.2774C75.4917 78.2476 75.9989 77.1437 75.9989 76.7857C75.9392 73.653 75.9989 68.9689 72.2098 68.1633L72.18 68.1335Z" fill="#FADAAB" fill-opacity="0.6"/>
<path d="M94.6756 114.617C87.4556 109.664 80.5637 104.294 72.717 100.355C65.6163 96.8051 57.9785 94.8657 51.2358 90.5993C51.1761 90.5695 50.7883 91.6436 50.9076 91.7928C56.2481 99.2515 65.1389 101.071 72.8662 105.159C81.3095 109.634 89.0368 115.333 97.1818 120.345C105.983 125.745 128.568 138.276 136.087 125.059C136.206 124.85 136.236 124.194 136.266 124.134C127.315 136.157 103.119 120.375 94.6756 114.587V114.617Z" fill="#FADAAB" fill-opacity="0.6"/>
<path d="M157.747 100.594C154.913 94.3585 152.407 87.8843 146.499 83.8566C139.07 78.7846 129.821 78.1879 125.495 69.2672C125.495 69.1777 125.436 69.1478 125.346 69.2373C118.305 77.5911 109.116 82.6333 98.3454 84.4234C98.1067 84.4533 97.9277 84.8113 97.8083 85.2588C89.6932 80.7537 82.0853 75.4729 74.1193 70.1324C74.1193 70.1324 73.9403 70.5203 74 70.5799C82.682 80.515 94.974 88.0633 106.998 93.3142C112.696 95.7905 118.574 97.7895 124.57 99.3111C131.074 100.952 142.442 102.265 141.666 111.603C141.606 112.409 142.203 110.589 142.233 110.32C144.142 96.3574 123.377 96.0292 113.979 92.6877C109.444 91.0766 105.178 89.1373 101.06 86.9892C103.835 86.303 106.55 85.4079 109.175 84.1548C113.71 82.0067 117.022 78.3967 121.259 76.0099C123.437 74.7867 122.005 73.5038 125.465 74.7867C126.689 75.2342 128.359 78.158 129.523 79.0531C133.103 81.7979 137.34 83.0808 141.338 85.0201C151.273 89.8832 153.689 98.595 158.702 107.665C160.641 111.156 164.102 114.229 163.923 117.988C163.803 120.554 161.924 123.686 161.357 126.282C160.909 128.37 160.581 130.548 160.522 132.697C160.551 132.577 160.611 139.678 160.85 138.246C160.253 141.707 159.358 141.498 156.255 143.228C145.813 148.986 134.774 154.058 123.466 157.877C118.424 159.578 116.336 158.027 112.01 155.192C108.161 152.656 103.507 151.463 99.7775 149.106C96.5254 147.047 95.0039 141.408 92.1994 138.574C89.007 135.382 85.3969 133.681 81.0709 132.816C84.2931 124.402 84.9793 115.691 81.0112 107.128C81.0411 107.217 79.8775 109.127 80.146 109.783C83.1295 117.481 84.1439 125.118 80.2654 133.114C80.1162 133.383 79.3106 135.65 79.7283 135.77C87.9031 138.514 93.5718 143.914 96.5553 152.059C96.5553 152.089 96.5851 152.119 96.615 152.149C105.894 150.299 109.414 161.517 117.41 162.83C120.901 163.397 126.032 160.473 129.165 159.25C133.64 157.519 138.056 155.61 142.412 153.611C150.766 149.732 161.178 147.196 162.342 137.142C163.087 130.668 164.251 123.776 165.265 117.302C165.385 116.615 165.802 115.959 165.773 115.213C165.653 110.35 159.746 105.099 157.687 100.564L157.747 100.594Z" fill="#FADAAB" fill-opacity="0.6"/>
<path d="M33.7227 148.837C30.1425 144.303 25.0109 141.14 21.2815 136.665C17.2538 131.831 14.2703 126.252 11.3464 120.703C9.46682 117.153 7.58722 113.632 6.27448 109.843C7.10986 112.886 8.27343 115.959 9.82485 119.032C15.6427 130.668 22.5644 141.886 33.5735 149.374C33.5735 149.374 33.7824 148.897 33.7227 148.808V148.837Z" fill="#FADAAB" fill-opacity="0.6"/>
<path d="M4.81257 91.1065C4.27554 95.9398 4.21587 100.833 5.14075 105.636C5.40927 107.098 5.82696 108.5 6.30432 109.873C4.60372 103.727 4.21587 97.5509 4.81257 91.1065Z" fill="#FADAAB" fill-opacity="0.6"/>
<path d="M5.85672 83.5583C5.37936 86.1241 5.02133 88.6303 4.78265 91.0767C5.081 88.4811 5.46884 85.9153 5.97604 83.3495C6.03571 83.0809 5.88655 83.4688 5.85672 83.5583Z" fill="#FADAAB" fill-opacity="0.6"/>
<path d="M30.7093 150.448C27.0695 147.823 23.6683 145.048 20.5953 141.796C20.6251 141.826 20.2372 142.453 20.3864 142.602C23.4296 145.824 26.7711 148.837 30.5005 151.224C30.5005 151.224 30.8585 150.538 30.7093 150.419V150.448Z" fill="#FADAAB" fill-opacity="0.6"/>
<path d="M22.0572 146.361C22.0572 146.361 22.1169 146.212 22.0871 146.212C22.0572 146.212 22.0274 146.361 22.0572 146.361Z" fill="#FADAAB" fill-opacity="0.6"/>
<path d="M40.5249 144.75C32.2905 142.065 25.4582 134.606 20.2968 127.893C14.6878 120.584 10.5109 112.26 7.91524 103.428C7.91524 103.428 7.8854 103.488 7.91524 103.518C10.2722 112.17 14.0314 120.285 19.3719 127.505C24.3543 134.278 31.8728 143.258 40.3757 145.347C40.4354 145.347 40.6144 144.75 40.5548 144.72L40.5249 144.75Z" fill="#FADAAB" fill-opacity="0.6"/>
<path d="M47.0588 143.616C39.2122 142.125 33.5734 136.575 28.1733 131.056C28.1733 131.056 28.0837 131.235 28.1136 131.294C33.2452 137.053 38.9139 142.96 46.85 144.332C46.9395 144.332 47.1185 143.616 47.0588 143.616Z" fill="#FADAAB" fill-opacity="0.6"/>
<path d="M51.4745 142.035C48.8491 140.424 45.8357 139.529 43.1804 137.918C40.5848 136.307 38.1681 134.427 36.02 132.249C36.02 132.249 35.9007 132.488 35.9305 132.548C39.7494 136.665 45.4479 141.886 51.3254 142.513C51.385 142.513 51.5044 142.065 51.4447 142.035H51.4745Z" fill="#FADAAB" fill-opacity="0.6"/>
<path d="M56.8448 140.663C53.6823 137.769 49.5948 135.65 45.8356 133.651C45.8058 133.651 45.4776 134.427 45.5969 134.487C49.4457 136.516 52.9065 139.111 56.6956 141.2C56.6956 141.2 56.9044 140.752 56.8448 140.663Z" fill="#FADAAB" fill-opacity="0.6"/>
<path d="M61.9465 139.499C56.9044 136.844 52.0115 134.726 47.5362 131.115C47.5362 131.115 47.1782 131.772 47.3274 131.891C51.4744 135.262 56.5464 138.723 61.8272 139.887C61.8571 139.887 61.9764 139.529 61.9167 139.499H61.9465Z" fill="#FADAAB" fill-opacity="0.6"/>
<path d="M66.9589 136.098C63.7367 135.203 60.6935 134.725 57.71 133.085C54.816 131.473 52.4292 129.295 50.4303 126.67C50.49 126.73 50.0723 127.297 50.1916 127.505C53.921 132.369 60.3952 136.993 66.8396 136.575C66.8992 136.575 67.0186 136.158 66.9589 136.128V136.098Z" fill="#FADAAB" fill-opacity="0.6"/>
<path d="M69.823 134.546C63.1698 133.83 57.9487 127.416 52.6679 123.776C52.6679 123.776 52.5784 123.955 52.6082 123.985C55.4425 126.521 58.4857 128.788 61.4095 131.175C63.7963 133.114 66.3025 135.829 69.644 135.173C69.7633 135.173 69.8529 134.546 69.823 134.546Z" fill="#FADAAB" fill-opacity="0.6"/>
<path d="M71.4938 131.294C69.8231 130.071 67.9733 129.027 66.213 127.953C66.213 127.953 65.8252 128.699 65.9743 128.788C67.7346 129.832 69.4651 131.026 71.3148 131.921C71.3447 131.921 71.5833 131.354 71.4938 131.294Z" fill="#FADAAB" fill-opacity="0.6"/>
<path d="M5.37931 91.0172C5.37931 91.0172 5.49863 90.7487 5.49863 90.6592C5.37929 89.7044 5.34949 88.7496 5.34949 87.7949C5.34949 88.8391 5.34947 89.9132 5.37931 90.9873V91.0172Z" fill="#FADAAB" fill-opacity="0.6"/>
<path d="M5.31964 87.8248C5.34948 86.333 5.49868 84.8711 5.67769 83.3794C5.46885 84.8413 5.31964 86.333 5.31964 87.8248Z" fill="#FADAAB" fill-opacity="0.6"/>
<path d="M6.57272 79.0532C6.15503 80.5151 5.88653 81.9471 5.70752 83.409C5.91636 81.9471 6.21472 80.4852 6.60258 79.0532C6.60258 78.9636 6.60258 78.9636 6.60258 79.0532H6.57272Z" fill="#FADAAB" fill-opacity="0.6"/>
<path d="M7.91547 69.9238C8.98953 64.8518 11.615 60.5258 15.1057 56.9157C11.5851 60.3467 8.98953 64.5833 7.91547 69.9238Z" fill="#FADAAB" fill-opacity="0.6"/>
<path d="M31.2464 46.891C25.2794 49.0391 19.4914 52.4105 15.1057 56.9454C22.7733 49.4866 34.8266 45.9363 45.0302 43.7285C57.9786 40.924 71.6431 38.4477 81.3693 28.6618C81.429 28.6022 81.3992 28.4231 81.429 28.4231C67.7347 41.282 48.0137 40.8345 31.2464 46.891Z" fill="#FADAAB" fill-opacity="0.6"/>
<path d="M7.49765 72.6088C7.52749 72.2508 7.58717 71.8928 7.64684 71.5348C7.58717 71.9226 7.5275 72.2807 7.46783 72.6685C7.46783 72.6984 7.46783 72.6386 7.46783 72.6088H7.49765Z" fill="#FADAAB" fill-opacity="0.6"/>
<path d="M7.9153 69.9238C7.85563 70.1624 7.82578 70.4011 7.76611 70.6398C7.79595 70.4011 7.85563 70.1624 7.9153 69.9238Z" fill="#FADAAB" fill-opacity="0.6"/>
<path d="M7.76622 70.6697C7.70655 70.968 7.67669 71.2366 7.64685 71.5349C7.67669 71.2366 7.73638 70.9382 7.76622 70.6697Z" fill="#FADAAB" fill-opacity="0.6"/>
<path d="M63.6471 43.788L63.5874 44.0267C71.2848 41.7593 78.2364 37.9403 84.0244 32.3314C84.0841 32.2717 84.0543 32.0927 84.0841 32.0927C78.0873 37.4034 71.3445 41.431 63.6769 43.788H63.6471Z" fill="#FADAAB" fill-opacity="0.6"/>
<path d="M70.7182 44.5936C70.5391 44.6533 70.569 45.2798 70.5093 45.3096C74.9846 43.9074 79.072 41.5206 82.2942 38.0896C82.3837 38.0001 82.3837 37.6719 82.3837 37.6719C78.9526 40.8046 75.1636 43.2212 70.6883 44.6234L70.7182 44.5936Z" fill="#FADAAB" fill-opacity="0.6"/>
<path d="M75.4917 46.7716C75.3127 46.8611 75.3127 47.5473 75.3127 47.5473C78.8034 45.6976 82.0853 43.46 84.8301 40.5958C84.8898 40.5361 84.9196 40.2079 84.9196 40.2079C81.9361 42.6843 78.9228 44.9517 75.4619 46.7716H75.4917Z" fill="#FADAAB" fill-opacity="0.6"/>
<path d="M80.4146 47.4579L80.3251 47.8756C81.2798 47.1894 82.2345 46.5032 83.1893 45.817C83.2788 45.7573 83.2489 45.459 83.2788 45.459C82.324 46.1154 81.3693 46.8015 80.4444 47.4579H80.4146Z" fill="#FADAAB" fill-opacity="0.6"/>
<path d="M83.6068 49.397C83.6068 49.397 83.6665 49.2479 83.6367 49.2479C83.6068 49.2479 83.577 49.397 83.6068 49.397Z" fill="#FADAAB" fill-opacity="0.6"/>
<path d="M89.3351 50.3219C88.1417 52.1418 86.4411 53.0966 84.5018 54.0215C84.4123 54.0513 84.3526 54.5585 84.3825 54.5585C86.5007 54.3198 88.2908 52.47 89.2754 50.7098C89.3052 50.6501 89.3649 50.2622 89.3351 50.3219Z" fill="#FADAAB" fill-opacity="0.6"/>
<path d="M70.0022 110.499C70.0022 110.499 69.853 110.798 69.9126 110.827C77.7891 114.587 78.2963 123.448 77.5206 131.056C77.5206 131.294 77.6697 130.787 77.6697 130.728C78.8631 123.03 78.177 113.841 70.0022 110.469V110.499Z" fill="#FADAAB" fill-opacity="0.6"/>
<path d="M78.1173 111.633C78.1173 111.633 77.8189 112.14 77.9382 112.289C81.3991 116.765 82.4433 122.433 80.4145 127.833C80.4145 127.893 80.325 128.311 80.4145 128.132C82.7118 122.553 81.966 116.377 78.1173 111.633Z" fill="#FADAAB" fill-opacity="0.6"/>
<path d="M72.2993 121.986C72.2993 121.986 72.0606 122.374 72.1203 122.523C72.3888 123.06 72.6573 123.597 72.9557 124.104C72.9557 124.104 73.1645 123.746 73.1049 123.656C72.8363 123.09 72.5678 122.553 72.2993 121.986Z" fill="#FADAAB" fill-opacity="0.6"/>
<path d="M93.0943 54.0514C91.4236 56.468 89.5141 58.5565 87.2765 60.466C87.187 60.5257 87.187 60.8538 87.187 60.8538C89.544 59.1532 91.5131 56.9156 93.0048 54.4095C93.0347 54.3498 93.1242 53.9619 93.0645 54.0216L93.0943 54.0514Z" fill="#FADAAB" fill-opacity="0.6"/>
<path d="M89.6933 62.0174C89.6933 62.0174 89.753 61.8682 89.7231 61.8682C89.6933 61.8682 89.6634 62.0174 89.6933 62.0174Z" fill="#FADAAB" fill-opacity="0.6"/>
<path d="M13.1066 63.0319C10.8093 67.5966 9.10874 72.4299 8.06451 77.4124C8.00484 77.7107 8.12418 77.4721 8.15401 77.3229C9.31758 72.4299 10.9287 67.7458 13.0768 63.2109C13.0768 63.181 13.1365 62.9125 13.0768 63.0319H13.1066Z" fill="#FADAAB" fill-opacity="0.6"/>
<path d="M10.153 82.3946C10.153 82.3946 10.1529 82.2753 10.1231 82.3946C7.76614 90.4501 8.60155 98.8934 12.9873 106.114C12.9873 106.114 13.0768 105.934 13.0469 105.905C9.04904 98.595 7.82584 90.5396 10.153 82.3946Z" fill="#FADAAB" fill-opacity="0.6"/>
<path d="M31.5149 128.192C22.3556 116.377 14.1211 103.697 13.9123 88.2425C13.9123 88.2126 13.8228 88.4214 13.8228 88.4811C14.0018 103.518 21.5202 117.6 31.4254 128.609C31.4254 128.609 31.6045 128.281 31.5448 128.192H31.5149Z" fill="#FADAAB" fill-opacity="0.6"/>
<path d="M37.9891 129.325C34.5879 124.641 31.2464 119.957 28.3225 114.975C28.3225 114.975 28.0242 115.482 28.1137 115.661C31.0077 120.613 34.1404 125.566 37.8101 129.952C37.8101 129.922 38.0786 129.474 37.9891 129.325Z" fill="#FADAAB" fill-opacity="0.6"/>
<path d="M24.6229 124.82C21.8184 121.329 18.9841 117.958 16.5078 114.259C16.5078 114.259 16.3288 114.587 16.3885 114.676C18.7454 118.435 21.3112 122.195 24.5036 125.297C24.5036 125.297 24.7124 124.91 24.6229 124.82Z" fill="#FADAAB" fill-opacity="0.6"/>
<path d="M25.0406 180.045C22.2063 169.752 25.339 159.399 22.6836 149.225C20.3863 140.424 14.9265 131.891 8.21362 125.805C8.21362 125.805 7.88545 126.521 7.94512 126.67C8.95951 128.579 10.0335 130.429 11.1374 132.279C11.0479 132.547 10.9883 132.816 11.0479 132.935C13.1961 138.753 16.1199 144.243 18.2979 150.061C20.088 154.864 20.983 159.638 21.9079 164.59C21.4007 170.885 20.5952 177.807 24.4141 182.133C24.4141 182.133 25.1301 180.373 25.0406 180.045Z" fill="#FADAAB" fill-opacity="0.6"/>
<path d="M60.067 214.832C50.9972 208.09 42.5837 201.138 36.4078 191.501C29.6651 180.97 26.5026 168.737 27.6065 156.266C27.6065 156.057 27.4573 156.535 27.4573 156.624C25.0705 180.134 39.0632 204.45 59.888 215.429C59.888 215.429 60.1267 214.922 60.0372 214.862L60.067 214.832Z" fill="#FADAAB" fill-opacity="0.6"/>
<path d="M57.1731 216.175C51.2061 211.61 45.3883 207.374 40.4356 201.675C35.125 195.589 30.9779 188.637 28.0541 181.119C28.0541 181.149 27.8154 181.537 27.8751 181.716C33.0962 195.559 43.4191 210.029 57.0537 216.682C57.0537 216.682 57.2626 216.265 57.1731 216.205V216.175Z" fill="#FADAAB" fill-opacity="0.6"/>
<path d="M64.1841 211.223C51.5341 204.48 42.9714 193.769 36.4077 181.179C36.4077 181.179 36.3182 181.328 36.3481 181.387C42.4643 193.56 50.6987 206.688 63.9753 211.998C64.035 211.998 64.3035 211.282 64.1841 211.223Z" fill="#FADAAB" fill-opacity="0.6"/>
<path d="M64.9301 207.523C60.425 203.764 55.9199 200.333 51.9519 195.977C51.9817 196.007 51.5938 196.633 51.743 196.782C55.5321 200.929 59.8582 205.315 64.7511 208.15C64.7511 208.15 65.0196 207.583 64.9301 207.493V207.523Z" fill="#FADAAB" fill-opacity="0.6"/>
<path d="M64.4527 202.302C63.6472 201.198 62.3941 200.333 61.3797 199.348C60.3653 198.364 59.4106 197.379 58.4559 196.335C58.4857 196.365 58.068 197.021 58.2172 197.17C59.1719 198.185 60.1266 199.199 61.141 200.184C62.0659 201.079 63.1102 202.362 64.2737 202.869C64.3334 202.869 64.4825 202.362 64.4229 202.272L64.4527 202.302Z" fill="#FADAAB" fill-opacity="0.6"/>
<path d="M65.3478 198.543C64.5721 197.618 63.4085 196.931 62.4837 196.186C62.4837 196.186 62.2748 196.603 62.3643 196.663C63.2296 197.498 64.1544 198.602 65.1987 199.169C65.2285 199.169 65.4373 198.602 65.3777 198.543H65.3478Z" fill="#FADAAB" fill-opacity="0.6"/>
<path d="M66.6009 196.484C65.9446 195.798 64.6318 195.857 63.7666 196.007C63.5876 196.036 63.5577 196.812 63.5577 196.812C64.0351 196.723 64.5125 196.693 65.0197 196.752C65.497 196.812 65.9744 197.051 66.4517 197.021C66.5412 197.021 66.6606 196.514 66.6009 196.454V196.484Z" fill="#FADAAB" fill-opacity="0.6"/>
<path d="M91.4535 237.418C83.4577 233.837 75.8497 229.183 68.2418 224.827C60.5742 220.442 53.0259 215.698 45.8954 210.447C45.8954 210.447 45.776 210.656 45.8357 210.685C52.6977 216.056 59.9477 220.74 67.3766 225.305C75.1039 230.048 82.8311 235.001 91.0955 238.73C106.401 245.593 124.063 246.129 139.667 239.954C139.816 239.894 139.786 239.417 139.816 239.387C123.974 244.578 106.759 244.28 91.4535 237.418Z" fill="#FADAAB" fill-opacity="0.6"/>
<path d="M86.9186 24.9623V25.022C89.6933 24.3955 92.0503 23.2319 94.1984 21.3523C94.2581 21.2926 94.258 21.0837 94.258 21.0539C92.0204 22.7247 89.574 24.0672 86.9186 24.9623Z" fill="#FADAAB" fill-opacity="0.6"/>
<path d="M165.832 116.407C165.832 116.944 165.832 117.451 165.803 117.988C165.892 118.406 166.011 118.823 166.101 119.241C166.25 119.838 165.623 121.001 165.355 121.598C165.265 122.016 165.206 122.404 165.116 122.821C165.116 123.03 165.086 123.209 165.057 123.448C165.057 123.657 164.848 124.253 164.669 124.82C163.863 127.893 162.401 131.444 162.67 134.427C162.252 136.963 162.491 136.993 163.386 134.457C163.386 134.427 163.416 134.397 163.446 134.367C163.684 131.831 164.072 129.296 164.669 126.76C164.997 125.417 165.444 124.104 165.862 122.791C166.25 119.51 166.399 116.556 165.982 115.243C165.982 115.631 165.892 116.049 165.862 116.437L165.832 116.407Z" fill="#FADAAB" fill-opacity="0.6"/>
<path d="M199.546 139.38C198.8 138.843 197.965 138.455 197.07 138.216C194.086 136.844 191.103 135.919 187.851 135.382C185.076 134.218 181.854 134.069 178.721 133.89C176.573 133.234 174.604 132.16 173.052 130.34C173.112 130.399 172.515 131.354 172.665 131.623C173.112 132.339 173.619 132.906 174.156 133.443C171.143 132.935 168.458 131.861 166.668 129.027C166.638 126.968 166.936 124.731 167.175 122.881C167.354 121.777 167.503 120.703 167.622 119.659C168.1 117.869 168.846 116.049 168.816 114.199C168.726 109.216 164.997 106.889 162.282 103.16C157.926 97.193 155.509 90.2713 154.585 83.0213C154.585 82.9318 154.495 82.902 154.435 82.9915C154.316 83.081 154.227 83.1705 154.107 83.26C154.167 82.7528 154.286 81.6788 154.167 81.7981C153.57 82.4843 152.944 82.9914 152.287 83.3196C150.855 82.7826 149.184 82.8423 147.573 82.5737C139.369 81.1417 132.268 76.8454 126.45 71.0276C126.45 71.0276 125.973 71.9525 126.122 72.1613C130.717 79.1427 137.071 84.2147 145.276 86.333C146.111 86.5418 146.887 86.691 147.573 86.8402C148.647 87.6458 149.572 87.586 150.437 87.5264C150.497 87.5264 150.587 87.586 150.646 87.6159C150.646 87.6755 150.646 87.765 150.646 87.7949C150.825 88.3021 150.975 88.8392 151.154 89.3464C151.303 92.3895 151.064 91.1663 152.287 94.478C152.287 94.5078 152.556 93.8813 152.824 93.1652C153.242 94.12 153.69 95.0449 154.137 95.9697C154.316 96.9841 154.704 97.9389 155.688 98.9532C155.659 98.9234 155.808 98.5952 155.987 98.1476C157.598 102.325 159.865 106.084 162.55 109.694C163.684 111.215 164.669 112.29 165.415 113.304C165.355 113.632 165.295 113.93 165.295 114.05C165.266 114.348 165.236 114.646 165.206 114.945C164.937 115.601 164.609 116.407 164.609 116.795C164.609 124.223 161.566 131.145 160.79 138.395C160.044 136.605 158.851 134.994 157.837 133.353C156.733 131.593 155.629 129.832 154.525 128.072C154.525 128.072 153.451 129.892 153.779 130.429C154.972 132.309 156.136 134.159 157.329 136.038C158.254 137.53 159.119 139.618 160.581 140.633C160.581 140.633 160.641 140.603 160.671 140.513C160.671 140.692 160.641 140.901 160.641 141.08C158.881 142.453 157.21 143.885 155.629 145.227C150.05 149.911 144.62 152.567 137.489 154.178C134.565 154.834 131.641 155.341 128.777 156.177C126.659 156.803 123.735 158.683 121.557 158.981C117.38 159.578 115.381 156.207 112.129 154.357C108.818 152.477 106.162 152.298 102.463 152.03C102.433 152.03 102.343 152.298 102.373 152.328C108.609 155.789 114.158 160.413 117.649 166.709C117.708 166.888 117.798 166.917 117.917 166.798C126.748 161.756 137.4 162.949 146.261 158.206C149.93 156.237 152.675 153.223 155.838 150.598C157.568 149.136 159.418 147.883 161.297 146.689C161.297 146.898 161.387 147.047 161.506 146.958C163.356 145.735 165.564 144.631 167.443 143.258C169.979 145.138 172.665 144.422 175.499 143.199C178.214 142.005 180.302 141.14 183.256 140.961C183.584 140.961 183.912 140.961 184.241 140.931C188.776 141.14 193.31 141.349 197.845 141.647C197.905 141.647 197.995 141.528 198.084 141.379C198.382 141.528 198.681 141.677 198.979 141.856C199.069 141.916 199.964 139.797 199.606 139.529L199.546 139.38ZM165.832 122.762C165.415 124.074 164.967 125.387 164.639 126.73C164.042 129.236 163.654 131.772 163.416 134.338C163.416 134.367 163.386 134.397 163.356 134.427C162.461 136.933 162.222 136.933 162.64 134.397C162.371 131.414 163.833 127.863 164.639 124.79C164.848 124.224 165.027 123.627 165.027 123.418C165.027 123.179 165.057 123 165.086 122.791C165.176 122.374 165.266 121.986 165.325 121.568C165.594 120.971 166.22 119.808 166.071 119.211C165.982 118.793 165.862 118.376 165.773 117.958C165.803 117.421 165.832 116.914 165.803 116.377C165.832 115.989 165.892 115.601 165.922 115.184C166.369 116.496 166.19 119.45 165.803 122.732L165.832 122.762Z" fill="#FADAAB" fill-opacity="0.6"/>
<path d="M159.149 79.9779C159.149 79.9779 159 80.7537 159.119 80.4553C161.805 74.0706 165.892 69.1479 171.232 64.8516C171.382 64.7323 171.382 64.1654 171.382 64.1654C165.743 67.9246 161.566 73.7126 159.149 79.9779Z" fill="#FADAAB" fill-opacity="0.6"/>
<path d="M91.8412 63.897C91.8412 63.897 91.7816 64.1655 91.7816 64.1953C93.691 62.7633 95.2424 60.9731 96.3165 58.8548C96.3165 58.825 96.3762 58.6161 96.3464 58.646C95.2126 60.7046 93.7209 62.4947 91.8114 63.9267L91.8412 63.897Z" fill="#FADAAB" fill-opacity="0.6"/>
<path d="M100.076 58.9444C97.5994 63.8075 94.0192 67.3579 89.4246 70.2221C89.3948 70.2221 89.4246 70.3712 89.3948 70.3712C94.2281 68.3126 97.9873 64.076 100.016 59.3024C100.046 59.2428 100.106 58.8848 100.076 58.9444Z" fill="#FADAAB" fill-opacity="0.6"/>
<path d="M102.612 60.8239C99.867 66.1643 96.3465 71.2959 90.5585 73.5335C90.4093 73.5932 90.4391 74.0706 90.4093 74.1004C96.4061 72.0418 100.046 66.6715 102.582 61.0924C102.582 61.0327 102.642 60.794 102.612 60.8239Z" fill="#FADAAB" fill-opacity="0.6"/>
<path d="M105.178 64.5832C103.537 69.0286 99.6283 71.8033 95.8392 74.3393C95.6304 74.4885 95.6304 75.3238 95.6006 75.3238C99.5985 72.6088 103.686 69.6552 105.178 64.8219C105.207 64.7026 105.297 64.1656 105.178 64.5534V64.5832Z" fill="#FADAAB" fill-opacity="0.6"/>
<path d="M107.564 67.9246C105.327 72.0419 102.492 75.5922 98.7331 78.4564C98.4945 78.6354 98.5243 79.4707 98.4944 79.5005C102.373 76.5767 105.476 72.8474 107.475 68.4318C107.505 68.3423 107.594 67.8649 107.535 67.9544L107.564 67.9246Z" fill="#FADAAB" fill-opacity="0.6"/>
<path d="M107.624 74.2498C107.624 74.2498 107.684 74.1006 107.654 74.1006C107.624 74.1006 107.594 74.2498 107.624 74.2498Z" fill="#FADAAB" fill-opacity="0.6"/>
<path d="M131.492 45.817C121.587 46.2346 114.397 58.1388 109.563 65.4185C109.504 65.508 109.414 66.0153 109.474 65.9556C114.188 59.2427 119.827 50.5906 128.001 47.6966C131.432 46.4733 134.953 47.0103 137.757 49.3971C142.382 53.2757 142.71 59.5112 141.606 65.0605C141.517 65.4484 141.725 64.9711 141.755 64.8517C143.486 57.3631 141.636 45.3992 131.492 45.8467V45.817Z" fill="#FADAAB" fill-opacity="0.6"/>
<path d="M132.536 53.1564C128.628 49.0391 122.392 54.6481 119.469 57.4228C115.56 61.1223 112.368 65.6274 109.713 70.2817C109.683 70.3712 109.593 70.7292 109.653 70.6695C112.606 66.2838 115.441 61.8682 119.29 58.2284C122.542 55.1554 127.972 50.4116 132.417 53.6337C132.417 53.6337 132.626 53.216 132.536 53.1564Z" fill="#FADAAB" fill-opacity="0.6"/>
<path d="M132.029 58.4074C123.496 54.141 115.262 67.9247 110.816 73.0862C110.727 73.1757 110.757 73.4741 110.727 73.5039C116.276 67.2684 122.303 57.0946 131.85 59.0339C131.91 59.0339 132.119 58.4372 132.029 58.4074Z" fill="#FADAAB" fill-opacity="0.6"/>
<path d="M119.051 68.9392C119.051 68.9392 119.11 68.79 119.081 68.79C119.051 68.79 119.021 68.9392 119.051 68.9392Z" fill="#FADAAB" fill-opacity="0.6"/>
<path d="M137.877 42.9825C137.877 42.9825 137.608 43.6389 137.698 43.6688C145.186 45.3992 149.721 52.3209 148.17 59.9288C148.11 60.2272 148.23 59.9885 148.259 59.8393C150.169 52.1121 145.753 44.713 137.877 43.0124V42.9825Z" fill="#FADAAB" fill-opacity="0.6"/>
<path d="M145.932 47.7562C145.932 47.7562 145.992 47.607 145.962 47.607C145.932 47.607 145.902 47.7562 145.932 47.7562Z" fill="#FADAAB" fill-opacity="0.6"/>
<path d="M69.9423 140.931C69.7932 140.991 69.823 141.528 69.7932 141.528C80.7725 138.395 91.7517 148.748 88.2014 160.055C88.1715 160.175 88.082 160.771 88.2014 160.354C92.3783 148.42 82.4432 137.053 69.9125 140.931H69.9423Z" fill="#FADAAB" fill-opacity="0.6"/>
<path d="M82.145 163.128C86.113 158.653 85.9042 151.403 82.2046 146.898C82.2643 146.958 81.7273 147.734 81.9063 147.942C85.3075 152.209 85.4268 157.967 82.2345 162.562C82.145 162.681 82.145 163.099 82.1151 163.128H82.145Z" fill="#FADAAB" fill-opacity="0.6"/>
<path d="M88.9772 142.602C88.9772 142.602 88.5296 143.437 88.7086 143.586C93.5419 148.032 94.974 155.043 91.722 161.01C91.6623 161.129 91.5728 161.667 91.6325 161.607C95.5707 155.61 94.4072 147.286 89.007 142.602H88.9772Z" fill="#FADAAB" fill-opacity="0.6"/>
<path d="M96.7643 159.996C96.6151 160.145 96.615 160.801 96.5852 160.801C99.5687 158.355 103.716 158.385 107.057 160.115C111.145 162.233 112.816 166.44 114.665 170.349C114.665 170.349 114.993 169.633 114.964 169.424C113.412 161.488 104.313 152.358 96.7643 159.966V159.996Z" fill="#FADAAB" fill-opacity="0.6"/>
<path d="M107.893 165.366C107.893 165.366 107.087 166.738 107.415 167.126C109.414 169.573 111.294 172.288 113.681 174.406C113.681 174.406 114.009 173.69 113.949 173.541C112.219 170.617 109.981 168.021 107.893 165.366Z" fill="#FADAAB" fill-opacity="0.6"/>
<path d="M119.14 242.699C108.072 241.863 97.6592 239.297 87.8136 234.017C78.3261 228.915 70.0618 222.112 61.4693 215.668C61.4693 215.668 61.3798 215.817 61.4096 215.847C77.61 230.019 96.4061 243.743 118.961 243.236C119.051 243.236 119.14 242.698 119.111 242.669L119.14 242.699Z" fill="#FADAAB" fill-opacity="0.6"/>
<path d="M172.157 108.5C164.4 102.474 159.925 93.7916 161.506 83.8267C161.536 83.5582 161.417 83.9461 161.387 84.0057C159.507 93.374 163.326 104.204 172.038 108.858C172.038 108.858 172.187 108.53 172.127 108.471L172.157 108.5Z" fill="#FADAAB" fill-opacity="0.6"/>
<path d="M176.573 106.084C170.546 101.34 166.071 96.2084 165.295 88.2424C165.295 88.3916 164.907 89.0181 164.937 89.3761C165.594 96.2083 169.621 104.145 176.424 106.71C176.483 106.71 176.662 106.143 176.603 106.084H176.573Z" fill="#FADAAB" fill-opacity="0.6"/>
<path d="M180.929 105.457C176.931 102.146 173.798 98.6847 172.456 93.5232C172.456 93.6127 172.038 94.2691 172.128 94.5674C173.321 99.162 176.275 104.025 180.78 106.024C180.81 106.024 181.018 105.487 180.929 105.427V105.457Z" fill="#FADAAB" fill-opacity="0.6"/>
<path d="M173.231 111.872C173.231 111.872 173.351 111.394 173.291 111.454C169.711 116.735 169.323 126.401 175.021 130.399C175.021 130.399 175.2 130.041 175.141 129.982C171.292 124.223 169.323 118.614 173.202 111.872H173.231Z" fill="#FADAAB" fill-opacity="0.6"/>
<path d="M137.191 234.732C133.133 236.493 128.747 237.268 124.361 237.447C119.856 237.626 115.351 237.209 110.876 236.642C106.729 236.105 101.597 236.135 98.2558 233.33C98.2558 233.33 98.0768 233.688 98.1364 233.748C101.508 236.702 106.341 236.97 110.608 237.597C115.53 238.313 120.483 238.79 125.436 238.462C135.132 237.805 142.471 233.39 149.423 226.856C149.542 226.767 149.542 226.319 149.542 226.289C145.604 229.392 141.815 232.734 137.131 234.762L137.191 234.732Z" fill="#FADAAB" fill-opacity="0.6"/>
<path d="M218.193 193.262C210.167 207.821 193.28 212.028 178.602 216.712C171.232 219.039 164.012 221.695 157.598 226.11C150.855 230.764 144.948 236.403 137.012 238.969C136.922 238.969 136.922 239.297 136.922 239.297C144.261 237.626 149.87 232.614 155.808 228.288C163.445 222.739 172.068 219.636 181.048 216.951C195.1 212.744 210.883 207.911 218.103 193.918C218.163 193.799 218.252 193.202 218.223 193.292L218.193 193.262Z" fill="#FADAAB" fill-opacity="0.6"/>
<path d="M218.7 180.642C214.911 207.821 179.646 210.656 159.985 220.233C159.865 220.292 159.865 220.829 159.865 220.829C179.885 210.596 215.567 208.716 218.909 180.254C218.909 180.015 218.73 180.552 218.73 180.642H218.7Z" fill="#FADAAB" fill-opacity="0.6"/>
<path d="M215.299 177.031C215.03 190.696 203.544 199.05 192.475 204.48C183.047 209.104 172.694 212.505 162.58 215.19C162.461 215.22 162.491 215.638 162.461 215.668C175.946 211.64 189.67 208.507 201.425 200.303C209.242 194.843 215.776 186.608 215.478 176.673C215.478 176.614 215.329 176.972 215.329 177.061L215.299 177.031Z" fill="#FADAAB" fill-opacity="0.6"/>
<path d="M31.3059 156.147C31.3059 156.147 31.0971 156.595 31.0673 156.744C30.7092 164.143 31.9026 171.482 34.9458 178.285C34.9458 178.285 35.095 178.046 35.0651 177.956C32.4397 170.856 31.0971 163.755 31.3059 156.147Z" fill="#FADAAB" fill-opacity="0.6"/>
<path d="M38.347 173.75C36.2585 169.603 32.6485 164.143 33.9612 159.339C34.0806 158.832 33.9612 158.802 33.812 159.309C32.7081 163.427 34.3789 166.947 36.1392 170.706C38.6155 175.957 41.4498 181.059 44.7615 185.833C44.7615 185.833 44.9405 185.534 44.8809 185.445C42.6134 181.596 40.4056 177.748 38.3768 173.75H38.347Z" fill="#FADAAB" fill-opacity="0.6"/>
<path d="M44.6124 172.377C44.6124 172.377 44.2544 172.974 44.3439 173.183C45.8356 175.749 47.029 178.464 48.0733 181.238C48.0733 181.208 48.3418 180.791 48.2821 180.612C47.3573 177.748 46.1042 175.003 44.6124 172.407V172.377Z" fill="#FADAAB" fill-opacity="0.6"/>
<path d="M133.521 123.716C126.659 123.239 120.632 122.135 114.426 118.973C108.31 115.87 102.791 111.693 97.4204 107.456C87.2765 99.4008 75.4618 89.3761 61.5586 90.6292C61.4393 90.6292 61.32 91.2856 61.3796 91.3155C75.2231 93.2547 86.1129 100.534 97.0623 108.858C106.997 116.407 119.916 126.58 133.282 124.611C133.431 124.611 133.58 123.716 133.521 123.716Z" fill="#FADAAB" fill-opacity="0.6"/>
<path d="M116.724 123.507C109.504 120.554 103.179 116.615 96.8835 112.051C90.6778 107.546 84.4721 102.921 77.1327 100.445C77.073 100.445 76.894 101.012 76.9835 101.042C84.1738 104.025 90.4093 108.471 96.6448 113.005C102.731 117.451 109.146 122.254 116.604 123.985C116.664 123.985 116.783 123.537 116.724 123.507Z" fill="#FADAAB" fill-opacity="0.6"/>
<path d="M136.326 119.987C129.076 119.748 123.019 119.45 116.366 116.108C110.578 113.184 105.595 109.008 101.031 104.443C101.06 104.473 100.553 105.278 100.762 105.487C109.414 114.169 123.109 124.343 136.206 120.584C136.296 120.584 136.385 120.017 136.355 120.017L136.326 119.987Z" fill="#FADAAB" fill-opacity="0.6"/>
<path d="M136.295 116.466C128.389 116.437 121.408 115.303 114.665 110.947C114.665 110.947 114.397 111.484 114.486 111.573C120.662 115.84 128.479 118.525 136.057 117.361C136.236 117.361 136.325 116.496 136.295 116.496V116.466Z" fill="#FADAAB" fill-opacity="0.6"/>
<path d="M135.878 113.692C131.045 112.14 125.704 111.842 120.781 110.529C120.722 110.529 120.543 111.066 120.632 111.096C125.316 112.588 130.687 114.646 135.639 114.646C135.788 114.646 135.997 113.722 135.908 113.692H135.878Z" fill="#FADAAB" fill-opacity="0.6"/>
<path d="M135.072 109.545C134.147 109.395 133.133 109.545 132.178 109.455C131.194 109.366 130.269 109.097 129.374 108.739C129.314 108.739 128.986 109.574 129.135 109.634C130.776 110.35 133.073 111.036 134.834 110.44C134.983 110.38 135.162 109.545 135.072 109.545Z" fill="#FADAAB" fill-opacity="0.6"/>
<path d="M101.687 128.52C97.3011 128.311 92.7065 131.712 89.9617 134.845C89.6633 135.173 89.6335 136.516 89.5738 136.575C91.2446 135.084 92.9451 133.681 94.9142 132.577C97.0027 131.414 99.2702 130.668 101.418 129.654C101.567 129.594 101.776 128.49 101.717 128.49L101.687 128.52Z" fill="#FADAAB" fill-opacity="0.6"/>
<path d="M145.037 112.886C143.337 114.825 142.322 117.153 141.815 119.659C141.487 121.21 141.487 122.582 141.517 124.164C141.576 126.551 141.218 126.163 139.16 127.565C134.356 130.817 131.641 135.949 130.508 141.468C125.406 138.514 119.707 136.784 113.8 136.695C112.428 136.695 111.025 136.933 109.653 136.874C107.445 136.784 107.445 136.695 106.848 134.845C106.013 132.249 105.864 129.892 104.372 127.475C104.372 127.475 103.686 128.729 103.865 129.116C105.327 132.518 106.252 135.62 106.282 139.38C106.282 139.439 106.282 139.499 106.341 139.559C114.725 138.186 122.93 139.738 130.239 144.064C130.448 144.183 130.895 142.244 130.925 142.065C131.492 137.411 134.147 133.353 137.757 130.549C139.219 129.415 141.189 128.818 142.113 127.147C142.382 126.67 142.531 126.103 142.621 125.596C143.337 121.18 140.86 120.017 144.709 114.706C145.007 114.318 145.037 113.035 145.127 112.916L145.037 112.886Z" fill="#FADAAB" fill-opacity="0.6"/>
<path d="M160.91 123.955C158.135 123.507 155.33 124.194 152.496 123.507C151.362 123.239 147.335 121.091 146.619 121.747C146.41 121.926 146.141 122.821 146.261 123.06C146.29 123.12 146.32 123.179 146.35 123.239C146.35 123.269 146.35 123.269 146.41 123.239C146.469 123.209 146.559 123.149 146.619 123.12C147.245 123.269 147.872 123.895 148.379 124.164C149.632 124.85 150.975 125.327 152.377 125.685C154.913 126.342 158.016 126.759 160.432 125.656C160.671 125.536 161.118 123.895 160.91 123.866V123.955Z" fill="#FADAAB" fill-opacity="0.6"/>
<path d="M156.106 110.947C154.704 111.335 153.302 112.916 152.048 113.692C150.199 114.855 148.23 115.84 146.201 116.675C145.843 116.824 145.813 118.286 145.753 118.286C149.244 117.361 153.421 115.571 155.659 112.647C155.778 112.468 156.166 110.917 156.076 110.947H156.106Z" fill="#FADAAB" fill-opacity="0.6"/>
<path d="M148.498 104.353C148.349 104.532 148.379 105.04 148.319 105.099C148.856 104.413 149.423 103.697 149.96 103.011C150.079 102.862 150.049 102.414 150.109 102.384C149.572 103.041 149.035 103.697 148.498 104.353Z" fill="#FADAAB" fill-opacity="0.6"/>
<path d="M147.931 92.4491C147.275 92.8071 146.857 93.7022 146.41 94.2989C145.783 95.1342 145.097 95.9397 144.381 96.7453C143.008 98.237 141.517 99.6094 139.935 100.863C139.726 101.042 139.726 101.907 139.697 101.907C142.829 99.7885 146.141 96.9542 147.752 93.4635C147.812 93.3441 148.021 92.3894 147.931 92.4491Z" fill="#FADAAB" fill-opacity="0.6"/>
<path d="M149.035 90.0324C139.339 87.9737 132.178 84.125 125.078 77.1735C125.078 77.1735 124.749 77.8597 124.839 77.9791C129.851 85.7362 139.279 91.4049 148.558 91.7927C148.826 91.7927 149.214 90.0622 149.035 90.0324Z" fill="#FADAAB" fill-opacity="0.6"/>
<path d="M144.023 92.1507C142.084 90.8379 139.458 90.3605 137.34 89.2864C135.162 88.1825 133.163 86.8698 131.253 85.3781C131.253 85.3781 130.418 86.9295 130.746 87.198C132.656 88.6898 134.684 90.0324 136.833 91.1064C138.861 92.1208 141.397 93.4933 143.695 93.3739C143.874 93.3739 144.172 92.2402 144.023 92.1507Z" fill="#FADAAB" fill-opacity="0.6"/>
<path d="M112.756 149.494C110.637 145.615 105.983 145.257 102.104 144.153C99.8072 143.497 97.8381 142.661 96.4955 140.603C95.1529 138.574 95.0933 136.575 92.4081 135.949C92.2888 135.919 91.9606 137.052 92.0799 137.112C94.5264 138.007 94.6756 140.364 95.9585 142.303C97.0624 143.974 98.7331 144.899 100.613 145.496C104.939 146.868 109.623 146.242 112.427 150.508C112.427 150.508 112.875 149.732 112.756 149.494Z" fill="#FADAAB" fill-opacity="0.6"/>
<path d="M108.847 143.915C108.847 143.915 108.907 143.766 108.877 143.766C108.847 143.766 108.817 143.915 108.847 143.915Z" fill="#FADAAB" fill-opacity="0.6"/>
<path d="M108.579 140.096C108.579 140.096 108.28 140.901 108.34 140.931C109.593 141.2 110.846 141.438 112.01 141.975C113.173 142.512 114.098 143.378 115.232 143.915C115.321 143.944 115.59 143.079 115.53 142.96C114.188 140.782 111.055 139.767 108.579 140.096Z" fill="#FADAAB" fill-opacity="0.6"/>
<path d="M114.307 146.689C112.428 144.392 109.295 143.109 106.49 142.363C106.431 142.363 106.222 142.99 106.311 143.049C107.714 143.616 109.056 144.302 110.369 145.078C111.622 145.824 112.786 146.809 114.098 147.465C114.158 147.465 114.367 146.809 114.307 146.719V146.689Z" fill="#FADAAB" fill-opacity="0.6"/>
<path d="M113.442 151.224C110.548 147.524 105.088 146.868 100.852 148.181C100.732 148.211 100.702 148.748 100.702 148.748C102.94 148.539 105.058 148.688 107.236 149.255C109.414 149.852 111.204 151.075 113.233 151.97C113.293 151.97 113.502 151.314 113.442 151.224Z" fill="#FADAAB" fill-opacity="0.6"/>
<path d="M148.498 146.749C142.8 145.794 136.982 147.614 132.148 150.598C129.553 152.209 126.987 154.297 123.854 154.745C120.781 155.192 118.066 153.79 115.262 152.776C115.172 152.746 114.844 153.73 114.963 153.82C120.393 157.549 124.54 156.654 129.702 153.223C135.639 149.285 141.188 147.883 148.23 147.584C148.379 147.584 148.528 146.719 148.468 146.719L148.498 146.749Z" fill="#FADAAB" fill-opacity="0.6"/>
<path d="M152.496 136.217C152.496 136.217 152.287 136.665 152.287 136.814C152.854 140.454 151.004 143.795 147.663 145.257C147.543 145.317 147.543 145.764 147.513 145.764C151.123 144.511 153.659 140.006 152.466 136.217H152.496Z" fill="#FADAAB" fill-opacity="0.6"/>
<path d="M116.187 76.8154C115.322 77.979 114.456 79.1426 113.591 80.3062C113.591 80.2465 113.591 80.1868 113.621 80.1569C113.352 80.4553 113.024 80.7537 112.726 81.052C112.756 80.8134 112.786 80.6343 112.786 80.6343C112.547 80.8432 112.338 81.0521 112.129 81.2609C112.159 80.9924 112.189 80.7536 112.099 80.9028C111.204 82.1559 110.309 83.409 109.414 84.6621C109.295 84.8411 109.235 85.2289 109.205 85.5571C109.146 85.3482 109.086 85.1394 109.056 84.9306C109.056 84.0355 109.325 83.0211 109.713 81.8576C109.742 81.7681 109.921 80.7537 109.832 80.8432C108.728 81.7681 107.535 82.5736 106.281 83.2598C105.953 83.1703 105.774 83.3494 105.565 83.6775C105.565 83.6775 105.536 83.7073 105.506 83.7372C105.506 83.767 105.446 83.8863 105.416 84.0057C104.402 84.3935 103.417 84.5129 102.194 84.4532C101.985 84.4532 101.568 85.945 101.747 86.0643C101.896 86.1538 102.015 86.2135 102.164 86.303C102.015 86.661 101.896 87.0489 102.015 87.1981C101.866 87.6158 101.747 88.2124 101.866 88.3019C103.895 89.6744 106.043 90.7186 108.37 91.4943C108.459 91.4943 108.609 91.1363 108.698 90.7484C109.116 91.3153 109.593 91.8523 110.19 92.3297C110.19 92.3297 110.488 91.7032 110.608 91.2258C110.637 91.3153 110.667 91.4346 110.697 91.5241C110.697 91.5241 110.757 91.4048 110.816 91.2258C111.145 91.7927 111.562 92.3296 112.099 92.8368C112.04 92.7772 112.965 91.3153 112.607 90.9871C112.547 90.9274 112.517 90.8976 112.457 90.8379C112.457 90.7484 112.457 90.6887 112.457 90.6291C112.249 89.8832 112.01 89.1671 111.771 88.4511C111.95 87.556 111.98 86.661 111.771 85.7063C112.428 84.0355 113.621 81.8874 114.695 80.6045C114.814 80.4554 114.874 80.1868 114.934 79.9183C115.232 79.4409 115.53 78.9934 115.799 78.516C116.008 78.1282 116.067 76.9646 116.127 76.8453L116.187 76.8154ZM106.998 85.1394C106.998 85.1394 107.057 85.3184 107.057 85.4079C107.057 85.4378 107.027 85.4975 106.998 85.5273C106.878 85.408 106.759 85.2886 106.61 85.1693C106.61 85.1693 106.61 85.1692 106.61 85.1096C106.61 85.0797 106.52 85.2587 106.431 85.4676C106.371 85.3184 106.311 85.1395 106.252 84.9903C106.341 84.9605 106.461 84.6919 106.55 84.3936C106.819 84.2145 107.117 84.0653 107.415 83.8863C107.296 84.1847 106.968 84.8112 107.027 85.1096L106.998 85.1394ZM108.817 84.0356L108.638 84.1847C108.43 84.6919 108.251 85.1991 108.101 85.7063C107.863 85.1096 107.624 84.5129 107.445 83.8566C108.042 83.4687 108.609 83.0211 109.175 82.5736C109.026 83.0509 108.907 83.5582 108.788 84.0356H108.817ZM111.652 84.8112C111.592 84.662 111.383 85.1693 111.383 85.1693C111.264 85.5273 111.145 85.8554 111.055 86.2135C111.055 86.1239 110.995 86.0643 110.966 85.9748C110.966 85.6466 111.025 85.3185 111.055 84.9604C111.503 84.4831 111.95 84.0057 112.368 83.4985C112.129 84.0654 111.92 84.6621 111.741 85.2588C111.711 85.1096 111.682 84.9604 111.622 84.8112H111.652Z" fill="#FADAAB" fill-opacity="0.6"/>
<path d="M82.294 123.239C81.936 125.775 81.2498 128.251 80.295 130.668C80.0862 131.354 79.8475 132.04 79.579 132.726C80.1458 132.906 80.7127 133.055 81.2796 133.204C81.3393 132.697 81.4288 132.189 81.5183 131.682C81.5183 131.712 81.5183 131.772 81.4884 131.802C81.6376 130.757 81.757 129.743 81.8465 128.699C82.0553 126.879 82.1746 125.059 82.294 123.209V123.239Z" fill="#FADAAB" fill-opacity="0.6"/>
<path d="M80.7426 127.893C80.8619 127.386 80.9514 126.879 81.0707 126.342C80.8022 127.028 80.5337 127.714 80.2055 128.4C79.6387 130.608 78.5348 134.666 79.9669 130.399C80.2055 129.713 80.4144 129.027 80.5934 128.37C80.6232 128.221 80.6829 128.102 80.7127 127.953C80.7127 127.953 80.7127 127.923 80.7127 127.893H80.7426Z" fill="#FADAAB" fill-opacity="0.6"/>
<path d="M83.6365 120.733C83.547 119.539 83.368 118.376 83.1294 117.212C83.0399 119.987 82.8609 122.762 82.5923 125.536C82.9205 123.925 83.2487 122.314 83.6365 120.733Z" fill="#FADAAB" fill-opacity="0.6"/>
<path d="M83.6664 121.866C83.2188 123.895 82.8906 125.984 82.4729 128.012C82.4133 128.609 82.2939 129.206 82.1448 129.773C82.0552 130.548 81.9658 131.324 81.8464 132.1C81.8464 132.249 81.6376 132.846 81.4586 133.234H81.5182C81.7271 133.234 81.9359 133.234 82.1149 133.234C82.5028 130.34 82.9503 127.207 83.6664 124.194C83.6962 123.627 83.726 123.09 83.726 122.493C83.726 122.224 83.6962 121.956 83.6664 121.658C83.6664 121.717 83.6663 121.747 83.6365 121.807L83.6664 121.866Z" fill="#FADAAB" fill-opacity="0.6"/>
<path d="M81.6079 122.165C81.7272 120.106 81.6974 118.048 81.4587 115.989C81.3692 115.601 81.2499 115.213 81.1007 114.825C81.3692 118.256 81.3095 121.717 80.8322 125.148C81.1603 124.164 81.4289 123.179 81.6079 122.165Z" fill="#FADAAB" fill-opacity="0.6"/>
<path d="M78.8333 132.428C79.072 131.623 79.2808 130.817 79.4598 130.012C79.1018 130.757 78.714 131.503 78.2963 132.249C78.4753 132.309 78.6543 132.369 78.8333 132.428Z" fill="#FADAAB" fill-opacity="0.6"/>
<path d="M98.4944 119.002C97.5696 118.704 96.4359 118.316 95.2126 117.928C95.332 117.511 95.3618 117.123 95.2424 117.093C91.3042 115.243 87.366 113.393 83.4278 111.603C83.3681 111.603 83.2189 111.931 83.0697 112.349C83.0101 112.289 82.9504 112.26 82.8907 112.2C82.8311 112.14 82.294 113.751 82.3537 114.02C82.5029 114.527 82.6222 115.034 82.7415 115.541C82.7117 115.72 82.6819 115.87 82.652 116.019C82.5924 115.512 82.473 114.975 82.3239 114.467C82.1448 113.274 81.936 112.081 81.6377 110.887C81.6377 110.977 81.578 111.036 81.5482 111.126C81.4885 111.275 81.3692 111.514 81.2797 111.752C81.041 111.305 80.8023 110.887 80.5338 110.44C80.4741 110.32 79.8177 112.11 79.8774 112.498C80.683 117.54 80.7426 122.553 79.9371 127.505C79.2509 129.116 78.4453 130.698 77.6099 132.219C77.5204 132.368 77.2221 133.084 77.1027 133.621C71.8816 134.397 66.8395 136.456 62.0659 138.932C53.2049 143.557 44.9406 148.629 35.5425 152.209C35.4232 152.239 35.3337 152.865 35.3635 152.865C44.0157 152.328 51.7131 146.689 59.0824 142.661C66.3025 138.723 74.2087 135.441 82.4134 135.949C83.8454 136.277 85.2775 136.515 86.7991 136.575C87.2168 136.575 87.7539 133.979 87.5152 133.95C85.8444 133.562 84.1737 133.353 82.5029 133.293C83.2786 130.757 83.8156 128.192 84.0842 125.626C84.0842 125.745 84.0842 125.805 84.0842 125.834C84.0842 126.371 84.0842 126.879 84.0842 127.416C84.0842 127.684 84.6808 126.163 84.7107 125.745C84.7107 124.91 84.7405 124.074 84.7704 123.239C84.8599 122.612 84.9195 121.956 84.9494 121.27C85.2775 120.255 85.7847 119.36 86.6201 118.883C89.0368 119.897 91.4832 120.494 94.1982 120.763C94.2877 120.763 94.4369 120.524 94.5562 120.166C95.6601 120.464 96.764 120.792 97.8679 121.15C98.0768 121.21 98.7331 119.062 98.4646 119.002H98.4944ZM83.1294 117.212C83.3681 118.376 83.5471 119.539 83.6366 120.733C83.2487 122.344 82.9206 123.925 82.5924 125.536C82.8609 122.762 83.0399 119.987 83.1294 117.212ZM81.5482 131.682C81.4587 132.189 81.399 132.697 81.3095 133.204C80.7426 133.055 80.1758 132.905 79.6089 132.726C79.8774 132.04 80.1161 131.354 80.3249 130.668C81.2796 128.251 81.9658 125.775 82.3239 123.239C82.2045 125.059 82.0852 126.909 81.8763 128.728C81.757 129.773 81.6377 130.817 81.5183 131.831C81.5183 131.802 81.5183 131.742 81.5482 131.712V131.682ZM79.9967 130.399C78.5646 134.695 79.6685 130.638 80.2354 128.4C80.5338 127.714 80.8321 127.028 81.1007 126.342C81.0111 126.849 80.9216 127.386 80.7725 127.893C80.7725 127.893 80.7725 127.923 80.7725 127.953C80.7426 128.102 80.6829 128.221 80.6531 128.37C80.4741 129.027 80.2653 129.713 80.0266 130.399H79.9967ZM81.1007 114.796C81.2498 115.183 81.3692 115.571 81.4587 115.959C81.6973 118.048 81.7272 120.106 81.6078 122.135C81.4288 123.12 81.1603 124.134 80.8321 125.118C81.3095 121.687 81.3692 118.227 81.1007 114.796ZM78.8332 132.428C78.6541 132.368 78.4752 132.309 78.2962 132.249C78.684 131.533 79.0719 130.787 79.4597 130.011C79.2807 130.817 79.0718 131.623 78.8332 132.428ZM83.6963 124.194C82.9802 127.207 82.5625 130.34 82.1449 133.234C81.936 133.234 81.7272 133.234 81.5482 133.234H81.4885C81.6377 132.846 81.8465 132.249 81.8763 132.1C81.9957 131.324 82.0554 130.548 82.1747 129.773C82.3239 129.206 82.4134 128.609 82.5029 128.012C82.9206 125.954 83.2488 123.895 83.6963 121.866C83.6963 121.807 83.6963 121.777 83.7261 121.717C83.7261 121.986 83.7858 122.254 83.7858 122.553C83.7858 123.12 83.7858 123.686 83.7261 124.253L83.6963 124.194Z" fill="#FADAAB" fill-opacity="0.6"/>
<path d="M133.402 38.5073C120.244 35.2851 113.71 49.1584 108.43 58.3775C108.37 58.467 108.31 58.9145 108.34 58.8548C111.115 54.0514 113.681 48.7109 117.499 44.6533C121.796 40.0886 127.106 38.8355 133.193 39.2532C133.312 39.2532 133.461 38.5371 133.402 38.5073Z" fill="#FADAAB" fill-opacity="0.6"/>
<path d="M142.173 34.1515C136.415 28.2442 127.405 29.9746 121.318 34.42C114.307 39.5517 109.593 47.8458 104.849 54.9466C104.79 55.0361 104.7 55.5433 104.76 55.4836C112.547 44.6236 125.973 22.4264 142.054 34.6289C142.054 34.6289 142.233 34.241 142.173 34.1813V34.1515Z" fill="#FADAAB" fill-opacity="0.6"/>
<path d="M148.826 41.5207C147.782 39.9991 146.41 38.4775 144.381 38.8952C144.291 38.8952 144.262 39.3427 144.262 39.3427C146.469 39.1339 147.872 41.2223 148.916 42.8632C150.109 44.7428 150.974 46.7418 152.019 48.7109C152.019 48.7109 152.198 48.3231 152.168 48.2336C151.452 45.8468 150.229 43.5495 148.826 41.5207Z" fill="#FADAAB" fill-opacity="0.6"/>
<path d="M147.245 33.4353C147.245 33.4353 146.797 34.3304 146.976 34.4498C150.676 36.9858 152.973 40.5063 154.405 44.713C154.405 44.713 154.614 44.2655 154.584 44.1163C153.689 39.7007 150.945 35.9414 147.245 33.4353Z" fill="#FADAAB" fill-opacity="0.6"/>
<path d="M155.39 37.7019L153.361 35.6134C153.361 35.6134 153.152 35.9714 153.242 36.0609C153.928 36.7173 154.614 37.4035 155.3 38.0599C155.3 38.0599 155.479 37.7616 155.39 37.7019Z" fill="#FADAAB" fill-opacity="0.6"/>
<path d="M94.1684 229.72C85.4864 223.365 75.9989 217.876 66.929 212.058C66.929 212.058 66.6604 212.595 66.75 212.684C75.79 218.532 84.651 224.917 94.0192 230.198C94.0192 230.198 94.2281 229.81 94.1386 229.75L94.1684 229.72Z" fill="#FADAAB" fill-opacity="0.6"/>
<path d="M102.85 229.929C97.2713 225.872 90.9463 222.59 85.039 219.039C85.039 219.039 84.6213 219.875 84.8003 219.964C90.6778 223.485 96.5254 227.542 102.701 230.496C102.731 230.496 102.94 229.989 102.85 229.929Z" fill="#FADAAB" fill-opacity="0.6"/>
<path d="M114.337 227.781C109.832 227.393 106.222 225.454 102.701 222.739C98.6737 219.606 94.5863 216.503 90.5585 213.341C90.5585 213.341 90.3795 213.699 90.4392 213.758C97.8383 219.755 105.208 228.437 115.381 228.706C124.809 228.944 133.282 223.514 140.681 218.263C140.771 218.204 140.771 217.876 140.771 217.876C132.745 222.918 124.272 228.646 114.307 227.781H114.337Z" fill="#FADAAB" fill-opacity="0.6"/>
<path d="M143.486 221.337C143.486 221.337 143.545 221.187 143.516 221.187C143.486 221.187 143.456 221.337 143.486 221.337Z" fill="#FADAAB" fill-opacity="0.6"/>
<path d="M182.689 129.773C177.528 125.864 174.872 119.241 177.587 112.976C177.617 112.916 177.707 112.439 177.617 112.618C174.783 118.734 176.424 126.7 182.57 130.161C182.57 130.161 182.749 129.803 182.689 129.773Z" fill="#FADAAB" fill-opacity="0.6"/>
<path d="M196.413 157.072C188.805 148.39 175.38 147.107 165.206 151.254C165.146 151.254 165.146 151.463 165.146 151.463C176.513 147.883 186.806 151.403 196.204 157.818C196.204 157.818 196.503 157.191 196.413 157.072Z" fill="#FADAAB" fill-opacity="0.6"/>
<path d="M81.6078 213.371C78.1171 210.954 74.328 208.895 70.6284 206.777C70.6284 206.777 70.4495 207.165 70.5091 207.195C74.1192 209.432 77.6994 211.819 81.4884 213.729C81.4884 213.729 81.6376 213.401 81.5779 213.371H81.6078Z" fill="#FADAAB" fill-opacity="0.6"/>
<path d="M77.8785 206.658C77.8785 206.658 77.9382 206.509 77.9083 206.509C77.8785 206.509 77.8487 206.658 77.8785 206.658Z" fill="#FADAAB" fill-opacity="0.6"/>
<path d="M103.686 164.322C100.971 162.472 97.3309 162.412 94.3175 163.636C94.1982 163.665 94.1683 164.173 94.1683 164.173C97.5099 163.606 100.285 163.964 103.566 164.739C103.626 164.739 103.745 164.352 103.686 164.322Z" fill="#FADAAB" fill-opacity="0.6"/>
<path d="M159 86.5119C159 86.5119 158.851 87.1087 158.911 87.0192C168.159 72.1911 181.734 62.0174 198.174 56.3189C198.233 56.3189 198.233 56.0504 198.233 56.0504C181.705 60.0781 167.294 71.7735 158.97 86.4821L159 86.5119Z" fill="#FADAAB" fill-opacity="0.6"/>
<path d="M146.44 7.83679C146.44 7.83679 146.171 8.55283 146.231 8.58267C155.33 10.88 163.147 14.9972 171.232 19.5918C171.232 19.5918 171.322 19.383 171.292 19.3532C164.251 13.4757 155.271 9.92527 146.41 7.86666L146.44 7.83679Z" fill="#FADAAB" fill-opacity="0.6"/>
<path d="M141.248 5.9871C128.18 5.06222 112.666 7.74732 102.313 16.1906C102.224 16.2503 102.224 16.5785 102.224 16.5785C107.594 12.8491 113.621 10.4624 120.006 9.08997C126.957 7.59822 134.058 7.77718 141.039 6.70311C141.159 6.70311 141.278 6.01697 141.218 6.01697L141.248 5.9871Z" fill="#FADAAB" fill-opacity="0.6"/>
<path d="M29.4861 45.3991L29.3667 45.787C32.6486 45.429 35.9603 45.1306 39.1825 44.4742C39.272 44.4742 39.3018 44.0267 39.3018 44.0267C36.0199 44.2356 32.7083 44.8621 29.4861 45.3991Z" fill="#FADAAB" fill-opacity="0.6"/>
<path d="M171.62 23.1422C167.055 19.3532 161.536 16.131 155.957 14.1321C155.927 14.1321 155.778 14.5199 155.837 14.5497C161.118 17.4736 166.339 20.4272 171.531 23.4704C171.531 23.4704 171.68 23.1721 171.62 23.1422Z" fill="#FADAAB" fill-opacity="0.6"/>
<path d="M176.543 18.1001C174.246 15.5343 170.785 13.953 167.652 12.7C167.622 12.7 167.443 13.1475 167.533 13.1773C170.755 14.6392 173.381 16.8769 176.424 18.6073C176.424 18.6073 176.633 18.1597 176.573 18.0702L176.543 18.1001Z" fill="#FADAAB" fill-opacity="0.6"/>
<path d="M153.361 76.0399C144.202 75.1449 136.355 71.9227 130.358 64.7324C130.358 64.7324 130.179 65.0606 130.239 65.1501C135.46 72.2806 144.202 77.2631 153.212 76.6067C153.301 76.6067 153.391 76.0697 153.361 76.0697V76.0399Z" fill="#FADAAB" fill-opacity="0.6"/>
<path d="M152.168 79.3217C148.856 78.7846 145.873 78.367 142.77 76.9349C139.756 75.5327 136.922 73.7425 134.147 71.8629C134.147 71.8629 133.939 72.2508 134.028 72.3105C139.07 75.9802 145.365 80.9925 152.019 79.7991C152.108 79.7991 152.198 79.3515 152.138 79.3217H152.168Z" fill="#FADAAB" fill-opacity="0.6"/>
<path d="M156.225 74.2796C153.212 73.1459 150.079 72.579 147.126 71.2364C144.202 69.9237 141.517 68.2828 139.01 66.2838C139.01 66.2838 138.802 66.6717 138.891 66.7612C143.516 70.6994 149.781 74.757 156.076 74.7868C156.136 74.7868 156.285 74.2796 156.225 74.2796Z" fill="#FADAAB" fill-opacity="0.6"/>
<path d="M64.4528 88.7794C61.4394 91.0767 58.5454 90.8976 55.0249 91.2557C54.9354 91.2557 54.816 91.7331 54.8757 91.7928C60.604 97.1332 68.2418 86.9296 70.4198 82.5439C70.4794 82.4245 70.5689 81.7084 70.5689 81.7383C68.3015 83.8864 67.0484 86.87 64.4826 88.8093L64.4528 88.7794Z" fill="#FADAAB" fill-opacity="0.6"/>
<path d="M136.952 106.71C133.073 101.28 125.764 100.982 119.767 99.7288C113.531 98.4161 108.012 95.1641 102.343 92.3894C102.343 92.3894 102.134 92.8071 102.224 92.8369C107.714 96.2978 112.875 99.9676 119.29 101.489C125.764 103.041 131.194 103.846 136.564 108.083C136.564 108.083 137.101 106.919 136.952 106.68V106.71Z" fill="#FADAAB" fill-opacity="0.6"/>
<path d="M136.892 134.039C135.639 135.442 134.505 136.933 133.521 138.544C134.744 137.262 135.908 135.322 136.892 134.039Z" fill="#FADAAB" fill-opacity="0.6"/>
<path d="M136.892 134.039C135.639 135.442 134.505 136.933 133.521 138.544C134.744 137.262 135.908 135.322 136.892 134.039Z" fill="#FADAAB" fill-opacity="0.6"/>
<path d="M145.544 114.05C145.365 114.736 145.186 115.452 145.037 116.138C145.156 115.512 145.306 114.915 145.425 114.289C145.485 114.109 145.813 112.469 145.574 112.827C144.59 114.527 143.993 116.258 143.605 118.167C143.396 119.271 143.307 120.405 143.128 121.509C142.471 125.268 141.069 127.207 138.473 129.743C138.026 130.191 137.549 130.668 137.101 131.116C137.489 130.459 137.817 129.833 138.205 129.176C138.444 128.788 138.503 127.446 138.563 127.326C135.43 131.175 132.864 135.352 130.866 139.887C128.956 139.947 126.778 138.604 125.077 138.097C122.9 137.441 120.662 137.023 118.394 136.784C116.127 136.575 113.83 136.575 111.592 136.784C109.325 136.993 108.042 137.828 107.266 135.322C107.176 135.024 107.087 134.726 106.997 134.427C106.878 130.429 105.595 126.76 103.149 123.687C103.537 123.955 103.924 124.194 104.312 124.462C109.862 128.042 115.679 132.219 122.452 132.876C134.326 134.039 139.458 122.791 141.457 112.886C141.636 112.051 141.188 112.886 141.129 113.214C139.398 120.017 136.355 128.072 128.807 130.041C123.824 131.324 118.663 129.833 114.218 127.625C109.414 125.238 104.969 122.195 100.344 119.48C95.69 116.735 90.976 113.364 85.8146 111.693C85.7549 111.693 85.4864 112.409 85.6057 112.469C91.0655 115.213 96.0778 118.943 101.18 122.404C101.001 122.851 100.792 123.388 100.911 123.537C101.597 124.522 102.194 125.566 102.791 126.61C103.895 130.28 105.118 133.92 106.401 137.53C106.401 137.53 106.46 137.441 106.52 137.291C106.639 137.799 106.818 138.276 107.027 138.544C107.833 139.499 108.549 139.022 109.712 138.932C117.201 138.365 124.033 139.439 130.806 142.811C130.806 142.811 130.836 142.811 130.866 142.811C130.985 142.691 131.074 142.542 131.194 142.423C131.194 142.542 131.164 142.632 131.164 142.721C129.672 144.034 128.688 144.332 126.808 143.736C125.048 143.169 123.347 142.393 121.617 141.767C121.557 141.767 121.318 142.453 121.408 142.513C124.093 143.974 127.673 147.077 130.478 144.631C133.372 142.065 135.818 138.753 138.056 135.621C138.205 135.412 138.205 134.755 138.235 134.696C136.087 137.261 133.968 140.126 131.492 142.393C131.611 142.154 131.731 141.886 131.82 141.647C135.042 137.679 138.294 133.711 141.517 129.773C141.815 129.415 141.994 127.714 141.994 127.714C141.636 127.983 141.308 128.281 140.98 128.58C141.815 127.476 142.441 126.252 142.889 124.85C142.979 124.611 143.038 124.313 143.098 124.074C143.098 124.134 143.098 124.164 143.098 124.224C143.038 125.089 143.575 123.508 143.605 123.329C144.023 121.628 144.47 119.927 144.888 118.227C144.679 119.42 144.53 120.614 144.351 121.837C144.202 122.821 144.709 121.419 144.769 121.121C145.216 118.555 145.634 115.959 146.052 113.393C146.231 112.2 145.664 113.722 145.574 114.08L145.544 114.05ZM133.521 138.574C134.505 136.963 135.609 135.442 136.892 134.069C135.908 135.352 134.744 137.291 133.521 138.574Z" fill="#FADAAB" fill-opacity="0.6"/>
<path d="M18.835 59.0638C18.835 59.0638 18.8051 59.2428 18.835 59.1533C20.6549 54.4095 26.0253 52.2017 30.3812 50.4116C30.4408 50.4116 30.4408 50.1729 30.4408 50.1431C25.6075 51.8138 20.7444 53.962 18.835 59.0638Z" fill="#FADAAB" fill-opacity="0.6"/>
<path d="M74.6564 64.9412L74.5669 65.3589C76.6553 63.8373 78.714 62.1665 80.3549 60.1974C80.4444 60.1079 80.4444 59.7499 80.4444 59.7499C78.5648 61.5698 76.7448 63.3599 74.6265 64.971L74.6564 64.9412Z" fill="#FADAAB" fill-opacity="0.6"/>
<path d="M80.7428 63.6582C80.7428 63.6582 80.8025 63.5091 80.7726 63.5091C80.7428 63.5091 80.7129 63.6582 80.7428 63.6582Z" fill="#FADAAB" fill-opacity="0.6"/>
<path d="M82.7715 62.8228C82.7715 62.8228 82.8312 62.6736 82.8013 62.6736C82.7715 62.6736 82.7417 62.8228 82.7715 62.8228Z" fill="#FADAAB" fill-opacity="0.6"/>
<path d="M67.3466 192.576C66.7499 192.009 65.8549 191.71 65.1985 191.203C64.5123 190.696 63.9156 190.129 63.3786 189.473C63.4084 189.502 63.0205 190.069 63.1697 190.248C63.7067 190.905 64.3034 191.501 64.9897 192.009C65.5864 192.456 66.4218 193.142 67.1975 193.142C67.287 193.142 67.4063 192.635 67.3466 192.576Z" fill="#FADAAB" fill-opacity="0.6"/>
<path d="M66.8992 188.727C66.8992 188.727 66.9589 188.578 66.9291 188.578C66.8992 188.578 66.8694 188.727 66.8992 188.727Z" fill="#FADAAB" fill-opacity="0.6"/>
<path d="M68.1224 185.057C68.1224 185.057 68.1821 184.908 68.1522 184.908C68.1224 184.908 68.0926 185.057 68.1224 185.057Z" fill="#FADAAB" fill-opacity="0.6"/>
<path d="M72.1501 184.132C70.7777 182.551 68.9279 181.268 67.3467 179.896C67.3467 179.896 67.1378 180.313 67.2273 180.373C68.0329 181.059 68.8384 181.745 69.6439 182.462C70.4197 183.148 71.1954 183.923 72.0606 184.461C72.0606 184.461 72.18 184.192 72.1501 184.132Z" fill="#FADAAB" fill-opacity="0.6"/>
<path d="M73.4927 181.447C72.2397 179.746 70.539 178.314 69.0473 176.823C69.0771 176.852 68.6594 177.539 68.8086 177.688C70.2407 179.12 71.6728 180.85 73.3435 182.014C73.3435 182.014 73.5524 181.537 73.4927 181.447Z" fill="#FADAAB" fill-opacity="0.6"/>
<path d="M75.4917 176.703C73.7613 175.45 72.0905 174.108 70.6286 172.556C70.6286 172.556 70.4197 172.914 70.5092 173.004C71.9712 174.525 73.6121 175.928 75.432 177.002C75.432 177.002 75.5513 176.763 75.5215 176.733L75.4917 176.703Z" fill="#FADAAB" fill-opacity="0.6"/>
<path d="M72.5976 171.214C72.5976 171.214 72.6573 171.064 72.6274 171.064C72.5976 171.064 72.5678 171.214 72.5976 171.214Z" fill="#FADAAB" fill-opacity="0.6"/>
<path d="M76.7447 170.557C76.2077 169.99 75.6706 169.453 75.1336 168.887C75.1336 168.887 74.9546 169.215 75.0143 169.304C75.5513 169.841 76.1182 170.378 76.6552 170.915C76.6552 170.915 76.8044 170.617 76.7447 170.557Z" fill="#FADAAB" fill-opacity="0.6"/>
<path d="M76.6552 166.321C76.6552 166.321 76.7148 166.172 76.685 166.172C76.6552 166.172 76.6253 166.321 76.6552 166.321Z" fill="#FADAAB" fill-opacity="0.6"/>
<path d="M80.9515 165.694C80.1757 164.978 79.3404 164.352 78.4453 163.785C78.4453 163.785 78.1171 164.471 78.2365 164.56C79.042 165.187 79.8475 165.843 80.5934 166.559C80.9216 166.888 81.2498 167.216 81.5481 167.544C81.8763 167.902 82.2344 168.469 82.6819 168.708C82.7416 168.737 82.9504 168.021 82.9206 167.932C82.5327 167.067 81.6675 166.321 80.9813 165.694H80.9515Z" fill="#FADAAB" fill-opacity="0.6"/>
<path d="M132.178 50.5606C132.178 50.5606 131.969 51.0976 132.029 51.1275C136.236 52.5894 139.339 55.543 139.368 60.257C139.368 60.3763 139.607 59.7796 139.607 59.6602C139.965 55.5132 136.743 50.5009 132.178 50.5606Z" fill="#FADAAB" fill-opacity="0.6"/>
<path d="M115.381 76.0994C115.381 76.0994 115.381 76.2486 115.351 76.2486C118.603 72.9667 121.527 69.1479 124.332 65.4782C124.421 65.3588 124.421 64.971 124.451 64.9412C121.259 68.4915 118.156 72.2209 115.381 76.0696V76.0994Z" fill="#FADAAB" fill-opacity="0.6"/>
<path d="M85.4567 30.3028L85.3672 30.6608C93.1243 26.8419 100.702 22.4561 107.594 17.235C107.654 17.1753 107.654 16.9366 107.654 16.9366C100.374 21.6506 93.1243 26.2452 85.4269 30.3028H85.4567Z" fill="#FADAAB" fill-opacity="0.6"/>
<path d="M87.9926 33.853L87.9031 34.211C98.1962 30.8695 104.82 21.4715 114.158 16.3697C114.247 16.3101 114.218 16.0117 114.247 15.9819C104.462 20.4571 98.3155 30.243 87.9926 33.8232V33.853Z" fill="#FADAAB" fill-opacity="0.6"/>
<path d="M148.826 14.0426C145.186 10.9099 139.697 11.3277 135.192 11.2978C129.702 11.2978 124.123 11.5664 118.723 12.6106C118.663 12.6106 118.633 12.909 118.633 12.909C124.063 12.6405 129.463 12.1929 134.923 12.2526C139.637 12.3123 144.47 12.2525 148.677 14.6095C148.677 14.6095 148.916 14.1023 148.826 14.0426Z" fill="#FADAAB" fill-opacity="0.6"/>
<path d="M184.032 30.1832C181.973 27.1997 178.632 24.8428 175.439 23.1721C175.409 23.1721 175.111 23.888 175.23 23.9477C176.782 24.9919 178.303 26.0362 179.765 27.1997C181.168 28.3334 182.421 29.6761 183.883 30.7203C183.883 30.7203 184.091 30.243 184.032 30.1535V30.1832Z" fill="#FADAAB" fill-opacity="0.6"/>
<path d="M217.477 147.793C215.12 144.422 212.077 141.707 208.646 139.738C208.675 139.469 208.675 139.26 208.616 139.23C205.602 137.47 202.41 136.635 199.158 136.396C197.607 136.157 196.025 136.008 194.444 136.038C190.386 135.024 186.21 134.457 181.913 134.337C176.961 134.218 171.292 134.069 168.846 128.907C166.369 123.627 168.488 117.331 167.622 111.752C167.622 111.752 167.264 112.498 167.235 112.677C165.832 121.091 161.805 133.502 172.306 137.709C174.783 138.693 177.468 139.171 180.183 139.439C179.467 139.648 178.751 139.857 178.035 140.066C168.04 142.96 157.657 145.555 149.542 152.418C149.423 152.507 149.423 152.984 149.423 153.014C158.105 146.749 168.875 144.541 178.99 141.677C181.287 141.021 183.614 140.394 185.971 139.857C186.687 139.887 187.403 139.947 188.089 139.976C191.282 140.215 194.444 140.454 197.636 140.692C202.887 142.095 207.81 144.422 212.435 147.584C212.435 147.584 212.822 146.838 213.061 146.152C214.434 147.435 215.687 148.867 216.761 150.448C216.612 150.24 217.894 148.509 217.447 147.883L217.477 147.793ZM175.051 136.307C169.591 134.845 165.862 131.324 165.653 125.417C165.534 122.105 166.22 118.137 167.056 114.885C167.951 111.424 167.503 116.645 167.503 117.451C167.503 119.002 167.294 120.554 167.205 122.105C166.996 125.954 167.085 130.31 169.83 133.323C173.022 136.873 178.124 136.545 182.45 136.754C184.33 136.844 186.18 137.052 188.03 137.351C188.03 137.351 188.03 137.381 188.03 137.41C187.493 137.53 186.985 137.649 186.478 137.768C182.659 137.56 178.751 137.321 175.111 136.336L175.051 136.307Z" fill="#FADAAB" fill-opacity="0.6"/>
<path d="M147.842 65.2693C147.842 65.2693 147.663 65.5975 147.722 65.6572C151.273 68.76 156.762 69.5357 160.999 67.4473C161.059 67.4473 161.059 67.1788 161.059 67.1788C156.195 68.2827 152.138 67.8053 147.812 65.2693H147.842Z" fill="#FADAAB" fill-opacity="0.6"/>
<path d="M155.867 64.2849C155.867 64.2849 155.569 65.1203 155.629 65.1203C160.79 65.896 165.832 64.255 169.413 60.4362C169.502 60.3466 169.502 59.9886 169.502 59.9886C165.743 63.4793 160.91 65.0904 155.838 64.2849H155.867Z" fill="#FADAAB" fill-opacity="0.6"/>
<path d="M167.563 64.9412L167.473 65.3887C170.994 63.6881 174.246 61.4803 176.871 58.5565C176.961 58.467 176.961 58.1089 176.991 58.0791C174.097 60.7643 171.113 63.1511 167.563 64.9412Z" fill="#FADAAB" fill-opacity="0.6"/>
<path d="M213.24 43.6391C212.345 41.849 210.585 40.4467 209.212 39.0147C207.542 37.3439 205.871 35.4045 203.902 34.0918C203.872 34.0918 203.633 34.6289 203.574 34.9869C203.037 34.2709 202.44 33.5548 201.784 33.0476C199.755 29.736 197.398 26.7524 193.519 25.38C193.34 25.3203 192.654 27.3492 192.923 27.558C199.844 33.0178 201.246 41.9384 207.273 47.9949C212.017 52.7387 218.581 55.5731 224.339 59.2428C239.406 76.398 250.474 96.8648 250.564 120.464C250.623 139.171 239.883 158.325 233.23 175.629C231.261 180.761 229.828 183.565 225.323 186.4C224.846 186.698 223.861 186.937 223.444 187.355C222.787 188.011 222.4 188.697 222.012 189.413C222.907 185.236 223.444 181 223.921 176.823C224.16 174.704 222.579 179.12 222.489 179.627C222.31 180.671 222.131 181.686 221.922 182.7C221.504 183.536 220.878 185.356 220.818 185.714C219.655 192.218 217.686 198.99 213.628 204.032C213.3 204.361 212.972 204.689 212.614 205.017C210.853 206.568 208.795 207.821 206.826 209.074C205.662 209.791 204.498 210.507 203.305 211.223C203.484 211.073 203.693 210.894 203.872 210.745C204.349 210.357 204.498 207.821 204.618 207.792C198.74 210.029 194.772 215.31 189.432 218.592C180.272 219.696 172.396 223.694 164.639 228.527C155.211 234.434 146.29 239.506 136.176 244.19C136.117 244.19 136.087 244.28 136.027 244.339C129.284 245.414 122.452 245.264 115.709 246.696C115.471 246.756 115.053 248.248 115.262 248.337C129.613 255.617 149.304 245.742 161.208 237.567C169.025 232.197 176.633 228.945 185.225 225.185C185.225 225.633 185.195 225.931 185.165 225.931C191.431 222.291 199.128 218.83 205.722 214.325C205.692 214.445 205.662 214.534 205.602 214.534C205.662 214.534 205.692 214.475 205.722 214.475C205.722 214.475 205.752 214.475 205.781 214.445C208.884 213.013 211.629 211.133 213.897 208.806C213.837 209.253 213.777 209.612 213.777 209.641C214.642 208.508 215.418 207.344 216.134 206.151C217.357 204.51 218.402 202.72 219.237 200.75C219.595 199.885 219.864 198.722 220.132 197.498C220.49 196.395 220.818 195.261 221.087 194.097C221.385 193.292 221.773 192.606 222.28 192.098C225.115 189.324 228.098 189.801 230.306 185.893C234.811 177.956 236.661 167.992 240.211 159.548C243.493 151.672 246.834 143.766 248.983 135.501C257.456 103.16 240.748 62.8529 213.151 43.5794L213.24 43.6391Z" fill="#FADAAB" fill-opacity="0.6"/>
<path d="M144.351 167.305C138.145 162.89 129.941 163.606 123.556 167.216C123.467 167.276 123.467 167.663 123.467 167.663C130.269 163.904 137.34 164.74 144.232 167.753C144.232 167.753 144.411 167.365 144.351 167.305Z" fill="#FADAAB" fill-opacity="0.6"/>
<path d="M148.498 165.455C146.052 163.158 142.322 162.621 139.1 163.158C138.981 163.158 138.921 163.725 138.951 163.725C142.501 163.546 145.186 164.769 148.259 166.291C148.319 166.291 148.588 165.575 148.498 165.455Z" fill="#FADAAB" fill-opacity="0.6"/>
<path d="M154.197 164.71C151.452 162.084 147.245 161.487 143.635 161.786C143.486 161.786 143.396 162.561 143.426 162.561C147.424 162.382 150.437 163.844 154.047 165.276C154.107 165.276 154.286 164.769 154.197 164.71Z" fill="#FADAAB" fill-opacity="0.6"/>
<path d="M157.896 163.427C155.987 162.144 153.809 161.189 151.75 160.145C151.72 160.145 151.422 160.831 151.541 160.891C153.57 161.905 155.599 163.128 157.747 163.874C157.777 163.874 157.926 163.457 157.866 163.427H157.896Z" fill="#FADAAB" fill-opacity="0.6"/>
<path d="M162.342 161.01C160.581 158.802 157.329 157.848 154.644 157.639C154.465 157.639 154.286 158.653 154.376 158.653C155.808 158.772 157.18 159.071 158.523 159.608C159.835 160.145 160.909 161.07 162.163 161.726C162.222 161.726 162.431 161.1 162.371 161.01H162.342Z" fill="#FADAAB" fill-opacity="0.6"/>
<path d="M166.817 157.848C164.162 155.55 160.492 154.506 157.061 154.088C156.941 154.088 156.792 154.834 156.852 154.864C160.522 155.282 163.445 156.714 166.697 158.265C166.697 158.265 166.877 157.907 166.817 157.848Z" fill="#FADAAB" fill-opacity="0.6"/>
<path d="M169.233 154.596C168.338 153.939 167.085 153.73 166.011 153.402C164.937 153.074 163.833 152.716 162.759 152.388C162.67 152.358 162.401 153.283 162.521 153.313C163.595 153.641 164.699 153.969 165.802 154.297C166.847 154.625 168.01 155.163 169.114 155.103C169.204 155.103 169.323 154.596 169.263 154.566L169.233 154.596Z" fill="#FADAAB" fill-opacity="0.6"/>
<path d="M165.594 148.42C165.594 148.42 165.415 149.016 165.444 149.016C167.503 148.867 169.532 148.748 171.59 148.539C171.68 148.539 171.71 148.091 171.71 148.091C169.681 148.151 167.652 148.3 165.623 148.42H165.594Z" fill="#FADAAB" fill-opacity="0.6"/>
<path d="M157.479 76.2786C157.479 76.2786 157.24 76.756 157.24 76.935C156.941 83.6479 157.687 90.3906 159.895 96.7454C159.895 96.7454 160.074 96.4471 160.044 96.3278C158.284 89.7044 157.3 83.1706 157.508 76.3085L157.479 76.2786Z" fill="#FADAAB" fill-opacity="0.6"/>
<path d="M77.073 229.482C71.643 225.245 64.0052 223.694 57.8294 220.71C52.0115 217.906 46.4323 214.564 41.6289 210.178C29.6949 199.288 27.1291 184.102 24.5036 168.976C21.8483 153.7 16.1796 141.617 9.22803 127.893C5.8865 121.27 3.08201 114.438 2.09745 107.038C0.307346 93.553 4.09642 80.1869 7.43795 67.2683C7.76614 66.0153 7.43792 65.8661 7.0799 67.1788C2.75381 82.1262 -1.51258 98.2371 1.32175 113.871C4.48427 131.473 17.0448 145.645 21.0725 163.099C24.6229 178.583 24.8318 195.619 34.6475 208.895C39.451 215.37 46.1042 220.233 53.1751 224.022C59.7985 227.572 68.6296 232.465 76.2674 232.435C76.6851 232.435 77.4011 229.78 77.073 229.511V229.482Z" fill="#FADAAB" fill-opacity="0.6"/>
<path d="M116.455 78.8444C116.515 78.4565 116.306 79.0234 116.276 79.1427C115.411 83.8865 115.143 88.9883 116.485 93.6426C116.485 93.6128 116.724 93.1354 116.694 92.9564C115.978 88.1529 115.62 83.6478 116.425 78.8444H116.455Z" fill="#FADAAB" fill-opacity="0.6"/>
<path d="M119.856 84.0058C119.856 84.0058 119.916 83.8566 119.886 83.8566C119.856 83.8566 119.827 84.0058 119.856 84.0058Z" fill="#FADAAB" fill-opacity="0.6"/>
<path d="M122.333 82.3051C121.259 85.9748 120.393 90.8976 121.885 94.5374C121.885 94.5374 122.124 94.0004 122.124 93.8811C121.796 89.8832 121.497 86.303 122.512 82.3349C122.661 81.7382 122.512 81.6785 122.333 82.3051Z" fill="#FADAAB" fill-opacity="0.6"/>
<path d="M125.555 83.9461C125.644 83.6478 125.615 83.2897 125.465 83.7969C124.779 85.8853 124.332 88.0037 124.153 90.2115C124.093 90.838 123.526 94.9851 125.167 94.1199C125.257 94.0602 125.465 93.4038 125.346 93.374C124.212 92.8967 124.481 90.8977 124.541 89.8833C124.6 87.8545 124.988 85.8853 125.555 83.9759V83.9461Z" fill="#FADAAB" fill-opacity="0.6"/>
<path d="M128.807 87.1982C127.584 89.1673 126.868 91.6137 125.973 93.7618C125.913 93.8812 125.734 94.8061 125.913 94.4481C126.897 92.2403 128.001 90.0026 128.777 87.7053C128.777 87.6457 128.896 87.049 128.807 87.1982Z" fill="#FADAAB" fill-opacity="0.6"/>
<path d="M131.194 90.3308C130.418 91.912 129.762 93.553 129.195 95.2238C129.135 95.3729 129.046 96.089 129.225 95.5818C130.418 92.5684 132.089 89.9131 133.521 87.0489C133.581 86.9296 133.7 86.1837 133.67 86.2135C132.536 87.1981 131.85 88.9882 131.194 90.3308Z" fill="#FADAAB" fill-opacity="0.6"/>
<path d="M136.445 89.943C134.893 92.1508 133.431 94.5674 132.149 96.9542C132.029 97.1631 131.999 97.7897 131.969 97.8494C133.521 95.7609 134.953 93.4636 136.236 91.1961C136.385 90.9276 136.504 90.5695 136.534 90.2414C136.534 90.1519 136.624 89.7043 136.445 89.943Z" fill="#FADAAB" fill-opacity="0.6"/>
<path d="M136.862 95.2536C136.415 96.0591 135.967 96.8648 135.52 97.6703C135.371 97.9388 135.281 98.267 135.251 98.5653C135.251 98.625 135.192 99.0725 135.341 98.8338C136.206 97.3122 137.221 95.8205 137.907 94.2094C137.966 94.0603 138.086 93.2547 138.056 93.2846C137.549 93.7918 137.221 94.6569 136.862 95.2835V95.2536Z" fill="#FADAAB" fill-opacity="0.6"/>
<path d="M138.563 97.1631C138.503 97.3421 138.265 97.9687 138.384 98.1178C138.503 98.2372 138.652 97.6703 138.682 97.6405C139.07 96.3277 139.846 95.194 140.592 94.0901C140.651 93.9708 140.741 93.3741 140.741 93.3741C139.547 94.2095 138.981 95.8504 138.563 97.193V97.1631Z" fill="#FADAAB" fill-opacity="0.6"/>
<path d="M151.034 97.8494C151.034 97.8494 150.348 99.0129 150.616 99.3709C152.407 101.907 153.749 104.831 155.629 107.307C155.629 107.277 156.046 106.382 155.957 106.173C154.853 103.19 152.854 100.445 151.034 97.8494Z" fill="#FADAAB" fill-opacity="0.6"/>
<path d="M98.0173 124.82C96.1078 123.895 93.1541 125.357 91.4237 126.342C89.2756 127.565 87.575 129.325 86.2622 131.443C86.1727 131.593 86.1727 132.01 86.1429 132.04C87.4258 130.399 88.9474 128.997 90.7972 127.983C93.0647 126.759 95.4813 126.789 97.7487 125.805C97.8681 125.745 98.1664 124.88 98.0173 124.82Z" fill="#FADAAB" fill-opacity="0.6"/>
<path d="M96.3762 121.896C94.7353 121.509 92.8557 121.717 90.9761 122.225V122.165C90.9761 122.165 90.976 122.195 90.9462 122.225C88.7384 122.821 86.5306 123.776 84.8599 124.671C84.7405 124.731 84.7405 125.298 84.7107 125.298C86.5306 124.611 88.3208 124.015 90.2302 123.627C92.1695 123.239 94.2281 123.299 96.1375 122.821C96.2867 122.791 96.4956 121.926 96.3762 121.896Z" fill="#FADAAB" fill-opacity="0.6"/>
<path d="M96.5851 127.744C95.511 128.639 94.5265 129.594 93.6314 130.638C93.3928 130.906 93.4226 131.831 93.3331 131.921C94.1983 130.936 95.1232 130.011 96.1376 129.176C97.1818 128.311 98.3752 127.595 99.3896 126.67C99.4791 126.58 99.6283 125.805 99.5984 125.805C98.4647 126.073 97.4801 127.028 96.5851 127.744Z" fill="#FADAAB" fill-opacity="0.6"/>
</svg>
