<svg width="54" height="54" viewBox="0 0 54 54" fill="none" xmlns="http://www.w3.org/2000/svg">
<path d="M37.3235 48.0578C33.7611 49.7237 30.3846 52.2929 26.3673 52.7158C22.3885 53.1323 18.2687 50.8321 14.8409 49.0509C11.5732 47.3594 8.34403 45.1362 6.63973 41.7596C4.76244 38.0499 4.9995 33.7315 3.51304 29.8936C2.76982 27.9715 1.39869 26.3569 0.783607 24.3835C-0.113392 21.5002 0.335104 17.9827 1.36025 15.1892C2.07784 13.2479 3.23755 11.4218 4.9034 10.166C6.71662 8.80131 8.92708 8.45534 11.0991 8.07731C12.8034 7.78259 14.4757 7.4302 16.0134 6.59727C17.8202 5.61698 19.3259 4.18818 21.0686 3.10537C29.6542 -2.22536 39.534 3.28477 45.531 9.81364C45.499 9.7752 45.877 9.18574 45.7425 9.03197C40.0914 2.56717 30.801 -2.7892 22.2539 1.59969C20.4215 2.54154 18.903 3.95111 17.1731 5.06595C15.0074 6.46271 12.7009 6.83432 10.2277 7.28282C6.27453 8.00042 3.44897 9.89053 1.78312 13.6003C0.437621 16.586 -0.273565 20.2445 0.098049 23.5057C0.347927 25.6905 1.43073 27.3436 2.43665 29.2401C3.5579 31.3544 4.02562 33.6546 4.44849 35.9932C5.23016 40.3436 6.32578 44.0982 9.79845 47.0391C12.9956 49.7429 17.1987 51.6714 21.1134 53.0746C26.0854 54.8622 30.218 52.735 34.5428 50.4092C36.7853 49.2047 39.0662 48.3077 41.4369 47.4171C43.5576 46.6162 45.4798 45.6616 46.8829 43.8163C47.0239 43.6305 47.0175 43.0667 47.0688 43.009C44.6597 45.9435 40.604 46.5265 37.3235 48.0578Z" fill="#FADAAB" fill-opacity="0.2"/>
<path d="M48.9461 12.7545C48.9461 12.7545 48.7795 13.0749 48.8243 13.1646C50.8234 16.8359 53.0659 20.4943 53.4759 24.7487C53.7771 27.8689 52.675 30.7009 51.5217 33.5328C50.6824 35.6024 49.8623 39.5043 47.7479 40.4654C47.639 40.5166 47.4917 41.183 47.5493 41.1894C48.4399 41.2406 48.8243 40.5102 49.1959 39.7926C49.9135 38.4023 50.4069 36.8518 50.9964 35.4037C52.0023 32.9306 53.1363 30.4574 53.6297 27.8177C54.642 22.4229 52.1945 16.9576 48.9397 12.7609L48.9461 12.7545Z" fill="#FADAAB" fill-opacity="0.2"/>
<path d="M15.5008 14.6318C14.8793 14.4972 14.1617 14.9714 13.7004 15.3174C12.3677 16.3041 11.2913 17.7008 10.625 19.2129C10.6058 19.2578 10.5865 19.4436 10.5865 19.45C11.3938 18.38 12.0858 17.3164 13.1174 16.4386C13.6363 15.9965 14.2899 15.4647 15.0075 15.4455C15.866 15.4199 16.039 16.099 16.212 16.8102C16.212 16.8038 16.3209 16.5668 16.3209 16.4899C16.3081 15.8171 16.3209 14.8112 15.5072 14.6382L15.5008 14.6318Z" fill="#FADAAB" fill-opacity="0.2"/>
<path d="M20.3317 24.6141C18.7812 23.5505 17.3012 22.3973 15.6161 21.5515C14.0912 20.7891 12.451 20.3726 11.003 19.4564C10.9901 19.45 10.9069 19.6806 10.9325 19.7127C12.0794 21.3145 13.9887 21.7053 15.6481 22.5831C17.4614 23.5441 19.1208 24.7679 20.87 25.8443C22.7601 27.004 27.6103 29.695 29.2249 26.8566C29.2505 26.8118 29.2569 26.6708 29.2633 26.658C27.3412 29.2401 22.145 25.8507 20.3317 24.6077V24.6141Z" fill="#FADAAB" fill-opacity="0.2"/>
<path d="M33.8765 21.6027C33.2678 20.2637 32.7296 18.8733 31.461 18.0084C29.8656 16.9191 27.8794 16.791 26.9504 14.8753C26.9504 14.856 26.9375 14.8496 26.9183 14.8688C25.4062 16.6628 23.4329 17.7457 21.1199 18.1301C21.0686 18.1365 21.0302 18.2134 21.0045 18.3095C19.2618 17.342 17.628 16.2079 15.9173 15.0611C15.9173 15.0611 15.8788 15.1444 15.8917 15.1572C17.7561 17.2907 20.3959 18.9117 22.9779 20.0394C24.2017 20.5712 25.4639 21.0005 26.7517 21.3272C28.1485 21.6796 30.5896 21.9615 30.423 23.967C30.4102 24.14 30.5384 23.7491 30.5448 23.6915C30.9548 20.6929 26.4955 20.6225 24.4772 19.9049C23.5033 19.5589 22.5871 19.1424 21.7029 18.6811C22.2988 18.5337 22.8818 18.3415 23.4457 18.0724C24.4195 17.6111 25.1307 16.8358 26.0406 16.3233C26.5083 16.0606 26.2007 15.7851 26.944 16.0606C27.2067 16.1567 27.5655 16.7846 27.8153 16.9768C28.5842 17.5663 29.494 17.8418 30.3526 18.2582C32.4861 19.3026 33.0051 21.1735 34.0815 23.1212C34.498 23.8709 35.2412 24.5308 35.2028 25.3381C35.1771 25.8891 34.7735 26.5619 34.6517 27.1193C34.5556 27.5678 34.4852 28.0355 34.4723 28.4968C34.4788 28.4712 34.4916 29.9961 34.5428 29.6885C34.4147 30.4318 34.2225 30.3869 33.5561 30.7585C31.3136 31.9951 28.943 33.0843 26.5147 33.9045C25.4319 34.2697 24.9834 33.9365 24.0543 33.3278C23.2278 32.7832 22.2283 32.5269 21.4274 32.0208C20.729 31.5787 20.4023 30.3677 19.8 29.759C19.1144 29.0735 18.3392 28.7083 17.4101 28.5225C18.1021 26.7157 18.2495 24.8448 17.3973 23.0059C17.4037 23.0251 17.1539 23.4352 17.2115 23.5762C17.8522 25.2292 18.0701 26.8694 17.2372 28.5865C17.2051 28.6442 17.0321 29.1311 17.1218 29.1568C18.8774 29.7462 20.0947 30.9059 20.7354 32.6551C20.7354 32.6615 20.7419 32.6679 20.7483 32.6743C22.7409 32.277 23.4969 34.6861 25.214 34.968C25.9637 35.0898 27.0657 34.4619 27.7384 34.1992C28.6995 33.8276 29.6478 33.4175 30.5832 32.9882C32.3772 32.1553 34.6133 31.6107 34.8632 29.4515C35.0234 28.0611 35.2732 26.5811 35.4911 25.1907C35.5167 25.0434 35.6064 24.9024 35.6 24.7422C35.5744 23.6979 34.3058 22.5702 33.8637 21.5963L33.8765 21.6027Z" fill="#FADAAB" fill-opacity="0.2"/>
<path d="M7.2421 31.9631C6.47324 30.9892 5.37121 30.3101 4.57032 29.349C3.70536 28.311 3.06464 27.1129 2.43675 25.9212C2.0331 25.1587 1.62945 24.4027 1.34753 23.589C1.52693 24.2425 1.77681 24.9024 2.10998 25.5624C3.35938 28.0612 4.84583 30.4703 7.21006 32.0784C7.21006 32.0784 7.25491 31.9759 7.2421 31.9567V31.9631Z" fill="#FADAAB" fill-opacity="0.2"/>
<path d="M1.03357 19.5653C0.91824 20.6032 0.905426 21.654 1.10405 22.6855C1.16171 22.9995 1.25141 23.3006 1.35393 23.5954C0.988719 22.2755 0.905426 20.9492 1.03357 19.5653Z" fill="#FADAAB" fill-opacity="0.2"/>
<path d="M1.25776 17.9443C1.15524 18.4953 1.07836 19.0335 1.0271 19.5589C1.09117 19.0015 1.17446 18.4505 1.28338 17.8994C1.2962 17.8418 1.26416 17.9251 1.25776 17.9443Z" fill="#FADAAB" fill-opacity="0.2"/>
<path d="M6.59484 32.3091C5.81317 31.7453 5.08276 31.1494 4.42282 30.451C4.42923 30.4575 4.34593 30.592 4.37797 30.6241C5.03149 31.316 5.74909 31.9631 6.54998 32.4757C6.54998 32.4757 6.62687 32.3283 6.59484 32.3027V32.3091Z" fill="#FADAAB" fill-opacity="0.2"/>
<path d="M4.73683 31.4319C4.73683 31.4319 4.74989 31.3993 4.74337 31.3993C4.73684 31.3993 4.73031 31.4319 4.73683 31.4319Z" fill="#FADAAB" fill-opacity="0.2"/>
<path d="M8.70286 31.0853C6.93449 30.5087 5.46726 28.9069 4.35883 27.4653C3.15428 25.8955 2.25729 24.108 1.69987 22.2115C1.69987 22.2115 1.69346 22.2243 1.69987 22.2307C2.20603 24.0887 3.01333 25.8315 4.16021 27.382C5.2302 28.8364 6.84479 30.765 8.67083 31.2135C8.68364 31.2135 8.72208 31.0853 8.70927 31.0789L8.70286 31.0853Z" fill="#FADAAB" fill-opacity="0.2"/>
<path d="M10.106 30.8419C8.4209 30.5215 7.20995 29.3298 6.05026 28.1445C6.05026 28.1445 6.03103 28.1829 6.03744 28.1957C7.13947 29.4323 8.35682 30.7009 10.0611 30.9957C10.0803 30.9957 10.1188 30.8419 10.106 30.8419Z" fill="#FADAAB" fill-opacity="0.2"/>
<path d="M11.0542 30.5023C10.4904 30.1563 9.84328 29.9641 9.27305 29.6181C8.71562 29.2721 8.19665 28.8685 7.73534 28.4008C7.73534 28.4008 7.70971 28.452 7.71612 28.4648C8.53623 29.349 9.75998 30.4703 11.0222 30.6048C11.035 30.6048 11.0606 30.5087 11.0478 30.5023H11.0542Z" fill="#FADAAB" fill-opacity="0.2"/>
<path d="M12.2075 30.2076C11.5283 29.5861 10.6505 29.1312 9.84322 28.7019C9.83682 28.7019 9.76634 28.8685 9.79196 28.8813C10.6185 29.317 11.3617 29.8744 12.1754 30.3229C12.1754 30.3229 12.2203 30.2268 12.2075 30.2076Z" fill="#FADAAB" fill-opacity="0.2"/>
<path d="M13.3032 29.9577C12.2204 29.3875 11.1696 28.9326 10.2085 28.1573C10.2085 28.1573 10.1317 28.2982 10.1637 28.3239C11.0543 29.0479 12.1435 29.7911 13.2776 30.041C13.284 30.041 13.3096 29.9641 13.2968 29.9577H13.3032Z" fill="#FADAAB" fill-opacity="0.2"/>
<path d="M14.3795 29.2273C13.6875 29.0351 13.034 28.9326 12.3933 28.5802C11.7718 28.2342 11.2592 27.7665 10.8299 27.2026C10.8428 27.2155 10.753 27.3372 10.7787 27.3821C11.5796 28.4264 12.9699 29.4195 14.3539 29.3298C14.3667 29.3298 14.3923 29.2401 14.3795 29.2337V29.2273Z" fill="#FADAAB" fill-opacity="0.2"/>
<path d="M14.9946 28.8941C13.5658 28.7403 12.4446 27.3628 11.3105 26.5811C11.3105 26.5811 11.2913 26.6195 11.2977 26.626C11.9064 27.1706 12.5599 27.6575 13.1878 28.1701C13.7004 28.5865 14.2386 29.1696 14.9562 29.0286C14.9818 29.0286 15.001 28.8941 14.9946 28.8941Z" fill="#FADAAB" fill-opacity="0.2"/>
<path d="M15.3534 28.1957C14.9946 27.933 14.5974 27.7087 14.2194 27.4781C14.2194 27.4781 14.1361 27.6383 14.1681 27.6575C14.5461 27.8817 14.9177 28.138 15.315 28.3302C15.3214 28.3302 15.3726 28.2085 15.3534 28.1957Z" fill="#FADAAB" fill-opacity="0.2"/>
<path d="M1.15533 19.5461C1.15533 19.5461 1.18095 19.4884 1.18095 19.4692C1.15533 19.2642 1.14893 19.0591 1.14893 18.8541C1.14893 19.0783 1.14892 19.309 1.15533 19.5397V19.5461Z" fill="#FADAAB" fill-opacity="0.2"/>
<path d="M1.14246 18.8605C1.14886 18.5402 1.18091 18.2262 1.21935 17.9059C1.1745 18.2198 1.14246 18.5402 1.14246 18.8605Z" fill="#FADAAB" fill-opacity="0.2"/>
<path d="M1.41163 16.9768C1.32193 17.2907 1.26427 17.5983 1.22583 17.9122C1.27068 17.5983 1.33475 17.2843 1.41805 16.9768C1.41805 16.9576 1.41805 16.9576 1.41805 16.9768H1.41163Z" fill="#FADAAB" fill-opacity="0.2"/>
<path d="M1.69983 15.0163C1.93049 13.9271 2.49431 12.998 3.24394 12.2228C2.4879 12.9596 1.93049 13.8694 1.69983 15.0163Z" fill="#FADAAB" fill-opacity="0.2"/>
<path d="M6.71028 10.0699C5.42885 10.5312 4.18587 11.2552 3.24402 12.2291C4.89065 10.6273 7.47913 9.8649 9.67037 9.39078C12.4511 8.78851 15.3855 8.25672 17.4743 6.15518C17.4871 6.14237 17.4807 6.10391 17.4871 6.10391C14.5462 8.86539 10.3111 8.76928 6.71028 10.0699Z" fill="#FADAAB" fill-opacity="0.2"/>
<path d="M1.61016 15.5929C1.61657 15.516 1.62939 15.4391 1.6422 15.3622C1.62939 15.4455 1.61657 15.5224 1.60376 15.6057C1.60376 15.6121 1.60376 15.5993 1.60376 15.5929H1.61016Z" fill="#FADAAB" fill-opacity="0.2"/>
<path d="M1.69988 15.0163C1.68707 15.0675 1.68066 15.1188 1.66785 15.17C1.67425 15.1188 1.68707 15.0675 1.69988 15.0163Z" fill="#FADAAB" fill-opacity="0.2"/>
<path d="M1.66785 15.1765C1.65503 15.2405 1.64862 15.2982 1.64221 15.3623C1.64862 15.2982 1.66144 15.2341 1.66785 15.1765Z" fill="#FADAAB" fill-opacity="0.2"/>
<path d="M13.6683 9.40355L13.6555 9.45482C15.3086 8.96788 16.8014 8.14776 18.0444 6.94322C18.0572 6.9304 18.0508 6.89197 18.0572 6.89197C16.7694 8.03244 15.3214 8.89739 13.6747 9.40355H13.6683Z" fill="#FADAAB" fill-opacity="0.2"/>
<path d="M15.1869 9.57655C15.1485 9.58936 15.1549 9.72391 15.1421 9.73031C16.1032 9.42918 16.9809 8.91662 17.6729 8.1798C17.6921 8.16058 17.6921 8.09009 17.6921 8.09009C16.9553 8.76284 16.1416 9.28181 15.1805 9.58294L15.1869 9.57655Z" fill="#FADAAB" fill-opacity="0.2"/>
<path d="M16.212 10.0443C16.1736 10.0635 16.1736 10.2109 16.1736 10.2109C16.9232 9.81364 17.628 9.33312 18.2175 8.71803C18.2303 8.70522 18.2367 8.63474 18.2367 8.63474C17.596 9.16653 16.9488 9.65346 16.2056 10.0443H16.212Z" fill="#FADAAB" fill-opacity="0.2"/>
<path d="M17.2692 10.1917L17.25 10.2814C17.455 10.134 17.6601 9.98664 17.8651 9.83927C17.8843 9.82646 17.8779 9.76239 17.8843 9.76239C17.6793 9.90335 17.4743 10.0507 17.2756 10.1917H17.2692Z" fill="#FADAAB" fill-opacity="0.2"/>
<path d="M17.9549 10.6087C17.9549 10.6087 17.9679 10.5761 17.9614 10.5761C17.9548 10.5761 17.9483 10.6087 17.9549 10.6087Z" fill="#FADAAB" fill-opacity="0.2"/>
<path d="M19.1849 10.8067C18.9286 11.1976 18.5634 11.4026 18.1469 11.6012C18.1277 11.6076 18.1149 11.7165 18.1213 11.7165C18.5762 11.6653 18.9606 11.268 19.1721 10.89C19.1785 10.8772 19.1913 10.7939 19.1849 10.8067Z" fill="#FADAAB" fill-opacity="0.2"/>
<path d="M15.0331 23.73C15.0331 23.73 15.0011 23.794 15.0139 23.8004C16.7054 24.6077 16.8143 26.5106 16.6477 28.1445C16.6477 28.1957 16.6797 28.0868 16.6797 28.074C16.936 26.421 16.7887 24.4475 15.0331 23.7235V23.73Z" fill="#FADAAB" fill-opacity="0.2"/>
<path d="M16.7758 23.9734C16.7758 23.9734 16.7117 24.0823 16.7374 24.1144C17.4806 25.0754 17.7049 26.2928 17.2692 27.4525C17.2692 27.4653 17.2499 27.555 17.2692 27.5166C17.7625 26.3184 17.6023 24.9922 16.7758 23.9734Z" fill="#FADAAB" fill-opacity="0.2"/>
<path d="M15.5265 26.1967C15.5265 26.1967 15.4752 26.2799 15.488 26.312C15.5457 26.4273 15.6033 26.5426 15.6674 26.6516C15.6674 26.6516 15.7123 26.5747 15.6995 26.5555C15.6418 26.4337 15.5841 26.3184 15.5265 26.1967Z" fill="#FADAAB" fill-opacity="0.2"/>
<path d="M19.9922 11.6076C19.6334 12.1266 19.2234 12.5751 18.7429 12.9852C18.7236 12.998 18.7236 13.0685 18.7236 13.0685C19.2298 12.7033 19.6527 12.2227 19.973 11.6845C19.9794 11.6717 19.9987 11.5884 19.9858 11.6013L19.9922 11.6076Z" fill="#FADAAB" fill-opacity="0.2"/>
<path d="M19.2619 13.3189C19.2619 13.3189 19.2749 13.2863 19.2684 13.2863C19.2619 13.2863 19.2553 13.3189 19.2619 13.3189Z" fill="#FADAAB" fill-opacity="0.2"/>
<path d="M2.81474 13.5362C2.32139 14.5165 1.95618 15.5545 1.73193 16.6245C1.71912 16.6885 1.74475 16.6373 1.75115 16.6052C2.00103 15.5545 2.34702 14.5485 2.80834 13.5747C2.80834 13.5683 2.82115 13.5106 2.80834 13.5362H2.81474Z" fill="#FADAAB" fill-opacity="0.2"/>
<path d="M2.1804 17.6944C2.1804 17.6944 2.1804 17.6688 2.17399 17.6944C1.66783 19.4244 1.84723 21.2376 2.78908 22.7881C2.78908 22.7881 2.80829 22.7497 2.80189 22.7433C1.94333 21.1735 1.68065 19.4436 2.1804 17.6944Z" fill="#FADAAB" fill-opacity="0.2"/>
<path d="M6.76793 27.5294C4.80094 24.9922 3.03258 22.2691 2.98773 18.9502C2.98773 18.9438 2.96851 18.9887 2.96851 19.0015C3.00695 22.2307 4.62154 25.2549 6.74871 27.6191C6.74871 27.6191 6.78716 27.5486 6.77435 27.5294H6.76793Z" fill="#FADAAB" fill-opacity="0.2"/>
<path d="M8.15817 27.7729C7.42776 26.767 6.71016 25.761 6.08227 24.691C6.08227 24.691 6.01819 24.8 6.03741 24.8384C6.6589 25.902 7.33165 26.9656 8.11973 27.9074C8.11973 27.901 8.17739 27.8049 8.15817 27.7729Z" fill="#FADAAB" fill-opacity="0.2"/>
<path d="M5.28783 26.8053C4.68556 26.0557 4.07688 25.3317 3.54509 24.5372C3.54509 24.5372 3.50665 24.6077 3.51946 24.6269C4.02562 25.4342 4.57664 26.2415 5.2622 26.9079C5.2622 26.9079 5.30705 26.8246 5.28783 26.8053Z" fill="#FADAAB" fill-opacity="0.2"/>
<path d="M5.37755 38.665C4.76888 36.4545 5.44163 34.2313 4.8714 32.0465C4.37805 30.1563 3.20554 28.3239 1.76393 27.0168C1.76393 27.0168 1.69345 27.1706 1.70627 27.2026C1.92411 27.6127 2.15476 28.0099 2.39183 28.4072C2.37261 28.4648 2.35979 28.5225 2.37261 28.5481C2.83392 29.7975 3.46183 30.9765 3.92955 32.2258C4.31397 33.2574 4.50618 34.2825 4.7048 35.3461C4.59588 36.698 4.4229 38.1845 5.24301 39.1135C5.24301 39.1135 5.39678 38.7355 5.37755 38.665Z" fill="#FADAAB" fill-opacity="0.2"/>
<path d="M12.8996 46.1357C10.9518 44.6877 9.14498 43.1948 7.8187 41.1253C6.37069 38.8636 5.69153 36.2367 5.9286 33.5585C5.9286 33.5136 5.89656 33.6161 5.89656 33.6354C5.38399 38.6842 8.38894 43.906 12.8611 46.2638C12.8611 46.2638 12.9124 46.1549 12.8931 46.1421L12.8996 46.1357Z" fill="#FADAAB" fill-opacity="0.2"/>
<path d="M12.278 46.424C10.9966 45.4437 9.74718 44.5339 8.6836 43.3102C7.54313 42.0031 6.65254 40.5102 6.02464 38.8956C6.02464 38.902 5.97337 38.9853 5.98619 39.0238C7.10744 41.9967 9.3243 45.1042 12.2524 46.5329C12.2524 46.5329 12.2972 46.4432 12.278 46.4304V46.424Z" fill="#FADAAB" fill-opacity="0.2"/>
<path d="M13.7837 45.3604C11.0671 43.9124 9.22825 41.6123 7.81868 38.9084C7.81868 38.9084 7.79947 38.9405 7.80587 38.9533C9.11934 41.5674 10.8877 44.3865 13.7389 45.527C13.7517 45.527 13.8094 45.3733 13.7837 45.3604Z" fill="#FADAAB" fill-opacity="0.2"/>
<path d="M13.9439 44.566C12.9765 43.7587 12.009 43.0219 11.1568 42.0864C11.1632 42.0928 11.0799 42.2274 11.112 42.2594C11.9257 43.15 12.8547 44.0919 13.9055 44.7005C13.9055 44.7005 13.9631 44.5788 13.9439 44.5596V44.566Z" fill="#FADAAB" fill-opacity="0.2"/>
<path d="M13.8414 43.4447C13.6684 43.2076 13.3993 43.0218 13.1815 42.8104C12.9636 42.599 12.7586 42.3875 12.5536 42.1633C12.56 42.1697 12.4703 42.3106 12.5023 42.3427C12.7073 42.5605 12.9124 42.7784 13.1302 42.9898C13.3288 43.182 13.5531 43.4575 13.803 43.5664C13.8158 43.5664 13.8478 43.4575 13.835 43.4383L13.8414 43.4447Z" fill="#FADAAB" fill-opacity="0.2"/>
<path d="M14.0336 42.6374C13.867 42.4388 13.6171 42.2914 13.4185 42.1312C13.4185 42.1312 13.3736 42.2209 13.3929 42.2337C13.5787 42.4131 13.7773 42.6502 14.0015 42.7719C14.0079 42.7719 14.0528 42.6502 14.04 42.6374H14.0336Z" fill="#FADAAB" fill-opacity="0.2"/>
<path d="M14.3027 42.1953C14.1617 42.048 13.8798 42.0608 13.694 42.0928C13.6556 42.0992 13.6492 42.2658 13.6492 42.2658C13.7517 42.2466 13.8542 42.2402 13.9631 42.253C14.0656 42.2658 14.1681 42.3171 14.2707 42.3107C14.2899 42.3107 14.3155 42.2017 14.3027 42.1889V42.1953Z" fill="#FADAAB" fill-opacity="0.2"/>
<path d="M19.6398 50.9859C17.9227 50.217 16.2889 49.2175 14.6551 48.2821C13.0084 47.3402 11.3874 46.3215 9.85613 45.1938C9.85613 45.1938 9.8305 45.2387 9.84331 45.2451C11.317 46.3984 12.8739 47.4043 14.4693 48.3846C16.1287 49.4033 17.7882 50.4669 19.5629 51.2678C22.8498 52.7415 26.6428 52.8568 29.9937 51.5305C30.0258 51.5177 30.0194 51.4152 30.0258 51.4088C26.6236 52.5236 22.9267 52.4595 19.6398 50.9859Z" fill="#FADAAB" fill-opacity="0.2"/>
<path d="M18.666 5.3607V5.37352C19.2619 5.23897 19.768 4.98909 20.2294 4.58544C20.2422 4.57262 20.2422 4.52777 20.2422 4.52136C19.7616 4.88016 19.2363 5.16848 18.666 5.3607Z" fill="#FADAAB" fill-opacity="0.2"/>
<path d="M43.6666 10.0571C42.4621 8.00681 40.5143 5.6682 38.2846 4.71994C38.2846 4.71994 38.259 4.77119 38.2718 4.7776C40.5335 5.84759 42.3019 8.13495 43.6346 10.1724C43.6346 10.1724 43.6858 10.0827 43.673 10.0571H43.6666Z" fill="#FADAAB" fill-opacity="0.2"/>
<path d="M40.5463 7.02016C40.5463 7.02016 40.4694 7.16753 40.5015 7.19316C41.4497 7.98124 42.1225 8.9359 42.6543 10.0379C42.6543 10.0379 42.7183 9.92259 42.7055 9.88415C42.257 8.7629 41.4818 7.78262 40.5527 7.01376L40.5463 7.02016Z" fill="#FADAAB" fill-opacity="0.2"/>
<path d="M40.1875 7.45582C40.1875 7.45582 40.1107 7.59035 40.1427 7.62239C40.8411 8.34639 41.3216 9.17293 41.8726 9.99945C41.8726 9.99945 41.9175 9.91615 41.9047 9.89052C41.533 8.98071 40.8603 8.14778 40.1875 7.4494V7.45582Z" fill="#FADAAB" fill-opacity="0.2"/>
<path d="M39.8351 7.71851C39.8351 7.71851 39.7582 7.85305 39.7903 7.88508C40.4374 8.67316 40.8539 9.52532 41.2895 10.4415C41.2895 10.4415 41.3344 10.3518 41.328 10.3198C41.0333 9.36514 40.463 8.48095 39.8351 7.7121V7.71851Z" fill="#FADAAB" fill-opacity="0.2"/>
<path d="M39.771 8.66034C39.771 8.66034 39.6877 8.80128 39.7197 8.84613C40.2003 9.5317 40.5463 10.2685 40.9563 10.9925C40.9563 10.9925 40.9948 10.9156 40.9883 10.8964C40.7128 10.0955 40.2515 9.3587 39.771 8.66673V8.66034Z" fill="#FADAAB" fill-opacity="0.2"/>
<path d="M39.4058 9.55737C39.4058 9.55737 39.3482 9.65989 39.361 9.69833C39.5916 10.3006 39.8095 10.9093 40.0594 11.5051C40.0594 11.5051 40.0914 11.4539 40.085 11.4347C39.88 10.8004 39.6365 10.1853 39.4058 9.55737Z" fill="#FADAAB" fill-opacity="0.2"/>
<path d="M41.0525 9.55791C41.0525 9.55791 41.0656 9.52527 41.059 9.52527C41.0525 9.52527 41.046 9.55791 41.0525 9.55791Z" fill="#FADAAB" fill-opacity="0.2"/>
<path d="M43.4168 8.59685C43.4168 8.59685 43.4298 8.56421 43.4233 8.56421C43.4168 8.56421 43.4102 8.59685 43.4168 8.59685Z" fill="#FADAAB" fill-opacity="0.2"/>
<path d="M35.6128 24.9986C35.6128 25.1139 35.6128 25.2229 35.6064 25.3382C35.6257 25.4279 35.6513 25.5176 35.6705 25.6073C35.7025 25.7354 35.568 25.9853 35.5103 26.1134C35.4911 26.2031 35.4783 26.2864 35.4591 26.3761C35.4591 26.421 35.4527 26.4594 35.4463 26.5107C35.4463 26.5555 35.4014 26.6837 35.363 26.8054C35.19 27.4653 34.876 28.2278 34.9337 28.8685C34.844 29.4131 34.8952 29.4195 35.0874 28.8749C35.0874 28.8685 35.0939 28.8621 35.1003 28.8557C35.1515 28.3111 35.2348 27.7665 35.363 27.2219C35.4334 26.9336 35.5295 26.6516 35.6192 26.3697C35.7025 25.6649 35.7346 25.0306 35.6449 24.7487C35.6449 24.832 35.6256 24.9217 35.6192 25.005L35.6128 24.9986Z" fill="#FADAAB" fill-opacity="0.2"/>
<path d="M42.8529 29.9321C42.6927 29.8167 42.5133 29.7335 42.3211 29.6822C41.6803 29.3875 41.0396 29.1888 40.3413 29.0735C39.7454 28.8236 39.0534 28.7916 38.3807 28.7532C37.9194 28.6122 37.4965 28.3815 37.1633 27.9907C37.1761 28.0035 37.048 28.2086 37.08 28.2662C37.1761 28.42 37.285 28.5417 37.4004 28.6571C36.7533 28.5481 36.1766 28.3175 35.7922 27.7088C35.7858 27.2667 35.8499 26.7862 35.9011 26.3889C35.9396 26.1519 35.9716 25.9212 35.9972 25.697C36.0997 25.3125 36.2599 24.9217 36.2535 24.5245C36.2343 23.4545 35.4334 22.9547 34.8503 22.1538C33.9149 20.8724 33.3959 19.3859 33.1973 17.829C33.1973 17.8098 33.1781 17.8034 33.1653 17.8226C33.1396 17.8418 33.1204 17.861 33.0948 17.8803C33.1076 17.7713 33.1332 17.5407 33.1076 17.5663C32.9795 17.7137 32.8449 17.8226 32.704 17.8931C32.3964 17.7777 32.0376 17.7905 31.6916 17.7329C29.9297 17.4253 28.4048 16.5027 27.1554 15.2533C27.1554 15.2533 27.0529 15.452 27.0849 15.4968C28.0716 16.9961 29.4363 18.0853 31.1983 18.5402C31.3777 18.585 31.5443 18.6171 31.6916 18.6491C31.9223 18.8221 32.1209 18.8093 32.3067 18.7965C32.3195 18.7965 32.3387 18.8093 32.3516 18.8157C32.3516 18.8285 32.3516 18.8477 32.3516 18.8541C32.39 18.9631 32.422 19.0784 32.4605 19.1873C32.4925 19.8408 32.4413 19.5782 32.704 20.2893C32.704 20.2958 32.7616 20.1612 32.8193 20.0074C32.909 20.2125 33.0051 20.4111 33.1012 20.6097C33.1396 20.8275 33.2229 21.0326 33.4344 21.2504C33.428 21.244 33.46 21.1735 33.4984 21.0774C33.8444 21.9744 34.3314 22.7817 34.908 23.557C35.1515 23.8838 35.3629 24.1144 35.5231 24.3322C35.5103 24.4027 35.4975 24.4668 35.4975 24.4924C35.4911 24.5565 35.4846 24.6206 35.4782 24.6846C35.4206 24.8256 35.3501 24.9986 35.3501 25.0819C35.3501 26.6772 34.6966 28.1637 34.53 29.7206C34.3698 29.3362 34.1135 28.9902 33.8957 28.6378C33.6586 28.2598 33.4216 27.8818 33.1845 27.5038C33.1845 27.5038 32.9538 27.8946 33.0243 28.0099C33.2806 28.4136 33.5305 28.8108 33.7868 29.2145C33.9854 29.5348 34.1712 29.9833 34.4851 30.2012C34.4851 30.2012 34.498 30.1948 34.5044 30.1755C34.5044 30.214 34.4979 30.2588 34.4979 30.2973C34.1199 30.592 33.7611 30.8995 33.4215 31.1879C32.2234 32.1938 31.0573 32.764 29.526 33.11C28.8981 33.251 28.2702 33.3599 27.6551 33.5393C27.2002 33.6738 26.5723 34.0775 26.1046 34.1416C25.2076 34.2697 24.7783 33.5457 24.0799 33.1485C23.3688 32.7448 22.7985 32.7064 22.004 32.6487C21.9976 32.6487 21.9784 32.7064 21.9848 32.7128C23.3239 33.456 24.5156 34.4491 25.2653 35.801C25.2781 35.8395 25.2973 35.8459 25.3229 35.8202C27.2194 34.7374 29.5068 34.9937 31.4097 33.975C32.1978 33.5521 32.7872 32.905 33.4664 32.3412C33.838 32.0272 34.2353 31.7581 34.6389 31.5018C34.6389 31.5467 34.6581 31.5787 34.6838 31.5595C35.081 31.2968 35.5551 31.0597 35.9588 30.765C36.5034 31.1687 37.08 31.0149 37.6887 30.7522C38.2718 30.4959 38.7202 30.3101 39.3546 30.2717C39.425 30.2717 39.4955 30.2717 39.566 30.2653C40.5399 30.3101 41.5138 30.355 42.4876 30.419C42.5005 30.419 42.5197 30.3934 42.5389 30.3614C42.603 30.3934 42.667 30.4254 42.7311 30.4639C42.7503 30.4767 42.9426 30.0218 42.8657 29.9641L42.8529 29.9321ZM35.6128 26.3633C35.5231 26.6452 35.427 26.9271 35.3565 27.2155C35.2284 27.7537 35.1451 28.2983 35.0938 28.8493C35.0938 28.8557 35.0874 28.8621 35.081 28.8685C34.8888 29.4067 34.8375 29.4067 34.9272 28.8621C34.8696 28.2214 35.1835 27.4589 35.3565 26.799C35.4014 26.6773 35.4398 26.5491 35.4398 26.5043C35.4398 26.453 35.4462 26.4146 35.4526 26.3697C35.4718 26.28 35.4911 26.1967 35.5039 26.107C35.5615 25.9789 35.6961 25.729 35.664 25.6008C35.6448 25.5111 35.6192 25.4215 35.6 25.3318C35.6064 25.2164 35.6128 25.1075 35.6064 24.9922C35.6128 24.9089 35.6256 24.8256 35.632 24.7359C35.7281 25.0178 35.6897 25.6521 35.6064 26.3569L35.6128 26.3633Z" fill="#FADAAB" fill-opacity="0.2"/>
<path d="M44.1215 31.7324C44.1215 31.7324 44.0831 31.8093 44.0959 31.8221C45.8771 33.0075 47.0047 34.8014 47.3699 36.903C47.3699 36.8902 47.4148 36.8133 47.4084 36.7748C47.1713 34.6605 45.9411 32.8152 44.1151 31.7324H44.1215Z" fill="#FADAAB" fill-opacity="0.2"/>
<path d="M46.8766 16.5475C46.8125 16.5475 46.7741 16.8807 46.7869 16.8807C46.851 16.8807 46.8894 16.5475 46.8766 16.5475Z" fill="#FADAAB" fill-opacity="0.2"/>
<path d="M47.0624 12.511C50.1506 16.5283 53.1492 20.962 52.5149 26.2864C52.5149 26.3184 52.5341 26.2479 52.5405 26.2415C53.3093 21.0325 50.3364 16.2784 47.0688 12.5046L47.0624 12.511Z" fill="#FADAAB" fill-opacity="0.2"/>
<path d="M50.7208 19.0335C50.7208 19.0335 50.6952 19.0784 50.7016 19.0976C51.7139 21.6925 52.0855 24.3835 51.6562 27.1449C51.6498 27.1898 51.6755 27.1257 51.6755 27.1129C52.1624 24.3963 51.8869 21.5451 50.7208 19.0335Z" fill="#FADAAB" fill-opacity="0.2"/>
<path d="M50.9387 21.6925C50.9387 21.6925 50.8746 21.8078 50.8874 21.8591C51.2783 23.6274 51.2847 25.383 50.9387 27.1578C50.9259 27.2283 50.9643 27.1386 50.9707 27.1129C51.3744 25.3125 51.3616 23.4865 50.9451 21.6925H50.9387Z" fill="#FADAAB" fill-opacity="0.2"/>
<path d="M34.1776 17.1754C34.1776 17.1754 34.1456 17.342 34.1712 17.278C34.7478 15.9068 35.6256 14.8497 36.7725 13.927C36.8045 13.9014 36.8045 13.7797 36.8045 13.7797C35.5936 14.587 34.6966 15.8299 34.1776 17.1754Z" fill="#FADAAB" fill-opacity="0.2"/>
<path d="M19.723 13.722C19.723 13.722 19.7102 13.7797 19.7102 13.7861C20.1203 13.4785 20.4534 13.0941 20.6841 12.6392C20.6841 12.6328 20.6969 12.5879 20.6905 12.5943C20.447 13.0364 20.1267 13.4209 19.7166 13.7284L19.723 13.722Z" fill="#FADAAB" fill-opacity="0.2"/>
<path d="M21.4915 12.6584C20.9597 13.7028 20.1909 14.4652 19.2042 15.0803C19.1978 15.0803 19.2042 15.1123 19.1978 15.1123C20.2357 14.6702 21.043 13.7604 21.4787 12.7353C21.4851 12.7225 21.4979 12.6456 21.4915 12.6584Z" fill="#FADAAB" fill-opacity="0.2"/>
<path d="M22.0362 13.0621C21.4467 14.209 20.6907 15.311 19.4477 15.7915C19.4157 15.8043 19.4221 15.9068 19.4156 15.9132C20.7035 15.4711 21.4852 14.3179 22.0298 13.1197C22.0298 13.1069 22.0426 13.0557 22.0362 13.0621Z" fill="#FADAAB" fill-opacity="0.2"/>
<path d="M22.5871 13.8693C22.2347 14.824 21.3954 15.4199 20.5816 15.9645C20.5368 15.9965 20.5368 16.1759 20.5304 16.1759C21.389 15.5929 22.2667 14.9586 22.5871 13.9206C22.5935 13.895 22.6127 13.7797 22.5871 13.8629V13.8693Z" fill="#FADAAB" fill-opacity="0.2"/>
<path d="M23.0996 14.5869C22.6191 15.4711 22.0104 16.2336 21.2031 16.8487C21.1519 16.8871 21.1583 17.0665 21.1519 17.0729C21.9848 16.445 22.6511 15.6441 23.0804 14.6959C23.0868 14.6766 23.106 14.5741 23.0932 14.5933L23.0996 14.5869Z" fill="#FADAAB" fill-opacity="0.2"/>
<path d="M23.1124 15.9459C23.1124 15.9459 23.1255 15.9132 23.119 15.9132C23.1124 15.9132 23.1059 15.9459 23.1124 15.9459Z" fill="#FADAAB" fill-opacity="0.2"/>
<path d="M28.2382 9.83929C26.111 9.92899 24.5669 12.4854 23.5289 14.0488C23.5161 14.068 23.4969 14.1769 23.5097 14.1641C24.522 12.7225 25.733 10.8644 27.4886 10.2429C28.2254 9.98025 28.9814 10.0956 29.5837 10.6081C30.5768 11.4411 30.6473 12.7802 30.4102 13.9719C30.391 14.0552 30.4358 13.9527 30.4422 13.9271C30.8138 12.3189 30.4166 9.74958 28.2382 9.84569V9.83929Z" fill="#FADAAB" fill-opacity="0.2"/>
<path d="M28.4624 11.4154C27.6231 10.5312 26.284 11.7358 25.6561 12.3316C24.8168 13.1261 24.1312 14.0936 23.561 15.0931C23.5545 15.1123 23.5353 15.1892 23.5481 15.1764C24.1824 14.2346 24.7911 13.2863 25.6176 12.5047C26.316 11.8447 27.4821 10.826 28.4368 11.5179C28.4368 11.5179 28.4816 11.4282 28.4624 11.4154Z" fill="#FADAAB" fill-opacity="0.2"/>
<path d="M28.3535 12.5431C26.5211 11.6269 24.7527 14.587 23.798 15.6954C23.7788 15.7146 23.7852 15.7787 23.7788 15.7851C24.9705 14.446 26.2648 12.2612 28.3151 12.6777C28.3279 12.6777 28.3727 12.5495 28.3535 12.5431Z" fill="#FADAAB" fill-opacity="0.2"/>
<path d="M25.5664 14.8054C25.5664 14.8054 25.5795 14.7728 25.5729 14.7728C25.5664 14.7728 25.5599 14.8054 25.5664 14.8054Z" fill="#FADAAB" fill-opacity="0.2"/>
<path d="M29.6094 9.23059C29.6094 9.23059 29.5517 9.37155 29.5709 9.37796C31.1791 9.74958 32.153 11.236 31.8198 12.8698C31.807 12.9339 31.8327 12.8827 31.8391 12.8506C32.2491 11.1912 31.3009 9.60221 29.6094 9.237V9.23059Z" fill="#FADAAB" fill-opacity="0.2"/>
<path d="M31.3393 10.2563C31.3393 10.2563 31.3523 10.2237 31.3458 10.2237C31.3392 10.2237 31.3327 10.2563 31.3393 10.2563Z" fill="#FADAAB" fill-opacity="0.2"/>
<path d="M15.0202 30.2652C14.9882 30.278 14.9946 30.3933 14.9882 30.3933C17.346 29.7206 19.7038 31.9439 18.9414 34.3722C18.935 34.3978 18.9157 34.5259 18.9414 34.4362C19.8384 31.8734 17.7048 29.4323 15.0138 30.2652H15.0202Z" fill="#FADAAB" fill-opacity="0.2"/>
<path d="M17.6408 35.0321C18.493 34.071 18.4481 32.5141 17.6536 31.5466C17.6664 31.5594 17.5511 31.726 17.5895 31.7709C18.32 32.6871 18.3456 33.9237 17.66 34.9104C17.6408 34.936 17.6408 35.0257 17.6344 35.0321H17.6408Z" fill="#FADAAB" fill-opacity="0.2"/>
<path d="M19.108 30.624C19.108 30.624 19.0119 30.8034 19.0503 30.8355C20.0883 31.7901 20.3958 33.2958 19.6975 34.5772C19.6846 34.6028 19.6654 34.7182 19.6782 34.7054C20.524 33.4175 20.2741 31.6299 19.1144 30.624H19.108Z" fill="#FADAAB" fill-opacity="0.2"/>
<path d="M20.7803 34.3594C20.7482 34.3914 20.7482 34.5324 20.7418 34.5324C21.3825 34.007 22.2731 34.0134 22.9907 34.385C23.8685 34.8399 24.2273 35.7433 24.6246 36.5827C24.6246 36.5827 24.695 36.4289 24.6886 36.384C24.3554 34.6798 22.4013 32.7192 20.7803 34.353V34.3594Z" fill="#FADAAB" fill-opacity="0.2"/>
<path d="M23.1702 35.5127C23.1702 35.5127 22.9972 35.8074 23.0677 35.8907C23.4969 36.4161 23.9006 36.9991 24.4132 37.4541C24.4132 37.4541 24.4836 37.3003 24.4708 37.2683C24.0992 36.6404 23.6187 36.0829 23.1702 35.5127Z" fill="#FADAAB" fill-opacity="0.2"/>
<path d="M25.5856 52.12C23.2086 51.9406 20.9725 51.3896 18.8581 50.2555C16.8207 49.1599 15.0459 47.6991 13.2006 46.3151C13.2006 46.3151 13.1814 46.3472 13.1878 46.3536C16.6669 49.397 20.7034 52.3442 25.5472 52.2353C25.5664 52.2353 25.5856 52.12 25.5792 52.1136L25.5856 52.12Z" fill="#FADAAB" fill-opacity="0.2"/>
<path d="M48.7346 35.5959C48.7346 35.5959 48.7859 35.4998 48.7731 35.4742C48.2221 33.8276 47.3187 32.0912 45.6272 31.3993C45.6208 31.3993 45.5951 31.4569 45.5759 31.5146C44.57 30.9187 43.3719 30.7201 42.1993 30.5279C42.1865 30.5279 42.1673 30.6048 42.1801 30.6048C43.6025 30.9059 45.1723 31.2647 46.2679 32.2835C47.3955 33.3342 47.7992 34.8015 48.2413 36.2174C48.2413 36.211 48.2925 36.1213 48.2861 36.0893C47.985 34.731 47.4981 33.283 46.5178 32.2578C46.3896 32.1297 46.2615 32.008 46.1269 31.899C47.466 32.7255 48.0234 34.2056 48.741 35.6024L48.7346 35.5959Z" fill="#FADAAB" fill-opacity="0.2"/>
<path d="M44.9352 30.3934L44.9095 30.4895C47.3378 30.1755 48.7538 32.8281 49.5483 34.699C49.5483 34.699 49.5932 34.6157 49.5868 34.5836C49.0998 32.5398 47.3058 30.0089 44.9416 30.387L44.9352 30.3934Z" fill="#FADAAB" fill-opacity="0.2"/>
<path d="M48.2541 31.3993C48.2541 31.3993 48.1452 31.5979 48.19 31.6364C48.504 31.8798 48.7987 32.1489 49.055 32.4565C49.1831 32.6102 49.2985 32.764 49.4138 32.9306C49.5099 33.078 49.5868 33.283 49.7406 33.3855C49.747 33.3855 49.7726 33.2894 49.7726 33.283C49.5932 32.5462 48.8372 31.8542 48.2605 31.4057L48.2541 31.3993Z" fill="#FADAAB" fill-opacity="0.2"/>
<path d="M49.5228 17.2395C48.1837 15.1956 46.5243 13.3312 44.9801 11.4411C44.9801 11.4411 44.9481 11.5051 44.9609 11.518C46.4794 13.4401 47.8698 15.5032 49.4972 17.3356C49.4972 17.3356 49.5356 17.2587 49.5292 17.2395H49.5228Z" fill="#FADAAB" fill-opacity="0.2"/>
<path d="M45.954 13.5874C45.954 13.5874 45.8963 13.6964 45.9155 13.722C47.6967 15.8684 49.3626 18.0276 50.2916 20.6866C50.2916 20.6866 50.3236 20.6289 50.3172 20.6033C49.5996 17.8931 47.7224 15.6826 45.9476 13.5811L45.954 13.5874Z" fill="#FADAAB" fill-opacity="0.2"/>
<path d="M48.6705 18.3928C48.6705 18.3928 48.5936 18.5209 48.6128 18.5658C49.1702 19.6038 49.4073 20.6417 49.7277 21.7565C49.7277 21.7565 49.7661 21.6668 49.7661 21.6412C49.6636 20.5007 49.2087 19.3859 48.6641 18.3928H48.6705Z" fill="#FADAAB" fill-opacity="0.2"/>
<path d="M36.9711 23.3007C35.3053 22.0064 34.3442 20.1419 34.6838 18.002C34.6902 17.9443 34.6645 18.0276 34.6581 18.0404C34.2545 20.0522 35.0746 22.378 36.9455 23.3776C36.9455 23.3776 36.9775 23.3071 36.9647 23.2943L36.9711 23.3007Z" fill="#FADAAB" fill-opacity="0.2"/>
<path d="M37.9194 22.7817C36.6252 21.763 35.6641 20.661 35.4975 18.9503C35.4975 18.9823 35.4142 19.1168 35.4206 19.1937C35.5616 20.6609 36.4266 22.3653 37.8874 22.9163C37.9002 22.9163 37.9386 22.7945 37.9258 22.7817H37.9194Z" fill="#FADAAB" fill-opacity="0.2"/>
<path d="M38.8548 22.6471C37.9963 21.936 37.3235 21.1927 37.0352 20.0843C37.0352 20.1035 36.9455 20.2445 36.9647 20.3085C37.221 21.2952 37.8553 22.3396 38.8228 22.7689C38.8292 22.7689 38.8741 22.6535 38.8548 22.6407V22.6471Z" fill="#FADAAB" fill-opacity="0.2"/>
<path d="M37.2018 24.0246C37.2018 24.0246 37.2275 23.9221 37.2147 23.9349C36.4458 25.069 36.3625 27.1449 37.5863 28.0035C37.5863 28.0035 37.6247 27.9266 37.6119 27.9138C36.7854 26.6772 36.3625 25.4726 37.1954 24.0246H37.2018Z" fill="#FADAAB" fill-opacity="0.2"/>
<path d="M38.1821 24.1016C38.1245 24.1016 38.0668 24.1016 38.0027 24.108C37.9899 24.108 37.9771 24.1913 37.9835 24.1913C38.0412 24.1977 38.0988 24.1977 38.1565 24.1977C38.1757 24.1977 38.1885 24.1016 38.1821 24.1016Z" fill="#FADAAB" fill-opacity="0.2"/>
<path d="M29.4619 50.4093C28.5906 50.7873 27.6487 50.9539 26.7069 50.9923C25.7394 51.0308 24.7719 50.9411 23.8109 50.8193C22.9203 50.704 21.8182 50.7104 21.1006 50.1081C21.1006 50.1081 21.0622 50.185 21.075 50.1979C21.799 50.8322 22.837 50.8898 23.7532 51.0244C24.8104 51.1782 25.874 51.2807 26.9375 51.2102C29.0199 51.0692 30.596 50.121 32.0889 48.7178C32.1145 48.6986 32.1145 48.6025 32.1145 48.5961C31.2688 49.2624 30.4551 49.98 29.4491 50.4157L29.4619 50.4093Z" fill="#FADAAB" fill-opacity="0.2"/>
<path d="M46.8573 41.5033C45.1338 44.63 41.5074 45.5334 38.3551 46.5393C36.7725 47.0391 35.222 47.6093 33.8444 48.5576C32.3964 49.5571 31.1278 50.768 29.4235 51.319C29.4043 51.319 29.4043 51.3895 29.4043 51.3895C30.9805 51.0307 32.185 49.9543 33.46 49.0253C35.1002 47.8336 36.9519 47.1672 38.8805 46.5906C41.8982 45.6872 45.2876 44.6492 46.8381 41.6443C46.8509 41.6186 46.8701 41.4905 46.8637 41.5097L46.8573 41.5033Z" fill="#FADAAB" fill-opacity="0.2"/>
<path d="M46.9663 38.7932C46.1526 44.6301 38.5793 45.2387 34.357 47.2954C34.3314 47.3082 34.3314 47.4236 34.3314 47.4236C38.6306 45.2259 46.2935 44.8223 47.0111 38.7099C47.0111 38.6586 46.9727 38.7739 46.9727 38.7932H46.9663Z" fill="#FADAAB" fill-opacity="0.2"/>
<path d="M46.2358 38.0178C46.1782 40.9523 43.7114 42.7463 41.3344 43.9124C39.3097 44.9055 37.0864 45.6359 34.9144 46.2126C34.8888 46.219 34.8952 46.3087 34.8888 46.3151C37.7848 45.4501 40.7321 44.7774 43.2565 43.0154C44.9352 41.8429 46.3383 40.0745 46.2743 37.9409C46.2743 37.9281 46.2422 38.005 46.2422 38.0242L46.2358 38.0178Z" fill="#FADAAB" fill-opacity="0.2"/>
<path d="M48.4847 37.3066C48.2284 38.8443 47.7222 40.2859 46.9406 41.6314C46.9342 41.6443 46.9278 41.6891 46.9342 41.6827C47.7543 40.3052 48.3053 38.8187 48.5296 37.2297C48.536 37.1721 48.4911 37.2874 48.4911 37.3066H48.4847Z" fill="#FADAAB" fill-opacity="0.2"/>
<path d="M48.645 37.6847C48.6129 37.9795 48.5809 38.2742 48.5553 38.5689C48.5489 38.6522 48.6129 38.4664 48.6129 38.4344C48.6386 38.1461 48.6706 37.8577 48.6962 37.5694C48.7026 37.4989 48.6514 37.6591 48.645 37.6847Z" fill="#FADAAB" fill-opacity="0.2"/>
<path d="M45.8258 36.2559C45.7809 38.6073 44.7558 40.8178 42.8657 42.2338C41.4433 43.2974 39.6878 43.8676 37.9899 44.3417C37.9642 44.3481 37.9706 44.4378 37.9642 44.4378C40.3797 43.7715 42.8144 42.977 44.3586 40.8627C45.3388 39.5236 45.8835 37.8513 45.8514 36.1919C45.8514 36.1791 45.8258 36.2431 45.8258 36.2559Z" fill="#FADAAB" fill-opacity="0.2"/>
<path d="M41.8341 31.8093C41.8341 31.8093 41.8085 31.8734 41.8149 31.8734C43.1347 32.4372 44.3008 33.142 44.8455 34.5323C44.8455 34.5323 44.8775 34.4683 44.8711 34.4427C44.461 32.9434 43.154 32.3603 41.8277 31.8029L41.8341 31.8093Z" fill="#FADAAB" fill-opacity="0.2"/>
<path d="M51.7844 28.2406C50.8874 29.6693 49.3497 30.5856 47.639 30.5599C45.7297 30.5343 44.1535 29.0927 42.2057 29.7654C42.1865 29.7654 42.1929 29.8359 42.1865 29.8359C44.2048 29.2465 45.9988 31.0341 48.0362 30.8547C49.606 30.7137 51.0284 29.7462 51.7652 28.3623C51.778 28.3367 51.7972 28.2213 51.7844 28.2341V28.2406Z" fill="#FADAAB" fill-opacity="0.2"/>
<path d="M6.72304 33.5328C6.72304 33.5328 6.67819 33.629 6.67178 33.661C6.59489 35.25 6.85118 36.8261 7.50471 38.2869C7.50471 38.2869 7.53674 38.2357 7.53033 38.2165C6.96651 36.6916 6.67819 35.1667 6.72304 33.5328Z" fill="#FADAAB" fill-opacity="0.2"/>
<path d="M8.23516 37.313C7.78666 36.4225 7.0114 35.2499 7.29331 34.2184C7.31894 34.1095 7.29331 34.1031 7.26128 34.212C7.02421 35.0962 7.38301 35.8522 7.76103 36.6595C8.29282 37.7872 8.9015 38.8828 9.61269 39.9079C9.61269 39.9079 9.65114 39.8439 9.63833 39.8246C9.15139 38.9981 8.67725 38.1716 8.24157 37.313H8.23516Z" fill="#FADAAB" fill-opacity="0.2"/>
<path d="M9.58064 37.0183C9.58064 37.0183 9.50376 37.1465 9.52298 37.1913C9.84334 37.7423 10.0996 38.3254 10.3239 38.9212C10.3239 38.9148 10.3815 38.8251 10.3687 38.7867C10.1701 38.1716 9.901 37.5821 9.58064 37.0247V37.0183Z" fill="#FADAAB" fill-opacity="0.2"/>
<path d="M28.6738 26.5683C27.2002 26.4658 25.906 26.2288 24.5733 25.5496C23.2598 24.8833 22.0745 23.9863 20.9212 23.0765C18.7428 21.3465 16.2056 19.1937 13.2198 19.4628C13.1942 19.4628 13.1686 19.6038 13.1814 19.6102C16.1543 20.0267 18.4929 21.59 20.8443 23.3776C22.9779 24.9986 25.7522 27.1834 28.6226 26.7606C28.6546 26.7606 28.6866 26.5683 28.6738 26.5683Z" fill="#FADAAB" fill-opacity="0.2"/>
<path d="M25.0667 26.5234C23.5162 25.8891 22.1578 25.0434 20.8059 24.0631C19.4733 23.0956 18.1406 22.1025 16.5644 21.5707C16.5516 21.5707 16.5132 21.6925 16.5324 21.6989C18.0765 22.3396 19.4156 23.2943 20.7547 24.2681C22.0617 25.2228 23.4393 26.2543 25.0411 26.626C25.0539 26.626 25.0795 26.5298 25.0667 26.5234Z" fill="#FADAAB" fill-opacity="0.2"/>
<path d="M29.2762 25.7674C27.7193 25.7161 26.4186 25.6521 24.9898 24.9345C23.7469 24.3066 22.6769 23.4096 21.6966 22.4293C21.703 22.4357 21.5941 22.6087 21.6389 22.6535C23.497 24.518 26.4379 26.7029 29.2506 25.8956C29.2698 25.8956 29.289 25.7738 29.2826 25.7738L29.2762 25.7674Z" fill="#FADAAB" fill-opacity="0.2"/>
<path d="M29.2697 25.0114C27.5718 25.005 26.0725 24.7615 24.6245 23.826C24.6245 23.826 24.5669 23.9414 24.5861 23.9606C25.9124 24.8768 27.591 25.4535 29.2184 25.2036C29.2569 25.2036 29.2761 25.0178 29.2697 25.0178V25.0114Z" fill="#FADAAB" fill-opacity="0.2"/>
<path d="M29.1801 24.4155C28.1421 24.0823 26.9952 24.0182 25.9381 23.7363C25.9253 23.7363 25.8868 23.8517 25.906 23.8581C26.912 24.1784 28.0652 24.6205 29.1288 24.6205C29.1609 24.6205 29.2057 24.4219 29.1865 24.4155H29.1801Z" fill="#FADAAB" fill-opacity="0.2"/>
<path d="M29.007 23.5249C28.8084 23.4929 28.5906 23.5249 28.3856 23.5057C28.1741 23.4865 27.9755 23.4288 27.7833 23.3519C27.7705 23.3519 27.7 23.5313 27.732 23.5441C28.0844 23.6979 28.5778 23.8453 28.9558 23.7171C28.9878 23.7043 29.0263 23.5249 29.007 23.5249Z" fill="#FADAAB" fill-opacity="0.2"/>
<path d="M21.8374 27.5999C20.8955 27.5551 19.9088 28.2855 19.3194 28.9582C19.2553 29.0287 19.2489 29.317 19.2361 29.3298C19.5949 29.0095 19.9601 28.7083 20.383 28.4713C20.8315 28.2214 21.3184 28.0612 21.7797 27.8434C21.8118 27.8306 21.8566 27.5935 21.8438 27.5935L21.8374 27.5999Z" fill="#FADAAB" fill-opacity="0.2"/>
<path d="M31.1471 24.2425C30.7819 24.659 30.564 25.1587 30.4551 25.6969C30.3846 26.0301 30.3846 26.3248 30.391 26.6644C30.4039 27.177 30.327 27.0937 29.8849 27.3948C28.8533 28.0932 28.2703 29.1952 28.0268 30.3805C26.9312 29.7462 25.7074 29.3746 24.4388 29.3554C24.1441 29.3554 23.8429 29.4066 23.5482 29.3938C23.0741 29.3746 23.0741 29.3554 22.9459 28.9582C22.7665 28.4007 22.7345 27.8946 22.4141 27.3756C22.4141 27.3756 22.2668 27.6447 22.3052 27.728C22.6192 28.4584 22.8178 29.1247 22.8242 29.932C22.8242 29.9448 22.8242 29.9577 22.837 29.9705C24.6374 29.6757 26.3994 30.0089 27.9691 30.938C28.014 30.9636 28.1101 30.5471 28.1165 30.5087C28.2382 29.5092 28.8085 28.6378 29.5837 28.0355C29.8977 27.7921 30.3206 27.6639 30.5192 27.3051C30.5768 27.2026 30.6089 27.0809 30.6281 26.9719C30.7819 26.0237 30.2501 25.7738 31.0766 24.6333C31.1407 24.55 31.1471 24.2745 31.1663 24.2489L31.1471 24.2425Z" fill="#FADAAB" fill-opacity="0.2"/>
<path d="M34.5557 26.6196C33.9598 26.5235 33.3575 26.6708 32.7489 26.5234C32.5054 26.4658 31.6404 26.0045 31.4866 26.1454C31.4418 26.1839 31.3841 26.3761 31.4098 26.4273C31.4162 26.4402 31.4226 26.453 31.429 26.4658C31.429 26.4722 31.429 26.4722 31.4418 26.4658C31.4546 26.4594 31.4738 26.4466 31.4866 26.4402C31.6212 26.4722 31.7557 26.6067 31.8647 26.6644C32.1338 26.8118 32.4221 26.9143 32.7232 26.9912C33.2678 27.1321 33.9342 27.2218 34.4532 26.9848C34.5044 26.9591 34.6005 26.6068 34.5557 26.6003V26.6196Z" fill="#FADAAB" fill-opacity="0.2"/>
<path d="M33.5241 23.826C33.2229 23.9093 32.9218 24.2489 32.6527 24.4155C32.2554 24.6654 31.8326 24.8768 31.3969 25.0562C31.32 25.0883 31.3136 25.4022 31.3008 25.4022C32.0504 25.2036 32.9474 24.8192 33.4279 24.1913C33.4536 24.1528 33.5369 23.8196 33.5176 23.826H33.5241Z" fill="#FADAAB" fill-opacity="0.2"/>
<path d="M31.8902 22.4101C31.8582 22.4486 31.8646 22.5575 31.8518 22.5703C31.9671 22.4229 32.0889 22.2692 32.2042 22.1218C32.2298 22.0898 32.2234 21.9937 32.2362 21.9872C32.1209 22.1282 32.0056 22.2692 31.8902 22.4101Z" fill="#FADAAB" fill-opacity="0.2"/>
<path d="M31.7685 19.8536C31.6275 19.9305 31.5378 20.1227 31.4417 20.2509C31.3072 20.4303 31.1598 20.6033 31.006 20.7762C30.7113 21.0966 30.391 21.3913 30.0514 21.6604C30.0065 21.6989 30.0065 21.8847 30.0001 21.8847C30.6729 21.4298 31.3841 20.8211 31.73 20.0715C31.7429 20.0458 31.7877 19.8408 31.7685 19.8536Z" fill="#FADAAB" fill-opacity="0.2"/>
<path d="M32.0055 19.3346C29.9232 18.8925 28.3855 18.066 26.8606 16.5732C26.8606 16.5732 26.7901 16.7205 26.8094 16.7462C27.8858 18.412 29.9104 19.6294 31.903 19.7127C31.9607 19.7127 32.044 19.341 32.0055 19.3346Z" fill="#FADAAB" fill-opacity="0.2"/>
<path d="M30.9292 19.7895C30.5128 19.5076 29.9489 19.4051 29.494 19.1744C29.0263 18.9374 28.597 18.6554 28.187 18.3351C28.187 18.3351 28.0076 18.6683 28.0781 18.7259C28.4881 19.0463 28.9238 19.3346 29.3851 19.5653C29.8208 19.7831 30.3654 20.0778 30.8587 20.0522C30.8972 20.0522 30.9613 19.8087 30.9292 19.7895Z" fill="#FADAAB" fill-opacity="0.2"/>
<path d="M24.2145 32.104C23.7596 31.2711 22.76 31.1942 21.9271 30.9572C21.4338 30.8162 21.0109 30.6368 20.7226 30.1947C20.4343 29.759 20.4214 29.3297 19.8448 29.1952C19.8192 29.1888 19.7487 29.4322 19.7743 29.4451C20.2997 29.6373 20.3317 30.1435 20.6072 30.5599C20.8443 30.9187 21.2031 31.1173 21.6068 31.2455C22.5358 31.5402 23.5417 31.4057 24.144 32.3219C24.144 32.3219 24.2401 32.1553 24.2145 32.104Z" fill="#FADAAB" fill-opacity="0.2"/>
<path d="M23.3751 30.9065C23.3751 30.9065 23.3882 30.8739 23.3817 30.8739C23.3751 30.8739 23.3686 30.9065 23.3751 30.9065Z" fill="#FADAAB" fill-opacity="0.2"/>
<path d="M23.3175 30.0858C23.3175 30.0858 23.2534 30.2588 23.2662 30.2652C23.5353 30.3229 23.8044 30.3741 24.0543 30.4895C24.3042 30.6048 24.5028 30.7906 24.7463 30.9059C24.7655 30.9123 24.8232 30.7265 24.8103 30.7009C24.522 30.2332 23.8493 30.0153 23.3175 30.0858Z" fill="#FADAAB" fill-opacity="0.2"/>
<path d="M24.5478 31.5018C24.1441 31.0084 23.4714 30.7329 22.8691 30.5728C22.8563 30.5728 22.8114 30.7073 22.8306 30.7201C23.1318 30.8419 23.4201 30.9892 23.702 31.1558C23.9711 31.316 24.221 31.5274 24.5029 31.6684C24.5157 31.6684 24.5606 31.5274 24.5478 31.5082V31.5018Z" fill="#FADAAB" fill-opacity="0.2"/>
<path d="M24.3619 32.4756C23.7405 31.6812 22.5679 31.5402 21.6581 31.8221C21.6325 31.8285 21.6261 31.9439 21.6261 31.9439C22.1066 31.899 22.5615 31.931 23.0293 32.0528C23.497 32.1809 23.8814 32.4436 24.3171 32.6358C24.3299 32.6358 24.3748 32.4949 24.3619 32.4756Z" fill="#FADAAB" fill-opacity="0.2"/>
<path d="M31.8903 31.5147C30.6665 31.3096 29.4171 31.7005 28.3792 32.3412C27.8217 32.6872 27.2707 33.1357 26.598 33.2318C25.938 33.3279 25.355 33.0267 24.7527 32.8089C24.7335 32.8025 24.663 33.0139 24.6886 33.0331C25.8547 33.834 26.7453 33.6418 27.8538 32.905C29.1288 32.0593 30.3205 31.7581 31.8326 31.6941C31.8646 31.6941 31.8967 31.5082 31.8839 31.5082L31.8903 31.5147Z" fill="#FADAAB" fill-opacity="0.2"/>
<path d="M32.7488 29.2529C32.7488 29.2529 32.704 29.349 32.704 29.3811C32.8257 30.1628 32.4285 30.8803 31.7109 31.1943C31.6852 31.2071 31.6852 31.3032 31.6788 31.3032C32.4541 31.0341 32.9987 30.0666 32.7424 29.2529H32.7488Z" fill="#FADAAB" fill-opacity="0.2"/>
<path d="M24.9513 16.4963C24.7655 16.7462 24.5797 16.996 24.3939 17.2459C24.3939 17.2331 24.3939 17.2203 24.4003 17.2139C24.3427 17.2779 24.2722 17.342 24.2081 17.4061C24.2145 17.3548 24.2209 17.3164 24.2209 17.3164C24.1697 17.3612 24.1248 17.4061 24.08 17.451C24.0864 17.3933 24.0928 17.342 24.0736 17.3741C23.8814 17.6432 23.6891 17.9123 23.4969 18.1814C23.4713 18.2198 23.4585 18.3031 23.4521 18.3736C23.4393 18.3287 23.4264 18.2839 23.42 18.239C23.42 18.0468 23.4777 17.829 23.561 17.5791C23.5674 17.5599 23.6058 17.342 23.5866 17.3612C23.3496 17.5599 23.0933 17.7329 22.8242 17.8802C22.7537 17.861 22.7153 17.8995 22.6704 17.9699C22.6704 17.9699 22.664 17.9763 22.6576 17.9827C22.6576 17.9891 22.6448 18.0148 22.6384 18.0404C22.4205 18.1237 22.2091 18.1493 21.9464 18.1365C21.9015 18.1365 21.8118 18.4569 21.8503 18.4825C21.8823 18.5017 21.908 18.5145 21.94 18.5337C21.908 18.6106 21.8823 18.6939 21.908 18.726C21.8759 18.8157 21.8503 18.9438 21.8759 18.963C22.3116 19.2578 22.7729 19.482 23.2727 19.6486C23.2919 19.6486 23.3239 19.5717 23.3432 19.4884C23.4329 19.6102 23.5354 19.7255 23.6635 19.828C23.6635 19.828 23.7276 19.6934 23.7532 19.5909C23.7596 19.6102 23.766 19.6358 23.7724 19.655C23.7724 19.655 23.7852 19.6294 23.7981 19.5909C23.8685 19.7127 23.9582 19.828 24.0736 19.9369C24.0608 19.9241 24.2594 19.6101 24.1825 19.5397C24.1697 19.5269 24.1633 19.5205 24.1504 19.5076C24.1504 19.4884 24.1504 19.4756 24.1504 19.4628C24.1056 19.3026 24.0543 19.1488 24.0031 18.9951C24.0415 18.8028 24.0479 18.6106 24.0031 18.4056C24.144 18.0468 24.4003 17.5855 24.631 17.31C24.6566 17.278 24.6694 17.2203 24.6822 17.1626C24.7463 17.0601 24.8104 16.964 24.868 16.8615C24.9129 16.7782 24.9257 16.5283 24.9385 16.5027L24.9513 16.4963ZM22.9779 18.2839C22.9779 18.2839 22.9908 18.3223 22.9908 18.3415C22.9908 18.3479 22.9843 18.3608 22.9779 18.3672C22.9523 18.3415 22.9267 18.3159 22.8946 18.2903C22.8946 18.2903 22.8946 18.2903 22.8946 18.2775C22.8946 18.2711 22.8754 18.3095 22.8562 18.3543C22.8434 18.3223 22.8306 18.2839 22.8178 18.2518C22.837 18.2454 22.8626 18.1878 22.8818 18.1237C22.9395 18.0853 23.0036 18.0532 23.0676 18.0148C23.042 18.0788 22.9715 18.2134 22.9843 18.2775L22.9779 18.2839ZM23.3688 18.0468L23.3303 18.0788C23.2855 18.1878 23.247 18.2967 23.215 18.4056C23.1637 18.2775 23.1125 18.1493 23.074 18.0084C23.2022 17.9251 23.3239 17.829 23.4457 17.7328C23.4136 17.8354 23.388 17.9443 23.3624 18.0468H23.3688ZM23.9775 18.2134C23.9646 18.1813 23.9198 18.2903 23.9198 18.2903C23.8942 18.3672 23.8685 18.4376 23.8493 18.5145C23.8493 18.4953 23.8365 18.4825 23.8301 18.4633C23.8301 18.3928 23.8429 18.3223 23.8493 18.2454C23.9454 18.1429 24.0415 18.0404 24.1312 17.9315C24.08 18.0532 24.0351 18.1814 23.9967 18.3095C23.9903 18.2775 23.9839 18.2454 23.971 18.2134H23.9775Z" fill="#FADAAB" fill-opacity="0.2"/>
<path d="M17.6728 26.4658C17.5959 27.0104 17.4485 27.5422 17.2435 28.0612C17.1986 28.2086 17.1474 28.3559 17.0897 28.5033C17.2115 28.5417 17.3332 28.5738 17.4549 28.6058C17.4677 28.4969 17.487 28.388 17.5062 28.279C17.5062 28.2854 17.5062 28.2982 17.4998 28.3047C17.5318 28.0804 17.5574 27.8626 17.5767 27.6383C17.6215 27.2475 17.6471 26.8567 17.6728 26.4594V26.4658Z" fill="#FADAAB" fill-opacity="0.2"/>
<path d="M17.3396 27.4653C17.3653 27.3564 17.3845 27.2475 17.4101 27.1321C17.3524 27.2795 17.2948 27.4269 17.2243 27.5742C17.1026 28.0484 16.8655 28.9197 17.173 28.0035C17.2243 27.8561 17.2691 27.7088 17.3076 27.5678C17.314 27.5358 17.3268 27.5102 17.3332 27.4781C17.3332 27.4781 17.3332 27.4717 17.3332 27.4653H17.3396Z" fill="#FADAAB" fill-opacity="0.2"/>
<path d="M17.9611 25.9276C17.9418 25.6713 17.9034 25.4214 17.8521 25.1716C17.8329 25.7674 17.7945 26.3633 17.7368 26.9592C17.8073 26.6132 17.8778 26.2672 17.9611 25.9276Z" fill="#FADAAB" fill-opacity="0.2"/>
<path d="M17.9675 26.1711C17.8714 26.6068 17.8009 27.0553 17.7112 27.4909C17.6984 27.6191 17.6728 27.7472 17.6408 27.869C17.6215 28.0355 17.6023 28.2021 17.5767 28.3687C17.5767 28.4008 17.5319 28.5289 17.4934 28.6122H17.5062C17.5511 28.6122 17.5959 28.6122 17.6344 28.6122C17.7177 27.9907 17.8138 27.318 17.9675 26.6708C17.9739 26.5491 17.9803 26.4338 17.9803 26.3056C17.9803 26.248 17.9739 26.1903 17.9675 26.1262C17.9675 26.139 17.9675 26.1455 17.9611 26.1583L17.9675 26.1711Z" fill="#FADAAB" fill-opacity="0.2"/>
<path d="M17.5255 26.2351C17.5511 25.7931 17.5447 25.351 17.4934 24.9089C17.4742 24.8256 17.4486 24.7423 17.4166 24.659C17.4742 25.3958 17.4614 26.139 17.3589 26.8759C17.4294 26.6644 17.487 26.453 17.5255 26.2351Z" fill="#FADAAB" fill-opacity="0.2"/>
<path d="M16.9295 28.4393C16.9808 28.2663 17.0256 28.0933 17.0641 27.9203C16.9872 28.0805 16.9039 28.2406 16.8142 28.4008C16.8527 28.4136 16.8911 28.4265 16.9295 28.4393Z" fill="#FADAAB" fill-opacity="0.2"/>
<path d="M21.1519 25.5559C20.9532 25.4919 20.7098 25.4086 20.4471 25.3253C20.4727 25.2356 20.4791 25.1523 20.4535 25.1459C19.6078 24.7486 18.762 24.3514 17.9163 23.967C17.9035 23.967 17.8714 24.0375 17.8394 24.1272C17.8266 24.1143 17.8138 24.1079 17.8009 24.0951C17.7881 24.0823 17.6728 24.4283 17.6856 24.4859C17.7177 24.5949 17.7433 24.7038 17.7689 24.8127C17.7625 24.8512 17.7561 24.8832 17.7497 24.9152C17.7369 24.8063 17.7112 24.691 17.6792 24.5821C17.6408 24.3258 17.5959 24.0695 17.5318 23.8132C17.5318 23.8324 17.519 23.8452 17.5126 23.8645C17.4998 23.8965 17.4742 23.9477 17.455 23.999C17.4037 23.9029 17.3524 23.8132 17.2948 23.7171C17.282 23.6915 17.141 24.0759 17.1538 24.1592C17.3268 25.242 17.3396 26.3184 17.1666 27.382C17.0193 27.728 16.8463 28.0675 16.6669 28.3943C16.6477 28.4263 16.5836 28.5801 16.558 28.6954C15.4367 28.862 14.3539 29.3041 13.3288 29.8359C11.4258 30.829 9.65107 31.9182 7.63282 32.6871C7.60719 32.6935 7.58797 32.8281 7.59438 32.8281C9.45245 32.7127 11.1055 31.5018 12.6881 30.6368C14.2386 29.7911 15.9365 29.0863 17.6984 29.1952C18.006 29.2657 18.3135 29.3169 18.6403 29.3297C18.73 29.3297 18.8453 28.7723 18.794 28.7659C18.4353 28.6826 18.0765 28.6378 17.7177 28.625C17.8842 28.0803 17.9996 27.5293 18.0572 26.9783C18.0572 27.004 18.0572 27.0168 18.0572 27.0232C18.0572 27.1385 18.0572 27.2474 18.0572 27.3627C18.0572 27.4204 18.1854 27.0936 18.1918 27.0039C18.1918 26.8245 18.1982 26.6452 18.2046 26.4658C18.2238 26.3312 18.2366 26.1902 18.243 26.0429C18.3135 25.825 18.4224 25.6328 18.6018 25.5303C19.1208 25.7482 19.6462 25.8763 20.2293 25.934C20.2485 25.934 20.2805 25.8827 20.3061 25.8058C20.5432 25.8699 20.7803 25.9404 21.0173 26.0173C21.0622 26.0301 21.2031 25.5688 21.1455 25.5559H21.1519ZM17.8522 25.1715C17.9035 25.4214 17.9419 25.6713 17.9611 25.9276C17.8778 26.2735 17.8074 26.6131 17.7369 26.9591C17.7945 26.3633 17.833 25.7674 17.8522 25.1715ZM17.5126 28.279C17.4934 28.3879 17.4806 28.4968 17.4614 28.6057C17.3396 28.5737 17.2179 28.5417 17.0962 28.5032C17.1538 28.3559 17.2051 28.2085 17.2499 28.0611C17.455 27.5422 17.6023 27.0104 17.6792 26.4658C17.6536 26.8566 17.628 27.2538 17.5831 27.6447C17.5575 27.8689 17.5318 28.0932 17.5062 28.311C17.5062 28.3046 17.5062 28.2918 17.5126 28.2854V28.279ZM17.1794 28.0035C16.8719 28.9261 17.109 28.0547 17.2307 27.5742C17.2948 27.4268 17.3589 27.2795 17.4165 27.1321C17.3973 27.241 17.3781 27.3563 17.346 27.4653C17.346 27.4653 17.346 27.4717 17.346 27.4781C17.3396 27.5101 17.3268 27.5357 17.3204 27.5678C17.282 27.7087 17.2371 27.8561 17.1859 28.0035H17.1794ZM17.4165 24.6525C17.4486 24.7358 17.4742 24.8191 17.4934 24.9024C17.5447 25.3509 17.5511 25.793 17.5254 26.2287C17.487 26.4401 17.4293 26.658 17.3588 26.8694C17.4614 26.1326 17.4742 25.3894 17.4165 24.6525ZM16.9296 28.4392C16.8911 28.4263 16.8527 28.4135 16.8142 28.4007C16.8975 28.2469 16.9808 28.0868 17.0641 27.9202C17.0257 28.0932 16.9808 28.2662 16.9296 28.4392ZM17.9739 26.6708C17.8202 27.3179 17.7305 27.9907 17.6408 28.6121C17.5959 28.6121 17.5511 28.6121 17.5126 28.6121H17.4998C17.5318 28.5289 17.5767 28.4007 17.5831 28.3687C17.6087 28.2021 17.6215 28.0355 17.6472 27.8689C17.6792 27.7472 17.6984 27.619 17.7177 27.4909C17.8074 27.0488 17.8778 26.6067 17.9739 26.171C17.9739 26.1582 17.9739 26.1518 17.9803 26.139C17.9803 26.1967 17.9932 26.2543 17.9932 26.3184C17.9932 26.4401 17.9932 26.5619 17.9803 26.6836L17.9739 26.6708Z" fill="#FADAAB" fill-opacity="0.2"/>
<path d="M28.6482 8.26949C25.8227 7.57752 24.4195 10.5568 23.2855 12.5366C23.2726 12.5559 23.2598 12.652 23.2662 12.6392C23.8621 11.6076 24.4131 10.4607 25.2332 9.58935C26.1559 8.60906 27.2963 8.33996 28.6034 8.42966C28.629 8.42966 28.661 8.27589 28.6482 8.26949Z" fill="#FADAAB" fill-opacity="0.2"/>
<path d="M30.5319 7.3341C29.2954 6.06549 27.3604 6.4371 26.0534 7.39176C24.5477 8.49379 23.5353 10.275 22.5166 11.7999C22.5038 11.8191 22.4846 11.928 22.4974 11.9152C24.1697 9.583 27.0529 4.8161 30.5063 7.43661C30.5063 7.43661 30.5448 7.35331 30.5319 7.34049V7.3341Z" fill="#FADAAB" fill-opacity="0.2"/>
<path d="M31.9608 8.91666C31.7365 8.58989 31.4418 8.26313 31.0061 8.35283C30.9869 8.35283 30.9805 8.44893 30.9805 8.44893C31.4546 8.40408 31.7557 8.85257 31.98 9.20497C32.2363 9.60862 32.4221 10.0379 32.6463 10.4608C32.6463 10.4608 32.6848 10.3775 32.6784 10.3583C32.5246 9.84569 32.2619 9.35234 31.9608 8.91666Z" fill="#FADAAB" fill-opacity="0.2"/>
<path d="M31.6212 7.1803C31.6212 7.1803 31.5251 7.37253 31.5635 7.39816C32.358 7.94276 32.8514 8.69881 33.1589 9.60221C33.1589 9.60221 33.2037 9.5061 33.1973 9.47406C33.0051 8.52581 32.4157 7.7185 31.6212 7.1803Z" fill="#FADAAB" fill-opacity="0.2"/>
<path d="M33.3703 8.09655L32.9346 7.64804C32.9346 7.64804 32.8897 7.72492 32.909 7.74414C33.0563 7.8851 33.2037 8.03247 33.3511 8.17343C33.3511 8.17343 33.3895 8.10936 33.3703 8.09655Z" fill="#FADAAB" fill-opacity="0.2"/>
<path d="M43.5448 34.1351C43.5448 34.1351 43.4872 34.2312 43.5128 34.2569C44.1855 34.9937 44.5379 35.8971 44.6212 36.8838C44.6212 36.8966 44.6533 36.8133 44.6533 36.7941C44.6404 35.7754 44.2368 34.872 43.5448 34.1351Z" fill="#FADAAB" fill-opacity="0.2"/>
<path d="M48.4335 29.5605C47.9465 29.5797 46.6459 29.836 46.3448 29.3426C46.3448 29.3426 46.2999 29.4195 46.3127 29.4387C46.6331 29.9769 47.844 29.7719 48.3694 29.7847C49.1319 29.804 49.8687 29.7399 50.4005 29.1376C50.4261 29.1056 50.4325 28.971 50.4389 28.9646C49.8623 29.4579 49.1639 29.5284 48.4335 29.5541V29.5605Z" fill="#FADAAB" fill-opacity="0.2"/>
<path d="M52.6045 27.9779C52.4764 30.2075 52.0407 32.2386 50.8553 34.1607C50.2403 35.1603 49.606 36.1277 49.1895 37.2298C49.1767 37.2554 49.1511 37.4092 49.1895 37.3131C49.8879 35.5319 51.227 34.0903 51.8997 32.2963C52.4315 30.8803 52.6429 29.349 52.6558 27.8433C52.6558 27.8241 52.6109 27.9458 52.6045 27.9779Z" fill="#FADAAB" fill-opacity="0.2"/>
<path d="M51.6626 29.3426C51.6626 29.3426 51.6178 29.4323 51.6178 29.4579C51.637 30.9572 51.1949 32.3603 50.2595 33.5264C50.2338 33.5585 50.2338 33.661 50.2274 33.6738C51.2333 32.4757 51.7908 30.9123 51.6626 29.3426Z" fill="#FADAAB" fill-opacity="0.2"/>
<path d="M50.8105 30.4959C50.5734 30.9636 50.3748 31.457 50.1634 31.9375C50.1506 31.9695 50.1057 32.2066 50.1441 32.1169C50.3684 31.6107 50.5991 31.111 50.8041 30.5984C50.8105 30.5792 50.8425 30.4382 50.8105 30.4959Z" fill="#FADAAB" fill-opacity="0.2"/>
<path d="M20.2229 49.3329C18.3584 47.9681 16.321 46.7892 14.3732 45.5399C14.3732 45.5399 14.3155 45.6552 14.3347 45.6744C16.2761 46.9302 18.179 48.3013 20.1909 49.4354C20.1909 49.4354 20.2357 49.3521 20.2165 49.3393L20.2229 49.3329Z" fill="#FADAAB" fill-opacity="0.2"/>
<path d="M22.0873 49.3777C20.8892 48.5064 19.5309 47.8016 18.2623 47.0391C18.2623 47.0391 18.1726 47.2185 18.211 47.2377C19.4732 47.9938 20.729 48.8652 22.0553 49.4995C22.0617 49.4995 22.1065 49.3905 22.0873 49.3777Z" fill="#FADAAB" fill-opacity="0.2"/>
<path d="M24.5542 48.9164C23.5867 48.8331 22.8114 48.4166 22.0554 47.8336C21.1904 47.1608 20.3126 46.4945 19.4477 45.8153C19.4477 45.8153 19.4092 45.8922 19.422 45.905C21.011 47.1928 22.5936 49.0573 24.7784 49.115C26.8031 49.1662 28.6227 48.0001 30.2117 46.8725C30.2309 46.8597 30.2309 46.7892 30.2309 46.7892C28.5074 47.872 26.6877 49.1022 24.5478 48.9164H24.5542Z" fill="#FADAAB" fill-opacity="0.2"/>
<path d="M30.8139 47.533C30.8139 47.533 30.8269 47.5004 30.8204 47.5004C30.8139 47.5004 30.8073 47.533 30.8139 47.533Z" fill="#FADAAB" fill-opacity="0.2"/>
<path d="M39.2329 27.8689C38.1244 27.0296 37.5542 25.6072 38.1373 24.2617C38.1437 24.2489 38.1629 24.1464 38.1437 24.1848C37.535 25.4983 37.8874 27.209 39.2072 27.9522C39.2072 27.9522 39.2457 27.8754 39.2329 27.8689Z" fill="#FADAAB" fill-opacity="0.2"/>
<path d="M41.4369 28.1765C40.0722 27.4269 39.1367 26.1262 39.252 24.518C39.252 24.4283 39.188 24.6269 39.188 24.6654C39.0855 26.1839 39.912 27.7792 41.4176 28.2662C41.4241 28.2662 41.4497 28.1893 41.4433 28.1829L41.4369 28.1765Z" fill="#FADAAB" fill-opacity="0.2"/>
<path d="M43.2693 27.9139C42.0199 27.3757 41.0653 26.4338 40.9564 25.0178C40.9564 24.9858 40.8795 25.1588 40.8859 25.21C40.982 26.4851 41.8982 27.8306 43.2373 28.0356C43.2501 28.0356 43.2821 27.9203 43.2693 27.9139Z" fill="#FADAAB" fill-opacity="0.2"/>
<path d="M44.5765 27.7601C43.2822 27.1898 42.2379 26.3761 41.7958 24.9794C41.7958 24.9794 41.7637 25.037 41.7701 25.0626C42.161 26.3377 43.1989 27.5806 44.5572 27.8433C44.5636 27.8433 44.5893 27.7665 44.5765 27.7665V27.7601Z" fill="#FADAAB" fill-opacity="0.2"/>
<path d="M42.9042 28.8365C42.4941 28.8236 42.1097 28.7147 41.7701 28.4777C41.7701 28.4777 41.7189 28.5738 41.7381 28.5866C42.0712 28.83 42.4621 28.9646 42.8785 28.9261C42.8978 28.9261 42.9106 28.8365 42.9042 28.8365Z" fill="#FADAAB" fill-opacity="0.2"/>
<path d="M47.1905 27.7664C45.4093 27.6383 43.8844 27.036 43.0579 25.3317C43.0579 25.3317 43.013 25.4086 43.0259 25.4342C43.7306 26.9271 45.4478 28.1829 47.1649 27.8561C47.1841 27.8561 47.1969 27.7664 47.1905 27.7664Z" fill="#FADAAB" fill-opacity="0.2"/>
<path d="M45.3774 28.484C45.3774 28.484 45.2749 28.7147 45.3133 28.7275C46.6908 29.3298 48.2798 29.0415 49.3114 27.9394C49.337 27.9138 49.337 27.8113 49.3434 27.8049C48.2478 28.798 46.7421 29.0863 45.3838 28.484H45.3774Z" fill="#FADAAB" fill-opacity="0.2"/>
<path d="M42.1801 33.7315C40.5463 31.867 37.6631 31.5915 35.4783 32.4821C35.4654 32.4821 35.4655 32.5269 35.4655 32.5269C37.9066 31.7581 40.117 32.5141 42.1353 33.8916C42.1353 33.8916 42.1994 33.7571 42.1801 33.7315Z" fill="#FADAAB" fill-opacity="0.2"/>
<path d="M38.1052 33.3279L38.0924 33.3919C39.0278 32.9306 40.1619 33.6162 40.9244 34.1544C41.7637 34.7438 42.3788 35.5255 42.8914 36.4033C42.8914 36.4033 42.9426 36.3136 42.9298 36.2815C42.2699 34.7502 39.9505 32.354 38.1052 33.3279Z" fill="#FADAAB" fill-opacity="0.2"/>
<path d="M41.2382 31.3929C40.9435 31.2904 40.5911 31.3032 40.2836 31.2776C40.258 31.2776 40.2387 31.4057 40.2451 31.4121C40.5591 31.4442 40.8987 31.5146 41.2126 31.4698C41.2254 31.4698 41.2447 31.3993 41.2318 31.3929H41.2382Z" fill="#FADAAB" fill-opacity="0.2"/>
<path d="M17.5254 45.8218C16.7757 45.3028 15.962 44.8607 15.1675 44.4058C15.1675 44.4058 15.1291 44.4891 15.1419 44.4955C15.9172 44.976 16.686 45.4886 17.4997 45.8986C17.4997 45.8986 17.5318 45.8282 17.5189 45.8218H17.5254Z" fill="#FADAAB" fill-opacity="0.2"/>
<path d="M16.7246 44.3808C16.7246 44.3808 16.7377 44.3481 16.7312 44.3481C16.7246 44.3481 16.7181 44.3808 16.7246 44.3808Z" fill="#FADAAB" fill-opacity="0.2"/>
<path d="M22.2668 35.2885C21.6837 34.8912 20.9021 34.8784 20.2549 35.1411C20.2293 35.1475 20.2229 35.2564 20.2229 35.2564C20.9405 35.1347 21.5364 35.2116 22.2412 35.3781C22.254 35.3781 22.2796 35.2949 22.2668 35.2885Z" fill="#FADAAB" fill-opacity="0.2"/>
<path d="M34.1455 18.5786C34.1455 18.5786 34.1135 18.7068 34.1263 18.6875C36.1125 15.5032 39.0278 13.3184 42.5581 12.0946C42.5709 12.0946 42.5709 12.0369 42.5709 12.0369C39.0214 12.9019 35.9267 15.4135 34.1391 18.5722L34.1455 18.5786Z" fill="#FADAAB" fill-opacity="0.2"/>
<path d="M31.4482 1.68298C31.4482 1.68298 31.3905 1.83675 31.4033 1.84316C33.3575 2.33651 35.0362 3.2207 36.7725 4.2074C36.7725 4.2074 36.7918 4.16255 36.7853 4.15615C35.2733 2.89394 33.3447 2.13149 31.4418 1.6894L31.4482 1.68298Z" fill="#FADAAB" fill-opacity="0.2"/>
<path d="M30.3333 1.28575C27.527 1.08713 24.1953 1.66376 21.972 3.47698C21.9528 3.4898 21.9528 3.56028 21.9528 3.56028C23.106 2.75938 24.4003 2.24683 25.7714 1.9521C27.2643 1.63174 28.7892 1.67017 30.2884 1.43952C30.3141 1.43952 30.3397 1.29217 30.3269 1.29217L30.3333 1.28575Z" fill="#FADAAB" fill-opacity="0.2"/>
<path d="M6.33215 9.74956L6.30652 9.83285C7.0113 9.75597 7.7225 9.69189 8.41447 9.55094C8.43369 9.55094 8.4401 9.45483 8.4401 9.45483C7.73531 9.49968 7.02412 9.63423 6.33215 9.74956Z" fill="#FADAAB" fill-opacity="0.2"/>
<path d="M36.8558 4.96986C35.8755 4.15615 34.6901 3.46419 33.492 3.03491C33.4856 3.03491 33.4536 3.11819 33.4664 3.1246C34.6004 3.7525 35.7217 4.3868 36.8365 5.04033C36.8365 5.04033 36.8686 4.97627 36.8558 4.96986Z" fill="#FADAAB" fill-opacity="0.2"/>
<path d="M37.9129 3.88702C37.4196 3.336 36.6764 2.99643 36.0036 2.72733C35.9972 2.72733 35.9588 2.82343 35.978 2.82984C36.67 3.14379 37.2338 3.62433 37.8873 3.99595C37.8873 3.99595 37.9322 3.89982 37.9193 3.8806L37.9129 3.88702Z" fill="#FADAAB" fill-opacity="0.2"/>
<path d="M32.9346 16.3297C30.9676 16.1375 29.2825 15.4455 27.9947 13.9014C27.9947 13.9014 27.9562 13.9719 27.969 13.9911C29.0903 15.5224 30.9676 16.5924 32.9025 16.4514C32.9218 16.4514 32.941 16.3361 32.9346 16.3361V16.3297Z" fill="#FADAAB" fill-opacity="0.2"/>
<path d="M32.6783 17.0345C31.9671 16.9191 31.3264 16.8294 30.66 16.5219C30.0129 16.2208 29.4042 15.8363 28.8084 15.4327C28.8084 15.4327 28.7635 15.516 28.7827 15.5288C29.8655 16.3169 31.2175 17.3933 32.6462 17.137C32.6655 17.137 32.6847 17.0409 32.6719 17.0345H32.6783Z" fill="#FADAAB" fill-opacity="0.2"/>
<path d="M33.5497 15.9517C32.9026 15.7082 32.2298 15.5865 31.5955 15.2981C30.9676 15.0162 30.391 14.6638 29.8528 14.2346C29.8528 14.2346 29.808 14.3179 29.8272 14.3371C30.8203 15.1828 32.1658 16.0542 33.5177 16.0606C33.5305 16.0606 33.5625 15.9517 33.5497 15.9517Z" fill="#FADAAB" fill-opacity="0.2"/>
<path d="M13.8414 19.0655C13.1943 19.5589 12.5728 19.5204 11.8167 19.5973C11.7975 19.5973 11.7719 19.6999 11.7847 19.7127C13.0149 20.8595 14.6551 18.6683 15.1228 17.7265C15.1356 17.7008 15.1549 17.547 15.1549 17.5534C14.6679 18.0148 14.3988 18.6555 13.8478 19.072L13.8414 19.0655Z" fill="#FADAAB" fill-opacity="0.2"/>
<path d="M29.4107 22.9163C28.5778 21.7502 27.008 21.6861 25.7202 21.417C24.3811 21.1351 23.1958 20.4367 21.9784 19.8408C21.9784 19.8408 21.9336 19.9305 21.9528 19.9369C23.1317 20.6802 24.2401 21.4682 25.6177 21.795C27.008 22.1282 28.1741 22.3012 29.3274 23.211C29.3274 23.211 29.4427 22.9611 29.4107 22.9098V22.9163Z" fill="#FADAAB" fill-opacity="0.2"/>
<path d="M29.3978 28.7852C29.1287 29.0863 28.8853 29.4067 28.6738 29.7526C28.9365 29.4771 29.1864 29.0607 29.3978 28.7852Z" fill="#FADAAB" fill-opacity="0.2"/>
<path d="M29.3978 28.7852C29.1287 29.0863 28.8853 29.4067 28.6738 29.7526C28.9365 29.4771 29.1864 29.0607 29.3978 28.7852Z" fill="#FADAAB" fill-opacity="0.2"/>
<path d="M31.2559 24.4924C31.2174 24.6398 31.179 24.7935 31.1469 24.9409C31.1726 24.8063 31.2046 24.6782 31.2302 24.5437C31.2431 24.5052 31.3135 24.1528 31.2623 24.2297C31.0508 24.5949 30.9227 24.9665 30.8394 25.3766C30.7946 25.6137 30.7753 25.8571 30.7369 26.0942C30.5959 26.9015 30.2948 27.318 29.7374 27.8626C29.6413 27.9587 29.5388 28.0612 29.4426 28.1573C29.5259 28.0163 29.5964 27.8818 29.6797 27.7408C29.731 27.6575 29.7438 27.3692 29.7566 27.3436C29.0838 28.1701 28.5328 29.0671 28.1036 30.041C27.6935 30.0538 27.2258 29.7655 26.8606 29.6566C26.3928 29.5156 25.9123 29.4259 25.4254 29.3746C24.9384 29.3298 24.4451 29.3298 23.9646 29.3746C23.4776 29.4195 23.2021 29.5989 23.0355 29.0607C23.0163 28.9966 22.9971 28.9325 22.9778 28.8685C22.9522 28.0099 22.6767 27.2218 22.1513 26.5619C22.2346 26.6196 22.3179 26.6708 22.4012 26.7285C23.5929 27.4973 24.8423 28.3943 26.2967 28.5353C28.8468 28.7852 29.9488 26.3697 30.3781 24.2425C30.4165 24.0631 30.3204 24.2425 30.3076 24.313C29.936 25.7738 29.2825 27.5037 27.6615 27.9266C26.5915 28.2021 25.483 27.8818 24.5284 27.4076C23.4968 26.8951 22.5422 26.2416 21.5491 25.6585C20.5495 25.0691 19.5372 24.345 18.4288 23.9862C18.416 23.9862 18.3583 24.14 18.3839 24.1528C19.5564 24.7423 20.6328 25.5432 21.7285 26.2864C21.69 26.3825 21.6452 26.4978 21.6708 26.5299C21.8182 26.7413 21.9463 26.9656 22.0744 27.1898C22.3115 27.9779 22.5742 28.7596 22.8497 29.5348C22.8497 29.5348 22.8625 29.5156 22.8753 29.4836C22.901 29.5925 22.9394 29.695 22.9843 29.7527C23.1572 29.9577 23.311 29.8552 23.5609 29.836C25.1691 29.7142 26.6363 29.9449 28.0907 30.6689C28.0907 30.6689 28.0971 30.6689 28.1036 30.6689C28.1292 30.6432 28.1484 30.6112 28.174 30.5856C28.174 30.6112 28.1676 30.6304 28.1676 30.6497C27.8473 30.9316 27.6358 30.9956 27.2322 30.8675C26.8542 30.7458 26.489 30.5792 26.1173 30.4446C26.1045 30.4446 26.0533 30.592 26.0725 30.6048C26.6491 30.9188 27.418 31.5851 28.0203 31.0597C28.6418 30.5087 29.1671 29.7975 29.6477 29.1248C29.6797 29.0799 29.6797 28.9389 29.6861 28.9261C29.2248 29.4771 28.7699 30.0922 28.2381 30.5792C28.2637 30.5279 28.2894 30.4703 28.3086 30.419C29.0006 29.5669 29.6989 28.7147 30.3909 27.869C30.455 27.7921 30.4934 27.4269 30.4934 27.4269C30.4165 27.4845 30.3461 27.5486 30.2756 27.6127C30.455 27.3756 30.5895 27.1129 30.6856 26.8118C30.7049 26.7605 30.7177 26.6965 30.7305 26.6452C30.7305 26.658 30.7305 26.6644 30.7305 26.6772C30.7177 26.863 30.833 26.5235 30.8394 26.485C30.9291 26.1198 31.0252 25.7546 31.1149 25.3894C31.0701 25.6457 31.038 25.902 30.9996 26.1647C30.9675 26.3761 31.0765 26.075 31.0893 26.0109C31.1854 25.4599 31.2751 24.9025 31.3648 24.3514C31.4032 24.0952 31.2815 24.4219 31.2623 24.4988L31.2559 24.4924ZM28.6738 29.7591C28.8852 29.4131 29.1223 29.0863 29.3978 28.7916C29.1864 29.0671 28.9365 29.4836 28.6738 29.7591Z" fill="#FADAAB" fill-opacity="0.2"/>
<path d="M4.04484 12.6841C4.04484 12.6841 4.03843 12.7225 4.04484 12.7033C4.43568 11.6845 5.58897 11.2104 6.52441 10.826C6.53722 10.826 6.53721 10.7747 6.53721 10.7683C5.49926 11.1271 4.4549 11.5884 4.04484 12.6841Z" fill="#FADAAB" fill-opacity="0.2"/>
<path d="M16.0326 13.9463L16.0134 14.036C16.4619 13.7092 16.904 13.3504 17.2564 12.9275C17.2756 12.9083 17.2756 12.8314 17.2756 12.8314C16.872 13.2223 16.4811 13.6067 16.0262 13.9527L16.0326 13.9463Z" fill="#FADAAB" fill-opacity="0.2"/>
<path d="M17.3397 13.6713C17.3397 13.6713 17.3528 13.6387 17.3463 13.6387C17.3397 13.6387 17.3332 13.6713 17.3397 13.6713Z" fill="#FADAAB" fill-opacity="0.2"/>
<path d="M17.7754 13.4919C17.7754 13.4919 17.7885 13.4593 17.7819 13.4593C17.7754 13.4593 17.7689 13.4919 17.7754 13.4919Z" fill="#FADAAB" fill-opacity="0.2"/>
<path d="M14.4628 41.3559C14.3347 41.2342 14.1425 41.1701 14.0015 41.0612C13.8542 40.9523 13.726 40.8305 13.6107 40.6896C13.6171 40.696 13.5338 40.8177 13.5658 40.8562C13.6812 40.9971 13.8093 41.1253 13.9567 41.2342C14.0848 41.3303 14.2642 41.4777 14.4308 41.4777C14.45 41.4777 14.4757 41.3687 14.4628 41.3559Z" fill="#FADAAB" fill-opacity="0.2"/>
<path d="M14.3668 40.5301C14.3668 40.5301 14.3799 40.4974 14.3734 40.4974C14.3668 40.4974 14.3603 40.5301 14.3668 40.5301Z" fill="#FADAAB" fill-opacity="0.2"/>
<path d="M14.6294 39.742C14.6294 39.742 14.6425 39.7094 14.6359 39.7094C14.6294 39.7094 14.6229 39.742 14.6294 39.742Z" fill="#FADAAB" fill-opacity="0.2"/>
<path d="M15.4943 39.5427C15.1996 39.2032 14.8024 38.9277 14.4628 38.6329C14.4628 38.6329 14.4179 38.7226 14.4372 38.7354C14.6102 38.8828 14.7831 39.0302 14.9561 39.1839C15.1227 39.3313 15.2893 39.4979 15.4751 39.6132C15.4751 39.6132 15.5008 39.5556 15.4943 39.5427Z" fill="#FADAAB" fill-opacity="0.2"/>
<path d="M15.7826 38.9661C15.5135 38.6009 15.1483 38.2934 14.828 37.973C14.8344 37.9794 14.7447 38.1268 14.7767 38.1588C15.0843 38.4664 15.3918 38.838 15.7506 39.0879C15.7506 39.0879 15.7955 38.9853 15.7826 38.9661Z" fill="#FADAAB" fill-opacity="0.2"/>
<path d="M16.212 37.9474C15.8404 37.6783 15.4816 37.3899 15.1676 37.0568C15.1676 37.0568 15.1228 37.1337 15.142 37.1529C15.4559 37.4796 15.8083 37.7808 16.1992 38.0114C16.1992 38.0114 16.2248 37.9602 16.2184 37.9538L16.212 37.9474Z" fill="#FADAAB" fill-opacity="0.2"/>
<path d="M15.5906 36.7691C15.5906 36.7691 15.6036 36.7365 15.5971 36.7365C15.5906 36.7365 15.5841 36.7691 15.5906 36.7691Z" fill="#FADAAB" fill-opacity="0.2"/>
<path d="M16.481 36.6275C16.3657 36.5057 16.2504 36.3904 16.1351 36.2687C16.1351 36.2687 16.0966 36.3391 16.1094 36.3584C16.2248 36.4737 16.3465 36.589 16.4618 36.7044C16.4618 36.7044 16.4939 36.6403 16.481 36.6275Z" fill="#FADAAB" fill-opacity="0.2"/>
<path d="M16.4619 35.7183C16.4619 35.7183 16.475 35.6857 16.4685 35.6857C16.4619 35.6857 16.4554 35.7183 16.4619 35.7183Z" fill="#FADAAB" fill-opacity="0.2"/>
<path d="M17.3844 35.5832C17.2179 35.4294 17.0385 35.2948 16.8462 35.1731C16.8462 35.1731 16.7758 35.3205 16.8014 35.3397C16.9744 35.4742 17.1474 35.6152 17.3075 35.769C17.378 35.8395 17.4485 35.9099 17.5126 35.9804C17.5831 36.0573 17.6599 36.179 17.7561 36.2303C17.7689 36.2367 17.8137 36.0829 17.8073 36.0637C17.724 35.8779 17.5382 35.7177 17.3908 35.5832H17.3844Z" fill="#FADAAB" fill-opacity="0.2"/>
<path d="M28.3855 10.858C28.3855 10.858 28.3407 10.9733 28.3535 10.9797C29.2569 11.2936 29.9233 11.928 29.9297 12.9403C29.9297 12.9659 29.9809 12.8378 29.9809 12.8121C30.0578 11.9215 29.3658 10.8451 28.3855 10.858Z" fill="#FADAAB" fill-opacity="0.2"/>
<path d="M24.7783 16.3425C24.7783 16.3425 24.7783 16.3745 24.7719 16.3745C25.4702 15.6697 26.0981 14.8496 26.7004 14.0616C26.7196 14.0359 26.7196 13.9526 26.726 13.9462C26.0405 14.7087 25.3741 15.5096 24.7783 16.3361V16.3425Z" fill="#FADAAB" fill-opacity="0.2"/>
<path d="M18.352 6.50758L18.3328 6.58446C19.9986 5.76435 21.626 4.8225 23.1061 3.70125C23.1189 3.68844 23.1189 3.63718 23.1189 3.63718C21.5556 4.6495 19.9986 5.63621 18.3456 6.50758H18.352Z" fill="#FADAAB" fill-opacity="0.2"/>
<path d="M18.8965 7.27L18.8773 7.34688C21.0878 6.62928 22.5102 4.61104 24.5156 3.51542C24.5348 3.50261 24.5284 3.43854 24.5348 3.43213C22.4333 4.3932 21.1134 6.49473 18.8965 7.26358V7.27Z" fill="#FADAAB" fill-opacity="0.2"/>
<path d="M31.9607 3.01568C31.179 2.34293 30.0001 2.43264 29.0326 2.42623C27.8537 2.42623 26.6556 2.4839 25.4959 2.70815C25.4831 2.70815 25.4767 2.77222 25.4767 2.77222C26.6428 2.71456 27.8025 2.61845 28.975 2.63126C29.9873 2.64408 31.0253 2.63125 31.9287 3.13741C31.9287 3.13741 31.9799 3.02849 31.9607 3.01568Z" fill="#FADAAB" fill-opacity="0.2"/>
<path d="M39.5211 6.48192C39.079 5.8412 38.3614 5.33506 37.6759 4.97626C37.6695 4.97626 37.6054 5.13002 37.631 5.14283C37.9642 5.36708 38.291 5.59133 38.6049 5.8412C38.906 6.08468 39.1751 6.37301 39.4891 6.59726C39.4891 6.59726 39.5339 6.49475 39.5211 6.47552V6.48192Z" fill="#FADAAB" fill-opacity="0.2"/>
<path d="M50.8554 16.4771C50.6888 14.7151 49.5675 13.3824 48.4591 12.0754C47.8248 11.3322 47.1777 10.6017 46.5241 9.87774C45.9219 9.2178 45.3388 8.44253 44.4867 8.08373C44.4546 8.07091 44.3073 8.48098 44.3649 8.53224C44.4931 8.66038 44.6212 8.79492 44.7494 8.92306C44.775 9.17935 44.807 9.16654 44.9992 9.34594C45.0953 9.42923 45.185 9.52534 45.2811 9.61504C45.7617 10.3262 46.2807 11.0054 46.8445 11.6461C47.2802 12.133 47.7415 12.6008 48.2348 13.0236C48.4847 13.2351 48.7346 13.4209 48.9717 13.6323C49.2087 13.9206 49.4458 14.209 49.6829 14.5037C49.6829 14.5037 49.6957 14.4588 49.7149 14.4076C50.1826 15.1316 50.5606 15.9068 50.7592 16.7718C50.7592 16.7526 50.8554 16.5604 50.8489 16.4835L50.8554 16.4771Z" fill="#FADAAB" fill-opacity="0.2"/>
<path d="M46.7035 31.7389C46.1974 31.0148 45.5439 30.4318 44.807 30.0089C44.8134 29.9513 44.8134 29.9064 44.8006 29.9C44.1535 29.522 43.4679 29.3426 42.7696 29.2913C42.4364 29.2401 42.0968 29.208 41.7572 29.2144C40.8859 28.9966 39.9889 28.8749 39.0662 28.8492C38.0027 28.8236 36.7853 28.7916 36.2599 27.6831C35.7281 26.5491 36.183 25.1972 35.9972 23.999C35.9972 23.999 35.9203 24.1592 35.9139 24.1977C35.6128 26.0045 34.7478 28.6698 37.0031 29.5732C37.5349 29.7847 38.1116 29.8872 38.6946 29.9449C38.5409 29.9897 38.3871 30.0346 38.2333 30.0794C36.0869 30.7009 33.8572 31.2583 32.1145 32.732C32.0889 32.7512 32.0889 32.8537 32.0889 32.8601C33.9533 31.5146 36.2663 31.0405 38.4383 30.4254C38.9317 30.2844 39.4314 30.1499 39.9376 30.0346C40.0914 30.041 40.2452 30.0538 40.3925 30.0602C41.0781 30.1114 41.7572 30.1627 42.4428 30.214C43.5705 30.5151 44.6276 31.0148 45.6207 31.694C45.6207 31.694 45.704 31.5338 45.7553 31.3865C46.05 31.662 46.3191 31.9695 46.5498 32.3091C46.5177 32.2642 46.7932 31.8926 46.6971 31.7581L46.7035 31.7389ZM37.5926 29.2721C36.4201 28.9582 35.6192 28.2021 35.5744 26.9335C35.5487 26.2223 35.6961 25.3702 35.8755 24.6718C36.0677 23.9286 35.9716 25.0498 35.9716 25.2228C35.9716 25.556 35.9267 25.8891 35.9075 26.2223C35.8627 27.0488 35.8819 27.9843 36.4713 28.6314C37.1569 29.3938 38.2525 29.3234 39.1816 29.3682C39.5852 29.3874 39.9825 29.4323 40.3797 29.4964C40.3797 29.4964 40.3797 29.5028 40.3797 29.5092C40.2644 29.5348 40.1554 29.5604 40.0465 29.586C39.2264 29.5412 38.3871 29.49 37.6054 29.2785L37.5926 29.2721Z" fill="#FADAAB" fill-opacity="0.2"/>
<path d="M39.2456 34.5644C39.2456 34.5644 39.2328 34.59 39.2392 34.59C39.7774 34.904 40.322 35.1538 40.8026 35.5575C41.3215 35.9868 41.7124 36.4994 42.0776 37.0504C42.0776 37.0504 42.1032 36.9991 42.0968 36.9799C41.5778 35.8971 40.4566 34.7758 39.2392 34.558L39.2456 34.5644Z" fill="#FADAAB" fill-opacity="0.2"/>
<path d="M43.2694 35.8458C43.2694 35.8458 43.2501 35.8779 43.2566 35.8843C43.6794 36.5314 43.8909 37.2298 43.9229 38.005C43.9229 38.0114 43.9421 37.9666 43.9421 37.9538C43.9229 37.1913 43.6858 36.4801 43.263 35.8458H43.2694Z" fill="#FADAAB" fill-opacity="0.2"/>
<path d="M42.3658 37.0568C42.3658 37.0568 42.321 37.1401 42.3274 37.1721C42.7247 38.1652 42.9361 39.1199 42.872 40.1963C42.872 40.2091 42.8912 40.1514 42.8912 40.145C43.0002 39.0942 42.8656 37.9986 42.3594 37.0632L42.3658 37.0568Z" fill="#FADAAB" fill-opacity="0.2"/>
<path d="M31.7493 14.0167C31.7493 14.0167 31.7109 14.0872 31.7237 14.1C32.4861 14.7664 33.6651 14.933 34.5749 14.4845C34.5877 14.4845 34.5877 14.4268 34.5877 14.4268C33.5433 14.6639 32.6719 14.5613 31.7429 14.0167H31.7493Z" fill="#FADAAB" fill-opacity="0.2"/>
<path d="M33.4728 13.8053C33.4728 13.8053 33.4087 13.9847 33.4215 13.9847C34.5299 14.1513 35.6127 13.7989 36.3816 12.9788C36.4008 12.9595 36.4008 12.8827 36.4008 12.8827C35.5935 13.6323 34.5556 13.9783 33.4663 13.8053H33.4728Z" fill="#FADAAB" fill-opacity="0.2"/>
<path d="M35.9844 13.9462L35.9652 14.0424C36.7213 13.6771 37.4196 13.203 37.9835 12.5751C38.0027 12.5559 38.0027 12.479 38.0091 12.4726C37.3876 13.0492 36.7469 13.5618 35.9844 13.9462Z" fill="#FADAAB" fill-opacity="0.2"/>
<path d="M45.7938 9.37157C45.6016 8.98715 45.2236 8.68602 44.9288 8.37848C44.57 8.01968 44.2112 7.6032 43.7884 7.32128C43.782 7.32128 43.7307 7.43662 43.7179 7.51351C43.6026 7.35974 43.4744 7.20597 43.3335 7.09705C42.8978 6.38586 42.3916 5.74514 41.5587 5.45041C41.5203 5.4376 41.3729 5.87329 41.4306 5.91814C42.917 7.09065 43.2181 9.00636 44.5124 10.307C45.5311 11.3257 46.9407 11.9344 48.1773 12.7225C51.4129 16.4066 53.7899 20.8019 53.8091 25.8699C53.8219 29.8872 51.5154 34.0006 50.0866 37.7167C49.6637 38.8188 49.3562 39.421 48.3887 40.0297C48.2862 40.0938 48.0747 40.1451 47.985 40.2348C47.8441 40.3757 47.7608 40.5231 47.6775 40.6768C47.8697 39.7798 47.9851 38.87 48.0876 37.973C48.1388 37.5181 47.7992 38.4664 47.78 38.5753C47.7416 38.7995 47.7031 39.0174 47.6583 39.2352C47.5686 39.4146 47.434 39.8055 47.4212 39.8823C47.1713 41.2791 46.7485 42.7335 45.8771 43.8163C45.8066 43.8868 45.7361 43.9573 45.6593 44.0278C45.2812 44.3609 44.8391 44.63 44.4163 44.8991C44.1664 45.0529 43.9165 45.2067 43.6602 45.3605C43.6987 45.3284 43.7435 45.29 43.782 45.2579C43.8845 45.1747 43.9165 44.63 43.9421 44.6236C42.6799 45.1042 41.8278 46.2382 40.6809 46.943C38.7139 47.1801 37.0224 48.0386 35.3566 49.0766C33.3319 50.3452 31.4162 51.4344 29.2442 52.4403C29.2314 52.4403 29.225 52.4596 29.2121 52.4724C27.7641 52.703 26.2969 52.671 24.8489 52.9785C24.7976 52.9914 24.7079 53.3117 24.7528 53.3309C27.8346 54.8943 32.0633 52.7735 34.6198 51.018C36.2984 49.8647 37.9323 49.1663 39.7775 48.359C39.7775 48.4551 39.7711 48.5192 39.7647 48.5192C41.1102 47.7375 42.7632 46.9943 44.1792 46.0268C44.1728 46.0524 44.1664 46.0716 44.1536 46.0716C44.1664 46.0716 44.1728 46.0588 44.1792 46.0588C44.1792 46.0588 44.1856 46.0588 44.192 46.0524C44.8584 45.7449 45.4478 45.3412 45.9348 44.8415C45.922 44.9376 45.9091 45.0145 45.9091 45.0209C46.0949 44.7774 46.2615 44.5275 46.4153 44.2712C46.678 43.9188 46.9022 43.5344 47.0816 43.1115C47.1585 42.9257 47.2162 42.6759 47.2739 42.4132C47.3507 42.1761 47.4212 41.9326 47.4789 41.6828C47.543 41.5098 47.6262 41.3624 47.7352 41.2535C48.3438 40.6576 48.9846 40.7601 49.4587 39.9208C50.4262 38.2165 50.8234 36.0765 51.5859 34.2633C52.2906 32.5718 53.0082 30.8739 53.4696 29.0991C55.2892 22.1538 51.7012 13.4978 45.7746 9.35877L45.7938 9.37157Z" fill="#FADAAB" fill-opacity="0.2"/>
<path d="M30.9996 35.9291C29.667 34.9809 27.905 35.1346 26.5339 35.9099C26.5146 35.9227 26.5146 36.006 26.5146 36.006C27.9755 35.1987 29.494 35.3781 30.974 36.0252C30.974 36.0252 31.0125 35.9419 30.9996 35.9291Z" fill="#FADAAB" fill-opacity="0.2"/>
<path d="M31.8903 35.5318C31.3649 35.0385 30.564 34.9232 29.872 35.0385C29.8464 35.0385 29.8336 35.1602 29.84 35.1602C30.6025 35.1218 31.1791 35.3845 31.839 35.7113C31.8518 35.7113 31.9095 35.5575 31.8903 35.5318Z" fill="#FADAAB" fill-opacity="0.2"/>
<path d="M33.114 35.3717C32.5246 34.8079 31.6211 34.6797 30.8459 34.7438C30.8138 34.7438 30.7946 34.9104 30.801 34.9104C31.6596 34.8719 32.3067 35.1859 33.082 35.4934C33.0948 35.4934 33.1332 35.3845 33.114 35.3717Z" fill="#FADAAB" fill-opacity="0.2"/>
<path d="M33.9085 35.0962C33.4984 34.8207 33.0307 34.6157 32.5886 34.3914C32.5822 34.3914 32.5181 34.5388 32.5437 34.5516C32.9794 34.7694 33.4151 35.0321 33.8764 35.1923C33.8828 35.1923 33.9149 35.1026 33.9021 35.0962H33.9085Z" fill="#FADAAB" fill-opacity="0.2"/>
<path d="M34.8632 34.5772C34.4851 34.1031 33.7868 33.8981 33.2101 33.8532C33.1717 33.8532 33.1332 34.0711 33.1525 34.0711C33.46 34.0967 33.7547 34.1608 34.043 34.2761C34.325 34.3914 34.5556 34.59 34.8247 34.731C34.8375 34.731 34.8824 34.5964 34.8696 34.5772H34.8632Z" fill="#FADAAB" fill-opacity="0.2"/>
<path d="M35.8243 33.8981C35.2541 33.4047 34.466 33.1805 33.7292 33.0908C33.7035 33.0908 33.6715 33.2509 33.6843 33.2574C34.4724 33.3471 35.1003 33.6546 35.7987 33.9878C35.7987 33.9878 35.8371 33.9109 35.8243 33.8981Z" fill="#FADAAB" fill-opacity="0.2"/>
<path d="M36.3432 33.1997C36.151 33.0588 35.8819 33.0139 35.6512 32.9435C35.4206 32.873 35.1835 32.7961 34.9529 32.7256C34.9336 32.7192 34.876 32.9178 34.9016 32.9242C35.1323 32.9947 35.3693 33.0652 35.6064 33.1357C35.8306 33.2061 36.0805 33.3215 36.3176 33.3087C36.3368 33.3087 36.3624 33.1997 36.3496 33.1933L36.3432 33.1997Z" fill="#FADAAB" fill-opacity="0.2"/>
<path d="M35.5616 31.8734C35.5616 31.8734 35.5231 32.0015 35.5295 32.0015C35.9716 31.9695 36.4073 31.9439 36.8494 31.899C36.8686 31.899 36.875 31.8029 36.875 31.8029C36.4393 31.8157 36.0037 31.8478 35.568 31.8734H35.5616Z" fill="#FADAAB" fill-opacity="0.2"/>
<path d="M33.8188 16.381C33.8188 16.381 33.7675 16.4835 33.7675 16.5219C33.7034 17.9635 33.8636 19.4115 34.3377 20.7763C34.3377 20.7763 34.3762 20.7122 34.3698 20.6866C33.9918 19.2642 33.7803 17.861 33.8252 16.3874L33.8188 16.381Z" fill="#FADAAB" fill-opacity="0.2"/>
<path d="M16.5516 49.2816C15.3855 48.3718 13.7453 48.0386 12.419 47.3979C11.1696 46.7956 9.97147 46.078 8.93993 45.1362C6.37707 42.7976 5.82606 39.5363 5.26224 36.2879C4.692 33.0075 3.47464 30.4126 1.98178 27.4653C1.26418 26.0429 0.661908 24.5757 0.450473 22.9867C0.0660446 20.0907 0.879756 17.2203 1.59736 14.446C1.66783 14.1769 1.59735 14.1449 1.52046 14.4268C0.591428 17.6367 -0.324787 21.0966 0.283891 24.4539C0.963047 28.2341 3.66045 31.2775 4.52541 35.0257C5.28786 38.351 5.33271 42.0095 7.44066 44.8607C8.47221 46.251 9.901 47.2954 11.4195 48.1091C12.8419 48.8715 14.7384 49.9223 16.3786 49.9159C16.4683 49.9159 16.6221 49.3456 16.5516 49.288V49.2816Z" fill="#FADAAB" fill-opacity="0.2"/>
<path d="M25.009 16.932C25.0218 16.8487 24.977 16.9704 24.9706 16.9961C24.7848 18.0148 24.7271 19.1104 25.0154 20.1099C25.0154 20.1035 25.0667 20.001 25.0603 19.9626C24.9065 18.931 24.8296 17.9635 25.0026 16.932H25.009Z" fill="#FADAAB" fill-opacity="0.2"/>
<path d="M25.7394 18.041C25.7394 18.041 25.7525 18.0084 25.7459 18.0084C25.7394 18.0084 25.7329 18.041 25.7394 18.041Z" fill="#FADAAB" fill-opacity="0.2"/>
<path d="M26.2712 17.6751C26.0405 18.4632 25.8547 19.5204 26.175 20.3021C26.175 20.3021 26.2263 20.1867 26.2263 20.1611C26.1558 19.3026 26.0917 18.5337 26.3096 17.6816C26.3416 17.5534 26.3096 17.5406 26.2712 17.6751Z" fill="#FADAAB" fill-opacity="0.2"/>
<path d="M26.9631 18.0276C26.9823 17.9635 26.9759 17.8866 26.9439 17.9955C26.7965 18.444 26.7004 18.899 26.662 19.3731C26.6491 19.5076 26.5274 20.3982 26.8798 20.2124C26.899 20.1996 26.9439 20.0587 26.9182 20.0523C26.6748 19.9497 26.7324 19.5205 26.7452 19.3026C26.7581 18.8669 26.8414 18.444 26.9631 18.034V18.0276Z" fill="#FADAAB" fill-opacity="0.2"/>
<path d="M27.6616 18.7259C27.3989 19.1488 27.2451 19.6742 27.0529 20.1355C27.0401 20.1611 27.0016 20.3598 27.0401 20.2829C27.2515 19.8088 27.4886 19.3282 27.6552 18.8349C27.6552 18.822 27.6808 18.6939 27.6616 18.7259Z" fill="#FADAAB" fill-opacity="0.2"/>
<path d="M28.1741 19.3987C28.0075 19.7383 27.8666 20.0907 27.7448 20.4495C27.732 20.4815 27.7128 20.6353 27.7512 20.5264C28.0075 19.8793 28.3663 19.309 28.6739 18.6939C28.6867 18.6683 28.7123 18.5081 28.7059 18.5145C28.4624 18.726 28.3151 19.1104 28.1741 19.3987Z" fill="#FADAAB" fill-opacity="0.2"/>
<path d="M29.3018 19.3154C28.9686 19.7895 28.6547 20.3085 28.3791 20.8211C28.3535 20.8659 28.3471 21.0005 28.3407 21.0133C28.6739 20.5648 28.9814 20.0715 29.2569 19.5845C29.289 19.5269 29.3146 19.45 29.321 19.3795C29.321 19.3603 29.3402 19.2642 29.3018 19.3154Z" fill="#FADAAB" fill-opacity="0.2"/>
<path d="M29.3915 20.4559C29.2954 20.6289 29.1993 20.8019 29.1032 20.9749C29.0711 21.0326 29.0519 21.103 29.0455 21.1671C29.0455 21.1799 29.0327 21.276 29.0647 21.2248C29.2505 20.898 29.4684 20.5776 29.6157 20.2317C29.6285 20.1996 29.6542 20.0266 29.6478 20.033C29.5389 20.142 29.4684 20.3278 29.3915 20.4623V20.4559Z" fill="#FADAAB" fill-opacity="0.2"/>
<path d="M29.7566 20.8659C29.7438 20.9044 29.6925 21.0389 29.7181 21.071C29.7438 21.0966 29.7758 20.9749 29.7822 20.9685C29.8655 20.6865 30.0321 20.4431 30.1923 20.206C30.2051 20.1804 30.2243 20.0522 30.2243 20.0522C29.968 20.2316 29.8463 20.584 29.7566 20.8724V20.8659Z" fill="#FADAAB" fill-opacity="0.2"/>
<path d="M32.4349 21.0133C32.4349 21.0133 32.2875 21.2632 32.3452 21.3401C32.7296 21.8847 33.0179 22.5126 33.4216 23.0444C33.4216 23.0379 33.5113 22.8457 33.4921 22.8009C33.255 22.1602 32.8257 21.5707 32.4349 21.0133Z" fill="#FADAAB" fill-opacity="0.2"/>
<path d="M21.0493 26.8054C20.6393 26.6067 20.0049 26.9207 19.6333 27.1321C19.172 27.3948 18.8068 27.7728 18.5249 28.2277C18.5057 28.2598 18.5057 28.3495 18.4993 28.3559C18.7748 28.0035 19.1015 27.7024 19.4988 27.4845C19.9857 27.2218 20.5047 27.2282 20.9916 27.0168C21.0173 27.004 21.0814 26.8182 21.0493 26.8054Z" fill="#FADAAB" fill-opacity="0.2"/>
<path d="M20.697 26.1775C20.3446 26.0942 19.9409 26.139 19.5373 26.2479V26.2351C19.5373 26.2351 19.5373 26.2415 19.5309 26.2479C19.0567 26.3761 18.5826 26.5811 18.2238 26.7733C18.1982 26.7861 18.1982 26.9079 18.1918 26.9079C18.5826 26.7605 18.967 26.6324 19.3771 26.5491C19.7936 26.4658 20.2356 26.4786 20.6457 26.3761C20.6777 26.3697 20.7226 26.1839 20.697 26.1775Z" fill="#FADAAB" fill-opacity="0.2"/>
<path d="M20.7418 27.4333C20.5112 27.6255 20.2997 27.8305 20.1075 28.0548C20.0563 28.1125 20.0627 28.3111 20.0435 28.3303C20.2293 28.1189 20.4279 27.9203 20.6457 27.7409C20.87 27.555 21.1263 27.4013 21.3441 27.2026C21.3633 27.1834 21.3954 27.0168 21.389 27.0168C21.1455 27.0745 20.934 27.2795 20.7418 27.4333Z" fill="#FADAAB" fill-opacity="0.2"/>
<path d="M46.3255 14.824C45.736 13.9655 45.0825 13.1582 44.4482 12.338C44.4482 12.338 44.429 12.3701 44.4354 12.3829C45.0505 13.235 45.6399 14.1064 46.2999 14.9201C46.2999 14.9201 46.3383 14.8432 46.3255 14.824Z" fill="#FADAAB" fill-opacity="0.2"/>
<path d="M46.5754 16.3361C46.5754 16.3361 46.5498 16.3938 46.5562 16.4002C47.0688 16.8935 47.4084 17.4317 47.6903 18.0788C47.6903 18.0788 47.7351 17.9892 47.7287 17.9635C47.5557 17.3164 47.1264 16.7141 46.5754 16.3297V16.3361Z" fill="#FADAAB" fill-opacity="0.2"/>
<path d="M48.0619 19.5589C48.0619 19.5589 48.0235 19.623 48.0299 19.6486C48.5425 21.3337 48.7475 23.0252 48.6258 24.7871C48.6258 24.8256 48.6514 24.7423 48.6514 24.7295C48.818 22.9739 48.6322 21.2248 48.0555 19.5589H48.0619Z" fill="#FADAAB" fill-opacity="0.2"/>
<path d="M49.5099 23.6979C49.5099 24.5693 49.4073 25.4214 49.2151 26.2671C49.2023 26.312 49.2215 26.2928 49.2279 26.2608C49.4522 25.3702 49.5611 24.4732 49.5611 23.5569C49.5611 23.5377 49.5099 23.6659 49.5099 23.7043V23.6979Z" fill="#FADAAB" fill-opacity="0.2"/>
<path d="M50.3043 24.5693C50.3043 25.1715 50.3043 25.7802 50.3107 26.3825C50.3107 26.3953 50.3492 26.312 50.3492 26.2864C50.3492 25.6649 50.3492 25.0498 50.3556 24.4283C50.3556 24.4091 50.3043 24.5308 50.3043 24.5693Z" fill="#FADAAB" fill-opacity="0.2"/>
</svg>
